<svg xmlns="http://www.w3.org/2000/svg" viewBox="0 0 20 20"><title>PowerPoint_20x</title><path d="M10,1a9.026,9.026,0,0,0-9,9l11.249,2.659Z" fill="#ed6c47"/><path d="M10,1v9l4.5,2.913L19,10A9.026,9.026,0,0,0,10,1Z" fill="#ff8f6b"/><path d="M19,10A9,9,0,0,1,1,10Z" fill="#d35230"/><path d="M10.909,6H2.518a7.637,7.637,0,0,0-1.5,4.339A8.949,8.949,0,0,0,3.305,16H9.818A2.1,2.1,0,0,0,12,14V7A1.048,1.048,0,0,0,10.909,6Z" opacity="0.5"/><path d="M10.982,6.021,2.514,6.006a7.642,7.642,0,0,0-1.5,4.333A8.949,8.949,0,0,0,3.305,16H9.963A2.017,2.017,0,0,0,12,14V7.019A1.008,1.008,0,0,0,10.982,6.021Z" opacity="0.1"/><rect x="1" y="5" width="10" height="10" rx="1" fill="#c43e1c"/><path d="M6.283,7a2.274,2.274,0,0,1,1.56.481,1.766,1.766,0,0,1,.542,1.393,2.023,2.023,0,0,1-.268,1.042,1.828,1.828,0,0,1-.761.71,2.489,2.489,0,0,1-1.145.253H5.129V13H4.018V7ZM5.129,9.962h.955A1.2,1.2,0,0,0,6.929,9.7a1.009,1.009,0,0,0,.286-.777q0-.991-1.095-.991H5.129Z" fill="#fff"/></svg>