<svg xmlns="http://www.w3.org/2000/svg" xmlns:xlink="http://www.w3.org/1999/xlink" version="1.1" width="256" height="256" viewBox="0 0 256 256" xml:space="preserve">
<desc>Created with Fabric.js 1.7.22</desc>
<defs>
</defs>
<g transform="translate(128 128) scale(0.72 0.72)" style="">
	<g style="stroke: none; stroke-width: 0; stroke-dasharray: none; stroke-linecap: butt; stroke-linejoin: miter; stroke-miterlimit: 10; fill: none; fill-rule: nonzero; opacity: 1;" transform="translate(-175.05 -175.05000000000004) scale(3.89 3.89)" >
	<path d="M 56.107 89 H 36.237 c -11.979 0 -21.689 -9.711 -21.689 -21.689 v 0 c 0 -11.979 9.711 -21.689 21.689 -21.689 h 19.871 c 11.979 0 21.689 9.711 21.689 21.689 v 0 C 77.796 79.289 68.086 89 56.107 89 z" style="stroke: none; stroke-width: 1; stroke-dasharray: none; stroke-linecap: butt; stroke-linejoin: miter; stroke-miterlimit: 10; fill: rgb(234,234,234); fill-rule: nonzero; opacity: 1;" transform=" matrix(1 0 0 1 0 0) " stroke-linecap="round" />
	<path d="M 56.107 90 H 36.236 c -12.511 0 -22.689 -10.179 -22.689 -22.689 s 10.178 -22.689 22.689 -22.689 h 19.871 c 12.511 0 22.688 10.178 22.688 22.689 S 68.618 90 56.107 90 z M 36.236 46.621 c -11.408 0 -20.689 9.281 -20.689 20.689 S 24.829 88 36.236 88 h 19.871 c 11.407 0 20.688 -9.281 20.688 -20.689 s -9.281 -20.689 -20.688 -20.689 H 36.236 z" style="stroke: none; stroke-width: 1; stroke-dasharray: none; stroke-linecap: butt; stroke-linejoin: miter; stroke-miterlimit: 10; fill: rgb(29,29,27); fill-rule: nonzero; opacity: 1;" transform=" matrix(1 0 0 1 0 0) " stroke-linecap="round" />
	<path d="M 69.029 45.724 c 0 8.398 -10.234 15.206 -22.858 15.206 s -22.858 -6.808 -22.858 -15.206 H 69.029 z" style="stroke: none; stroke-width: 1; stroke-dasharray: none; stroke-linecap: butt; stroke-linejoin: miter; stroke-miterlimit: 10; fill: rgb(255,108,82); fill-rule: nonzero; opacity: 1;" transform=" matrix(1 0 0 1 0 0) " stroke-linecap="round" />
	<path d="M 46.172 61.931 c -13.155 0 -23.857 -7.27 -23.857 -16.206 c 0 -0.552 0.448 -1 1 -1 h 45.715 c 0.553 0 1 0.448 1 1 C 70.029 54.661 59.327 61.931 46.172 61.931 z M 24.368 46.725 c 0.792 7.368 10.269 13.206 21.804 13.206 s 21.012 -5.838 21.804 -13.206 H 24.368 z" style="stroke: none; stroke-width: 1; stroke-dasharray: none; stroke-linecap: butt; stroke-linejoin: miter; stroke-miterlimit: 10; fill: rgb(29,29,27); fill-rule: nonzero; opacity: 1;" transform=" matrix(1 0 0 1 0 0) " stroke-linecap="round" />
	<path d="M 50.548 66.994 c 0 2.417 -1.959 4.376 -4.376 4.376 s -4.376 -1.959 -4.376 -4.376 c 0 -2.417 1.959 -6.064 4.376 -6.064 S 50.548 64.577 50.548 66.994 z" style="stroke: none; stroke-width: 1; stroke-dasharray: none; stroke-linecap: butt; stroke-linejoin: miter; stroke-miterlimit: 10; fill: rgb(255,210,120); fill-rule: nonzero; opacity: 1;" transform=" matrix(1 0 0 1 0 0) " stroke-linecap="round" />
	<path d="M 46.172 72.37 c -2.964 0 -5.376 -2.412 -5.376 -5.376 c 0 -2.845 2.257 -7.063 5.376 -7.063 c 3.118 0 5.376 4.219 5.376 7.063 C 51.548 69.958 49.136 72.37 46.172 72.37 z M 46.172 61.931 c -1.63 0 -3.376 2.972 -3.376 5.063 c 0 1.861 1.515 3.376 3.376 3.376 s 3.376 -1.515 3.376 -3.376 C 49.548 64.902 47.802 61.931 46.172 61.931 z" style="stroke: none; stroke-width: 1; stroke-dasharray: none; stroke-linecap: butt; stroke-linejoin: miter; stroke-miterlimit: 10; fill: rgb(29,29,27); fill-rule: nonzero; opacity: 1;" transform=" matrix(1 0 0 1 0 0) " stroke-linecap="round" />
	<path d="M 74.071 27.576 c 0.396 -2.297 0.424 -4.837 -0.044 -7.54 C 72.258 9.808 63.947 0.928 58.267 1 c -2.952 1.546 -5.733 5.016 -7.03 9.832 c -1.646 -0.242 -3.337 -0.376 -5.065 -0.376 c -1.728 0 -3.419 0.133 -5.065 0.376 C 39.809 6.017 37.029 2.546 34.076 1 c -5.68 -0.072 -13.99 8.807 -15.76 19.035 c -0.468 2.703 -0.44 5.243 -0.044 7.54 c -0.926 2.41 -1.433 4.98 -1.433 7.651 c 0 13.68 13.133 19.679 29.332 19.679 s 29.332 -5.999 29.332 -19.679 C 75.504 32.556 74.997 29.986 74.071 27.576 z" style="stroke: none; stroke-width: 1; stroke-dasharray: none; stroke-linecap: butt; stroke-linejoin: miter; stroke-miterlimit: 10; fill: rgb(234,234,234); fill-rule: nonzero; opacity: 1;" transform=" matrix(1 0 0 1 0 0) " stroke-linecap="round" />
	<path d="M 46.172 55.905 c -18.993 0 -30.333 -7.73 -30.333 -20.678 c 0 -2.636 0.472 -5.243 1.403 -7.753 c -0.391 -2.453 -0.361 -5.011 0.089 -7.609 C 19.25 8.769 28.064 -0.105 34.089 0 c 0.157 0.002 0.312 0.041 0.451 0.114 c 3.23 1.692 5.912 5.248 7.285 9.612 c 2.912 -0.359 5.781 -0.359 8.693 0 c 1.372 -4.364 4.054 -7.92 7.285 -9.612 c 0.14 -0.073 0.294 -0.112 0.451 -0.114 c 0.025 0 0.052 0 0.078 0 c 6.018 0 14.768 8.815 16.68 19.865 c 0.449 2.596 0.479 5.154 0.089 7.609 c 0.931 2.511 1.402 5.118 1.402 7.753 C 76.504 48.175 65.165 55.905 46.172 55.905 z M 33.829 2.003 c -5.113 0.192 -12.872 8.638 -14.527 18.203 c -0.427 2.468 -0.442 4.89 -0.044 7.2 c 0.031 0.178 0.013 0.36 -0.052 0.529 c -0.907 2.359 -1.367 4.813 -1.367 7.292 c 0 11.696 10.592 18.678 28.333 18.678 c 17.74 0 28.332 -6.982 28.332 -18.678 c 0 -2.479 -0.46 -4.933 -1.366 -7.293 c -0.064 -0.168 -0.082 -0.351 -0.052 -0.528 c 0.397 -2.311 0.383 -4.733 -0.044 -7.2 c -1.654 -9.564 -9.413 -18.01 -14.526 -18.203 c -2.855 1.598 -5.204 4.974 -6.313 9.089 c -0.133 0.49 -0.622 0.799 -1.111 0.729 c -3.29 -0.484 -6.547 -0.484 -9.84 0 c -0.501 0.077 -0.979 -0.239 -1.111 -0.729 C 39.032 6.978 36.683 3.601 33.829 2.003 z" style="stroke: none; stroke-width: 1; stroke-dasharray: none; stroke-linecap: butt; stroke-linejoin: miter; stroke-miterlimit: 10; fill: rgb(29,29,27); fill-rule: nonzero; opacity: 1;" transform=" matrix(1 0 0 1 0 0) " stroke-linecap="round" />
	<path d="M 67.966 89 H 54.378 c -1.914 0 -3.466 -1.552 -3.466 -3.466 v -2.645 c 0 -5.667 4.594 -10.26 10.26 -10.26 h 0 c 5.667 0 10.26 4.594 10.26 10.26 v 2.645 C 71.432 87.448 69.88 89 67.966 89 z" style="stroke: none; stroke-width: 1; stroke-dasharray: none; stroke-linecap: butt; stroke-linejoin: miter; stroke-miterlimit: 10; fill: rgb(234,234,234); fill-rule: nonzero; opacity: 1;" transform=" matrix(1 0 0 1 0 0) " stroke-linecap="round" />
	<path d="M 67.966 90 H 54.378 c -2.463 0 -4.467 -2.004 -4.467 -4.467 v -2.645 c 0 -6.209 5.052 -11.26 11.261 -11.26 s 11.261 5.051 11.261 11.26 v 2.645 C 72.433 87.996 70.429 90 67.966 90 z M 61.172 73.629 c -5.106 0 -9.261 4.154 -9.261 9.26 v 2.645 c 0 1.36 1.106 2.467 2.467 2.467 h 13.588 c 1.36 0 2.467 -1.106 2.467 -2.467 v -2.645 C 70.433 77.783 66.278 73.629 61.172 73.629 z" style="stroke: none; stroke-width: 1; stroke-dasharray: none; stroke-linecap: butt; stroke-linejoin: miter; stroke-miterlimit: 10; fill: rgb(29,29,27); fill-rule: nonzero; opacity: 1;" transform=" matrix(1 0 0 1 0 0) " stroke-linecap="round" />
	<path d="M 37.966 89 H 24.378 c -1.914 0 -3.466 -1.552 -3.466 -3.466 v -2.645 c 0 -5.667 4.594 -10.26 10.26 -10.26 h 0 c 5.667 0 10.26 4.594 10.26 10.26 v 2.645 C 41.432 87.448 39.88 89 37.966 89 z" style="stroke: none; stroke-width: 1; stroke-dasharray: none; stroke-linecap: butt; stroke-linejoin: miter; stroke-miterlimit: 10; fill: rgb(234,234,234); fill-rule: nonzero; opacity: 1;" transform=" matrix(1 0 0 1 0 0) " stroke-linecap="round" />
	<path d="M 37.966 90 H 24.378 c -2.463 0 -4.467 -2.004 -4.467 -4.467 v -2.645 c 0 -6.209 5.052 -11.26 11.261 -11.26 s 11.26 5.051 11.26 11.26 v 2.645 C 42.432 87.996 40.429 90 37.966 90 z M 31.172 73.629 c -5.106 0 -9.261 4.154 -9.261 9.26 v 2.645 c 0 1.36 1.106 2.467 2.467 2.467 h 13.588 c 1.36 0 2.466 -1.106 2.466 -2.467 v -2.645 C 40.432 77.783 36.278 73.629 31.172 73.629 z" style="stroke: none; stroke-width: 1; stroke-dasharray: none; stroke-linecap: butt; stroke-linejoin: miter; stroke-miterlimit: 10; fill: rgb(29,29,27); fill-rule: nonzero; opacity: 1;" transform=" matrix(1 0 0 1 0 0) " stroke-linecap="round" />
	<path d="M 12.95 82.751 L 6.512 63.864 c -1.643 -4.82 0.933 -10.06 5.753 -11.703 l 0 0 c 4.82 -1.643 10.06 0.933 11.703 5.753 l 6.437 18.887 c 1.643 4.82 -0.933 10.06 -5.753 11.703 l 0 0 C 19.832 90.147 14.593 87.572 12.95 82.751 z" style="stroke: none; stroke-width: 1; stroke-dasharray: none; stroke-linecap: butt; stroke-linejoin: miter; stroke-miterlimit: 10; fill: rgb(243,181,137); fill-rule: nonzero; opacity: 1;" transform=" matrix(1 0 0 1 0 0) " stroke-linecap="round" />
	<path d="M 21.687 89.998 c -4.255 0 -8.236 -2.679 -9.684 -6.925 l 0 0 L 5.566 64.187 c -1.818 -5.334 1.042 -11.153 6.376 -12.972 c 2.585 -0.882 5.356 -0.702 7.807 0.502 c 2.45 1.205 4.284 3.292 5.165 5.876 l 6.437 18.887 c 1.818 5.334 -1.042 11.153 -6.376 12.972 C 23.887 89.822 22.778 89.998 21.687 89.998 z M 13.896 82.429 c 1.462 4.29 6.144 6.588 10.434 5.13 c 4.291 -1.463 6.592 -6.144 5.129 -10.435 l -6.438 -18.887 c -0.708 -2.078 -2.184 -3.757 -4.155 -4.726 c -1.971 -0.969 -4.201 -1.111 -6.279 -0.404 c -4.291 1.463 -6.592 6.144 -5.129 10.435 L 13.896 82.429 L 13.896 82.429 z" style="stroke: none; stroke-width: 1; stroke-dasharray: none; stroke-linecap: butt; stroke-linejoin: miter; stroke-miterlimit: 10; fill: rgb(29,29,27); fill-rule: nonzero; opacity: 1;" transform=" matrix(1 0 0 1 0 0) " stroke-linecap="round" />
	<path d="M 59.161 58.237 c 5.969 -2.643 13.113 -11.132 13.56 -16.562 H 83.74 c 1.504 8.067 -1.501 19.058 -8.014 24.665" style="stroke: none; stroke-width: 1; stroke-dasharray: none; stroke-linecap: butt; stroke-linejoin: miter; stroke-miterlimit: 10; fill: rgb(234,234,234); fill-rule: nonzero; opacity: 1;" transform=" matrix(1 0 0 1 0 0) " stroke-linecap="round" />
	<path d="M 83.74 41.675 H 72.721 c -1.552 0 -2.811 -1.258 -2.811 -2.811 v -2.144 c 0 -4.595 3.725 -8.32 8.32 -8.32 h 0 c 4.595 0 8.32 3.725 8.32 8.32 v 2.144 C 86.55 40.416 85.292 41.675 83.74 41.675 z" style="stroke: none; stroke-width: 1; stroke-dasharray: none; stroke-linecap: butt; stroke-linejoin: miter; stroke-miterlimit: 10; fill: rgb(234,234,234); fill-rule: nonzero; opacity: 1;" transform=" matrix(1 0 0 1 0 0) " stroke-linecap="round" />
	<path d="M 83.739 42.675 H 72.722 c -2.102 0 -3.812 -1.709 -3.812 -3.811 v -2.145 c 0 -5.139 4.181 -9.32 9.32 -9.32 s 9.32 4.181 9.32 9.32 v 2.145 C 87.551 40.965 85.841 42.675 83.739 42.675 z M 78.23 29.399 c -4.036 0 -7.32 3.284 -7.32 7.32 v 2.145 c 0 0.999 0.813 1.811 1.812 1.811 h 11.018 c 0.999 0 1.812 -0.813 1.812 -1.811 v -2.145 C 85.551 32.683 82.267 29.399 78.23 29.399 z" style="stroke: none; stroke-width: 1; stroke-dasharray: none; stroke-linecap: butt; stroke-linejoin: miter; stroke-miterlimit: 10; fill: rgb(29,29,27); fill-rule: nonzero; opacity: 1;" transform=" matrix(1 0 0 1 0 0) " stroke-linecap="round" />
	<path d="M 75.727 67.34 c -0.28 0 -0.56 -0.118 -0.758 -0.348 c -0.36 -0.418 -0.313 -1.05 0.105 -1.41 c 6.288 -5.415 8.843 -15.684 7.815 -22.907 h -9.294 C 72.495 48.708 65.549 57.104 59.872 59 c -0.524 0.177 -1.09 -0.108 -1.265 -0.632 s 0.107 -1.09 0.632 -1.265 c 5.564 -1.859 12.089 -10.694 12.485 -15.511 c 0.043 -0.519 0.477 -0.918 0.997 -0.918 h 11.018 c 0.481 0 0.895 0.343 0.983 0.817 c 1.687 9.049 -1.9 20.057 -8.344 25.606 C 76.19 67.26 75.958 67.34 75.727 67.34 z" style="stroke: none; stroke-width: 1; stroke-dasharray: none; stroke-linecap: butt; stroke-linejoin: miter; stroke-miterlimit: 10; fill: rgb(29,29,27); fill-rule: nonzero; opacity: 1;" transform=" matrix(1 0 0 1 0 0) " stroke-linecap="round" />
	<path d="M 5.047 50.702 l 9.447 -3.999 c 1.331 -0.563 2.867 0.059 3.43 1.39 l 0.778 1.839 c 1.668 3.94 -0.174 8.486 -4.114 10.153 l 0 0 c -3.94 1.668 -8.486 -0.174 -10.153 -4.114 l -0.778 -1.839 C 3.094 52.801 3.716 51.266 5.047 50.702 z" style="stroke: none; stroke-width: 1; stroke-dasharray: none; stroke-linecap: butt; stroke-linejoin: miter; stroke-miterlimit: 10; fill: rgb(234,234,234); fill-rule: nonzero; opacity: 1;" transform=" matrix(1 0 0 1 0 0) " stroke-linecap="round" />
	<path d="M 11.57 61.703 c -1.112 0 -2.224 -0.215 -3.285 -0.646 c -2.166 -0.877 -3.86 -2.545 -4.771 -4.697 l -0.778 -1.839 c -0.376 -0.889 -0.384 -1.872 -0.021 -2.768 s 1.052 -1.596 1.942 -1.973 l 0 0 l 9.447 -3.999 c 0.889 -0.377 1.872 -0.384 2.768 -0.021 c 0.896 0.362 1.596 1.053 1.973 1.942 l 0.778 1.838 c 1.88 4.441 -0.203 9.585 -4.644 11.465 C 13.882 61.47 12.727 61.703 11.57 61.703 z M 5.437 51.623 c -0.397 0.168 -0.706 0.481 -0.868 0.882 s -0.159 0.84 0.01 1.237 l 0.778 1.839 c 0.703 1.659 2.009 2.946 3.68 3.623 c 1.67 0.678 3.504 0.663 5.164 -0.04 c 3.425 -1.45 5.032 -5.418 3.582 -8.844 l -0.778 -1.838 c -0.347 -0.82 -1.296 -1.206 -2.12 -0.858 L 5.437 51.623 z" style="stroke: none; stroke-width: 1; stroke-dasharray: none; stroke-linecap: butt; stroke-linejoin: miter; stroke-miterlimit: 10; fill: rgb(29,29,27); fill-rule: nonzero; opacity: 1;" transform=" matrix(1 0 0 1 0 0) " stroke-linecap="round" />
	<path d="M 31.697 26.325 c -0.147 0 -0.297 -0.033 -0.438 -0.102 c -0.496 -0.243 -0.702 -0.841 -0.459 -1.337 c 0.871 -1.782 2.896 -2.933 5.16 -2.933 s 4.289 1.151 5.161 2.933 c 0.243 0.496 0.037 1.095 -0.459 1.338 c -0.497 0.241 -1.095 0.037 -1.338 -0.459 c -0.53 -1.083 -1.882 -1.812 -3.364 -1.812 c -1.482 0 -2.834 0.728 -3.363 1.811 C 32.423 26.119 32.067 26.325 31.697 26.325 z" style="stroke: none; stroke-width: 1; stroke-dasharray: none; stroke-linecap: butt; stroke-linejoin: miter; stroke-miterlimit: 10; fill: rgb(29,29,27); fill-rule: nonzero; opacity: 1;" transform=" matrix(1 0 0 1 0 0) " stroke-linecap="round" />
	<path d="M 52.121 26.325 c -0.147 0 -0.297 -0.032 -0.438 -0.102 c -0.497 -0.242 -0.702 -0.841 -0.46 -1.337 c 0.87 -1.782 2.896 -2.933 5.16 -2.933 c 2.264 0 4.289 1.151 5.16 2.933 c 0.242 0.496 0.037 1.095 -0.459 1.338 c -0.497 0.241 -1.095 0.037 -1.338 -0.459 c -0.53 -1.083 -1.882 -1.812 -3.363 -1.812 c -1.482 0 -2.834 0.728 -3.363 1.811 C 52.848 26.119 52.491 26.325 52.121 26.325 z" style="stroke: none; stroke-width: 1; stroke-dasharray: none; stroke-linecap: butt; stroke-linejoin: miter; stroke-miterlimit: 10; fill: rgb(29,29,27); fill-rule: nonzero; opacity: 1;" transform=" matrix(1 0 0 1 0 0) " stroke-linecap="round" />
	<path d="M 43.203 42.241 c -2.188 0 -3.969 -1.781 -3.969 -3.969 c 0 -0.552 0.448 -1 1 -1 s 1 0.448 1 1 c 0 1.086 0.883 1.969 1.969 1.969 c 1.085 0 1.969 -0.883 1.969 -1.969 c 0 -0.552 0.448 -1 1 -1 c 0.553 0 1 0.448 1 1 C 47.172 40.46 45.392 42.241 43.203 42.241 z" style="stroke: none; stroke-width: 1; stroke-dasharray: none; stroke-linecap: butt; stroke-linejoin: miter; stroke-miterlimit: 10; fill: rgb(29,29,27); fill-rule: nonzero; opacity: 1;" transform=" matrix(1 0 0 1 0 0) " stroke-linecap="round" />
	<path d="M 49.141 42.241 c -2.188 0 -3.969 -1.781 -3.969 -3.969 v -1.451 c 0 -0.552 0.448 -1 1 -1 c 0.553 0 1 0.448 1 1 v 1.451 c 0 1.086 0.883 1.969 1.969 1.969 s 1.969 -0.883 1.969 -1.969 c 0 -0.552 0.447 -1 1 -1 s 1 0.448 1 1 C 53.109 40.46 51.329 42.241 49.141 42.241 z" style="stroke: none; stroke-width: 1; stroke-dasharray: none; stroke-linecap: butt; stroke-linejoin: miter; stroke-miterlimit: 10; fill: rgb(29,29,27); fill-rule: nonzero; opacity: 1;" transform=" matrix(1 0 0 1 0 0) " stroke-linecap="round" />
	<path d="M 34.966 36.272 h -7.589 c -0.552 0 -1 -0.448 -1 -1 s 0.448 -1 1 -1 h 7.589 c 0.552 0 1 0.448 1 1 S 35.519 36.272 34.966 36.272 z" style="stroke: none; stroke-width: 1; stroke-dasharray: none; stroke-linecap: butt; stroke-linejoin: miter; stroke-miterlimit: 10; fill: rgb(29,29,27); fill-rule: nonzero; opacity: 1;" transform=" matrix(1 0 0 1 0 0) " stroke-linecap="round" />
	<path d="M 34.966 33.272 c -0.122 0 -0.247 -0.023 -0.367 -0.07 l -7.589 -3 c -0.514 -0.203 -0.765 -0.784 -0.563 -1.298 c 0.203 -0.514 0.783 -0.764 1.298 -0.563 l 7.589 3 c 0.514 0.203 0.765 0.784 0.563 1.298 C 35.741 33.033 35.364 33.272 34.966 33.272 z" style="stroke: none; stroke-width: 1; stroke-dasharray: none; stroke-linecap: butt; stroke-linejoin: miter; stroke-miterlimit: 10; fill: rgb(29,29,27); fill-rule: nonzero; opacity: 1;" transform=" matrix(1 0 0 1 0 0) " stroke-linecap="round" />
	<path d="M 27.378 42.272 c -0.398 0 -0.775 -0.24 -0.931 -0.633 c -0.203 -0.514 0.049 -1.095 0.563 -1.298 l 7.589 -3 c 0.515 -0.203 1.095 0.049 1.298 0.563 c 0.203 0.514 -0.049 1.095 -0.563 1.298 l -7.589 3 C 27.625 42.25 27.5 42.272 27.378 42.272 z" style="stroke: none; stroke-width: 1; stroke-dasharray: none; stroke-linecap: butt; stroke-linejoin: miter; stroke-miterlimit: 10; fill: rgb(29,29,27); fill-rule: nonzero; opacity: 1;" transform=" matrix(1 0 0 1 0 0) " stroke-linecap="round" />
	<path d="M 64.966 36.272 h -7.588 c -0.553 0 -1 -0.448 -1 -1 s 0.447 -1 1 -1 h 7.588 c 0.553 0 1 0.448 1 1 S 65.519 36.272 64.966 36.272 z" style="stroke: none; stroke-width: 1; stroke-dasharray: none; stroke-linecap: butt; stroke-linejoin: miter; stroke-miterlimit: 10; fill: rgb(29,29,27); fill-rule: nonzero; opacity: 1;" transform=" matrix(1 0 0 1 0 0) " stroke-linecap="round" />
	<path d="M 57.378 33.272 c -0.398 0 -0.774 -0.24 -0.93 -0.633 c -0.203 -0.514 0.049 -1.095 0.563 -1.298 l 7.588 -3 c 0.51 -0.201 1.094 0.048 1.297 0.563 c 0.203 0.514 -0.049 1.095 -0.563 1.298 l -7.588 3 C 57.625 33.25 57.501 33.272 57.378 33.272 z" style="stroke: none; stroke-width: 1; stroke-dasharray: none; stroke-linecap: butt; stroke-linejoin: miter; stroke-miterlimit: 10; fill: rgb(29,29,27); fill-rule: nonzero; opacity: 1;" transform=" matrix(1 0 0 1 0 0) " stroke-linecap="round" />
	<path d="M 64.966 42.272 c -0.123 0 -0.247 -0.023 -0.367 -0.07 l -7.588 -3 c -0.514 -0.203 -0.766 -0.784 -0.563 -1.298 c 0.203 -0.515 0.788 -0.763 1.297 -0.563 l 7.588 3 c 0.514 0.203 0.766 0.784 0.563 1.298 C 65.74 42.033 65.364 42.272 64.966 42.272 z" style="stroke: none; stroke-width: 1; stroke-dasharray: none; stroke-linecap: butt; stroke-linejoin: miter; stroke-miterlimit: 10; fill: rgb(29,29,27); fill-rule: nonzero; opacity: 1;" transform=" matrix(1 0 0 1 0 0) " stroke-linecap="round" />
	<path d="M 25.735 16.248 c -0.16 0 -0.323 -0.039 -0.474 -0.12 c -0.486 -0.262 -0.667 -0.869 -0.405 -1.355 c 1.55 -2.873 3.635 -5.396 5.869 -7.105 c 0.439 -0.335 1.066 -0.251 1.402 0.187 c 0.335 0.438 0.252 1.066 -0.187 1.402 c -2.014 1.541 -3.905 3.837 -5.324 6.466 C 26.436 16.058 26.091 16.248 25.735 16.248 z" style="stroke: none; stroke-width: 1; stroke-dasharray: none; stroke-linecap: butt; stroke-linejoin: miter; stroke-miterlimit: 10; fill: rgb(29,29,27); fill-rule: nonzero; opacity: 1;" transform=" matrix(1 0 0 1 0 0) " stroke-linecap="round" />
	<path d="M 66.608 16.247 c -0.355 0 -0.7 -0.19 -0.881 -0.525 c -1.42 -2.629 -3.311 -4.925 -5.324 -6.466 c -0.438 -0.336 -0.522 -0.963 -0.187 -1.402 c 0.335 -0.438 0.965 -0.522 1.401 -0.187 c 2.233 1.709 4.318 4.232 5.869 7.104 c 0.263 0.486 0.081 1.093 -0.404 1.355 C 66.932 16.208 66.769 16.247 66.608 16.247 z" style="stroke: none; stroke-width: 1; stroke-dasharray: none; stroke-linecap: butt; stroke-linejoin: miter; stroke-miterlimit: 10; fill: rgb(29,29,27); fill-rule: nonzero; opacity: 1;" transform=" matrix(1 0 0 1 0 0) " stroke-linecap="round" />
	<path d="M 49.147 32.698 c 0 -1.643 -1.332 -2.975 -2.975 -2.975 c -1.643 0 -2.975 1.332 -2.975 2.975 c 0 1.643 1.332 4.123 2.975 4.123 C 47.815 36.821 49.147 34.341 49.147 32.698 z" style="stroke: none; stroke-width: 1; stroke-dasharray: none; stroke-linecap: butt; stroke-linejoin: miter; stroke-miterlimit: 10; fill: rgb(172,167,167); fill-rule: nonzero; opacity: 1;" transform=" matrix(1 0 0 1 0 0) " stroke-linecap="round" />
	<path d="M 46.172 37.821 c -2.39 0 -3.975 -3.083 -3.975 -5.123 c 0 -2.192 1.783 -3.975 3.975 -3.975 c 2.192 0 3.976 1.783 3.976 3.975 C 50.147 34.738 48.562 37.821 46.172 37.821 z M 46.172 30.723 c -1.089 0 -1.975 0.886 -1.975 1.975 c 0 1.233 1.06 3.123 1.975 3.123 c 0.916 0 1.976 -1.89 1.976 -3.123 C 48.147 31.609 47.261 30.723 46.172 30.723 z" style="stroke: none; stroke-width: 1; stroke-dasharray: none; stroke-linecap: butt; stroke-linejoin: miter; stroke-miterlimit: 10; fill: rgb(29,29,27); fill-rule: nonzero; opacity: 1;" transform=" matrix(1 0 0 1 0 0) " stroke-linecap="round" />
</g>
</g>
</svg>