<svg xmlns="http://www.w3.org/2000/svg"  viewBox="0 0 48 48" width="48px" height="48px"><path fill="#0078d4" d="M43,8H24v32h19c1.105,0,2-0.895,2-2V10C45,8.895,44.105,8,43,8z"/><path fill="#1b9de2" d="M24,8H5c-1.105,0-2,0.895-2,2v28c0,1.105,0.895,2,2,2h19V8z"/><path fill="#1b9de2" d="M21,38c0,1.657,1.343,3,3,3v-6C22.343,35,21,36.343,21,38z"/><path fill="#0078d4" d="M27,38c0-1.657-1.343-3-3-3v6C25.657,41,27,39.657,27,38z"/><path fill="#fff" d="M24,8H6C5.448,8,5,8.448,5,9v28c0,0.552,0.448,1,1,1h18V8z"/><path fill="#f0f0f0" d="M42,8H24v30h18c0.552,0,1-0.448,1-1V9C43,8.448,42.552,8,42,8z"/><path d="M30,8v15.6c0,0.8,0.6,1.4,1.4,1.4c0.2,0,0.5-0.1,0.7-0.2L35,23l2.9,1.8	c0.2,0.1,0.4,0.2,0.7,0.2c0.4,0,0.7-0.1,1-0.4c0.2-0.3,0.4-0.6,0.4-1V8H30z" opacity=".05"/><path d="M30.5,8v15.5c0,0.5,0.4,0.9,0.9,0.9c0.2,0,0.4,0,0.5-0.1l3.1-1.9l3.1,2	c0.2,0.1,0.3,0.1,0.5,0.1c0.2,0,0.5-0.1,0.6-0.4c0.2-0.1,0.3-0.4,0.3-0.6V8H30.5z" opacity=".07"/><path fill="#cf1928" d="M39,8h-8v15.6c0,0.3,0.3,0.5,0.6,0.3l3.4-2.1l3.4,2.1c0.3,0.2,0.6,0,0.6-0.3V8z"/></svg>