<svg viewBox="0 0 20 20" xmlns="http://www.w3.org/2000/svg" class="-gn-144" focusable="false"><path d="M8.75 12C9.9926 12 11 13.0074 11 14.25V15.752L10.9921 15.8604C10.6814 17.9866 8.7715 19.009 5.56679 19.009C2.37361 19.009 0.4333 17.9983 0.0144601 15.8966L0 15.75V14.25C0 13.0074 1.00736 12 2.25 12H8.75ZM8.75 13.5H2.25C1.83579 13.5 1.5 13.8358 1.5 14.25V15.6704C1.77979 16.8708 3.05063 17.509 5.56679 17.509C8.0829 17.509 9.2966 16.8777 9.5 15.6932V14.25C9.5 13.8358 9.1642 13.5 8.75 13.5ZM5.5 4C7.433 4 9 5.567 9 7.5C9 9.433 7.433 11 5.5 11C3.567 11 2 9.433 2 7.5C2 5.567 3.567 4 5.5 4ZM17.75 0C18.9926 0 20 1.00736 20 2.25V5.75C20 6.99264 18.9926 8 17.75 8H16.2951L14.1286 10.1414C13.6375 10.6266 12.846 10.6219 12.3608 10.1308C12.1296 9.8968 12 9.5812 12 9.2526L11.9994 7.9862C10.8747 7.86155 10 6.90792 10 5.75V2.25C10 1.00736 11.0074 0 12.25 0H17.75ZM5.5 5.5C4.39543 5.5 3.5 6.39543 3.5 7.5C3.5 8.6046 4.39543 9.5 5.5 9.5C6.60457 9.5 7.5 8.6046 7.5 7.5C7.5 6.39543 6.60457 5.5 5.5 5.5ZM17.75 1.5H12.25C11.8358 1.5 11.5 1.83579 11.5 2.25V5.75C11.5 6.16421 11.8358 6.5 12.25 6.5H13.4986L13.4997 8.6539L15.6789 6.5H17.75C18.1642 6.5 18.5 6.16421 18.5 5.75V2.25C18.5 1.83579 18.1642 1.5 17.75 1.5Z"></path></svg>