<svg viewBox="0 0 32 32" size="32" class="sc-11csm01-0 fidkxa"><path d="M16,18 C14.8954305,18 14,17.1045695 14,16 C14,14.8954305 14.8954305,14 16,14
C17.1045695,14 18,14.8954305 18,16 C18,17.1045695 17.1045695,18 16,18 Z M9,18
C7.8954305,18 7,17.1045695 7,16 C7,14.8954305 7.8954305,14 9,14 C10.1045695,14 11,14.8954305 11,16
C11,17.1045695 10.1045695,18 9,18 Z M23,18 C21.8954305,18 21,17.1045695 21,16
C21,14.8954305 21.8954305,14 23,14 C24.1045695,14 25,14.8954305 25,16 C25,17.1045695 24.1045695,18 23,18 Z" transform=""></path></svg>