<svg viewBox="0 0 32 32" size="32" class="sc-11csm01-0 fidkxa"><path d="M17,9.91842728 L17,18.0042137 C17,18.5564985 16.5522847,19.0042137 16,19.0042137
C15.4477153,19.0042137 15,18.5564985 15,18.0042137 L15,9.91842728 L11.7071068,13.2113205
C11.3165825,13.6018448 10.6834175,13.6018448 10.2928932,13.2113205
C9.90236893,12.8207962 9.90236893,12.1876312 10.2928932,11.7971069 L16,6.09000015 L21.7071068,11.7971069
C22.0976311,12.1876312 22.0976311,12.8207962 21.7071068,13.2113205
C21.3165825,13.6018448 20.6834175,13.6018448 20.2928932,13.2113205 L17,9.91842728 Z
M25,17 L25,24 C25,25.6568542 23.6568542,27 22,27 L10,27 C8.34314575,27 7,25.6568542 7,24 L7,17
C7,16.4477153 7.44771525,16 8,16 C8.55228475,16 9,16.4477153 9,17 L9,24
C9,24.5522847 9.44771525,25 10,25 L22,25 C22.5522847,25 23,24.5522847 23,24 L23,17
C23,16.4477153 23.4477153,16 24,16 C24.5522847,16 25,16.4477153 25,17 Z" transform=""></path></svg>