<svg xmlns="http://www.w3.org/2000/svg" viewBox="0 0 48 48" width="32" height="32" fill="rgba(22, 24, 35, 1.0)"><path fill-rule="evenodd" d="M18 18c3.038 0 5.5-3.134 5.5-7S21.038 4 18 4s-5.5 3.134-5.5 7 2.462 7 5.5 7zm.744-4.521c.4-.51.756-1.373.756-2.479s-.356-1.97-.756-2.478C18.349 8.019 18.056 8 18 8c-.056 0-.349.019-.744.522-.4.509-.756 1.372-.756 2.478s.356 1.97.756 2.479c.395.502.688.521.744.521.056 0 .349-.019.744-.521zM9.5 28c3.038 0 5.5-2.91 5.5-6.5S12.538 15 9.5 15 4 17.91 4 21.5 6.462 28 9.5 28zm.835-4.488c.358-.422.665-1.12.665-2.012 0-.892-.307-1.59-.665-2.012-.35-.414-.66-.488-.835-.488-.176 0-.486.074-.836.488C8.307 19.91 8 20.608 8 21.5c0 .892.307 1.59.664 2.012.35.414.66.488.836.488.176 0 .486-.074.835-.488zM35.5 11c0 3.866-2.462 7-5.5 7s-5.5-3.134-5.5-7 2.462-7 5.5-7 5.5 3.134 5.5 7zm-4 0c0 1.106-.356 1.97-.756 2.479-.395.502-.688.521-.744.521-.056 0-.349-.019-.744-.521-.4-.51-.756-1.373-.756-2.479s.356-1.97.756-2.478C29.651 8.019 29.944 8 30 8c.056 0 .349.019.744.522.4.509.756 1.372.756 2.478zM38.5 28c3.038 0 5.5-2.91 5.5-6.5S41.538 15 38.5 15 33 17.91 33 21.5s2.462 6.5 5.5 6.5zm.836-4.488c.357-.422.664-1.12.664-2.012 0-.892-.307-1.59-.664-2.012-.35-.414-.66-.488-.836-.488-.175 0-.486.074-.836.488-.357.422-.664 1.12-.664 2.012 0 .892.307 1.59.664 2.012.35.414.66.488.836.488.175 0 .486-.074.836-.488zM16.508 25.027c2.978-6.721 12.04-6.697 14.985.04l1.193 2.73a7.78 7.78 0 001.81 2.57C39.586 35.123 36.398 44 29.6 44H18.42c-6.802 0-10.005-8.87-4.93-13.65a7.799 7.799 0 001.777-2.521l1.241-2.802zM29.601 40H18.42c-1.44 0-2.613-.884-3.157-2.391-.548-1.518-.259-3.19.97-4.348a11.8 11.8 0 002.69-3.812l1.242-2.802c1.567-3.537 6.11-3.53 7.662.022l1.193 2.73a11.782 11.782 0 002.744 3.89c1.228 1.147 1.52 2.812.977 4.326-.54 1.504-1.707 2.385-3.14 2.385z" clip-rule="evenodd"></path></svg>