<svg xmlns="http://www.w3.org/2000/svg" viewBox="0 0 48 48" width="32" height="32" fill="rgba(22, 24, 35, 1.0)"><path fill-rule="evenodd" d="M24.928 4.25a5.99 5.99 0 011.903.705l13.257 7.654a3.692 3.692 0 011.351 5.043.308.308 0 01-.42.113L30.027 11.42l-10.5 18.186 10.601 6.677a.5.5 0 01.167.673l-1.02 1.765a.5.5 0 01-.665.192l-11.083-5.843-1.25 2.166L27.27 41.58a.308.308 0 01.113.42 3.692 3.692 0 01-5.044 1.352L9.08 35.699a5.99 5.99 0 01-2.9-6.294 5.99 5.99 0 01.704-1.902L18.635 7.15a5.99 5.99 0 016.293-2.9zM12.813 33.236l13.75-23.816-.866-.5a3 3 0 00-4.098 1.098l-10.75 18.62a3 3 0 001.098 4.098l.866.5z" clip-rule="evenodd"></path><path d="M28.527 14.017l10.601 6.677a.5.5 0 01.167.673l-1.02 1.765a.5.5 0 01-.665.192l-11.083-5.843 2-3.464zM36.128 25.89l-10.601-6.676-2 3.464L34.61 28.52a.5.5 0 00.666-.192l1.019-1.765a.5.5 0 00-.167-.673zM22.527 24.41l10.601 6.677a.5.5 0 01.167.673l-1.02 1.764a.5.5 0 01-.665.193l-11.083-5.843 2-3.464z"></path></svg>