<svg xmlns="http://www.w3.org/2000/svg" viewBox="0 0 48 48" width="32" height="32" fill="rgba(22, 24, 35, 1.0)"><path d="M38.61 4.402c.032-.114.048-.171.06-.196a.368.368 0 01.66 0c.012.025.028.082.06.195l.032.114c.065.23.098.344.133.45.55 1.67 1.897 2.986 3.622 3.54.11.035.228.068.465.133.076.022.114.032.132.039a.344.344 0 010 .646 2.093 2.093 0 01-.132.039c-.236.065-.355.098-.465.134-1.725.553-3.072 1.869-3.622 3.538-.035.107-.068.221-.133.45l-.032.114v.001c-.032.113-.048.17-.06.195a.368.368 0 01-.66 0c-.012-.025-.028-.082-.06-.195l-.032-.114c-.065-.23-.098-.344-.133-.45-.55-1.67-1.897-2.986-3.622-3.54a12.93 12.93 0 00-.465-.133c-.076-.022-.114-.032-.132-.039a.344.344 0 010-.646c.018-.007.056-.017.132-.039.236-.065.355-.098.465-.134 1.725-.553 3.072-1.869 3.622-3.538.035-.107.068-.221.133-.45l.032-.114z"></path><path fill-rule="evenodd" d="M24 44c-9.389 0-17-7.611-17-17 0-7.649 5.051-14.118 12-16.253V10a2 2 0 012-2h1V5a1 1 0 011-1h2a1 1 0 011 1v3h1a2 2 0 012 2v.747C35.949 12.882 41 19.351 41 27c0 9.389-7.611 17-17 17zm13.91-17c0 1.062-.12 2.097-.346 3.09H31.6a37.224 37.224 0 000-6.18h5.964c.226.993.345 2.028.345 3.09zm-9.413-3.09c.09.99.14 2.023.14 3.09 0 1.067-.05 2.1-.14 3.09h-8.994c-.09-.99-.14-2.023-.14-3.09 0-1.067.05-2.1.14-3.09h8.994zm2.704-3.092h5.262a13.958 13.958 0 00-7.478-6.807c.975 1.813 1.743 4.147 2.216 6.807zM24 13.091c.176 0 1.346.298 2.65 3.167.573 1.26 1.058 2.804 1.406 4.56h-8.112c.348-1.756.833-3.3 1.406-4.56 1.304-2.869 2.474-3.167 2.65-3.167zm-4.985.92c-.975 1.813-1.743 4.147-2.216 6.807h-5.262a13.958 13.958 0 017.478-6.807zm-2.216 19.17h-5.262a13.958 13.958 0 007.478 6.808c-.975-1.813-1.743-4.147-2.216-6.807zm12.186 6.808l.018-.032-.002.026-.016.006zm-.93-6.807c-.347 1.756-.832 3.3-1.405 4.56-1.304 2.869-2.474 3.167-2.65 3.167-.176 0-1.346-.298-2.65-3.167-.573-1.26-1.058-2.804-1.406-4.56h8.112z" clip-rule="evenodd"></path><path d="M7.688 36.322c.026-.092.039-.137.048-.157a.294.294 0 01.528 0c.01.02.022.065.048.157l.026.09c.052.184.078.276.106.36.44 1.336 1.517 2.389 2.897 2.831.088.029.183.055.372.107h.001c.06.018.091.026.105.032a.275.275 0 010 .517l-.105.03h-.002c-.188.053-.283.08-.37.108-1.38.442-2.458 1.495-2.898 2.83a9.43 9.43 0 00-.106.36l-.026.091a1.601 1.601 0 01-.048.157.294.294 0 01-.528 0 1.601 1.601 0 01-.048-.157l-.026-.09a9.431 9.431 0 00-.106-.36c-.44-1.336-1.517-2.389-2.898-2.831a10.268 10.268 0 00-.372-.108l-.105-.03a.275.275 0 010-.517c.014-.006.044-.014.105-.031h.001c.189-.053.284-.08.371-.108 1.38-.442 2.458-1.495 2.898-2.83.028-.086.054-.177.106-.36l.026-.091z"></path></svg>