<svg xmlns="http://www.w3.org/2000/svg" viewBox="0 0 48 48" width="32" height="32" fill="rgba(22, 24, 35, 1.0)"><path fill-rule="evenodd" d="M32.573 31.34c-.029-.197-.06-.397-.092-.597-.35-2.196-.869-4.52-1.175-5.489a11.393 11.393 0 00-2.836-4.657 11.31 11.31 0 00-4.668-2.793c-.987-.301-3.444-.95-5.729-1.4a46.377 46.377 0 00-.49-.094L11.06 37.91l21.514-6.569zm11.167.414c-.058.388-.339.703-.713.817L5.672 43.977a.522.522 0 01-.649-.653L16.291 6.023c.112-.372.42-.652.8-.715 3.497-.578 7.081-.34 10.477.695a23.13 23.13 0 019.547 5.712 23.3 23.3 0 015.801 9.525 23.397 23.397 0 01.825 10.514zM26.016 10.47c-2.265-.691-4.117-1.07-5.955-1.06l-.827 2.91.459.096c2.157.456 4.322 1.03 5.332 1.338 2.412.736 4.61 2.05 6.403 3.831a15.628 15.628 0 013.892 6.39c.363 1.152.855 3.368 1.21 5.44l.026.158 2.82-.81c.102-1.968-.152-3.766-.802-5.826a19.063 19.063 0 00-4.747-7.794 18.926 18.926 0 00-7.811-4.673zm-9.223 15.98a2.097 2.097 0 012.977 0 2.124 2.124 0 010 2.993 2.097 2.097 0 01-2.977 0 2.124 2.124 0 010-2.992zm10.42 0a2.097 2.097 0 00-2.977 0 2.124 2.124 0 000 2.993 2.097 2.097 0 002.977 0 2.124 2.124 0 000-2.992z" clip-rule="evenodd"></path></svg>