<svg xmlns="http://www.w3.org/2000/svg" viewBox="0 0 24 28" width="32" height="32" fill="rgba(22, 24, 35, 1.0)"><mask id="sports_svg__a"><path d="M17.122 8.493c.81.385 1.57.859 2.266 1.408l4.465-7.734a1 1 0 00-.866-1.5h-7.02a1 1 0 00-.868.505L11.586 7.34a12.046 12.046 0 012.92.262l2.43-4.267h3.165l-2.979 5.159zM4.608 9.856a12 12 0 012.275-1.394L3.922 3.333h3.164l2.146 3.77 1.535-2.695-1.843-3.236a1 1 0 00-.87-.505h-7.02a1 1 0 00-.865 1.5l4.44 7.689zM13.092 16.122l-.805-2.48a.333.333 0 00-.634 0l-.806 2.48a.333.333 0 01-.317.23H7.923a.333.333 0 00-.196.603l2.11 1.532a.333.333 0 01.12.373l-.805 2.48c-.1.306.252.562.513.372l2.109-1.532a.333.333 0 01.392 0l2.108 1.532a.333.333 0 00.514-.373l-.806-2.48a.333.333 0 01.121-.372l2.109-1.532a.333.333 0 00-.196-.603H13.41a.333.333 0 01-.317-.23z"></path><path fill-rule="evenodd" d="M11.97 27.333a9.333 9.333 0 100-18.666 9.333 9.333 0 000 18.666zm0-2.666a6.667 6.667 0 100-13.334 6.667 6.667 0 000 13.334z" clip-rule="evenodd"></path></mask><path d="M17.122 8.493c.81.385 1.57.859 2.266 1.408l4.465-7.734a1 1 0 00-.866-1.5h-7.02a1 1 0 00-.868.505L11.586 7.34a12.046 12.046 0 012.92.262l2.43-4.267h3.165l-2.979 5.159zM4.608 9.856a12 12 0 012.275-1.394L3.922 3.333h3.164l2.146 3.77 1.535-2.695-1.843-3.236a1 1 0 00-.87-.505h-7.02a1 1 0 00-.865 1.5l4.44 7.689zM13.092 16.122l-.805-2.48a.333.333 0 00-.634 0l-.806 2.48a.333.333 0 01-.317.23H7.923a.333.333 0 00-.196.603l2.11 1.532a.333.333 0 01.12.373l-.805 2.48c-.1.306.252.562.513.372l2.109-1.532a.333.333 0 01.392 0l2.108 1.532a.333.333 0 00.514-.373l-.806-2.48a.333.333 0 01.121-.372l2.109-1.532a.333.333 0 00-.196-.603H13.41a.333.333 0 01-.317-.23z"></path><path fill-rule="evenodd" d="M11.97 27.333a9.333 9.333 0 100-18.666 9.333 9.333 0 000 18.666zm0-2.666a6.667 6.667 0 100-13.334 6.667 6.667 0 000 13.334z" clip-rule="evenodd"></path><path d="M19.388 9.9l-2.475 3.143 3.63 2.858 2.31-4-3.465-2zm-2.266-1.407l-3.464-2-2.165 3.75 3.91 1.861 1.719-3.611zm6.732-6.326l3.464 2-3.465-2zm-.867-1.5v-4 4zm-7.02 0v4-4zm-.868.505l3.476 1.98-3.476-1.98zM11.586 7.34L8.11 5.36 4.58 11.562l7.133-.224-.126-3.998zm2.92.263l-.842 3.91 2.867.617 1.45-2.548-3.475-1.98zm2.43-4.268v-4h-2.325l-1.15 2.02 3.475 1.98zm3.165 0l3.464 2 3.464-6h-6.928v4zM6.883 8.461l1.697 3.622 3.945-1.85-2.178-3.772-3.464 2zM4.608 9.856l-3.464 2 2.296 3.976 3.624-2.819-2.456-3.157zm-.686-6.523v-4h-6.929l3.465 6 3.464-2zm3.164 0l3.476-1.98-1.15-2.02H7.085v4zm2.146 3.77L5.757 9.081l3.475 6.103 3.476-6.103-3.476-1.98zm1.535-2.695l3.476 1.98 1.127-1.98-1.127-1.98-3.476 1.98zM8.924 1.172L12.4-.808l-3.476 1.98zm-8.755.995l-3.464 2 3.464-2zm12.118 11.475l3.804-1.236-3.804 1.236zm.805 2.48l3.804-1.236-3.804 1.236zm-1.44-2.48l3.805 1.236-3.804-1.236zm-.805 2.48l-3.804-1.236 3.804 1.236zm-3.12.833l2.351-3.236-2.35 3.236zm2.11 1.532l-2.352 3.236 2.351-3.236zm.12.373l3.805 1.236-3.805-1.236zm-.805 2.48l3.804 1.235-3.804-1.236zm.513.372l-2.351-3.236 2.35 3.236zm2.109-1.532l-2.351-3.236 2.35 3.236zm.392 0l2.35-3.236-2.35 3.236zm2.108 1.532l-2.35 3.236 2.35-3.236zm.514-.373l3.804-1.236-3.804 1.236zm-.806-2.48l-3.804 1.237 3.804-1.236zm.121-.372l2.351 3.236-2.351-3.236zm2.109-1.532l-2.351-3.236 2.351 3.236zm5.651-10.197a16.005 16.005 0 00-3.021-1.877l-3.44 7.223a8 8 0 011.511.94l4.95-6.286zM20.39.167L15.924 7.9l6.928 4 4.466-7.734-6.929-4zm2.599 4.5c-2.31 0-3.753-2.5-2.599-4.5l6.929 4c1.924-3.334-.482-7.5-4.33-7.5v8zm-7.02 0h7.02v-8h-7.02v8zm2.607-1.515a3 3 0 01-2.607 1.515v-8a5 5 0 00-4.345 2.526l6.952 3.959zm-3.513 6.167l3.513-6.167-6.952-3.96L8.11 5.36l6.952 3.959zM11.97 3.333c-.17 0-.34.003-.51.008l.252 7.996c.085-.002.171-.004.258-.004v-8zm3.377.358a16.048 16.048 0 00-3.377-.358v8c.585 0 1.152.063 1.694.18l1.683-7.822zm-1.886-2.337L11.03 5.622l6.952 3.96 2.43-4.269-6.951-3.959zm6.64-2.02h-3.165v8h3.165v-8zm.485 11.159l2.979-5.16-6.928-4-2.98 5.16 6.93 4zM5.185 4.84a16 16 0 00-3.033 1.859l4.912 6.314a8.001 8.001 0 011.516-.93L5.185 4.84zm-4.727.493l2.96 5.129 6.929-4-2.961-5.129-6.928 4zm6.628-6H3.922v8h3.164v-8zm5.622 5.79l-2.146-3.77-6.952 3.96 2.147 3.769 6.951-3.96zM7.291 2.428L5.757 5.123l6.951 3.959 1.535-2.694-6.952-3.96zm-1.843.723l1.843 3.236 6.952-3.958L12.4-.808l-6.952 3.96zm2.607 1.516A3 3 0 015.448 3.15L12.4-.808a5 5 0 00-4.345-2.525v8zm-7.02 0h7.02v-8h-7.02v8zm2.598-4.5c1.155 2-.289 4.5-2.598 4.5v-8c-3.85 0-6.255 4.166-4.33 7.5l6.928-4zm4.44 7.689L3.632.166l-6.928 4 4.44 7.69 6.927-4zM14.635 18a2.667 2.667 0 01-2.666 2.667v8c5.89 0 10.666-4.776 10.666-10.667h-8zm-2.666-2.667A2.667 2.667 0 0114.636 18h8c0-5.891-4.775-10.667-10.666-10.667v8zM9.303 18a2.667 2.667 0 012.667-2.667v-8C6.079 7.333 1.303 12.11 1.303 18h8zm2.667 2.667A2.667 2.667 0 019.303 18h-8c0 5.891 4.776 10.667 10.667 10.667v-8zM17.303 18a5.333 5.333 0 01-5.333 5.333v8c7.363 0 13.333-5.97 13.333-13.333h-8zm-5.333-5.333A5.333 5.333 0 0117.303 18h8c0-7.364-5.97-13.333-13.333-13.333v8zM6.636 18a5.333 5.333 0 015.334-5.333v-8C4.606 4.667-1.364 10.637-1.364 18h8zm5.334 5.333A5.333 5.333 0 016.636 18h-8c0 7.364 5.97 13.333 13.334 13.333v-8zm-3.488-8.455l.806 2.48 7.608-2.473-.805-2.479-7.609 2.472zm6.975 0c-1.098 3.379-5.877 3.378-6.975 0l7.609-2.472c-1.297-3.992-6.945-3.992-8.243 0l7.609 2.472zm-.806 2.48l.806-2.48-7.609-2.472-.805 2.48 7.608 2.472zm-4.12 2.994a4.333 4.333 0 004.12-2.994l-7.608-2.473a3.667 3.667 0 013.487-2.533v8zm-2.608 0h2.607v-8H7.923v8zm2.155-6.633c2.874 2.088 1.397 6.633-2.155 6.633v-8c-4.198 0-5.943 5.372-2.547 7.839l4.702-6.472zm2.11 1.532l-2.11-1.532-4.702 6.472 2.11 1.532 4.701-6.472zm1.574 4.845a4.333 4.333 0 00-1.575-4.845l-4.702 6.472a3.667 3.667 0 01-1.332-4.1l7.609 2.473zm-.806 2.48l.806-2.48-7.609-2.472-.805 2.479 7.608 2.472zm-5.642-4.1c2.873-2.088 6.74.721 5.642 4.1l-7.608-2.473c-1.298 3.992 3.272 7.312 6.668 4.845l-4.702-6.472zm2.109-1.532l-2.11 1.532 4.703 6.472 2.109-1.532-4.702-6.473zm5.094 0a4.333 4.333 0 00-5.094 0l4.702 6.472a3.667 3.667 0 01-4.31 0l4.702-6.473zm2.109 1.532l-2.11-1.532-4.702 6.472 2.11 1.532 4.702-6.472zm-5.643 4.1c-1.097-3.379 2.769-6.188 5.643-4.1l-4.703 6.472c3.396 2.467 7.966-.853 6.669-4.845l-7.609 2.472zm-.805-2.48l.805 2.48 7.609-2.473-.806-2.48-7.608 2.473zm1.574-4.845a4.333 4.333 0 00-1.574 4.845l7.608-2.472a3.667 3.667 0 01-1.332 4.1l-4.702-6.473zm2.109-1.532l-2.11 1.532 4.703 6.472 2.11-1.532-4.703-6.472zm2.155 6.633c-3.552 0-5.029-4.545-2.155-6.633l4.702 6.472c3.396-2.467 1.65-7.84-2.547-7.84v8zm-2.607 0h2.607v-8H13.41v8zm-4.121-2.994a4.333 4.333 0 004.121 2.994v-8a3.667 3.667 0 013.487 2.534l-7.608 2.472z" mask="url(#sports_svg__a)"></path></svg>