<svg width="40" height="40" viewBox="0 0 40 40" fill="none" xmlns="http://www.w3.org/2000/svg">
<path d="M20 27C24.4 27 28 23.4 28 19V9C28 4.6 24.4 1 20 1C15.6 1 12 4.6 12 9V19C12 23.4 15.6 27 20 27ZM17 17H14V15H17C17.6 15 18 14.6 18 14C18 13.4 17.6 13 17 13H14V11H17C17.6 11 18 10.6 18 10C18 9.4 17.6 9 17 9H14C14 5.7 16.7 3 20 3C23.3 3 26 5.7 26 9H23C22.4 9 22 9.4 22 10C22 10.6 22.4 11 23 11H26V13H23C22.4 13 22 13.4 22 14C22 14.6 22.4 15 23 15H26V17H23C22.4 17 22 17.4 22 18C22 18.6 22.4 19 23 19H26C26 22.3 23.3 25 20 25C16.7 25 14 22.3 14 19H17C17.6 19 18 18.6 18 18C18 17.4 17.6 17 17 17ZM31 16.3C30.4 16.3 30 16.7 30 17.3V19C30 24.5 25.5 29 20 29C14.5 29 10 24.5 10 19V17.3C10 16.7 9.6 16.3 9 16.3C8.4 16.3 8 16.7 8 17.3V19C8 25.3 12.9 30.4 19 30.9C19 30.9 19 30.9 19 31V34H16C14.3 34 13 35.3 13 37C13 38.7 14.3 40 16 40H24C25.7 40 27 38.7 27 37C27 35.3 25.7 34 24 34H21V31C21 31 21 31 21 30.9C27.2 30.4 32 25.2 32 19V17.3C32 16.8 31.6 16.3 31 16.3ZM25 37C25 37.6 24.6 38 24 38H16C15.4 38 15 37.6 15 37C15 36.4 15.4 36 16 36H24C24.6 36 25 36.4 25 37Z" fill="#7F8D9F"/>
</svg>
