<svg width="38" height="40" viewBox="0 0 38 40" fill="none" xmlns="http://www.w3.org/2000/svg">
<path d="M37.8 36.5994L36.6 32.4994C36.4 31.9994 35.9 31.6994 35.4 31.7994C34.9 31.9994 34.6 32.4994 34.7 32.9994L35.2 34.7994L30.1 32.0994C29.6 31.7994 29 31.9994 28.7 32.4994C28.4 32.9994 28.6 33.5994 29.1 33.8994L34.2 36.5994L32.5 37.0994C32 37.2994 31.7 37.7994 31.8 38.2994C31.9 38.6994 32.3 38.9994 32.8 38.9994C32.9 38.9994 33 38.9994 33.1 38.9994L37.2 37.7994C37.3 37.7994 37.4 37.6994 37.5 37.6994C37.5 37.6994 37.5 37.6994 37.6 37.5994C37.7 37.4994 37.8 37.3994 37.8 37.2994C37.9 37.1994 37.9 37.0994 37.9 36.8994C37.9 36.7994 37.8 36.6994 37.8 36.5994Z" fill="#7F8D9F"/>
<path d="M16.7 5.29961L18 3.99961V6.99961C18 7.59961 18.4 7.99961 19 7.99961C19.6 7.99961 20 7.59961 20 6.99961V3.99961L21.3 5.29961C21.5 5.49961 21.8 5.59961 22 5.59961C22.2 5.59961 22.5 5.49961 22.7 5.29961C23.1 4.89961 23.1 4.29961 22.7 3.89961L19.7 0.899609C19.3 0.499609 18.7 0.499609 18.3 0.899609L15.3 3.89961C14.9 4.29961 14.9 4.89961 15.3 5.29961C15.7 5.69961 16.3 5.69961 16.7 5.29961Z" fill="#7F8D9F"/>
<path d="M7.90001 32.1L2.80001 34.8L3.30001 33C3.50001 32.5 3.20001 31.9 2.60001 31.8C2.10001 31.6 1.50001 31.9 1.40001 32.5L0.200012 36.6C0.200012 36.7 0.200012 36.8 0.200012 37C0.200012 37.1 0.200012 37.3 0.300012 37.4C0.400012 37.5 0.400012 37.6 0.500012 37.7C0.500012 37.7 0.500012 37.7 0.600012 37.8C0.700012 37.9 0.800012 37.9 0.900012 37.9L5.00001 39.1C5.10001 39.1 5.20001 39.1 5.30001 39.1C5.70001 39.1 6.10001 38.8 6.30001 38.4C6.50001 37.9 6.20001 37.3 5.60001 37.2L3.90001 36.7L9.00001 34C9.50001 33.7 9.70001 33.1 9.40001 32.6C9.00001 32 8.40001 31.9 7.90001 32.1Z" fill="#7F8D9F"/>
<path d="M19.5 19.2994C20.1627 19.2994 20.7 18.7622 20.7 18.0994C20.7 17.4367 20.1627 16.8994 19.5 16.8994C18.8372 16.8994 18.3 17.4367 18.3 18.0994C18.3 18.7622 18.8372 19.2994 19.5 19.2994Z" fill="#7F8D9F"/>
<path d="M14.5 19.2994C15.1627 19.2994 15.7 18.7622 15.7 18.0994C15.7 17.4367 15.1627 16.8994 14.5 16.8994C13.8372 16.8994 13.3 17.4367 13.3 18.0994C13.3 18.7622 13.8372 19.2994 14.5 19.2994Z" fill="#7F8D9F"/>
<path d="M28 18.0996C28 13.0996 24 9.09961 19 9.09961C14 9.09961 10 13.0996 10 18.0996C10 21.5996 12.1 24.6996 15 26.1996L11.6 31.7996C11.1 32.5996 10.9 33.5996 11.2 34.5996C11.4 35.4996 12 36.2996 12.8 36.7996C14.4 37.7996 16.7 38.2996 19.1 38.2996C21.5 38.2996 23.8 37.7996 25.4 36.7996C26.2 36.2996 26.8 35.4996 27 34.5996C27.2 33.6996 27.1 32.6996 26.6 31.7996L23.1 26.0996C26 24.5996 28 21.5996 28 18.0996ZM24.8 32.7996C25 33.1996 25.1 33.5996 25 33.9996C24.9 34.3996 24.7 34.6996 24.3 34.9996C23.1 35.7996 21.1 36.1996 19 36.1996C16.9 36.1996 15 35.6996 13.7 34.9996C13.4 34.7996 13.1 34.4996 13 33.9996C12.9 33.5996 13 33.0996 13.2 32.7996L16.8 26.7996C17.5 26.9996 18.1 26.9996 18.8 26.9996C19.6 26.9996 20.3 26.8996 21 26.6996L24.8 32.7996ZM19 25.0996C15.1 25.0996 12 21.9996 12 18.0996C12 14.1996 15.1 11.0996 19 11.0996C22.9 11.0996 26 14.1996 26 18.0996C26 21.9996 22.9 25.0996 19 25.0996Z" fill="#7F8D9F"/>
</svg>
