<svg width="40" height="40" viewBox="0 0 40 40" fill="none" xmlns="http://www.w3.org/2000/svg">
<path d="M29 13H21V11H30C31.7 11 33 9.7 33 8C33 6.3 31.7 5 30 5H12C11.4 5 11 5.4 11 6C11 6.6 11.4 7 12 7H30C30.6 7 31 7.4 31 8C31 8.6 30.6 9 30 9H20C19.4 9 19 9.4 19 10V13H11C4.9 13 0 17.9 0 24C0 30.1 4.9 35 11 35H29C35.1 35 40 30.1 40 24C40 17.9 35.1 13 29 13ZM29 33H11C6 33 2 29 2 24C2 19 6 15 11 15H29C34 15 38 19 38 24C38 29 34 33 29 33ZM14 24C14 24.6 13.6 25 13 25H11V27C11 27.6 10.6 28 10 28C9.4 28 9 27.6 9 27V25H7C6.4 25 6 24.6 6 24C6 23.4 6.4 23 7 23H9V21C9 20.4 9.4 20 10 20C10.6 20 11 20.4 11 21V23H13C13.6 23 14 23.4 14 24ZM34 26C34 27.1 33.1 28 32 28C30.9 28 30 27.1 30 26C30 24.9 30.9 24 32 24C33.1 24 34 24.9 34 26ZM30 22C30 23.1 29.1 24 28 24C26.9 24 26 23.1 26 22C26 20.9 26.9 20 28 20C29.1 20 30 20.9 30 22ZM23.5 28C23.5 28.6 23.1 29 22.5 29H21.5C20.9 29 20.5 28.6 20.5 28C20.5 27.4 20.9 27 21.5 27H22.5C23.1 27 23.5 27.4 23.5 28ZM19.5 28C19.5 28.6 19.1 29 18.5 29H17.5C16.9 29 16.5 28.6 16.5 28C16.5 27.4 16.9 27 17.5 27H18.5C19.1 27 19.5 27.4 19.5 28Z" fill="#7F8D9F"/>
</svg>
