<svg width="41" height="40" viewBox="0 0 41 40" fill="none" xmlns="http://www.w3.org/2000/svg">
<g clip-path="url(#clip0)">
<path d="M38.7 6.9C37.9 6.1 35.9 5.5 33.5 5.5C31.8 5.5 25.8 5.8 21.4 10.2C21.4 10.2 21.4 10.3 21.3 10.3C20.8 10.3 20.4 10.2 19.9 10.2C19.5 10.2 19 10.2 18.6 10.3C18.6 10.3 18.6 10.2 18.5 10.2C14.3 5.9 8.3 5.5 6.6 5.5C4.2 5.5 2.2 6 1.4 6.9C-0.800002 9.1 -0.700002 18.3 4.4 23.9C4.3 24.5 4.3 25.2 4.3 25.8C4.3 28.3 4.9 30.8 6.1 33C6.4 33.5 7 33.7 7.5 33.4C8 33.1 8.2 32.5 7.9 32C6.8 30 6.3 27.9 6.3 25.7C6.3 25 6.4 24.3 6.5 23.6V23.5C7.6 17.1 13.3 12.2 20.1 12.2C27.7 12.2 33.9 18.3 33.9 25.7C33.9 27.9 33.4 30 32.3 32C32 32.5 32.2 33.1 32.7 33.4C32.9 33.5 33 33.5 33.2 33.5C33.6 33.5 33.9 33.3 34.1 33C35.3 30.8 35.9 28.3 35.9 25.8C35.9 25.2 35.9 24.6 35.8 24C40.8 18.4 40.9 9.1 38.7 6.9ZM2.8 8.3C3.1 8 4.4 7.5 6.6 7.5C8 7.5 12.6 7.8 16.2 10.7C14.9 11 13.6 11.5 12.4 12.2L12.7 11.9C11.1 10.3 8.4 10 6.7 10C5.6 10 4.7 10.9 4.7 12.1C4.7 13.8 4.9 16.4 6.4 18.1C5.8 19.1 5.3 20.2 5 21.3C1.3 16.3 1.8 9.3 2.8 8.3ZM33.5 7.5C35.7 7.5 37 8 37.3 8.3C38.3 9.3 38.9 16.4 35.1 21.4C34.8 20.3 34.3 19.2 33.7 18.1C35.3 16.4 35.5 13.8 35.5 12.1C35.5 11 34.6 10.1 33.5 10C31.7 10 29.1 10.2 27.5 11.9L27.9 12.3C26.7 11.6 25.3 11.1 23.9 10.7C27.5 7.8 32.1 7.5 33.5 7.5Z" fill="#7F8D9F"/>
</g>
<defs>
<clipPath id="clip0">
<rect width="40.1" height="40" fill="white"/>
</clipPath>
</defs>
</svg>
