<svg width="40" height="40" viewBox="0 0 40 40" fill="none" xmlns="http://www.w3.org/2000/svg">
<path d="M37 15C37 14.7 37 14.4 36.9 14.1C36.5 13 35.6 12.2 34.4 12L26.9 10.9C26.6 10.9 26.3 10.6 26.1 10.4L22.7 3.7C22.2 2.6 21.2 2 20 2C18.8 2 17.8 2.6 17.3 3.7L13.9 10.4C13.8 10.7 13.5 10.9 13.1 10.9L5.6 12C4.4 12.2 3.5 13 3.1 14.1C3 14.3 3 14.7 3 15V19C3 19.1 3 19.2 3 19.2C3.1 19.9 3.4 20.5 3.9 21L9.1 26L8.3 30.4C8.3 30.6 8.3 30.7 8.3 30.9V34.9C8.3 35 8.3 35.1 8.3 35.1C8.4 36 8.9 36.9 9.7 37.4C10.2 37.7 10.7 37.9 11.3 37.9C11.8 37.9 12.3 37.8 12.7 37.6L19.5 34.1C19.8 33.9 20.2 33.9 20.5 34.1L27.3 37.6C28.3 38.1 29.4 38.1 30.3 37.5C31.1 37 31.6 36.1 31.7 35.2C31.7 35.1 31.7 35 31.7 35V31C31.7 30.8 31.7 30.7 31.7 30.5L30.9 26.1L36.1 21.1C36.6 20.6 36.9 20 37 19.3C37 19.2 37 19.1 37 19V15ZM5 14.6C5.2 14.3 5.5 14 5.9 14L13.4 12.9C14.4 12.8 15.2 12.2 15.7 11.3L19.1 4.6C19.5 3.9 20.6 3.9 20.9 4.6L24.3 11.3C24.7 12.2 25.6 12.8 26.6 12.9L34.1 14C34.5 14.1 34.8 14.3 34.9 14.7C35 14.9 35 15.3 34.6 15.7L29.1 20.9C28.4 21.6 28.1 22.6 28.2 23.6L29.5 31C29.6 31.5 29.3 31.8 29.1 31.9C28.8 32.1 28.4 32.2 28 32L21.2 28.5C20.8 28.3 20.3 28.2 19.8 28.2C19.3 28.2 18.8 28.3 18.4 28.5L11.6 32C11.2 32.2 10.8 32.2 10.5 31.9C10.4 31.8 10 31.5 10.1 31L11.4 23.6C11.6 22.6 11.2 21.6 10.5 20.9L5 15.7C4.9 15.2 5 14.8 5 14.6ZM5.3 19.6C5.1 19.4 5 19.2 5 19C5 18.9 5 18.9 5 18.8V18.1L9.4 22.3C9.6 22.5 9.7 22.8 9.7 23.2L9.6 23.8L5.3 19.6ZM29.6 35C29.6 35.3 29.4 35.7 29.1 35.8C29 35.9 28.6 36.1 28.1 35.8L21.3 32.3C20.4 31.8 19.4 31.9 18.5 32.3L11.7 35.8C11.2 36 10.8 35.9 10.7 35.8C10.4 35.6 10.2 35.3 10.2 35C10.2 34.9 10.2 34.9 10.2 34.8V33.8C11 34.1 11.9 34 12.6 33.6L19.4 30.1C19.7 29.9 20.1 29.9 20.4 30.1L27.2 33.6C27.6 33.8 28.1 33.9 28.6 33.9C28.9 33.9 29.3 33.8 29.6 33.7V34.7C29.6 34.9 29.6 34.9 29.6 35ZM35 19C35 19.3 34.9 19.5 34.7 19.7L30.4 23.8L30.3 23.2C30.2 22.9 30.4 22.6 30.6 22.3L35 18.1V18.8C35 18.9 35 18.9 35 19Z" fill="#7F8D9F"/>
</svg>
