<svg width="40" height="40" viewBox="0 0 40 40" fill="none" xmlns="http://www.w3.org/2000/svg">
<path d="M36.9001 3.09996C36.4001 2.59996 35.6001 2.39996 34.9001 2.59996L31 3.79996L23.2001 6.19996C22.4001 6.39996 21.7001 6.89996 21.1 7.39996L2.70005 25.8C1.50005 27 1.50005 28.9 2.70005 30L9.90005 37.2C10.5 37.8 11.3 38.1 12 38.1C12.8 38.1 13.5 37.8 14.1 37.2L32.5 18.8C33.1 18.2 33.5 17.5 33.7001 16.7L37.3 4.99996C37.6 4.39996 37.4001 3.59996 36.9001 3.09996ZM4.10005 27.2L22.5 8.79996C22.5 8.79996 22.5 8.79996 22.6 8.69996C22.6 8.79996 22.7 8.89996 22.8 8.99996L24 10.2L4.90005 29.4L4.20005 28.7C3.70005 28.3 3.70005 27.6 4.10005 27.2ZM28.3 14.6L9.20005 33.7L6.30005 30.8L25.4 11.7L28.3 14.6ZM31.2001 17.4L12.7 35.9C12.3 36.3 11.7 36.3 11.3 35.9L10.6 35.2L29.7001 16L30.9 17.2C31 17.2 31.1 17.3 31.2001 17.4ZM32.1 15.5L30.4 13.8L26.1 9.49996L24.4 7.79996L30.7001 5.99996C31.4001 7.49996 32.6 8.69996 34 9.39996L32.1 15.5Z" fill="#7F8D9F"/>
</svg>
