<svg height="28" viewBox="0 0 28 28" width="28" class="a8c37x1j ms05siws hwsy1cff b7h9ocf4 o9l3ebpd mlqo0dh0 mudddibn ciadx1gn"><path class="ofq5nk8a" d="M4.973 8c-.854 0-1.75.646-1.919 1.656-.272 1.631.546 8.789 1.044 11.101.22 1.02.855 1.997 1.585 2.514" stroke-linecap="round" stroke-linejoin="round" stroke-width="1.5"></path><path class="ofq5nk8a" clip-rule="evenodd" d="M8 20.5c0 1.345-.597 3.285-2.317 2.771.76.54 1.67.799 3.089.979 1.968.25 4.428.25 6.642.25 2.214 0 3.69 0 5.658-.25 2.783-.354 4.428-1 4.428-3.5V6a2 2 0 00-2-2H10a2 2 0 00-2 2v14.5z" stroke-linecap="round" stroke-linejoin="round" stroke-width="1.5"></path><path class="em6zcovv" clip-rule="evenodd" d="M16.75 10.25a3 3 0 11-6 0 3 3 0 016 0zM5.349 15.896a170.9 170.9 0 01-.82-5.646l-.092-.707-.047-.352c-.015-.117-.032-.23-.041-.387a2.823 2.823 0 01.455-1.782c.365-.552.96-.91 1.55-1.079.293-.084.622-.107.823-.127l.694-.061.015-.002a.75.75 0 01.157 1.492c-.461.057-1.038.082-1.307.145a1.405 1.405 0 00-.774.467c-.186.23-.3.542-.303.907l.026 1.394c.046 1.901.063 3.804.045 5.709a.192.192 0 01-.381.029z" fill-rule="evenodd"></path><path class="em6zcovv" clip-rule="evenodd" d="M11.25 17.25h11a.5.5 0 00.5-.5v-.5a.5.5 0 00-.5-.5h-11a.5.5 0 00-.5.5v.5a.5.5 0 00.5.5zM11.25 20.75h11a.5.5 0 00.5-.5v-.5a.5.5 0 00-.5-.5h-11a.5.5 0 00-.5.5v.5a.5.5 0 00.5.5z" fill="#231F20"></path></svg>