<svg viewBox="0 0 21 21" class="jg bld bbf rt ru" focusable="false"><path d="M7.73509 0.821996C7.89367 0.775492 8.06567 0.75 8.25 0.75C9.34613 0.75 9.99564 1.65054 9.99564 2.5V6.17294C10.2877 6.07156 10.6264 6.00057 11.0035 6.00057C12.4015 6.00057 13.5 7.03158 13.5 8.5C13.5 8.74196 13.3833 8.96906 13.1865 9.10988L11.4693 10.3389L10.5146 11.1713C9.8759 11.7283 9.30213 12.3556 8.80426 13.0414L8.20587 13.8656C7.6885 14.5782 6.86113 15 5.9805 15H4.34181C3.41074 15 2.518 14.527 2.03678 13.6887C1.73471 13.1624 1.36076 12.471 1.06013 11.7866C0.774129 11.1356 0.5 10.3739 0.5 9.75V3.75C0.5 2.89589 1.15814 2 2.25 2C2.35996 2 2.46553 2.00909 2.56646 2.0263C2.75877 1.34453 3.35934 0.75 4.25 0.75C4.4323 0.75 4.60446 0.775679 4.76445 0.822754C5.05308 0.350911 5.56681 0 6.25 0C6.93282 0 7.44637 0.350535 7.73509 0.821996ZM6.06917 1.57039C6.02604 1.61722 6 1.68471 6 1.74838V2.41364C6.00102 2.44679 6.00102 2.48005 6 2.51331V6.25002C6 6.66423 5.66421 7.00002 5.25 7.00002C4.83579 7.00002 4.5 6.66423 4.5 6.25002V2.44838C4.49628 2.41157 4.47882 2.36521 4.44151 2.32515C4.40403 2.28491 4.3457 2.25 4.25 2.25C4.15469 2.25 4.10326 2.28301 4.06924 2.32003C4.02661 2.36641 4 2.43431 4 2.5002V6.75057C4 7.16478 3.66421 7.50057 3.25 7.50057C2.83579 7.50057 2.5 7.16478 2.5 6.75057V3.75C2.5 3.68497 2.47358 3.61706 2.43055 3.57029C2.39604 3.53278 2.34437 3.5 2.25 3.5C2.15563 3.5 2.10396 3.53278 2.06945 3.57029C2.02642 3.61706 2 3.68497 2 3.75V9.75C2 10.0296 2.14872 10.5352 2.43345 11.1833C2.70355 11.7982 3.04823 12.4376 3.33769 12.9419C3.53399 13.2839 3.91193 13.5 4.34181 13.5H5.9805C6.38079 13.5 6.75686 13.3083 6.99203 12.9844L7.59042 12.1601C8.15468 11.3829 8.80494 10.672 9.52885 10.0408L10.5106 9.18471C10.5287 9.16895 10.5475 9.15407 10.567 9.14012L11.9505 8.14992C11.8257 7.74188 11.4744 7.50057 11.0035 7.50057C10.3666 7.50057 9.91395 7.90045 9.76168 8.03496C9.74974 8.0455 9.73965 8.05442 9.73146 8.06138C9.50873 8.25076 9.19626 8.29345 8.93089 8.17076C8.66552 8.04807 8.49564 7.78236 8.49564 7.49V2.5C8.49564 2.43257 8.46866 2.36436 8.42677 2.31855C8.39368 2.28235 8.3439 2.25 8.25 2.25C8.15468 2.25 8.1031 2.28302 8.06911 2.31991C8.02673 2.36593 8 2.43351 8 2.5V6.25002C8 6.66423 7.66421 7.00002 7.25 7.00002C6.83579 7.00002 6.5 6.66423 6.5 6.25002V1.74838C6.5 1.68471 6.47396 1.61722 6.43083 1.57039C6.39623 1.53282 6.34441 1.5 6.25 1.5C6.15559 1.5 6.10377 1.53282 6.06917 1.57039Z"></path><path d="M11.5 14C12.0523 14 12.5 13.5523 12.5 13C12.5 12.4477 12.0523 12 11.5 12C10.9477 12 10.5 12.4477 10.5 13C10.5 13.5523 10.9477 14 11.5 14Z"></path><path d="M15.5 14C16.0523 14 16.5 13.5523 16.5 13C16.5 12.4477 16.0523 12 15.5 12C14.9477 12 14.5 12.4477 14.5 13C14.5 13.5523 14.9477 14 15.5 14Z"></path><path d="M13.4999 21C10.2986 21 7.5992 18.851 6.76562 15.9169C7.26712 15.8095 7.74008 15.6005 8.15559 15.3047C8.74135 17.7124 10.9119 19.5 13.4999 19.5C16.5375 19.5 18.9999 17.0375 18.9999 14C18.9999 11.3031 17.0589 9.05954 14.4976 8.59022C14.4991 8.56025 14.4999 8.53015 14.4999 8.49996C14.4999 7.96676 14.3929 7.473 14.2002 7.03455C17.7374 7.38587 20.4999 10.3703 20.4999 14C20.4999 17.8659 17.3659 21 13.4999 21Z"></path><path d="M11.6977 15.7327C11.4105 15.4342 10.9357 15.425 10.6372 15.7121C10.3387 15.9993 10.3295 16.474 10.6166 16.7726C11.3434 17.5282 12.3671 17.9999 13.4997 17.9999C14.6323 17.9999 15.656 17.5282 16.3828 16.7726C16.67 16.474 16.6608 15.9993 16.3622 15.7121C16.0637 15.425 15.5889 15.4342 15.3018 15.7327C14.846 16.2065 14.2078 16.4999 13.4997 16.4999C12.7917 16.4999 12.1534 16.2065 11.6977 15.7327Z"></path></svg>