<?xml version="1.0" encoding="iso-8859-1"?>
<!-- Generator: Adobe Illustrator 22.0.1, SVG Export Plug-In . SVG Version: 6.00 Build 0)  -->
<svg version="1.1" xmlns="http://www.w3.org/2000/svg" xmlns:xlink="http://www.w3.org/1999/xlink" x="0px" y="0px"
	 viewBox="0 0 512 512" style="enable-background:new 0 0 512 512;" xml:space="preserve">
<g id="BULINE">
	<path id="XMLID_2610_" style="fill:#574865;" d="M512,256c0,70.692-28.654,134.692-74.981,181.019S326.692,512,256,512
		s-134.692-28.654-181.019-74.981S0,326.692,0,256S28.654,121.308,74.981,74.981S185.308,0,256,0s134.692,28.654,181.019,74.981
		S512,185.308,512,256z"/>
</g>
<g id="Icons">
	<g id="XMLID_2810_">
		<g id="XMLID_801_">
			<path id="XMLID_2622_" style="fill:#483C56;" d="M478.4,382.85c-10.36,18.135-22.88,34.882-37.207,49.891
				S410.73,461.02,393.14,472.2c-5.43,3.455-11,6.71-16.699,9.753s-11.526,5.876-17.471,8.486
				c-10.215,4.495-20.777,8.34-31.636,11.485s-22.014,5.59-33.414,7.285c-2.55,0.38-5.11,0.72-7.681,1.022s-5.154,0.568-7.749,0.797
				c-3.705,0.32-7.432,0.563-11.181,0.725S259.79,512,256,512c-3.42,0-6.825-0.068-10.214-0.201s-6.761-0.334-10.116-0.599
				c-2.505-0.195-5-0.428-7.484-0.696s-4.956-0.574-7.416-0.914c-5.535-0.76-11.013-1.698-16.428-2.807s-10.767-2.392-16.052-3.842
				c-5.62-1.535-11.163-3.257-16.62-5.16s-10.83-3.985-16.11-6.24c-6.805-2.905-13.455-6.095-19.938-9.555
				s-12.798-7.19-18.933-11.175c-29.345-19.07-54.537-43.99-73.924-73.106S9.8,335.275,3.68,299.42
				c13.875-19.785,32.175-36.245,53.463-47.941s45.563-18.629,71.388-19.359c0.315-0.01,0.627-0.02,0.94-0.029
				s0.625-0.016,0.94-0.021c0.45-0.005,0.9-0.01,1.35-0.014s0.9-0.006,1.35-0.006c8.78,0,17.39,0.715,25.776,2.091
				s16.549,3.414,24.434,6.059h0.005h0.005c0.06,0.02,0.12,0.04,0.18,0.061s0.12,0.044,0.18,0.069c6.95,2.34,13.683,5.152,20.16,8.4
				s12.7,6.93,18.63,11.01c1.575,1.08,3.128,2.19,4.66,3.327s3.045,2.303,4.54,3.492c1.8,1.44,3.57,2.92,5.308,4.439
				s3.442,3.076,5.112,4.671c2.575,2.45,5.068,4.99,7.473,7.614s4.723,5.331,6.947,8.116c0,0,0,0,0.001,0s0.004,0,0.009,0
				c0.005,0.005,0.008,0.01,0.01,0.015s0.005,0.01,0.01,0.015c1.28,1.595,2.527,3.217,3.742,4.866
				c1.215,1.649,2.398,3.324,3.548,5.024c0.54,0.785,1.07,1.575,1.591,2.371s1.034,1.599,1.539,2.409
				c3.38,5.37,6.443,10.957,9.164,16.736s5.101,11.749,7.116,17.883c2.47-1.26,4.977-2.457,7.52-3.588s5.12-2.196,7.73-3.191
				c3.955-1.52,7.99-2.882,12.095-4.082s8.28-2.237,12.515-3.108c1.11-0.23,2.225-0.448,3.345-0.651s2.245-0.394,3.375-0.569
				c4.095-0.66,8.245-1.16,12.442-1.495s8.442-0.505,12.728-0.505c9.37,0,18.55,0.815,27.472,2.38s17.587,3.88,25.927,6.88
				l0.005,0.005l0.005,0.005c13.875,4.975,26.853,11.84,38.621,20.285S469.36,371.555,478.4,382.85z"/>
			<g id="XMLID_802_">
				<path id="XMLID_2558_" style="fill:#CC3333;" d="M407.182,331.046c-17.84-25.899-23.269-44.257-24.239-56.14
					c-0.97-11.883,2.521-17.291,2.521-17.291c4.788-34.704,5.178-64.142,2.779-89.015s-7.588-45.181-13.959-61.623
					c-7.744-25.001-22.941-46.551-42.886-61.852s-44.639-24.35-71.378-24.35c-13.252,0-26.001,2.224-37.919,6.331
					c-11.918,4.106-23.004,10.095-32.932,17.623l-0.256-0.083l-0.256-0.083c0,0-20.142,11.097-37.376,43.277
					s-31.559,85.443-19.924,169.776c0,0,3.49,5.408,2.521,17.291c-0.97,11.883-6.399,30.241-24.239,56.14
					c0,0-13.598,18.078-15.458,38.752c-1.86,20.674,8.017,43.945,54.967,54.329h52.447h52.447h4.368h4.368h52.447h52.447
					c46.95-10.384,56.828-33.655,54.967-54.329C420.78,349.124,407.182,331.046,407.182,331.046z"/>
				<path id="XMLID_2557_" style="fill:#B93333;" d="M306.026,29.441c-4.789,1.96-9.424,4.23-13.886,6.786
					c-4.461,2.556-8.748,5.397-12.839,8.5l-0.253-0.083l-0.253-0.083c0,0-20.142,11.097-37.375,43.278
					s-31.557,85.443-19.922,169.775c0,0,3.488,5.409,2.517,17.292c-0.971,11.883-6.401,30.241-24.236,56.138
					c0,0-13.598,18.078-15.458,38.753c-1.86,20.674,8.017,43.945,54.966,54.328h-44.131h-44.131
					c-46.949-10.384-56.826-33.654-54.966-54.328c1.86-20.674,15.458-38.753,15.458-38.753c17.841-25.897,23.27-44.255,24.24-56.138
					c0.97-11.883-2.521-17.292-2.521-17.292c-11.635-84.332,2.689-137.595,19.922-169.775s37.375-43.278,37.375-43.278l0.259,0.083
					l0.259,0.083c9.929-7.529,21.016-13.517,32.933-17.623c11.917-4.106,24.664-6.33,37.913-6.33c7.793,0,15.41,0.768,22.787,2.235
					C292.059,24.477,299.195,26.644,306.026,29.441z"/>
				<path id="XMLID_2617_" style="fill:#EFA580;" d="M393.14,472.2c-5.43,3.455-11,6.71-16.699,9.753s-11.526,5.876-17.471,8.486
					c-10.215,4.495-20.777,8.34-31.636,11.485s-22.014,5.59-33.414,7.285c-2.55,0.38-5.11,0.72-7.681,1.022
					s-5.154,0.568-7.749,0.797c-3.705,0.32-7.432,0.563-11.181,0.725S259.79,512,256,512c-3.42,0-6.825-0.068-10.214-0.201
					s-6.761-0.334-10.116-0.599c-2.505-0.195-5-0.428-7.484-0.696s-4.956-0.574-7.416-0.914c-5.535-0.76-11.013-1.698-16.428-2.807
					s-10.767-2.392-16.052-3.842c-5.62-1.535-11.163-3.257-16.62-5.16s-10.83-3.985-16.11-6.24
					c-6.805-2.905-13.455-6.095-19.938-9.555s-12.798-7.19-18.933-11.175l3.955-27.31l3.955-27.31l0.06-0.42l0.06-0.42l0.295-2.025
					l0.295-2.025c0.155-1.06,0.32-2.117,0.499-3.17s0.371-2.1,0.581-3.14c0.205-1.04,0.425-2.075,0.656-3.105
					s0.474-2.055,0.724-3.075c0,0,0,0,0-0.001s0-0.004,0-0.009c0.11-0.415,0.217-0.825,0.326-1.232s0.219-0.812,0.334-1.217
					c0.25-0.95,0.515-1.892,0.793-2.829s0.568-1.866,0.868-2.791c0.11-0.335,0.217-0.665,0.326-0.994s0.219-0.656,0.334-0.986
					c0.34-0.985,0.692-1.965,1.055-2.941s0.735-1.949,1.115-2.919c1.68-4.195,3.585-8.275,5.698-12.224s4.433-7.766,6.943-11.436
					c1.145-1.675,2.33-3.32,3.554-4.933s2.486-3.192,3.786-4.737c0.22-0.255,0.44-0.515,0.663-0.774s0.447-0.516,0.677-0.766
					c0.215-0.25,0.435-0.5,0.656-0.749s0.444-0.496,0.664-0.741c0.285-0.315,0.572-0.63,0.861-0.944s0.579-0.626,0.869-0.936
					c0.255-0.27,0.51-0.54,0.766-0.809s0.514-0.536,0.774-0.801c0.21-0.22,0.427-0.443,0.647-0.664s0.442-0.441,0.663-0.656
					c0.095-0.1,0.193-0.197,0.29-0.293s0.195-0.191,0.29-0.286c0.07-0.07,0.143-0.14,0.215-0.21s0.145-0.14,0.215-0.21
					c0.07-0.07,0.14-0.14,0.211-0.208s0.144-0.136,0.219-0.201c0.07-0.07,0.14-0.14,0.211-0.209s0.144-0.136,0.219-0.201
					c0.22-0.215,0.442-0.428,0.666-0.638s0.449-0.417,0.674-0.622c0.175-0.165,0.35-0.328,0.526-0.49s0.354-0.325,0.534-0.49
					c0.185-0.165,0.373-0.333,0.561-0.5s0.379-0.335,0.569-0.5c0.06-0.055,0.12-0.108,0.179-0.159s0.116-0.101,0.171-0.151
					c0.085-0.075,0.17-0.15,0.255-0.224s0.17-0.146,0.255-0.216c0.15-0.13,0.302-0.26,0.456-0.39s0.309-0.26,0.464-0.39
					c0.04-0.035,0.082-0.07,0.125-0.105s0.085-0.07,0.125-0.105c0.25-0.21,0.5-0.42,0.753-0.629s0.508-0.416,0.768-0.621
					c0.6-0.49,1.205-0.972,1.815-1.447s1.225-0.943,1.845-1.403c0.15-0.115,0.3-0.227,0.45-0.339s0.3-0.221,0.45-0.331
					c0.145-0.11,0.292-0.217,0.441-0.324s0.299-0.211,0.449-0.316c0.015-0.015,0.03-0.027,0.045-0.039s0.03-0.021,0.045-0.031
					c0.15-0.11,0.3-0.218,0.45-0.324s0.3-0.211,0.45-0.316c0.14-0.105,0.285-0.207,0.431-0.307s0.294-0.197,0.439-0.292
					c0.05-0.04,0.098-0.078,0.145-0.113s0.095-0.068,0.145-0.097c0.35-0.235,0.7-0.47,1.05-0.704s0.7-0.466,1.05-0.696
					s0.705-0.457,1.061-0.684s0.714-0.451,1.069-0.676c0.23-0.145,0.46-0.287,0.69-0.427s0.46-0.277,0.69-0.412
					c0.13-0.08,0.26-0.158,0.39-0.235s0.26-0.155,0.39-0.235c0.02-0.01,0.037-0.022,0.055-0.035s0.035-0.025,0.055-0.035
					c0.345-0.205,0.69-0.408,1.036-0.608s0.694-0.398,1.044-0.593v-0.005v-0.005c0.07-0.045,0.142-0.088,0.216-0.13
					s0.149-0.085,0.224-0.13c0.235-0.135,0.47-0.265,0.705-0.394s0.47-0.256,0.705-0.386c0.045-0.025,0.092-0.05,0.14-0.074
					s0.095-0.046,0.14-0.066c0.18-0.1,0.36-0.198,0.541-0.294s0.364-0.191,0.549-0.286c0.02-0.015,0.045-0.027,0.071-0.04
					s0.054-0.025,0.079-0.04c0.46-0.24,0.923-0.475,1.386-0.707s0.929-0.462,1.394-0.692c0.145-0.07,0.293-0.143,0.44-0.215
					s0.295-0.145,0.44-0.215c0.09-0.04,0.18-0.082,0.27-0.126s0.18-0.089,0.27-0.134c0.03-0.015,0.057-0.027,0.085-0.04
					s0.055-0.025,0.085-0.04c0.27-0.125,0.538-0.25,0.805-0.374s0.535-0.246,0.805-0.366c0.12-0.055,0.242-0.11,0.365-0.165
					s0.245-0.11,0.365-0.165c0.105-0.045,0.21-0.093,0.315-0.14s0.21-0.095,0.315-0.14c0.045-0.02,0.093-0.04,0.14-0.06
					s0.095-0.04,0.14-0.06c0.09-0.04,0.182-0.08,0.276-0.12s0.189-0.08,0.284-0.12c0.13-0.06,0.265-0.12,0.401-0.179
					s0.274-0.116,0.409-0.171c0.04-0.015,0.08-0.032,0.12-0.05s0.08-0.035,0.12-0.05c0.405-0.17,0.812-0.337,1.22-0.501
					s0.815-0.324,1.22-0.478c0.12-0.05,0.24-0.098,0.361-0.144s0.244-0.091,0.369-0.136c0.075-0.03,0.15-0.06,0.226-0.09
					s0.154-0.06,0.234-0.09c0.045-0.015,0.088-0.032,0.13-0.05s0.085-0.035,0.13-0.05c0.055-0.02,0.11-0.04,0.165-0.06
					s0.11-0.04,0.165-0.06c0.125-0.045,0.247-0.09,0.37-0.135s0.245-0.09,0.37-0.135c0.005-0.005,0.01-0.008,0.015-0.009
					s0.01-0.001,0.015-0.001c0.28-0.105,0.56-0.207,0.84-0.307s0.56-0.197,0.84-0.292l2.505-0.865l2.505-0.865
					c0,0,0-0.003,0.001-0.005s0.004-0.005,0.009-0.005l1.13-0.39l1.13-0.39h0.005h0.005l1.065-0.37l1.065-0.37l0.795-0.275
					l0.795-0.275l2.54-0.88l2.54-0.88l1.245-0.425l1.245-0.425l2.815-0.98l2.815-0.98c0.005,0,0.01-0.002,0.015-0.005
					s0.01-0.005,0.015-0.005c0.86-0.3,1.585-0.85,2.095-1.554s0.805-1.561,0.805-2.476v-20.46v-20.46h26.115h26.115v20.8v20.8
					c0,0.835,0.243,1.632,0.675,2.307s1.055,1.227,1.815,1.572l1.81,0.82l1.81,0.82l4.24,1.92l4.24,1.92l0.205,0.095l0.205,0.095
					l3.145,1.06l3.145,1.06c0.23,0.075,0.462,0.152,0.695,0.232s0.465,0.163,0.695,0.247c0.285,0.1,0.567,0.203,0.85,0.305
					s0.565,0.205,0.85,0.305c0.305,0.11,0.607,0.222,0.909,0.337s0.601,0.233,0.901,0.353c0.195,0.075,0.387,0.15,0.581,0.226
					s0.389,0.154,0.589,0.234c0.315,0.125,0.63,0.252,0.944,0.381s0.626,0.259,0.936,0.389c0.645,0.265,1.29,0.54,1.935,0.823
					s1.29,0.576,1.935,0.876c0.32,0.15,0.637,0.3,0.954,0.451s0.631,0.304,0.946,0.459c0.535,0.26,1.065,0.522,1.594,0.789
					s1.056,0.536,1.586,0.811c0.1,0.05,0.197,0.103,0.294,0.155s0.191,0.105,0.286,0.155c0.075,0.04,0.148,0.077,0.219,0.115
					s0.141,0.075,0.211,0.115c0.025,0.015,0.053,0.03,0.08,0.045s0.055,0.03,0.08,0.045c0.83,0.445,1.647,0.9,2.459,1.364
					s1.616,0.936,2.421,1.417c0.28,0.17,0.56,0.34,0.84,0.512s0.56,0.347,0.84,0.527c0.14,0.085,0.28,0.17,0.42,0.257
					s0.28,0.174,0.42,0.263c0.33,0.21,0.658,0.422,0.984,0.638s0.651,0.433,0.976,0.653c0.255,0.16,0.508,0.325,0.758,0.494
					s0.497,0.341,0.742,0.516c0.325,0.22,0.65,0.445,0.974,0.672s0.646,0.457,0.966,0.687c0.185,0.135,0.37,0.27,0.555,0.406
					s0.37,0.274,0.555,0.414c0.34,0.24,0.675,0.488,1.008,0.739s0.663,0.506,0.992,0.761c0.435,0.335,0.87,0.673,1.304,1.015
					s0.866,0.69,1.296,1.045c0.415,0.34,0.832,0.685,1.249,1.034s0.831,0.701,1.241,1.057c0.415,0.35,0.823,0.705,1.227,1.065
					s0.807,0.725,1.212,1.095c0.805,0.72,1.6,1.458,2.384,2.21s1.556,1.52,2.316,2.3c0.38,0.385,0.76,0.772,1.136,1.162
					s0.749,0.782,1.114,1.177c0.35,0.38,0.7,0.76,1.049,1.143s0.696,0.768,1.041,1.158c0.05,0.06,0.105,0.122,0.161,0.185
					s0.114,0.125,0.169,0.185c0.315,0.365,0.632,0.733,0.949,1.103s0.631,0.743,0.941,1.118c0.165,0.195,0.333,0.392,0.5,0.592
					s0.335,0.403,0.5,0.607c0.16,0.195,0.323,0.395,0.485,0.598s0.325,0.408,0.485,0.613c0.015,0.02,0.03,0.037,0.045,0.055
					s0.03,0.035,0.045,0.055c0.025,0.035,0.05,0.067,0.077,0.101s0.057,0.069,0.092,0.109c0.21,0.265,0.418,0.532,0.625,0.802
					s0.415,0.543,0.625,0.818c0.275,0.35,0.543,0.705,0.808,1.062s0.528,0.717,0.793,1.077c1.64,2.255,3.205,4.568,4.691,6.936
					s2.894,4.794,4.219,7.274c0.85,1.595,1.667,3.21,2.451,4.846s1.534,3.294,2.249,4.974c0.145,0.34,0.29,0.68,0.433,1.02
					s0.283,0.68,0.418,1.02c0.09,0.215,0.175,0.427,0.26,0.64s0.17,0.425,0.26,0.64c0.11,0.28,0.22,0.562,0.329,0.847
					s0.216,0.572,0.321,0.862c0.17,0.455,0.338,0.91,0.503,1.365s0.327,0.91,0.487,1.365c0.115,0.33,0.23,0.66,0.342,0.991
					s0.223,0.664,0.328,0.999c0.1,0.3,0.2,0.603,0.299,0.906s0.196,0.609,0.291,0.914c0.22,0.69,0.433,1.387,0.638,2.09
					s0.402,1.41,0.592,2.12c0.095,0.335,0.188,0.672,0.278,1.013s0.177,0.683,0.262,1.028c0.085,0.305,0.163,0.61,0.239,0.915
					s0.151,0.61,0.231,0.915c0.02,0.095,0.043,0.19,0.065,0.286s0.045,0.194,0.065,0.294c0.145,0.625,0.288,1.252,0.426,1.881
					s0.274,1.259,0.404,1.889c0.055,0.275,0.11,0.547,0.164,0.819s0.106,0.541,0.156,0.811c0.055,0.315,0.113,0.625,0.169,0.934
					s0.111,0.616,0.161,0.926c0.055,0.305,0.11,0.61,0.161,0.915s0.099,0.61,0.139,0.915c0.03,0.165,0.055,0.33,0.08,0.495
					s0.05,0.33,0.08,0.495c0.05,0.35,0.1,0.702,0.15,1.056s0.1,0.709,0.15,1.064c0.015,0.08,0.028,0.163,0.039,0.246
					s0.021,0.169,0.031,0.254l0.33,2.575l0.33,2.575l0.06,0.485l0.06,0.485l2.845,22.13l2.845,22.13l0.53,4.145L393.14,472.2z"/>
				<path id="XMLID_2631_" style="fill:#E98456;" d="M271.5,260.59v20.46v20.46c0,0.915-0.295,1.773-0.806,2.476
					s-1.239,1.254-2.104,1.554c-0.005,0-0.01,0.002-0.015,0.005s-0.01,0.005-0.015,0.005l-0.795,0.275l-0.795,0.275l-2.015,0.705
					l-2.015,0.705l-1.25,0.425l-1.25,0.425l-2.535,0.88l-2.535,0.88l-0.8,0.275l-0.8,0.275l-2.195,0.76l-2.195,0.76
					c-0.005,0-0.008,0.003-0.009,0.005s-0.001,0.005-0.001,0.005l-2.505,0.865l-2.505,0.865c-3.29,1.135-6.505,2.415-9.644,3.827
					s-6.201,2.957-9.186,4.622c-0.08,0.045-0.155,0.087-0.229,0.13s-0.146,0.085-0.221,0.13v0.005v0.005
					c-1.635,0.925-3.25,1.89-4.84,2.894s-3.155,2.046-4.69,3.126c-3.97,2.77-7.758,5.785-11.345,9.019s-6.975,6.686-10.145,10.331
					c-0.23,0.25-0.455,0.507-0.678,0.766s-0.443,0.519-0.662,0.774c-0.22,0.265-0.44,0.527-0.657,0.791s-0.433,0.529-0.643,0.799
					c-0.79,0.97-1.567,1.953-2.329,2.946s-1.506,1.999-2.231,3.014c-0.25,0.35-0.5,0.703-0.747,1.056s-0.492,0.709-0.732,1.064
					c-2.515,3.67-4.835,7.487-6.946,11.436s-4.014,8.029-5.694,12.224c-0.38,0.97-0.753,1.942-1.115,2.919s-0.715,1.956-1.055,2.941
					c-0.115,0.33-0.228,0.658-0.338,0.986s-0.218,0.659-0.323,0.994c-0.3,0.925-0.59,1.855-0.867,2.791s-0.543,1.879-0.793,2.829
					c-0.12,0.405-0.23,0.81-0.337,1.217s-0.212,0.817-0.322,1.232c0,0.005,0,0.008,0,0.009s0,0.001,0,0.001
					c-0.255,1.02-0.498,2.045-0.729,3.075s-0.451,2.065-0.661,3.105c-0.205,1.04-0.395,2.087-0.572,3.14s-0.343,2.11-0.497,3.17
					l-0.93,6.415l-0.93,6.415l-3.855,26.605l-3.855,26.605c1.03,0.975,2.07,1.94,3.119,2.895s2.106,1.9,3.171,2.835
					c0.455,0.395,0.91,0.79,1.366,1.184s0.914,0.786,1.374,1.177l0.02,0.02l0.02,0.02c0.445,0.375,0.892,0.75,1.342,1.125
					s0.903,0.75,1.358,1.125c0.01,0.005,0.02,0.013,0.031,0.021s0.024,0.019,0.039,0.029c0.47,0.385,0.94,0.767,1.411,1.147
					s0.944,0.757,1.419,1.132c0.495,0.4,0.995,0.795,1.497,1.186s1.008,0.779,1.513,1.164c0.42,0.32,0.838,0.638,1.255,0.954
					s0.835,0.631,1.255,0.946c0.53,0.39,1.058,0.778,1.588,1.164s1.062,0.771,1.602,1.156c0.48,0.345,0.965,0.688,1.451,1.028
					s0.974,0.678,1.459,1.013c0.5,0.345,0.998,0.687,1.495,1.026s0.995,0.674,1.495,1.004c0.365,0.245,0.727,0.485,1.09,0.724
					s0.725,0.476,1.09,0.716c0.125,0.08,0.253,0.16,0.38,0.241s0.255,0.164,0.38,0.249c0.085,0.055,0.17,0.11,0.255,0.164
					s0.17,0.106,0.255,0.156c-5.62-1.535-11.163-3.257-16.62-5.16s-10.83-3.985-16.11-6.24c-6.805-2.905-13.455-6.095-19.938-9.555
					s-12.798-7.19-18.933-11.175l3.955-27.31l3.955-27.31l0.06-0.42l0.06-0.42l0.295-2.025l0.295-2.025
					c0.155-1.06,0.32-2.117,0.499-3.17s0.371-2.1,0.581-3.14c0.205-1.04,0.425-2.075,0.656-3.105s0.474-2.055,0.724-3.075
					c0,0,0,0,0-0.001s0-0.004,0-0.009c0.11-0.415,0.217-0.825,0.326-1.232s0.219-0.812,0.334-1.217
					c0.25-0.95,0.515-1.892,0.793-2.829s0.568-1.866,0.868-2.791c0.11-0.335,0.217-0.665,0.326-0.994s0.219-0.656,0.334-0.986
					c0.34-0.985,0.692-1.965,1.055-2.941s0.735-1.949,1.115-2.919c1.68-4.195,3.585-8.275,5.698-12.224s4.433-7.766,6.943-11.436
					c1.145-1.675,2.33-3.32,3.554-4.933s2.486-3.192,3.786-4.737c0.22-0.255,0.44-0.515,0.663-0.774s0.447-0.516,0.677-0.766
					c0.215-0.25,0.435-0.5,0.656-0.749s0.444-0.496,0.664-0.741c0.205-0.23,0.412-0.457,0.621-0.684s0.419-0.451,0.629-0.676
					c0.075-0.085,0.152-0.172,0.232-0.26s0.163-0.175,0.248-0.26c0.055-0.06,0.11-0.118,0.165-0.175s0.11-0.115,0.165-0.175
					c0.16-0.17,0.32-0.337,0.48-0.504s0.32-0.331,0.48-0.496c0.04-0.045,0.082-0.087,0.125-0.13s0.085-0.085,0.125-0.13
					c0.045-0.05,0.092-0.098,0.14-0.145s0.095-0.095,0.14-0.145c0.06-0.065,0.12-0.127,0.181-0.189s0.124-0.121,0.189-0.181
					l0.33-0.33l0.33-0.33c0.095-0.1,0.193-0.197,0.29-0.293s0.195-0.191,0.29-0.286c0.07-0.07,0.143-0.14,0.215-0.21
					s0.145-0.14,0.215-0.21c0.07-0.07,0.14-0.14,0.211-0.208s0.144-0.136,0.219-0.201c0.07-0.07,0.14-0.14,0.211-0.209
					s0.144-0.136,0.219-0.201c0.145-0.145,0.293-0.287,0.441-0.427s0.299-0.277,0.449-0.412c0.075-0.07,0.15-0.14,0.225-0.21
					s0.15-0.14,0.225-0.21c0.14-0.13,0.28-0.26,0.42-0.389s0.28-0.256,0.42-0.381c0.035-0.035,0.073-0.07,0.11-0.105
					s0.075-0.07,0.11-0.105c0.06-0.055,0.12-0.11,0.181-0.165s0.124-0.11,0.189-0.165c0.125-0.11,0.25-0.223,0.376-0.335
					s0.254-0.225,0.384-0.335c0.055-0.045,0.11-0.093,0.165-0.142s0.11-0.099,0.165-0.148c0.005-0.005,0.008-0.008,0.01-0.01
					s0.005-0.005,0.01-0.01c0.055-0.05,0.112-0.1,0.171-0.15s0.119-0.1,0.179-0.15c0.005-0.005,0.01-0.01,0.015-0.014
					s0.01-0.006,0.015-0.006c0.19-0.17,0.38-0.335,0.571-0.497s0.384-0.323,0.579-0.483c0.025-0.025,0.05-0.047,0.075-0.069
					s0.05-0.041,0.075-0.061c0.055-0.045,0.107-0.09,0.16-0.134s0.105-0.086,0.16-0.126c0.11-0.1,0.223-0.195,0.335-0.288
					s0.225-0.182,0.335-0.272c0.085-0.075,0.172-0.147,0.261-0.219s0.179-0.141,0.269-0.211c0.21-0.175,0.422-0.348,0.636-0.518
					s0.429-0.337,0.644-0.503c0.06-0.055,0.122-0.105,0.185-0.154s0.125-0.096,0.185-0.146c0.065-0.05,0.13-0.1,0.195-0.15
					s0.13-0.1,0.195-0.15c0.17-0.135,0.342-0.27,0.516-0.403s0.349-0.263,0.524-0.388c0.095-0.075,0.193-0.15,0.29-0.224
					s0.195-0.146,0.29-0.216h0.005h0.005c0.12-0.095,0.24-0.187,0.36-0.279s0.24-0.181,0.36-0.271s0.242-0.18,0.366-0.27
					s0.249-0.18,0.374-0.27c0.07-0.05,0.138-0.1,0.205-0.149s0.135-0.096,0.205-0.141c0.005-0.005,0.01-0.01,0.015-0.014
					s0.01-0.006,0.015-0.006c0.13-0.095,0.26-0.19,0.391-0.285s0.264-0.19,0.399-0.285c0.205-0.145,0.41-0.288,0.616-0.43
					s0.414-0.285,0.624-0.43h0.005h0.005c0.35-0.235,0.698-0.47,1.045-0.704s0.695-0.466,1.045-0.696
					c0.175-0.115,0.352-0.23,0.53-0.344s0.355-0.226,0.53-0.336c0.18-0.115,0.358-0.23,0.535-0.344s0.355-0.226,0.535-0.336
					c0.1-0.065,0.2-0.127,0.3-0.187s0.2-0.117,0.3-0.172c0.26-0.165,0.52-0.328,0.78-0.488s0.52-0.318,0.78-0.472
					c0.02-0.01,0.037-0.02,0.055-0.03s0.035-0.02,0.055-0.03c0.345-0.205,0.69-0.408,1.036-0.608s0.694-0.398,1.044-0.593v-0.005
					v-0.005c0.07-0.045,0.142-0.088,0.216-0.13s0.149-0.085,0.224-0.13c0.23-0.13,0.46-0.257,0.69-0.384s0.46-0.251,0.69-0.376
					c0.005-0.005,0.01-0.008,0.015-0.01s0.01-0.005,0.015-0.01c0.045-0.025,0.092-0.05,0.14-0.074s0.095-0.046,0.14-0.066
					c0.035-0.02,0.072-0.04,0.11-0.06s0.075-0.04,0.11-0.06c0.135-0.075,0.272-0.147,0.411-0.22s0.279-0.145,0.419-0.22
					c0.005-0.005,0.013-0.007,0.02-0.01s0.015-0.005,0.02-0.01c0.02-0.015,0.045-0.027,0.071-0.04s0.054-0.025,0.079-0.04
					c0.23-0.12,0.46-0.24,0.691-0.359s0.464-0.236,0.699-0.351c0.23-0.115,0.462-0.23,0.695-0.345s0.465-0.23,0.695-0.345
					c0.145-0.07,0.293-0.143,0.44-0.215s0.295-0.145,0.44-0.215c0.09-0.04,0.18-0.082,0.27-0.126s0.18-0.089,0.27-0.134
					c0.03-0.015,0.057-0.027,0.085-0.04s0.055-0.025,0.085-0.04c0.27-0.125,0.538-0.25,0.805-0.374s0.535-0.246,0.805-0.366
					c0.12-0.055,0.242-0.11,0.365-0.165s0.245-0.11,0.365-0.165c0.105-0.045,0.21-0.093,0.315-0.14s0.21-0.095,0.315-0.14
					c0.045-0.02,0.093-0.04,0.14-0.06s0.095-0.04,0.14-0.06c0.03-0.01,0.058-0.023,0.085-0.036s0.055-0.029,0.085-0.044
					c0.065-0.025,0.13-0.053,0.195-0.08s0.13-0.055,0.195-0.08c0.13-0.06,0.265-0.12,0.401-0.179s0.274-0.116,0.409-0.171
					c0.04-0.015,0.08-0.032,0.12-0.05s0.08-0.035,0.12-0.05c0.405-0.17,0.812-0.337,1.22-0.501s0.815-0.324,1.22-0.478
					c0.12-0.05,0.24-0.098,0.361-0.144s0.244-0.091,0.369-0.136c0.075-0.03,0.15-0.06,0.226-0.09s0.154-0.06,0.234-0.09
					c0.045-0.015,0.088-0.032,0.13-0.05s0.085-0.035,0.13-0.05c0.055-0.02,0.11-0.04,0.165-0.06s0.11-0.04,0.165-0.06
					c0.125-0.045,0.247-0.09,0.37-0.135s0.245-0.09,0.37-0.135c0.005-0.005,0.01-0.008,0.015-0.009s0.01-0.001,0.015-0.001
					c0.28-0.105,0.56-0.207,0.84-0.307s0.56-0.197,0.84-0.292l2.505-0.865l2.505-0.865c0,0,0-0.003,0.001-0.005
					s0.004-0.005,0.009-0.005l1.135-0.39l1.135-0.39l1.065-0.37l1.065-0.37l0.795-0.275l0.795-0.275l2.54-0.88l2.54-0.88
					l1.245-0.425l1.245-0.425l2.815-0.98l2.815-0.98c0.005,0,0.01-0.002,0.015-0.005s0.01-0.005,0.015-0.005
					c0.86-0.3,1.585-0.85,2.095-1.554s0.805-1.561,0.805-2.476v-20.46v-20.46h19.91H271.5z"/>
				<path id="XMLID_2554_" style="fill:#DB764C;" d="M283.808,275.669h-26.063h-26.063v11.118v11.118
					c8.688,2.413,17.375,3.62,26.063,3.62c8.688,0,17.375-1.207,26.063-3.62v-11.118V275.669z"/>
				<path id="XMLID_2553_" style="fill:#EFA580;" d="M349.692,165.714c0,0-11.844-6.932-24.694-20.37
					c-12.85-13.439-26.706-33.384-30.73-59.413c0,0-15.476,12.053-38.962,28.053s-54.983,35.945-87.026,51.73v15.579v15.579
					c0,23.014,9.157,38.206,21.651,50.57c12.495,12.364,28.328,21.901,41.68,33.603c7.949,6.967,17.662,10.45,27.374,10.45
					c9.713,0,19.425-3.483,27.375-10.45c12.841-11.254,27.971-20.508,40.221-32.202c12.249-11.693,21.618-25.825,22.934-46.833
					c0.03,0,0.059,0.003,0.088,0.005s0.058,0.004,0.088,0.004c5.013,0,9.551-2.032,12.836-5.317
					c3.285-3.285,5.317-7.823,5.317-12.836c0-5.013-2.032-9.551-5.317-12.836C359.243,167.746,354.705,165.714,349.692,165.714z"/>
				<path id="XMLID_2552_" style="fill:#E98456;" d="M265.994,290.927c-5.926,0.998-12.01,0.675-17.837-0.972
					c-5.827-1.647-11.396-4.618-16.293-8.915c-13.352-11.697-29.184-21.233-41.677-33.597
					c-12.494-12.364-21.649-27.557-21.649-50.569v-15.581v-15.581c32.041-15.782,63.536-35.728,87.021-51.727
					s38.96-28.054,38.96-28.054c0.858,5.538,2.159,10.8,3.801,15.782c1.642,4.982,3.625,9.686,5.849,14.107
					c-9.213,6.502-20.456,14.195-32.996,22.281s-26.374,16.562-40.767,24.632c-8.165,4.577-14.778,11.178-19.351,18.975
					c-4.572,7.797-7.104,16.789-7.104,26.149v0v0c0,22.645,8.863,37.716,21.051,49.974
					C237.187,270.09,252.698,279.535,265.994,290.927z"/>
				<path style="fill:#9B3530;" d="M193.715,162.436c-1.229,0-2.42-0.648-3.061-1.798c-0.94-1.688-0.334-3.82,1.354-4.761
					c0.254-0.142,6.308-3.478,14.944-5.158c11.621-2.26,22.443-0.438,31.297,5.274c1.624,1.048,2.092,3.215,1.044,4.839
					c-1.05,1.624-3.216,2.089-4.839,1.044c-7.41-4.78-16.216-6.222-26.164-4.286c-7.555,1.471-12.823,4.373-12.876,4.402
					C194.876,162.293,194.291,162.436,193.715,162.436z"/>
				<path id="XMLID_2550_" style="fill:#1B305C;" d="M222.312,181.678c0,3.015-0.849,5.744-2.221,7.719
					c-1.373,1.976-3.269,3.197-5.363,3.197s-3.99-1.222-5.363-3.197c-1.373-1.976-2.221-4.705-2.221-7.719s0.849-5.744,2.221-7.719
					c1.373-1.976,3.269-3.198,5.363-3.198s3.99,1.222,5.363,3.198C221.463,175.934,222.312,178.663,222.312,181.678z"/>
				<path style="fill:#9B3530;" d="M324.509,162.435c-0.65,0-1.308-0.181-1.895-0.559c-7.409-4.78-16.215-6.222-26.163-4.286
					c-7.488,1.457-12.829,4.376-12.883,4.405c-1.688,0.934-3.819,0.322-4.755-1.364c-0.937-1.688-0.332-3.814,1.354-4.754
					c0.254-0.142,6.308-3.478,14.945-5.158c11.621-2.26,22.442-0.438,31.296,5.274c1.624,1.049,2.092,3.215,1.044,4.839
					C326.783,161.869,325.657,162.435,324.509,162.435z"/>
				<path id="XMLID_2548_" style="fill:#1B305C;" d="M310.471,181.678c0,3.015-0.849,5.744-2.221,7.719
					c-1.372,1.976-3.269,3.197-5.363,3.197c-2.094,0-3.99-1.222-5.363-3.197c-1.372-1.976-2.221-4.705-2.221-7.719
					s0.849-5.744,2.221-7.719c1.373-1.976,3.269-3.198,5.363-3.198c2.094,0,3.99,1.222,5.363,3.198
					C309.622,175.934,310.471,178.663,310.471,181.678z"/>
				<path id="XMLID_823_" style="fill:#D57249;" d="M267.933,212.017h-8.603h-8.603c-1.266,0-2.411-0.513-3.241-1.342
					c-0.829-0.829-1.342-1.975-1.342-3.241v-0.416v-0.416c0-1.266,0.513-2.411,1.342-3.241c0.829-0.829,1.975-1.342,3.241-1.342
					h8.603h8.603c1.266,0,2.411,0.513,3.241,1.342s1.342,1.975,1.342,3.241v0.416v0.416c0,1.266-0.513,2.411-1.342,3.241
					C270.344,211.504,269.198,212.017,267.933,212.017z"/>
				<path style="fill:#734343;" d="M228.515,177.135c-0.589,0-1.186-0.149-1.733-0.462c-5.247-2.998-10.895-3.911-16.786-2.712
					c-4.323,0.88-7.174,2.623-7.202,2.641c-1.636,1.012-3.795,0.519-4.816-1.116c-1.021-1.634-0.537-3.782,1.092-4.811
					c0.156-0.099,3.883-2.425,9.532-3.573c7.498-1.526,14.985-0.317,21.653,3.493c1.679,0.959,2.262,3.097,1.303,4.775
					C230.91,176.501,229.729,177.135,228.515,177.135z"/>
				<path style="fill:#734343;" d="M316.674,177.135c-0.589,0-1.186-0.149-1.733-0.462c-5.246-2.998-10.896-3.911-16.786-2.712
					c-4.323,0.88-7.174,2.623-7.202,2.641c-1.636,1.012-3.794,0.519-4.816-1.116c-1.021-1.634-0.537-3.782,1.092-4.811
					c0.156-0.099,3.883-2.425,9.532-3.573c7.498-1.527,14.985-0.316,21.653,3.493c1.679,0.959,2.262,3.098,1.303,4.775
					C319.069,176.501,317.889,177.135,316.674,177.135z"/>
				<path id="XMLID_816_" style="fill:#FFFFFF;" d="M237.479,233.827c0,5.441,2.446,10.803,6.4,14.806
					c3.954,4.002,9.417,6.644,15.45,6.644h0h0c6.034,0,11.496-2.642,15.45-6.644c3.954-4.002,6.4-9.365,6.4-14.806h-21.85H237.479z"
					/>
				<path id="XMLID_814_" style="fill:#D74545;" d="M281.183,233.827c0,3.02-0.61,6.014-1.716,8.809
					c-1.105,2.795-2.706,5.391-4.686,7.615c-1.975,2.218-4.331,4.059-6.946,5.346c-2.615,1.286-5.491,2.018-8.505,2.018
					c-6.035,0-11.498-2.929-15.453-7.368s-6.401-10.385-6.401-16.42h0.636h0.636c1.51,4.478,4.284,8.53,7.867,11.462
					c3.582,2.932,7.973,4.745,12.715,4.745c3.015,0,5.89-0.732,8.505-2.019s4.971-3.131,6.946-5.355
					c1.132-1.267,2.141-2.661,3.003-4.145c0.862-1.484,1.579-3.059,2.127-4.688h0.636H281.183z"/>
				<path id="XMLID_813_" style="fill:#D74545;" d="M259.33,228.139c-5.84-0.948-11.302,0.474-15.305,2.133
					c-4.003,1.659-6.545,3.555-6.545,3.555h10.925h10.925h10.925h10.925c0,0-2.543-1.896-6.545-3.555
					C270.632,228.613,265.169,227.191,259.33,228.139z"/>
				<path id="XMLID_2597_" style="fill:#FFFFFF;" d="M393.14,472.2c-5.43,3.455-11,6.71-16.699,9.753s-11.526,5.876-17.471,8.486
					c-10.215,4.495-20.777,8.34-31.636,11.485s-22.014,5.59-33.414,7.285c-2.55,0.38-5.11,0.72-7.681,1.022
					s-5.154,0.568-7.749,0.797c-3.705,0.32-7.432,0.563-11.181,0.725S259.79,512,256,512c-3.42,0-6.825-0.068-10.214-0.201
					s-6.761-0.334-10.116-0.599c-2.505-0.195-5-0.428-7.484-0.696s-4.956-0.574-7.416-0.914c-5.535-0.76-11.013-1.698-16.428-2.807
					s-10.767-2.392-16.052-3.842c-5.62-1.535-11.163-3.257-16.62-5.16s-10.83-3.985-16.11-6.24
					c-6.805-2.905-13.455-6.095-19.938-9.555s-12.798-7.19-18.933-11.175l3.955-27.31l3.955-27.31l0.06-0.42l0.06-0.42l0.295-2.025
					l0.295-2.025c0.155-1.06,0.32-2.117,0.499-3.17s0.371-2.1,0.581-3.14c0.205-1.04,0.425-2.075,0.656-3.105
					s0.474-2.055,0.724-3.075c0,0,0,0,0-0.001s0-0.004,0-0.009c0.11-0.415,0.217-0.825,0.326-1.232s0.219-0.812,0.334-1.217
					c0.25-0.95,0.515-1.892,0.793-2.829s0.568-1.866,0.868-2.791c0.11-0.335,0.217-0.665,0.326-0.994s0.219-0.656,0.334-0.986
					c0.34-0.985,0.692-1.965,1.055-2.941s0.735-1.949,1.115-2.919c1.68-4.195,3.585-8.275,5.698-12.224s4.433-7.766,6.943-11.436
					c1.145-1.675,2.33-3.32,3.554-4.933s2.486-3.192,3.786-4.737c0.22-0.255,0.44-0.515,0.663-0.774s0.447-0.516,0.677-0.766
					c0.215-0.25,0.435-0.5,0.656-0.749s0.444-0.496,0.664-0.741c0.285-0.315,0.572-0.63,0.861-0.944s0.579-0.626,0.869-0.936
					c0.255-0.27,0.51-0.54,0.766-0.809s0.514-0.536,0.774-0.801c0.21-0.22,0.427-0.443,0.647-0.664s0.442-0.441,0.663-0.656
					c0.095-0.1,0.193-0.197,0.29-0.293s0.195-0.191,0.29-0.286c0.07-0.07,0.143-0.14,0.215-0.21s0.145-0.14,0.215-0.21
					c0.07-0.07,0.14-0.14,0.211-0.208s0.144-0.136,0.219-0.201c0.07-0.07,0.14-0.14,0.211-0.209s0.144-0.136,0.219-0.201
					c0.22-0.215,0.442-0.428,0.666-0.638s0.449-0.417,0.674-0.622c0.175-0.165,0.35-0.328,0.526-0.49s0.354-0.325,0.534-0.49
					c0.185-0.165,0.373-0.333,0.561-0.5s0.379-0.335,0.569-0.5c0.06-0.055,0.12-0.108,0.179-0.159s0.116-0.101,0.171-0.151
					c0.085-0.075,0.17-0.15,0.255-0.224s0.17-0.146,0.255-0.216c0.15-0.13,0.302-0.26,0.456-0.39s0.309-0.26,0.464-0.39
					c0.04-0.035,0.082-0.07,0.125-0.105s0.085-0.07,0.125-0.105c0.25-0.21,0.5-0.42,0.753-0.629s0.508-0.416,0.768-0.621
					c0.6-0.49,1.205-0.972,1.815-1.447s1.225-0.943,1.845-1.403c0.15-0.115,0.3-0.227,0.45-0.339s0.3-0.221,0.45-0.331
					c0.145-0.11,0.292-0.217,0.441-0.324s0.299-0.211,0.449-0.316c0.015-0.015,0.03-0.027,0.045-0.039s0.03-0.021,0.045-0.031
					c0.15-0.11,0.3-0.218,0.45-0.324s0.3-0.211,0.45-0.316c0.14-0.105,0.285-0.207,0.431-0.307s0.294-0.197,0.439-0.292
					c0.05-0.04,0.098-0.078,0.145-0.113s0.095-0.068,0.145-0.097c0.35-0.235,0.7-0.47,1.05-0.704s0.7-0.466,1.05-0.696
					s0.705-0.457,1.061-0.684s0.714-0.451,1.069-0.676c0.23-0.145,0.46-0.287,0.69-0.427s0.46-0.277,0.69-0.412
					c0.13-0.08,0.26-0.158,0.39-0.235s0.26-0.155,0.39-0.235v-0.005v-0.005c0.02-0.01,0.037-0.02,0.055-0.03s0.035-0.02,0.055-0.03
					c0.345-0.205,0.69-0.408,1.036-0.608s0.694-0.398,1.044-0.593v-0.005v-0.005c0.07-0.045,0.142-0.088,0.216-0.13
					s0.149-0.085,0.224-0.13c0.235-0.135,0.47-0.265,0.705-0.394s0.47-0.256,0.705-0.386c0.045-0.025,0.092-0.05,0.14-0.074
					s0.095-0.046,0.14-0.066c0.18-0.1,0.36-0.198,0.541-0.294s0.364-0.191,0.549-0.286c0.02-0.015,0.045-0.027,0.071-0.04
					s0.054-0.025,0.079-0.04c0.46-0.24,0.923-0.475,1.386-0.707s0.929-0.462,1.394-0.692c0.145-0.07,0.293-0.143,0.44-0.215
					s0.295-0.145,0.44-0.215c0.09-0.04,0.18-0.082,0.27-0.126s0.18-0.089,0.27-0.134c0.03-0.015,0.057-0.027,0.085-0.04
					s0.055-0.025,0.085-0.04c0.27-0.125,0.538-0.25,0.805-0.374s0.535-0.246,0.805-0.366c0.12-0.055,0.242-0.11,0.365-0.165
					s0.245-0.11,0.365-0.165c0.105-0.045,0.21-0.093,0.315-0.14s0.21-0.095,0.315-0.14c0.045-0.02,0.093-0.04,0.14-0.06
					s0.095-0.04,0.14-0.06c0.09-0.04,0.182-0.08,0.276-0.12s0.189-0.08,0.284-0.12c0.13-0.06,0.265-0.12,0.401-0.179
					s0.274-0.116,0.409-0.171c0.04-0.015,0.08-0.032,0.12-0.05s0.08-0.035,0.12-0.05c0.405-0.17,0.812-0.337,1.22-0.501
					s0.815-0.324,1.22-0.478c0.12-0.05,0.24-0.098,0.361-0.144s0.244-0.091,0.369-0.136c0.075-0.03,0.15-0.06,0.226-0.09
					s0.154-0.06,0.234-0.09c0.045-0.015,0.088-0.032,0.13-0.05s0.085-0.035,0.13-0.05c0.055-0.02,0.11-0.04,0.165-0.06
					s0.11-0.04,0.165-0.06c0.125-0.045,0.247-0.09,0.37-0.135s0.245-0.09,0.37-0.135c0.005-0.005,0.01-0.008,0.015-0.009
					s0.01-0.001,0.015-0.001c0.28-0.105,0.56-0.207,0.84-0.307s0.56-0.197,0.84-0.292l2.505-0.865l2.505-0.865
					c0,0,0-0.003,0.001-0.005s0.004-0.005,0.009-0.005l1.13-0.39l1.13-0.39h0.005h0.005l1.065-0.37l1.065-0.37l0.795-0.275
					l0.795-0.275v28.655v28.655c0,3.145,0.622,6.222,1.801,9.069s2.914,5.461,5.139,7.681l12.245,12.245l12.245,12.245
					c2.775,2.775,6.413,4.162,10.05,4.162s7.275-1.387,10.05-4.162l12.24-12.245l12.24-12.245c2.225-2.22,3.96-4.835,5.139-7.681
					s1.801-5.924,1.801-9.069v-27.94v-27.94l0.205,0.095l0.205,0.095l3.145,1.06l3.145,1.06c0.23,0.075,0.462,0.152,0.695,0.232
					s0.465,0.163,0.695,0.247c0.285,0.1,0.567,0.203,0.85,0.305s0.565,0.205,0.85,0.305c0.305,0.11,0.607,0.222,0.909,0.337
					s0.601,0.233,0.901,0.353c0.195,0.075,0.387,0.15,0.581,0.226s0.389,0.154,0.589,0.234c0.315,0.125,0.63,0.252,0.944,0.381
					s0.626,0.259,0.936,0.389c0.645,0.265,1.29,0.54,1.935,0.823s1.29,0.576,1.935,0.876c0.32,0.15,0.637,0.3,0.954,0.451
					s0.631,0.304,0.946,0.459c0.535,0.26,1.065,0.522,1.594,0.789s1.056,0.536,1.586,0.811c0.1,0.05,0.197,0.103,0.294,0.155
					s0.191,0.105,0.286,0.155c0.07,0.035,0.143,0.072,0.215,0.11s0.145,0.075,0.215,0.11c0.025,0.015,0.053,0.033,0.08,0.05
					s0.055,0.035,0.08,0.05c0.83,0.445,1.647,0.9,2.459,1.364s1.616,0.936,2.421,1.417c0.28,0.17,0.56,0.34,0.84,0.512
					s0.56,0.347,0.84,0.527c0.14,0.085,0.28,0.17,0.42,0.257s0.28,0.174,0.42,0.263c0.33,0.21,0.658,0.422,0.984,0.638
					s0.651,0.433,0.976,0.653c0.255,0.16,0.508,0.325,0.758,0.494s0.497,0.341,0.742,0.516c0.325,0.22,0.65,0.445,0.974,0.672
					s0.646,0.457,0.966,0.687c0.185,0.135,0.37,0.27,0.555,0.406s0.37,0.274,0.555,0.414c0.34,0.24,0.675,0.488,1.008,0.739
					s0.663,0.506,0.992,0.761c0.435,0.335,0.87,0.673,1.304,1.015s0.866,0.69,1.296,1.045c0.415,0.34,0.832,0.685,1.249,1.034
					s0.831,0.701,1.241,1.057c0.415,0.35,0.823,0.705,1.227,1.065s0.807,0.725,1.212,1.095c0.805,0.72,1.6,1.458,2.384,2.21
					s1.556,1.52,2.316,2.3c0.38,0.385,0.76,0.772,1.136,1.162s0.749,0.782,1.114,1.177c0.35,0.38,0.7,0.76,1.049,1.143
					s0.696,0.768,1.041,1.158c0.05,0.06,0.105,0.122,0.161,0.185s0.114,0.125,0.169,0.185c0.315,0.365,0.632,0.733,0.949,1.103
					s0.631,0.743,0.941,1.118c0.165,0.195,0.333,0.392,0.5,0.592s0.335,0.403,0.5,0.607c0.16,0.195,0.323,0.395,0.485,0.598
					s0.325,0.408,0.485,0.613c0.015,0.02,0.03,0.037,0.045,0.055s0.03,0.035,0.045,0.055c0.025,0.035,0.05,0.067,0.077,0.101
					s0.057,0.069,0.092,0.109c0.21,0.265,0.418,0.532,0.625,0.802s0.415,0.543,0.625,0.818c0.275,0.35,0.543,0.705,0.808,1.062
					s0.528,0.717,0.793,1.077c1.64,2.255,3.205,4.568,4.691,6.936s2.894,4.794,4.219,7.274c0.85,1.595,1.667,3.21,2.451,4.846
					s1.534,3.294,2.249,4.974c0.145,0.34,0.29,0.68,0.433,1.02s0.283,0.68,0.418,1.02c0.09,0.215,0.175,0.427,0.26,0.64
					s0.17,0.425,0.26,0.64c0.11,0.28,0.22,0.562,0.329,0.847s0.216,0.572,0.321,0.862c0.17,0.455,0.338,0.91,0.503,1.365
					s0.327,0.91,0.487,1.365c0.115,0.33,0.23,0.66,0.342,0.991s0.223,0.664,0.328,0.999c0.1,0.3,0.2,0.603,0.299,0.906
					s0.196,0.609,0.291,0.914c0.22,0.69,0.433,1.387,0.638,2.09s0.402,1.41,0.592,2.12c0.095,0.335,0.188,0.672,0.278,1.013
					s0.177,0.683,0.262,1.028c0.085,0.305,0.163,0.61,0.239,0.915s0.151,0.61,0.231,0.915c0.02,0.095,0.043,0.19,0.065,0.286
					s0.045,0.194,0.065,0.294c0.145,0.625,0.288,1.252,0.426,1.881s0.274,1.259,0.404,1.889c0.055,0.275,0.11,0.547,0.164,0.819
					s0.106,0.541,0.156,0.811c0.055,0.315,0.113,0.625,0.169,0.934s0.111,0.616,0.161,0.926c0.055,0.305,0.11,0.61,0.161,0.915
					s0.099,0.61,0.139,0.915c0.03,0.165,0.055,0.33,0.08,0.495s0.05,0.33,0.08,0.495c0.05,0.35,0.1,0.702,0.15,1.056
					s0.1,0.709,0.15,1.064c0.015,0.08,0.028,0.163,0.039,0.246s0.021,0.169,0.031,0.254l0.33,2.575l0.33,2.575l0.06,0.485
					l0.06,0.485l2.845,22.13l2.845,22.13l0.53,4.145L393.14,472.2z"/>
				<path id="XMLID_2613_" style="fill:#C4C4C4;" d="M215.55,310.12v9.275v9.275c-3.97,2.77-7.758,5.785-11.345,9.019
					s-6.975,6.686-10.145,10.331c-0.23,0.25-0.455,0.507-0.678,0.766s-0.443,0.519-0.662,0.774c-0.22,0.265-0.44,0.527-0.657,0.791
					s-0.433,0.529-0.643,0.799c-0.79,0.97-1.567,1.953-2.329,2.946s-1.506,1.999-2.231,3.014c-0.25,0.35-0.5,0.703-0.747,1.056
					s-0.492,0.709-0.732,1.064c-2.515,3.67-4.835,7.487-6.946,11.436s-4.014,8.029-5.694,12.224c-0.38,0.97-0.753,1.942-1.115,2.919
					s-0.715,1.956-1.055,2.941c-0.115,0.33-0.228,0.658-0.338,0.986s-0.218,0.659-0.323,0.994c-0.3,0.925-0.59,1.855-0.867,2.791
					s-0.543,1.879-0.793,2.829c-0.12,0.405-0.23,0.81-0.337,1.217s-0.212,0.817-0.322,1.232c0,0.005,0,0.008,0,0.009
					s0,0.001,0,0.001c-0.255,1.02-0.498,2.045-0.729,3.075s-0.451,2.065-0.661,3.105c-0.205,1.04-0.395,2.087-0.572,3.14
					s-0.343,2.11-0.497,3.17l-0.93,6.415l-0.93,6.415l-3.855,26.605l-3.855,26.605c1.03,0.975,2.07,1.94,3.119,2.895
					s2.106,1.9,3.171,2.835c0.455,0.395,0.91,0.79,1.366,1.184s0.914,0.786,1.374,1.177l0.02,0.02l0.02,0.02
					c0.445,0.375,0.892,0.75,1.342,1.125s0.903,0.75,1.358,1.125c0.01,0.005,0.02,0.013,0.031,0.021s0.024,0.019,0.039,0.029
					c0.47,0.385,0.94,0.767,1.411,1.147s0.944,0.757,1.419,1.132c0.495,0.4,0.995,0.795,1.497,1.186s1.008,0.779,1.513,1.164
					c0.42,0.32,0.838,0.638,1.255,0.954s0.835,0.631,1.255,0.946c0.53,0.39,1.058,0.778,1.588,1.164s1.062,0.771,1.602,1.156
					c0.48,0.345,0.965,0.688,1.451,1.028s0.974,0.678,1.459,1.013c0.5,0.345,0.998,0.687,1.495,1.026s0.995,0.674,1.495,1.004
					c0.365,0.245,0.727,0.485,1.09,0.724s0.725,0.476,1.09,0.716c0.125,0.08,0.253,0.16,0.38,0.241s0.255,0.164,0.38,0.249
					c0.085,0.055,0.17,0.11,0.255,0.164s0.17,0.106,0.255,0.156c-5.62-1.535-11.163-3.257-16.62-5.16s-10.83-3.985-16.11-6.24
					c-6.805-2.905-13.455-6.095-19.938-9.555s-12.798-7.19-18.933-11.175l3.955-27.31l3.955-27.31l0.06-0.42l0.06-0.42l0.295-2.025
					l0.295-2.025c0.155-1.06,0.32-2.117,0.499-3.17s0.371-2.1,0.581-3.14c0.205-1.04,0.425-2.075,0.656-3.105
					s0.474-2.055,0.724-3.075c0,0,0,0,0-0.001s0-0.004,0-0.009c0.11-0.415,0.217-0.825,0.326-1.232s0.219-0.812,0.334-1.217
					c0.25-0.95,0.515-1.892,0.793-2.829s0.568-1.866,0.868-2.791c0.11-0.335,0.217-0.665,0.326-0.994s0.219-0.656,0.334-0.986
					c0.34-0.985,0.692-1.965,1.055-2.941s0.735-1.949,1.115-2.919c1.68-4.195,3.585-8.275,5.698-12.224s4.433-7.766,6.943-11.436
					c1.145-1.675,2.33-3.32,3.554-4.933s2.486-3.192,3.786-4.737c0.22-0.255,0.44-0.515,0.663-0.774s0.447-0.516,0.677-0.766
					c0.215-0.25,0.435-0.5,0.656-0.749s0.444-0.496,0.664-0.741c0.205-0.23,0.412-0.457,0.621-0.684s0.419-0.451,0.629-0.676
					c0.075-0.085,0.152-0.172,0.232-0.26s0.163-0.175,0.248-0.26c0.055-0.06,0.11-0.118,0.165-0.175s0.11-0.115,0.165-0.175
					c0.16-0.17,0.32-0.337,0.48-0.504s0.32-0.331,0.48-0.496c0.04-0.045,0.082-0.087,0.125-0.13s0.085-0.085,0.125-0.13
					c0.045-0.05,0.092-0.098,0.14-0.145s0.095-0.095,0.14-0.145c0.06-0.065,0.12-0.127,0.181-0.189s0.124-0.121,0.189-0.181
					l0.33-0.33l0.33-0.33c0.095-0.1,0.193-0.197,0.29-0.293s0.195-0.191,0.29-0.286c0.07-0.07,0.143-0.14,0.215-0.21
					s0.145-0.14,0.215-0.21c0.07-0.07,0.14-0.14,0.211-0.208s0.144-0.136,0.219-0.201c0.07-0.07,0.14-0.14,0.211-0.209
					s0.144-0.136,0.219-0.201c0.145-0.145,0.293-0.287,0.441-0.427s0.299-0.277,0.449-0.412c0.075-0.07,0.15-0.14,0.225-0.21
					s0.15-0.14,0.225-0.21c0.14-0.13,0.28-0.26,0.42-0.389s0.28-0.256,0.42-0.381c0.035-0.035,0.073-0.07,0.11-0.105
					s0.075-0.07,0.11-0.105c0.06-0.055,0.12-0.11,0.181-0.165s0.124-0.11,0.189-0.165c0.125-0.11,0.25-0.223,0.376-0.335
					s0.254-0.225,0.384-0.335c0.055-0.045,0.11-0.093,0.165-0.142s0.11-0.099,0.165-0.148c0.005-0.005,0.008-0.008,0.01-0.01
					s0.005-0.005,0.01-0.01c0.055-0.05,0.112-0.1,0.171-0.15s0.119-0.1,0.179-0.15c0.005-0.005,0.01-0.01,0.015-0.014
					s0.01-0.006,0.015-0.006c0.19-0.17,0.38-0.335,0.571-0.497s0.384-0.323,0.579-0.483c0.025-0.025,0.05-0.047,0.075-0.069
					s0.05-0.041,0.075-0.061c0.055-0.045,0.107-0.09,0.16-0.134s0.105-0.086,0.16-0.126c0.11-0.1,0.223-0.195,0.335-0.288
					s0.225-0.182,0.335-0.272c0.085-0.075,0.172-0.147,0.261-0.219s0.179-0.141,0.269-0.211c0.21-0.175,0.422-0.348,0.636-0.518
					s0.429-0.337,0.644-0.503c0.06-0.055,0.122-0.105,0.185-0.154s0.125-0.096,0.185-0.146c0.065-0.05,0.13-0.1,0.195-0.15
					s0.13-0.1,0.195-0.15c0.17-0.135,0.342-0.27,0.516-0.403s0.349-0.263,0.524-0.388c0.095-0.075,0.193-0.15,0.29-0.224
					s0.195-0.146,0.29-0.216h0.005h0.005c0.12-0.095,0.24-0.187,0.36-0.279s0.24-0.181,0.36-0.271s0.242-0.18,0.366-0.27
					s0.249-0.18,0.374-0.27c0.07-0.05,0.138-0.1,0.205-0.149s0.135-0.096,0.205-0.141c0.005-0.005,0.01-0.01,0.015-0.014
					s0.01-0.006,0.015-0.006c0.13-0.095,0.26-0.19,0.391-0.285s0.264-0.19,0.399-0.285c0.205-0.145,0.41-0.288,0.616-0.43
					s0.414-0.285,0.624-0.43h0.005h0.005c0.35-0.235,0.698-0.47,1.045-0.704s0.695-0.466,1.045-0.696
					c0.175-0.115,0.352-0.23,0.53-0.344s0.355-0.226,0.53-0.336c0.18-0.115,0.358-0.23,0.535-0.344s0.355-0.226,0.535-0.336
					c0.1-0.065,0.2-0.127,0.3-0.187s0.2-0.117,0.3-0.172c0.26-0.165,0.52-0.328,0.78-0.488s0.52-0.318,0.78-0.472
					c0.02-0.01,0.037-0.02,0.055-0.03s0.035-0.02,0.055-0.03c0.345-0.205,0.69-0.408,1.036-0.608s0.694-0.398,1.044-0.593v-0.005
					v-0.005c0.07-0.045,0.142-0.088,0.216-0.13s0.149-0.085,0.224-0.13c0.23-0.13,0.46-0.257,0.69-0.384s0.46-0.251,0.69-0.376
					c0.005-0.005,0.01-0.008,0.015-0.01s0.01-0.005,0.015-0.01c0.045-0.025,0.092-0.05,0.14-0.074s0.095-0.046,0.14-0.066
					c0.035-0.02,0.072-0.04,0.11-0.06s0.075-0.04,0.11-0.06c0.135-0.075,0.272-0.147,0.411-0.22s0.279-0.145,0.419-0.22
					c0.005-0.005,0.013-0.007,0.02-0.01s0.015-0.005,0.02-0.01c0.02-0.015,0.045-0.027,0.071-0.04s0.054-0.025,0.079-0.04
					c0.23-0.12,0.46-0.24,0.691-0.359s0.464-0.236,0.699-0.351c0.23-0.115,0.462-0.23,0.695-0.345s0.465-0.23,0.695-0.345
					c0.145-0.07,0.293-0.143,0.44-0.215s0.295-0.145,0.44-0.215c0.09-0.04,0.18-0.082,0.27-0.126s0.18-0.089,0.27-0.134
					c0.03-0.015,0.057-0.027,0.085-0.04s0.055-0.025,0.085-0.04c0.27-0.125,0.538-0.25,0.805-0.374s0.535-0.246,0.805-0.366
					c0.12-0.055,0.242-0.11,0.365-0.165s0.245-0.11,0.365-0.165c0.105-0.045,0.21-0.093,0.315-0.14s0.21-0.095,0.315-0.14
					c0.045-0.02,0.093-0.04,0.14-0.06s0.095-0.04,0.14-0.06c0.03-0.01,0.058-0.023,0.085-0.036s0.055-0.029,0.085-0.044
					c0.065-0.025,0.13-0.053,0.195-0.08s0.13-0.055,0.195-0.08c0.13-0.06,0.265-0.12,0.401-0.179s0.274-0.116,0.409-0.171
					c0.04-0.015,0.08-0.032,0.12-0.05s0.08-0.035,0.12-0.05c0.405-0.17,0.812-0.337,1.22-0.501s0.815-0.324,1.22-0.478
					c0.12-0.05,0.24-0.098,0.361-0.144s0.244-0.091,0.369-0.136c0.075-0.03,0.15-0.06,0.226-0.09s0.154-0.06,0.234-0.09
					c0.045-0.015,0.088-0.032,0.13-0.05s0.085-0.035,0.13-0.05c0.055-0.02,0.11-0.04,0.165-0.06s0.11-0.04,0.165-0.06
					c0.125-0.045,0.247-0.09,0.37-0.135s0.245-0.09,0.37-0.135c0.005-0.005,0.01-0.008,0.015-0.009s0.01-0.001,0.015-0.001
					c0.28-0.105,0.56-0.207,0.84-0.307s0.56-0.197,0.84-0.292l2.505-0.865l2.505-0.865c0,0,0-0.003,0.001-0.005
					s0.004-0.005,0.009-0.005l1.135-0.39l1.135-0.39l1.065-0.37l1.065-0.37l0.795-0.275L215.55,310.12z"/>
				<path id="XMLID_2584_" style="fill:#1B305C;" d="M358.97,351.28v69.58v69.58c-10.215,4.495-20.777,8.34-31.636,11.485
					s-22.014,5.59-33.414,7.285c-2.55,0.38-5.11,0.72-7.681,1.022s-5.154,0.568-7.749,0.797c-3.705,0.32-7.432,0.563-11.181,0.725
					S259.79,512,256,512c-3.42,0-6.825-0.068-10.214-0.201s-6.761-0.334-10.116-0.599c-2.505-0.195-5-0.428-7.484-0.696
					s-4.956-0.574-7.416-0.914c-5.535-0.76-11.013-1.698-16.428-2.807s-10.767-2.392-16.052-3.842
					c-5.62-1.535-11.163-3.257-16.62-5.16s-10.83-3.985-16.11-6.24v-72.505V346.53c0.285-0.315,0.572-0.63,0.861-0.944
					s0.579-0.626,0.869-0.936c0.255-0.27,0.51-0.54,0.766-0.809s0.514-0.536,0.774-0.801c0.21-0.22,0.427-0.443,0.647-0.664
					s0.442-0.441,0.663-0.656c0.095-0.1,0.193-0.197,0.29-0.293s0.195-0.191,0.29-0.286c0.07-0.07,0.143-0.14,0.215-0.21
					s0.145-0.14,0.215-0.21c0.07-0.07,0.14-0.14,0.211-0.208s0.144-0.136,0.219-0.201c0.07-0.07,0.14-0.14,0.211-0.209
					s0.144-0.136,0.219-0.201c0.22-0.215,0.442-0.428,0.666-0.638s0.449-0.417,0.674-0.622c0.175-0.165,0.35-0.328,0.526-0.49
					s0.354-0.325,0.534-0.49c0.185-0.165,0.373-0.333,0.561-0.5s0.379-0.335,0.569-0.5c0.06-0.055,0.12-0.108,0.179-0.159
					s0.116-0.101,0.171-0.151c0.085-0.075,0.17-0.15,0.255-0.224s0.17-0.146,0.255-0.216c0.15-0.13,0.302-0.26,0.456-0.39
					s0.309-0.26,0.464-0.39c0.04-0.035,0.082-0.07,0.125-0.105s0.085-0.07,0.125-0.105c0.25-0.21,0.5-0.42,0.753-0.629
					s0.508-0.416,0.768-0.621c0.6-0.49,1.205-0.972,1.815-1.447s1.225-0.943,1.845-1.403c0.15-0.115,0.3-0.227,0.45-0.339
					s0.3-0.221,0.45-0.331c0.145-0.11,0.292-0.217,0.441-0.324s0.299-0.211,0.449-0.316c0.015-0.015,0.03-0.027,0.045-0.039
					s0.03-0.021,0.045-0.031c0.15-0.11,0.3-0.218,0.45-0.324s0.3-0.211,0.45-0.316c0.14-0.105,0.285-0.207,0.431-0.307
					s0.294-0.197,0.439-0.292c0.05-0.04,0.098-0.078,0.145-0.113s0.095-0.068,0.145-0.097c0.35-0.235,0.7-0.47,1.05-0.704
					s0.7-0.466,1.05-0.696s0.705-0.457,1.061-0.684s0.714-0.451,1.069-0.676c0.23-0.145,0.46-0.287,0.69-0.427
					s0.46-0.277,0.69-0.412c0.13-0.08,0.26-0.158,0.39-0.235s0.26-0.155,0.39-0.235v-0.005v-0.005c0.02-0.01,0.037-0.02,0.055-0.03
					s0.035-0.02,0.055-0.03c0.345-0.205,0.69-0.408,1.036-0.608s0.694-0.398,1.044-0.593v-0.005v-0.005
					c0.07-0.045,0.142-0.088,0.216-0.13s0.149-0.085,0.224-0.13c0.235-0.135,0.47-0.265,0.705-0.394s0.47-0.256,0.705-0.386
					c0.045-0.025,0.092-0.05,0.14-0.074s0.095-0.046,0.14-0.066c0.18-0.1,0.36-0.198,0.541-0.294s0.364-0.191,0.549-0.286
					c0.02-0.015,0.045-0.027,0.071-0.04s0.054-0.025,0.079-0.04c0.46-0.24,0.923-0.475,1.386-0.707s0.929-0.462,1.394-0.692v56.675
					v56.675c0,7.9,3.203,15.052,8.38,20.23s12.33,8.38,20.23,8.38h37.235H294.5c7.9,0,15.052-3.203,20.23-8.38
					s8.38-12.33,8.38-20.23v-55.57v-55.57c0.025,0.015,0.053,0.033,0.08,0.05s0.055,0.035,0.08,0.05
					c0.83,0.445,1.647,0.9,2.459,1.364s1.616,0.936,2.421,1.417c0.28,0.17,0.56,0.34,0.84,0.512s0.56,0.347,0.84,0.527
					c0.14,0.085,0.28,0.17,0.42,0.257s0.28,0.174,0.42,0.263c0.33,0.21,0.658,0.422,0.984,0.638s0.651,0.433,0.976,0.653
					c0.255,0.16,0.508,0.325,0.758,0.494s0.497,0.341,0.742,0.516c0.325,0.22,0.65,0.445,0.974,0.672s0.646,0.457,0.966,0.687
					c0.185,0.135,0.37,0.27,0.555,0.406s0.37,0.274,0.555,0.414c0.34,0.24,0.675,0.488,1.008,0.739s0.663,0.506,0.992,0.761
					c0.435,0.335,0.87,0.673,1.304,1.015s0.866,0.69,1.296,1.045c0.415,0.34,0.832,0.685,1.249,1.034s0.831,0.701,1.241,1.057
					c0.415,0.35,0.823,0.705,1.227,1.065s0.807,0.725,1.212,1.095c0.805,0.72,1.6,1.458,2.384,2.21s1.556,1.52,2.316,2.3
					c0.38,0.385,0.76,0.772,1.136,1.162s0.749,0.782,1.114,1.177c0.35,0.38,0.7,0.76,1.049,1.143s0.696,0.768,1.041,1.158
					c0.05,0.06,0.105,0.122,0.161,0.185s0.114,0.125,0.169,0.185c0.315,0.365,0.632,0.733,0.949,1.103s0.631,0.743,0.941,1.118
					c0.165,0.195,0.333,0.392,0.5,0.592S358.805,351.075,358.97,351.28z"/>
				<path id="XMLID_805_" style="fill:#192B49;" d="M165.129,411.302l-4.783,33.018l-4.783,33.018v-65.405v-65.405
					c0.284-0.315,0.571-0.631,0.86-0.945c0.288-0.314,0.578-0.627,0.867-0.937c0.253-0.269,0.509-0.538,0.767-0.805
					s0.516-0.534,0.774-0.798c0.212-0.222,0.429-0.445,0.649-0.666c0.22-0.221,0.442-0.441,0.664-0.658
					c0.093-0.098,0.189-0.197,0.286-0.293c0.097-0.097,0.195-0.193,0.293-0.286c0.212-0.212,0.424-0.421,0.637-0.628
					c0.213-0.207,0.428-0.411,0.645-0.613c0.222-0.212,0.445-0.424,0.668-0.635s0.449-0.42,0.676-0.627
					c0.176-0.165,0.352-0.328,0.527-0.49s0.352-0.322,0.527-0.482c0.186-0.165,0.375-0.334,0.565-0.502
					c0.19-0.168,0.381-0.336,0.573-0.502c0.057-0.057,0.116-0.109,0.176-0.159c0.059-0.05,0.119-0.1,0.176-0.151
					c0.274-0.243,0.551-0.484,0.83-0.721c0.279-0.238,0.561-0.473,0.845-0.706c0.248-0.212,0.499-0.424,0.752-0.633
					s0.509-0.416,0.768-0.618c0.6-0.491,1.205-0.975,1.815-1.451s1.226-0.944,1.846-1.404c0.243-0.186,0.486-0.367,0.73-0.547
					c0.244-0.18,0.49-0.358,0.738-0.539c0.409-0.295,0.817-0.587,1.228-0.876c0.411-0.29,0.825-0.577,1.244-0.861
					c0.346-0.238,0.696-0.473,1.046-0.707c0.35-0.234,0.702-0.467,1.054-0.699c0.352-0.228,0.706-0.455,1.061-0.681
					c0.356-0.226,0.712-0.451,1.069-0.674c0.714-0.45,1.432-0.889,2.156-1.32s1.453-0.852,2.187-1.266v-0.005v-0.005
					c0.072-0.041,0.145-0.083,0.219-0.125c0.074-0.043,0.149-0.087,0.226-0.133c0.46-0.259,0.92-0.512,1.383-0.761
					c0.463-0.25,0.928-0.495,1.399-0.738c0.021-0.016,0.044-0.028,0.068-0.041s0.05-0.026,0.076-0.041
					c0.46-0.238,0.923-0.473,1.387-0.706c0.464-0.233,0.93-0.463,1.395-0.69v15.876v15.876c-1.065,1.303-2.102,2.627-3.109,3.973
					c-1.007,1.346-1.984,2.714-2.931,4.105c-2.513,3.672-4.833,7.49-6.944,11.44s-4.014,8.03-5.695,12.223
					c-0.383,0.967-0.755,1.939-1.117,2.915c-0.362,0.976-0.714,1.956-1.055,2.939c-0.114,0.331-0.225,0.659-0.335,0.989
					c-0.11,0.33-0.218,0.661-0.327,0.997c-0.3,0.926-0.59,1.856-0.866,2.792c-0.277,0.936-0.54,1.877-0.789,2.823
					c-0.119,0.409-0.23,0.814-0.339,1.222c-0.109,0.407-0.215,0.816-0.323,1.229c0,0.005,0,0.008,0,0.009s0,0.001,0,0.001
					c-0.253,1.019-0.496,2.045-0.728,3.077c-0.231,1.032-0.451,2.068-0.658,3.108c-0.207,1.039-0.398,2.087-0.577,3.139
					S165.284,410.242,165.129,411.302z"/>
				<path id="XMLID_855_" style="fill:#FFFFFF;" d="M293.92,509.21c-2.55,0.38-5.11,0.72-7.681,1.022s-5.154,0.568-7.749,0.797
					l-10.615-4.89l-10.615-4.89l-10.795,4.975L235.67,511.2c-2.505-0.195-5-0.428-7.484-0.696s-4.956-0.574-7.416-0.914
					c-0.84-1.89-0.845-3.947-0.167-5.749s2.037-3.346,3.927-4.211l7.305-3.365l7.305-3.365l-7.305-3.365l-7.305-3.365
					c-1.905-0.875-3.273-2.44-3.945-4.261s-0.65-3.899,0.225-5.799c0.875-1.905,2.44-3.272,4.261-3.945s3.899-0.65,5.799,0.225
					l13.195,6.08l13.195,6.08l13.2-6.08l13.2-6.08c1.9-0.875,3.978-0.898,5.799-0.225s3.386,2.04,4.261,3.945
					c0.875,1.9,0.898,3.978,0.225,5.799s-2.04,3.386-3.945,4.261l-7.305,3.365l-7.305,3.365l7.305,3.365L290,499.63
					c1.825,0.84,3.158,2.313,3.858,4.036C294.558,505.39,294.625,507.365,293.92,509.21z"/>
			</g>
		</g>
		<path id="XMLID_2795_" style="fill:#D57249;" d="M350.747,192.595c2.271,0,4.326-0.92,5.815-2.408
			c1.488-1.488,2.408-3.544,2.408-5.814s-0.92-4.326-2.408-5.815c-1.488-1.488-3.544-2.408-5.815-2.408v8.223V192.595z"/>
	</g>
</g>
</svg>
