<svg xmlns="http://www.w3.org/2000/svg"  viewBox="0 0 30 30" width="30px" height="30px"><path fill="#f5ce85" d="M4.913 21.803L6.716 20 10.236 23.065 8.214 25.088 2.451 27.549z"/><path fill="#967a44" d="M6.74,20.683l2.764,2.407l-1.575,1.575l-4.527,1.933l1.933-4.511L6.74,20.683 M6.693,19.316 l-2.202,2.202L1.5,28.499l6.999-2.989l2.469-2.469L6.693,19.316L6.693,19.316z"/><path fill="#36404d" d="M3.198 24.544L1.502 28.501 5.469 26.807z"/><path fill="#f78f8f" d="M22.47,4.236l1.556-1.556c0.439-0.44,1.024-0.682,1.646-0.682s1.207,0.242,1.646,0.682 c0.907,0.908,0.907,2.385,0,3.293l-1.556,1.556L22.47,4.236z"/><path fill="#c74343" d="M25.672,2.499c0.488,0,0.948,0.19,1.293,0.536C27.31,3.38,27.5,3.839,27.5,4.327 c0,0.488-0.19,0.948-0.536,1.293l-1.202,1.202l-2.586-2.586l1.202-1.202C24.724,2.689,25.183,2.499,25.672,2.499 M25.672,1.499 c-0.724,0-1.448,0.276-2,0.828l-1.909,1.909l4,4l1.909-1.909c1.105-1.105,1.105-2.895,0-4v0 C27.119,1.775,26.395,1.499,25.672,1.499L25.672,1.499z"/><g><path fill="#ffeea3" d="M8.788,24.513c-0.04-0.068-0.087-0.134-0.142-0.199c-0.232-0.272-0.552-0.445-0.954-0.517 c-0.18-0.846-0.85-1.288-1.465-1.441C6.12,21.84,5.822,21.48,5.451,21.265L21.157,5.549l3.293,3.293L8.788,24.513z"/><path fill="#ba9b48" d="M21.158,6.256l2.586,2.586L8.816,23.778c-0.177-0.151-0.411-0.296-0.717-0.394 c-0.262-0.75-0.855-1.201-1.457-1.423c-0.099-0.293-0.251-0.54-0.438-0.742L21.158,6.256 M21.157,4.842L4.491,21.518 c0,0,0.005,0,0.016,0c0.145,0,1.264,0.04,1.264,1.275c0,0,1.469,0.046,1.469,1.466c1.461,0,1.26,1.25,1.26,1.25L25.157,8.842 L21.157,4.842L21.157,4.842z"/></g><g><path fill="#d9e7f5" d="M22.139 3.859H25.485V8.516H22.139z" transform="rotate(-45.012 23.81 6.187)"/><path fill="#788b9c" d="M23.348,4.065l2.586,2.586L24.275,8.31l-2.586-2.586L23.348,4.065 M23.348,2.651l-3.073,3.073l4,4 l3.073-3.073L23.348,2.651L23.348,2.651z"/></g></svg>