<svg xmlns="http://www.w3.org/2000/svg" width="52" height="66" viewBox="0 0 52 66">
    <g fill="none" fill-rule="evenodd">
        <path d="M30.407 21.748c0 .54.439.979.98.979.54 0 .978-.439.978-.98 0-.54-.438-.978-.979-.978-.54 0-.979.438-.979.979" transform="translate(0 1)"/>
        <path stroke="#F9F4F2" d="M17.697 22.5c-.607 0-1.156.246-1.554.643-.397.398-.643.947-.643 1.554 0 .607.246 1.156.644 1.554.397.397.946.643 1.553.643s1.156-.245 1.554-.643c.398-.398.643-.947.643-1.554 0-.607-.245-1.156-.643-1.554-.398-.397-.947-.643-1.554-.643z" transform="translate(0 1)"/>
        <path d="M2.511 31.627L2.999 32.517 3.889 33.004 2.999 33.491 2.511 34.382 2.024 33.491 1.134 33.004 2.024 32.517z" transform="translate(0 1)"/>
        <g stroke="#F9F4F2">
            <path stroke-linejoin="bevel" d="M48.78 16.245l1.426 12.62c.361 1.18-.491 2.38-1.688 2.38-.43 0-.847-.162-1.17-.455l-5.058-4.589" transform="translate(0 1) translate(.71 32.755)"/>
            <path stroke-linejoin="bevel" d="M9.687 5.245S4.29 9.623 4.29 18.218c0 9.316 8.067 10.027 21 10.027h0c12.933 0 21-.711 21-10.027 0-8.595-5.397-12.973-5.397-12.973" transform="translate(0 1) translate(.71 32.755)"/>
            <path stroke-linejoin="bevel" d="M2.8 16.245l-1.427 12.62c-.36 1.18.492 2.38 1.69 2.38.43 0 .845-.162 1.168-.455l5.059-4.589M18.297 5.245h28.845c1.738 0 3.148 1.343 3.148 3s-1.41 3-3.148 3c-1.588 0-2.876-1.227-2.876-2.74V6.88M15.29 5.245H3.37c-1.702 0-3.081 1.343-3.081 3s1.379 3 3.081 3c1.554 0 2.815-1.227 2.815-2.74V7.182" transform="translate(0 1) translate(.71 32.755)"/>
            <path stroke-linecap="round" d="M25.29 12.551s-.614-.294-.869-.698h-1.26c-1.072 0-1.884-.372-2.29-.608l-1.374 1.159c.315.548.91 1.842.91 3.765 0 2.116-.793 3.556-1.117 4.056.158.32.505.992.881 1.472.005-.002.5-.138.728.07.866.787 1.986 1.28 2.886 1.677.617.272 1.158.511 1.505.801.347-.29.888-.529 1.505-.801.9-.397 2.02-.89 2.886-1.678.227-.207.723-.07.728-.069.376-.48.723-1.151.88-1.472-.324-.5-1.116-1.94-1.116-4.056 0-1.923.595-3.217.91-3.765l-1.375-1.159c-.405.236-1.217.608-2.29.608h-1.26c-.254.404-.868.698-.868.698z" transform="translate(0 1) translate(.71 32.755)"/>
            <path stroke-linejoin="bevel" d="M10.414 5.66L7.29.245h6.3c.89 0 1.61.75 1.61 1.675v5.736c0 .877.685 1.59 1.53 1.59.844 0 1.528-.713 1.528-1.59V1.92c0-.925.721-1.675 1.612-1.675h24.42L41.166 5.66" transform="translate(0 1) translate(.71 32.755)"/>
            <path stroke-linecap="round" stroke-linejoin="bevel" d="M29.79 16.745L50.29 16.745M1.29 16.745L19.79 16.745" transform="translate(0 1) translate(.71 32.755)"/>
        </g>
        <path stroke="#F9F4F2" stroke-linejoin="bevel" d="M27.075 0c-3.149 0-5.701 2.634-5.701 5.884 0 .902.203 1.754.555 2.519C20.29 8.53 19 9.938 19 11.661c0 1.806 1.42 3.271 3.17 3.271l.035-.002c.232 2.813 1.802 5.232 4.05 6.575-.094.361-.148.738-.148 1.13 0 2.41 1.893 4.365 4.23 4.365 2.336 0 4.23-1.955 4.23-4.366 0-.39-.055-.768-.149-1.13 2.442-1.456 4.086-4.178 4.086-7.298 0-.679-.086-1.335-.233-1.968C39.328 11.312 40 9.933 40 8.39c0-2.788-2.19-5.049-4.892-5.049-.954 0-1.842.286-2.595.774C31.786 1.73 29.626 0 27.075 0z" transform="translate(0 1)"/>
    </g>
</svg>
