<svg xmlns="http://www.w3.org/2000/svg" width="42" height="48" viewBox="0 0 42 48">
    <path fill="#FFF" fill-rule="evenodd" d="M31.765 0l9.806 6.128-.633.949c-2.53 3.74-3.875 8.107-3.875 12.647 0 4.527 1.333 8.884 3.853 12.622l.598.892-.88.64L20.827 48 .142 33.25l.61-.915c2.508-3.727 3.841-8.084 3.841-12.611 0-4.54-1.333-8.908-3.863-12.647l-.644-.949L9.903 0l9.581 6.162 1.344 1.36 1.537-1.508L31.765 0zm3.666 24.377h-5.223l.71 5.269c.634.07 1.13.605 1.13 1.253v2.934c0 .695-.57 1.26-1.27 1.26h-2.904c-.656 0-1.197-.504-1.255-1.146l-5.229-.7V45.05l17.295-12.33c-1.596-2.574-2.69-5.395-3.254-8.343zm-24 0H6.226c-.562 2.949-1.657 5.77-3.252 8.343l17.293 12.33V33.24l-5.23.713c-.061.639-.605 1.14-1.265 1.14h-2.904c-.695 0-1.26-.565-1.26-1.26v-2.934c0-.65.494-1.187 1.127-1.254l.696-5.268zm2.34-10.716h-2.903c-.079 0-.136.057-.136.137v2.922c0 .08.057.136.136.136.531 0 .96.421.983.956l.724 5.458c.022.375.022.705 0 1.034l-.735 5.56c-.011.49-.44.898-.972.898-.079 0-.136.07-.136.137v2.934c0 .068.057.136.136.136h2.904c.079 0 .147-.068.147-.136 0-.535.406-.967.938-.99l5.423-.739c.204 0 .396-.011.577-.011l.463.011 5.526.74c.474.022.892.454.892.989 0 .068.057.136.136.136h2.904c.079 0 .146-.068.146-.136v-2.934c0-.068-.067-.137-.146-.137-.52 0-.95-.409-.972-.943l-.734-5.458c-.012-.386-.012-.716 0-1.046l.734-5.56c.023-.478.452-.899.972-.899.079 0 .146-.056.146-.136v-2.922c0-.08-.067-.137-.146-.137h-2.904c-.08 0-.136.057-.136.137 0 .535-.418.966-.937.99l-5.436.727c-.186.011-.362.017-.531.017-.17 0-.333-.006-.497-.017l-5.537-.728c-.475-.023-.881-.454-.881-.99 0-.079-.068-.136-.147-.136zm5.234 4.853l-1.123 1.645v3.119h4.506v-3.135l-1.092-1.629h4.161l-1.122 1.645v7.34l1.107 1.644h-4.161l1.107-1.645v-3.522h-4.506v3.522l1.108 1.645H14.83l1.107-1.645v-7.355l-1.092-1.629h4.161zM9.887 2.456L2.995 6.76c2.407 3.888 3.674 8.348 3.674 12.965 0 1.188-.086 2.367-.253 3.53h5.022l-.7-5.28c-.633-.065-1.13-.602-1.13-1.254v-2.922c0-.695.565-1.26 1.26-1.26h2.904c.662 0 1.208.505 1.266 1.147l5.229.687V9.907l-.915-.925-1.183-1.198-8.282-5.328zm21.891-.001l-8.113 5.19-1.382 1.359-.893.876v4.498l5.23-.7c.061-.64.6-1.14 1.254-1.14h2.904c.7 0 1.27.565 1.27 1.26v2.922c0 .65-.499 1.188-1.137 1.254l-.697 5.28h5.027c-.167-1.163-.253-2.342-.253-3.53 0-4.607 1.27-9.066 3.682-12.962l-6.892-4.307z"/>
</svg>