<svg xmlns="http://www.w3.org/2000/svg" width="82" height="56" viewBox="0 0 82 56">
    <g fill="none" fill-rule="evenodd">
        <g stroke="#F9F4F2" stroke-linejoin="bevel">
            <path d="M30.014 10.881C30.014 4.871 34.55 0 40.144 0c5.596 0 10.132 4.872 10.132 10.881" transform="translate(1 1)"/>
            <path d="M40.2 7.768c.351-2.496 2.357-4.409 4.779-4.409 1.965 0 3.656 1.26 4.412 3.068M50.276 12.434l-.008-1.208C50.268 5.047 54.31.04 59.298.04h20.996c-1.7 16.775-16.068 21.888-22.919 22.957-1.535.24-3.058-.528-4.025-2.025l-3.078-4.767M79.661 4.039L69.236 3.039M67.665 7.039L78.066 9.039M65.95 9.039L74.874 14.039M63.643 11.039L70.763 18.039M60.163 13.039L65.2 21.039M57.186 14.039L59.366 23.039M69.888.039c-1.16 11.748-12.223 14-14.98 14M30.018 12.446l.008-1.208c0-6.186-4.043-11.199-9.03-11.199H0c1.687 16.66 15.843 21.828 22.755 22.954 1.626.265 3.235-.624 4.183-2.284l2.564-4.489M.633 4.039L11.057 3.039M12.629 7.039L2.228 9.039M14.344 9.039L5.42 14.039M16.651 11.039L9.53 18.039M19.5 12.5L15.094 21.039M23.5 13.5L20.928 23.039M25.387 14.039c-2.758 0-13.82-2.252-14.981-14" transform="translate(1 1)"/>
            <path d="M46.321 7.472c0 .921-.695 1.668-1.553 1.668s-1.553-.747-1.553-1.668c0-.921.695-1.668 1.553-1.668s1.553.747 1.553 1.668zM40.092 7.783c-.345-2.503-2.354-4.424-4.781-4.424-1.966 0-3.656 1.26-4.412 3.068" transform="translate(1 1)"/>
            <path d="M33.969 7.472c0 .921.695 1.668 1.553 1.668.857 0 1.553-.747 1.553-1.668 0-.921-.696-1.668-1.553-1.668-.858 0-1.553.747-1.553 1.668zM41.443 9.37c0 1.33-1.328 3.227-1.328 3.227S38.787 10.7 38.787 9.37c0-1.019.595-1.59 1.328-1.59.734 0 1.328.571 1.328 1.59zM47.294 20.511L47.294 22.827M32.481 16.333L32.481 18.65M35.443 16.333L35.443 18.65M38.406 16.333L38.406 18.65M41.368 16.333L41.368 18.65M44.331 16.333L44.331 18.65M47.294 16.333L47.294 18.65M32.481 20.511L32.481 22.827M35.443 20.511L35.443 22.827M38.406 20.511L38.406 22.827M41.368 20.511L41.368 22.827M44.331 20.511L44.331 22.827" transform="translate(1 1)"/>
        </g>
        <path stroke="#F9F4F2" d="M66 23.5c0 .276.224.5.5.5s.5-.224.5-.5-.224-.5-.5-.5-.5.224-.5.5M71 31L71.354 31.646 72 32 71.354 32.354 71 33 70.646 32.354 70 32 70.646 31.646zM63 53L63.354 53.646 64 54 63.354 54.354 63 55 62.646 54.354 62 54 62.646 53.646zM40 28L40.354 28.646 41 29 40.354 29.354 40 30 39.646 29.354 39 29 39.646 28.646zM19.646 45.646L19 46 19.646 46.353 20 47 20.353 46.353 21 46 20.353 45.646 20 45zM15 24.5c0 .276-.224.5-.5.5s-.5-.224-.5-.5.224-.5.5-.5.5.224.5.5M5 34L4.646 34.646 4 35 4.646 35.354 5 36 5.354 35.354 6 35 5.354 34.646z" transform="translate(1 1)"/>
        <g stroke="#F9F4F2" stroke-linejoin="bevel" stroke-width=".8">
            <path d="M19.475 0L0.5 3.503 3.14 18 23 14.256z" transform="translate(1 1) matrix(-1 0 0 1 63 27)"/>
            <path d="M19.5 0L12.137 8 .5 3.556M46 11.663L44.414 27 23 24.6 24.936 9z" transform="translate(1 1) matrix(-1 0 0 1 63 27)"/>
            <path d="M25 10L33.801 20.483 46 12" transform="translate(1 1) matrix(-1 0 0 1 63 27)"/>
        </g>
    </g>
</svg>
