<svg xmlns="http://www.w3.org/2000/svg" viewBox="0 0 100 100" width="100" height="100" preserveAspectRatio="xMidYMid meet" style="width: 100%; height: 100%; transform: translate3d(0px, 0px, 0px);"><defs><clipPath id="__lottie_element_30"><rect width="100" height="100" x="0" y="0"></rect></clipPath><clipPath id="__lottie_element_32"><path d="M0,0 L100,0 L100,100 L0,100z"></path></clipPath><mask id="__lottie_element_42"><path fill="#ffffff" clip-rule="nonzero" d=" M50.03099822998047,1.3899999856948853 C50.03099822998047,1.3899999856948853 36.332000732421875,1.3899999856948853 36.332000732421875,1.3899999856948853 C36.332000732421875,1.3899999856948853 36.332000732421875,-1.3509999513626099 36.332000732421875,-1.3509999513626099 C36.332000732421875,-1.3509999513626099 50.03099822998047,-1.3509999513626099 50.03099822998047,-1.3509999513626099 C50.03099822998047,-1.3509999513626099 50.03099822998047,1.3899999856948853 50.03099822998047,1.3899999856948853" fill-opacity="1"></path><path fill="#ffffff" clip-rule="nonzero" d=" M-35.584999084472656,1.3899999856948853 C-35.584999084472656,1.3899999856948853 -49.96900177001953,1.3899999856948853 -49.96900177001953,1.3899999856948853 C-49.96900177001953,1.3899999856948853 -49.96900177001953,-1.3509999513626099 -49.96900177001953,-1.3509999513626099 C-49.96900177001953,-1.3509999513626099 -35.584999084472656,-1.3509999513626099 -35.584999084472656,-1.3509999513626099 C-35.584999084472656,-1.3509999513626099 -35.584999084472656,1.3899999856948853 -35.584999084472656,1.3899999856948853" fill-opacity="1"></path><path fill="#ffffff" clip-rule="nonzero" d="" fill-opacity="1"></path><path fill="#ffffff" clip-rule="nonzero" d="" fill-opacity="1"></path></mask><clipPath id="__lottie_element_48"><path d="M0,0 L68,0 L68,86 L0,86z"></path></clipPath></defs><g clip-path="url(#__lottie_element_30)"><g clip-path="url(#__lottie_element_32)" transform="matrix(0.5303300619125366,0.5303300619125366,-0.5303300619125366,0.5303300619125366,50,-3.033008575439453)" opacity="1" style="display: block;"><g transform="matrix(1,0,0,0.9936785697937012,7,7.2679595947265625)" opacity="1" style="display: block;"><g opacity="1" transform="matrix(1,0,0,1,42.808998107910156,42.808998107910156)"><path stroke-linecap="butt" stroke-linejoin="miter" fill-opacity="0" stroke-miterlimit="10" stroke="rgb(255,255,255)" stroke-opacity="1" stroke-width="2.74" d=" M-35.95899963378906,0 C-35.95899963378906,-19.858999252319336 -19.860000610351562,-35.95899963378906 0,-35.95899963378906 C19.858999252319336,-35.95899963378906 35.95899963378906,-19.858999252319336 35.95899963378906,0 C35.95899963378906,19.858999252319336 19.858999252319336,35.95899963378906 0,35.95899963378906 C-19.860000610351562,35.95899963378906 -35.95899963378906,19.858999252319336 -35.95899963378906,0z"></path></g></g><g clip-path="url(#__lottie_element_48)" transform="matrix(1,0,0,0.9936785697937012,15.75,7.271820068359375)" opacity="1" style="display: block;"><g transform="matrix(-1,0,0,1,68,0)" opacity="1" style="display: block;"><g opacity="1" transform="matrix(1,0,0,1,0,0)"><path stroke-linecap="butt" stroke-linejoin="miter" fill-opacity="0" stroke-miterlimit="10" stroke="rgb(255,255,255)" stroke-opacity="1" stroke-width="2.74" d=" M33.5620002746582,17.124000549316406 C33.5620002746582,17.124000549316406 33.5620002746582,11.987000465393066 33.5620002746582,11.987000465393066 C33.5620002746582,11.987000465393066 33.5620002746582,6.849999904632568 33.5620002746582,6.849999904632568 C33.5620002746582,6.849999904632568 33.5620002746582,11.987000465393066 33.5620002746582,11.987000465393066 C33.5620002746582,11.987000465393066 33.5620002746582,17.124000549316406 33.5620002746582,17.124000549316406z"></path></g><g opacity="1" transform="matrix(1,0,0,1,0,0)"><path stroke-linecap="butt" stroke-linejoin="miter" fill-opacity="0" stroke-miterlimit="10" stroke="rgb(255,255,255)" stroke-opacity="1" stroke-width="2.74" d=" M33.5620002746582,78.76799774169922 C33.5620002746582,78.76799774169922 33.5620002746582,73.62999725341797 33.5620002746582,73.62999725341797 C33.5620002746582,73.62999725341797 33.5620002746582,68.49400329589844 33.5620002746582,68.49400329589844 C33.5620002746582,68.49400329589844 33.5620002746582,73.62999725341797 33.5620002746582,73.62999725341797 C33.5620002746582,73.62999725341797 33.5620002746582,78.76799774169922 33.5620002746582,78.76799774169922z"></path></g><g opacity="1" transform="matrix(1,0,0,1,33.5620002746582,42.465999603271484)"><path stroke-linecap="butt" stroke-linejoin="miter" fill-opacity="0" stroke-miterlimit="10" stroke="rgb(255,255,255)" stroke-opacity="1" stroke-width="2.74" d=" M-26.711999893188477,0 C-26.711999893188477,-14.753000259399414 -14.753000259399414,-26.711999893188477 0,-26.711999893188477 C14.753000259399414,-26.711999893188477 26.711999893188477,-14.753000259399414 26.711999893188477,0 C26.711999893188477,14.753000259399414 14.753000259399414,26.711999893188477 0,26.711999893188477 C-14.753000259399414,26.711999893188477 -26.711999893188477,14.753000259399414 -26.711999893188477,0z"></path></g><g opacity="1" transform="matrix(1,0,0,1,32.2599983215332,42.09199905395508)"><path stroke-linecap="butt" stroke-linejoin="miter" fill-opacity="0" stroke-miterlimit="10" stroke="rgb(255,255,255)" stroke-opacity="1" stroke-width="2.74" d=" M7.574999809265137,-0.9559999704360962 C7.77400016784668,-1.194000005722046 8.003000259399414,-1.4190000295639038 8.215999603271484,-1.6410000324249268 C10.666000366210938,-4.203000068664551 11.526000022888184,-8.180000305175781 10.329999923706055,-11.517999649047852 C9.133000373840332,-14.854999542236328 5.925000190734863,-17.384000778198242 2.3970000743865967,-17.743999481201172 C-5.991000175476074,-18.599000930786133 -11.526000022888184,-7.927999973297119 -5.706999778747559,-1.6890000104904175 C-5.123000144958496,-1.062000036239624 -4.4019999504089355,-0.39899998903274536 -4.434000015258789,0.4560000002384186 C-4.464000225067139,1.2359999418258667 -5.113999843597412,1.8229999542236328 -5.6529998779296875,2.3889999389648438 C-8.196999549865723,5.060999870300293 -8.972000122070312,9.27400016784668 -7.546000003814697,12.678000450134277 C-6.119999885559082,16.079999923706055 -2.572000026702881,18.481000900268555 1.1169999837875366,18.540000915527344 C4.804999828338623,18.600000381469727 8.428999900817871,16.31399917602539 9.96399974822998,12.958000183105469 C11.498000144958496,9.604000091552734 10.859000205993652,5.36899995803833 8.402000427246094,2.615999937057495 C7.74399995803833,1.8799999952316284 6.909999847412109,1.0750000476837158 7.046000003814697,0.09799999743700027 C7.10099983215332,-0.30300000309944153 7.311999797821045,-0.6430000066757202 7.574999809265137,-0.9559999704360962z"></path></g><g opacity="1" transform="matrix(1,0,0,1,19.312000274658203,42.465999603271484)"><path fill="rgb(255,255,255)" fill-opacity="1" d=" M-1.5080000162124634,0 C-1.5080000162124634,-0.8330000042915344 -0.8320000171661377,-1.5089999437332153 0.0010000000474974513,-1.5089999437332153 C0.8339999914169312,-1.5089999437332153 1.5080000162124634,-0.8330000042915344 1.5080000162124634,0 C1.5080000162124634,0.8330000042915344 0.8339999914169312,1.5089999437332153 0.0010000000474974513,1.5089999437332153 C-0.8320000171661377,1.5089999437332153 -1.5080000162124634,0.8330000042915344 -1.5080000162124634,0z"></path></g><g opacity="1" transform="matrix(1,0,0,1,14.907999992370605,46.01300048828125)"><path fill="rgb(255,255,255)" fill-opacity="1" d=" M-1.4859999418258667,0.2619999945163727 C-1.63100004196167,-0.5580000281333923 -1.0829999446868896,-1.3420000076293945 -0.2619999945163727,-1.4859999418258667 C0.5580000281333923,-1.63100004196167 1.340999960899353,-1.0829999446868896 1.4859999418258667,-0.2619999945163727 C1.63100004196167,0.5580000281333923 1.0820000171661377,1.340999960899353 0.2619999945163727,1.4859999418258667 C-0.5590000152587891,1.63100004196167 -1.340999960899353,1.0829999446868896 -1.4859999418258667,0.2619999945163727z"></path></g><g opacity="1" transform="matrix(1,0,0,1,14.907999992370605,38.91899871826172)"><path fill="rgb(255,255,255)" fill-opacity="1" d=" M-1.4859999418258667,-0.2619999945163727 C-1.340999960899353,-1.0820000171661377 -0.5590000152587891,-1.6299999952316284 0.2619999945163727,-1.4859999418258667 C1.0820000171661377,-1.340999960899353 1.63100004196167,-0.5580000281333923 1.4859999418258667,0.2619999945163727 C1.340999960899353,1.0820000171661377 0.5580000281333923,1.6299999952316284 -0.2619999945163727,1.4859999418258667 C-1.0829999446868896,1.340999960899353 -1.63100004196167,0.5580000281333923 -1.4859999418258667,-0.2619999945163727z"></path></g><g opacity="1" transform="matrix(1,0,0,1,17.333999633789062,32.25199890136719)"><path fill="rgb(255,255,255)" fill-opacity="1" d=" M-1.305999994277954,-0.7540000081062317 C-0.8889999985694885,-1.4759999513626099 0.032999999821186066,-1.7230000495910645 0.7549999952316284,-1.305999994277954 C1.4759999513626099,-0.8899999856948853 1.7230000495910645,0.032999999821186066 1.3070000410079956,0.7540000081062317 C0.8899999856948853,1.4759999513626099 -0.032999999821186066,1.7230000495910645 -0.7540000081062317,1.3070000410079956 C-1.475000023841858,0.8899999856948853 -1.7230000495910645,-0.03200000151991844 -1.305999994277954,-0.7540000081062317z"></path></g><g opacity="1" transform="matrix(1,0,0,1,17.333999633789062,52.68000030517578)"><path fill="rgb(255,255,255)" fill-opacity="1" d=" M-1.305999994277954,0.7549999952316284 C-1.7230000495910645,0.032999999821186066 -1.475000023841858,-0.890999972820282 -0.7540000081062317,-1.3070000410079956 C-0.032999999821186066,-1.7239999771118164 0.8899999856948853,-1.475000023841858 1.3070000410079956,-0.7549999952316284 C1.7230000495910645,-0.032999999821186066 1.4759999513626099,0.890999972820282 0.7549999952316284,1.3070000410079956 C0.032999999821186066,1.7239999771118164 -0.8889999985694885,1.4769999980926514 -1.305999994277954,0.7549999952316284z"></path></g><g opacity="1" transform="matrix(1,0,0,1,47.027000427246094,42.465999603271484)"><path fill="rgb(255,255,255)" fill-opacity="1" d=" M1.5089999437332153,0 C1.5089999437332153,-0.8330000042915344 0.8330000042915344,-1.5089999437332153 0,-1.5089999437332153 C-0.8330000042915344,-1.5089999437332153 -1.5089999437332153,-0.8330000042915344 -1.5089999437332153,0 C-1.5089999437332153,0.8330000042915344 -0.8330000042915344,1.5089999437332153 0,1.5089999437332153 C0.8330000042915344,1.5089999437332153 1.5089999437332153,0.8330000042915344 1.5089999437332153,0z"></path></g><g opacity="1" transform="matrix(1,0,0,1,52.215999603271484,46.01300048828125)"><path fill="rgb(255,255,255)" fill-opacity="1" d=" M1.4859999418258667,0.2619999945163727 C1.63100004196167,-0.5580000281333923 1.0829999446868896,-1.3420000076293945 0.2619999945163727,-1.4859999418258667 C-0.5580000281333923,-1.63100004196167 -1.340999960899353,-1.0829999446868896 -1.4859999418258667,-0.2619999945163727 C-1.63100004196167,0.5580000281333923 -1.0820000171661377,1.340999960899353 -0.2619999945163727,1.4859999418258667 C0.5590000152587891,1.63100004196167 1.340999960899353,1.0829999446868896 1.4859999418258667,0.2619999945163727z"></path></g><g opacity="1" transform="matrix(1,0,0,1,52.215999603271484,38.91899871826172)"><path fill="rgb(255,255,255)" fill-opacity="1" d=" M1.4859999418258667,-0.2619999945163727 C1.340999960899353,-1.0820000171661377 0.5590000152587891,-1.6299999952316284 -0.2619999945163727,-1.4859999418258667 C-1.0820000171661377,-1.340999960899353 -1.63100004196167,-0.5580000281333923 -1.4859999418258667,0.2619999945163727 C-1.340999960899353,1.0820000171661377 -0.5580000281333923,1.6299999952316284 0.2619999945163727,1.4859999418258667 C1.0829999446868896,1.340999960899353 1.63100004196167,0.5580000281333923 1.4859999418258667,-0.2619999945163727z"></path></g><g opacity="1" transform="matrix(1,0,0,1,49.790000915527344,32.25199890136719)"><path fill="rgb(255,255,255)" fill-opacity="1" d=" M1.3070000410079956,-0.7540000081062317 C0.8899999856948853,-1.4759999513626099 -0.032999999821186066,-1.7230000495910645 -0.7549999952316284,-1.305999994277954 C-1.4759999513626099,-0.8899999856948853 -1.7230000495910645,0.032999999821186066 -1.3070000410079956,0.7540000081062317 C-0.8899999856948853,1.4759999513626099 0.03400000184774399,1.7230000495910645 0.7540000081062317,1.3070000410079956 C1.4759999513626099,0.8899999856948853 1.7230000495910645,-0.03200000151991844 1.3070000410079956,-0.7540000081062317z"></path></g><g opacity="1" transform="matrix(1,0,0,1,49.790000915527344,52.68000030517578)"><path fill="rgb(255,255,255)" fill-opacity="1" d=" M1.3070000410079956,0.7549999952316284 C1.7230000495910645,0.032999999821186066 1.4759999513626099,-0.890999972820282 0.7540000081062317,-1.3070000410079956 C0.03400000184774399,-1.7239999771118164 -0.8899999856948853,-1.475000023841858 -1.3070000410079956,-0.7549999952316284 C-1.7230000495910645,-0.032999999821186066 -1.4759999513626099,0.890999972820282 -0.7549999952316284,1.3070000410079956 C-0.032999999821186066,1.7239999771118164 0.8899999856948853,1.4769999980926514 1.3070000410079956,0.7549999952316284z"></path></g></g></g><g transform="matrix(1.2699999809265137,0,0,1.2699999809265137,-4.5409698486328125,-4.544971466064453)" opacity="1" style="display: block;"><g opacity="1" transform="matrix(1,0,0,1,42.9109992980957,42.9109992980957)"><path stroke-linecap="butt" stroke-linejoin="miter" fill-opacity="0" stroke-miterlimit="10" stroke="rgb(255,255,255)" stroke-opacity="1" stroke-width="2.74" d=" M-36.06100082397461,-0.0010000000474974513 C-36.06100082397461,-19.91699981689453 -19.916000366210938,-36.06100082397461 0,-36.06100082397461 C19.916000366210938,-36.06100082397461 36.06100082397461,-19.91699981689453 36.06100082397461,-0.0010000000474974513 C36.06100082397461,19.915000915527344 19.916000366210938,36.06100082397461 0,36.06100082397461 C-19.916000366210938,36.06100082397461 -36.06100082397461,19.915000915527344 -36.06100082397461,-0.0010000000474974513z"></path></g></g><g mask="url(#__lottie_element_42)" transform="matrix(1,0,0,1,50,50)" opacity="1" style="display: block;"></g><g transform="matrix(1.0171300172805786,0,0,1.0262700319290161,-1.3711700439453125,48.3035888671875)" opacity="1" style="display: block;"><g opacity="1" transform="matrix(1,0,0,1,93.34400177001953,1.621000051498413)"><path fill="rgb(255,255,255)" fill-opacity="1" d=" M-6.919000148773193,1.378000020980835 C-6.919000148773193,1.378000020980835 6.791999816894531,1.3700000047683716 6.791999816894531,1.3700000047683716 C6.791999816894531,1.3700000047683716 6.791999816894531,-1.3700000047683716 6.791999816894531,-1.3700000047683716 C6.791999816894531,-1.3700000047683716 -7.038000106811523,-1.3639999628067017 -7.038000106811523,-1.3639999628067017 C-7.038000106811523,-1.3639999628067017 -8.289999961853027,-1.371999979019165 -8.267000198364258,-0.028999999165534973 C-8.243000030517578,1.371999979019165 -6.919000148773193,1.378000020980835 -6.919000148773193,1.378000020980835z"></path></g><g opacity="1" transform="matrix(1,0,0,1,7.441999912261963,1.621000051498413)"><path fill="rgb(255,255,255)" fill-opacity="1" d=" M-7.190999984741211,1.3700000047683716 C-7.190999984741211,1.3700000047683716 7.006999969482422,1.4079999923706055 7.006999969482422,1.4079999923706055 C7.006999969482422,1.4079999923706055 8.468999862670898,1.4930000305175781 8.482000350952148,0.054999999701976776 C8.468999862670898,-1.565000057220459 7.006999969482422,-1.4700000286102295 7.006999969482422,-1.4700000286102295 C7.006999969482422,-1.4700000286102295 -7.190999984741211,-1.3700000047683716 -7.190999984741211,-1.3700000047683716 C-7.190999984741211,-1.3700000047683716 -7.190999984741211,1.3700000047683716 -7.190999984741211,1.3700000047683716z"></path></g></g><g transform="matrix(1,0,0,1,48.49399948120117,14.25899887084961)" opacity="1" style="display: none;"><g opacity="1" transform="matrix(1,0,0,1,1.6200000047683716,5.38700008392334)"><path fill="rgb(255,255,255)" fill-opacity="1" d=" M1.3589999675750732,4.01200008392334 C1.3240000009536743,5.729000091552734 -1.3329999446868896,5.635000228881836 -1.38100004196167,4.01200008392334 C-1.3949999809265137,0.9480000138282776 -1.3700000047683716,-5.13700008392334 -1.3700000047683716,-5.13700008392334 C-1.3700000047683716,-5.13700008392334 1.3700000047683716,-5.13700008392334 1.3700000047683716,-5.13700008392334 C1.3700000047683716,-5.13700008392334 1.3240000009536743,0.9480000138282776 1.3589999675750732,4.01200008392334z"></path></g><g opacity="1" transform="matrix(1,0,0,1,1.6200000047683716,67.03099822998047)"><path fill="rgb(255,255,255)" fill-opacity="1" d=" M1.3700000047683716,5.13700008392334 C1.3700000047683716,5.13700008392334 -1.3700000047683716,5.13700008392334 -1.3700000047683716,5.13700008392334 C-1.3700000047683716,5.13700008392334 -1.3830000162124634,-0.4000000059604645 -1.3730000257492065,-4.324999809265137 C-1.3830000162124634,-5.586999893188477 1.3669999837875366,-5.517000198364258 1.3669999837875366,-4.269999980926514 C1.3669999837875366,-0.9070000052452087 1.3700000047683716,5.13700008392334 1.3700000047683716,5.13700008392334z"></path></g></g></g></g></svg>