<svg width="550" height="220" viewBox="0 0 601 240" fill="none" xmlns="http://www.w3.org/2000/svg"><g clip-path="url(#clip0)"><path d="M600.723 0H0.722656V240H600.723V0Z" fill="#F3F2F1"></path><path d="M405.231 167.311H223.961C221.777 167.311 220.007 165.54 220.007 163.356V26.5617C220.007 24.3776 221.777 22.6069 223.961 22.6069H405.231C407.415 22.6069 409.186 24.3776 409.186 26.5617V163.356C409.186 165.54 407.415 167.311 405.231 167.311Z" fill="#E1DFDD"></path><path opacity="0.5" d="M399.732 31.3018H229.46V158.616H399.732V31.3018Z" fill="#C8C6C4"></path><path d="M272.265 78.2404L271.623 122.226L315.97 122.873L316.612 78.8879L272.265 78.2404Z" fill="#E2E2F6"></path><path d="M279.176 98.3274L279.109 102.924L309.149 103.363L309.216 98.766L279.176 98.3274Z" fill="#BDBDE6"></path><path d="M279.031 108.301L278.964 112.897L303.783 113.26L303.85 108.663L279.031 108.301Z" fill="#BDBDE6"></path><path d="M279.322 88.3547L279.255 92.9517L309.294 93.3903L309.362 88.7934L279.322 88.3547Z" fill="#BDBDE6"></path><path d="M284.14 50.5861L241.494 57.9531L248.834 100.443L291.48 93.0755L284.14 50.5861Z" fill="#FCFCFB"></path><path d="M266.487 86.3069C272.448 86.3069 277.28 81.4748 277.28 75.514C277.28 69.5533 272.448 64.7212 266.487 64.7212C260.526 64.7212 255.694 69.5533 255.694 75.514C255.694 81.4748 260.526 86.3069 266.487 86.3069Z" fill="#E2E2F6"></path><path d="M265.966 81.7075L259.793 77.5786L261.733 74.6802L265.194 76.9956L271.01 69.4443L273.772 71.5723L265.966 81.7075Z" fill="#A6A7DC"></path><path d="M355.796 39.3985L332.399 46.7412L339.742 70.138L363.138 62.7954L355.796 39.3985Z" fill="#C8C6C4"></path><path d="M369.83 46.8071H345.308V71.3291H369.83V46.8071Z" fill="#FCFCFB"></path><path d="M147.413 30.8901H77.1492V240H147.413V30.8901Z" fill="#E1DFDD"></path><path opacity="0.5" d="M147.413 30.8901H138.781V127.512H147.413V30.8901Z" fill="#C8C6C4"></path><path d="M150.455 128.601H144.371V240H150.455V128.601Z" fill="#EDEBE9"></path><path d="M396.289 194.09H297.399V240H396.289V194.09Z" fill="#FCFCFB"></path><path d="M338.279 194.09H297.399V240H338.279V194.09Z" fill="#EDEBE9"></path><path d="M396.292 213.725L345.456 212.032L396.292 210.338V213.725Z" fill="#F3F2F1"></path><path d="M297.396 208.645L327.331 207.19L297.396 205.736V208.645Z" fill="#E1DFDD"></path><path d="M338.278 215.647L305.803 214.126L338.278 212.604V215.647Z" fill="#E1DFDD"></path><path d="M297.396 230.222L328.313 229.036L297.396 227.85V230.222Z" fill="#E1DFDD"></path><path d="M338.278 228.529L387.084 226.829L338.278 225.129V228.529Z" fill="#F3F2F1"></path><path d="M600.723 62.5003V84.6903C597.863 84.4802 594.853 84.4202 592.003 84.6202C581.713 85.3602 574.733 89.7503 574.733 89.7503L559.383 64.4503C559.383 64.4503 565.283 59.6303 578.183 58.2402C589.133 57.0603 599.103 59.7103 599.103 59.7103L600.723 62.5003Z" fill="#EDEBE9"></path><path d="M427.591 78.8341C427.591 78.8341 435.546 94.0063 451.171 94.9225C463.938 95.6711 467.924 82.892 488.175 77.3828L467.822 58.698C467.822 58.698 459.845 56.0009 442.412 71.7529C435.877 77.6579 429.659 78.3805 427.591 78.8341Z" fill="#EDEBE9"></path><path d="M389.576 94.287C389.576 94.287 403.488 94.7333 410.137 93.4424C427.661 90.0398 437.493 80.8305 461.002 87.0431C461.002 87.0431 455.469 90.9286 444.052 96.7259C432.636 102.523 407.6 105.318 389.576 94.287Z" fill="url(#paint0_linear)"></path><path d="M458.78 99.0015H381.951V119.525H458.78V99.0015Z" fill="#FCFCFB"></path><path d="M422.835 99.0015H381.951V119.525H422.835V99.0015Z" fill="#F3F2F1"></path><path d="M381.951 111.363L417.204 109.663L381.951 107.963V111.363Z" fill="#EDEBE9"></path><path d="M458.78 107.757L429.737 106.057L458.78 104.357V107.757Z" fill="#F3F2F1"></path><path d="M422.835 115.39L451.878 113.691L422.835 111.991V115.39Z" fill="#F3F2F1"></path><path d="M435.989 135.847L422.072 126.531C420.582 125.534 418.796 125.079 417.011 125.24C417.011 125.24 410.098 125.421 407.404 125.165C404.71 124.91 401.026 121.834 401.026 121.834L399.55 119.179C399.55 119.179 412.347 118.971 418.101 120.29C423.854 121.608 432.557 123.6 432.557 123.6L435.989 135.847Z" fill="#E0BB95"></path><path d="M488.096 96.437C488.096 96.437 476.223 97.5103 470.878 106.016C467.099 112.03 464.656 119.673 456.266 121.834C447.875 123.995 428.698 122.716 428.698 122.716L429.302 144.357C429.302 144.357 439.469 152.902 460.26 151.212C479.012 149.688 493.324 131.34 493.324 131.34L488.096 96.437Z" fill="url(#paint1_linear)"></path><path d="M509.953 47.3376C509.953 47.3376 516.87 37.3584 530.251 40.5746C539.034 42.6855 545.63 49.1768 548.359 70.4609C549.643 80.484 548.496 91.7759 554.29 99.0019C558.372 104.094 570.393 107.461 575.407 102.474C575.407 102.474 563.947 130.824 536.436 121.573C508.529 112.189 514.187 69.7786 514.187 69.7786L509.953 47.3376Z" fill="url(#paint2_radial)"></path><path d="M514.175 45.5396C514.175 45.5396 511.643 37.2434 516.542 31.48L522.272 33.9802C522.272 33.9802 516.066 38.9965 514.175 45.5396Z" fill="#F593E7"></path><path d="M514.243 45.6686C514.243 45.6686 517.745 37.7328 525.219 36.5688L527.925 42.2046C527.925 42.2046 519.948 41.9488 514.243 45.6686Z" fill="#F593E7"></path><path d="M521.162 52.4539C521.856 48.8515 519.498 45.3688 515.895 44.675C512.293 43.9812 508.81 46.3392 508.117 49.9416C507.423 53.544 509.781 57.0268 513.383 57.7205C516.986 58.4143 520.468 56.0564 521.162 52.4539Z" fill="#F593E7"></path><path d="M522.501 64.0111C521.78 68.3835 518.633 72.9983 511.479 80.138C509.432 82.1815 507.756 85.9628 507.756 85.9628C507.756 85.9628 501.664 84.1911 497.566 83.5153C489.665 82.2123 483.629 73.5091 483.387 69.159C483.125 64.4304 481.799 61.7365 482.135 56.8957C482.791 47.4288 493.463 39.7263 506.497 42.8889C517.412 45.5374 524.28 53.2226 522.501 64.0111Z" fill="url(#paint3_radial)"></path><path d="M488.491 153.586C505.446 156.513 516.632 173.713 513.475 192.002C510.318 210.292 494.013 222.746 477.057 219.819C460.102 216.892 448.916 199.693 452.073 181.403L488.491 153.586Z" fill="#F7B548"></path><path d="M496.169 189.31C495.849 190.25 495.249 191.99 494.409 194.38V194.39C492.479 199.96 489.289 209.1 485.459 220.04C484.669 222.29 483.849 224.63 483.009 227.03C481.549 231.19 480.029 235.54 478.469 240H420.439C428.309 214.7 440.489 187.5 459.289 165.55C459.469 165.4 459.659 165.26 459.839 165.12C464.949 161.35 470.729 161.15 476.169 163C480.659 164.52 484.919 167.44 488.369 170.91L488.529 171.07C489.379 171.94 490.179 172.84 490.919 173.76C491.119 174.01 491.319 174.25 491.509 174.5C495.469 179.67 497.519 185.36 496.169 189.31Z" fill="url(#paint4_linear)"></path><path d="M459.285 165.554C459.285 165.554 461.318 194.126 480.749 198.296C495.16 201.389 512.42 175.349 512.42 175.349L459.285 165.554Z" fill="#F593E7"></path><path d="M539.809 240H486.879C485.519 235.56 484.219 231.21 483.009 227.03C482.329 224.71 481.679 222.44 481.069 220.23C478.439 210.81 476.389 202.53 475.249 196.27C474.499 192.09 474.149 188.81 474.319 186.7C475.259 183.09 480.079 178.03 486.139 173.01C486.309 172.86 486.489 172.71 486.669 172.58C487.279 172.07 487.899 171.57 488.529 171.07C488.569 171.04 488.609 171.01 488.659 170.97C493.389 167.25 498.599 163.65 503.199 160.78C507.619 158.02 511.469 155.94 513.769 155.07C513.779 155.06 513.799 155.05 513.809 155.05C514.239 161.16 514.889 166.47 515.909 171.67C515.949 171.84 515.979 172.02 516.009 172.2V172.21C517.839 181.22 520.799 189.94 525.739 201.91C530.739 214.03 535.479 227.08 539.809 240Z" fill="#F593E7"></path><path d="M508.43 94.4478C498.716 96.249 488.096 96.4368 488.096 96.4368C488.096 96.4368 477.212 104.712 475.038 114.678C472.865 124.643 473.622 129.107 473.868 133.92C474.266 141.693 471.295 149.341 466.694 155.573L459.677 165.075L513.717 180.089L512.611 168.326C511.885 160.616 513.579 152.724 517.635 146.085C520.148 141.971 525.002 134.337 526.554 128.99C530.994 113.696 522.655 98.4 508.43 94.4478Z" fill="url(#paint5_radial)"></path><path d="M466.694 155.573L459.285 165.554L513.806 180.701L516.07 171.985C511.056 162.52 513.452 157.754 513.806 155.052L470.764 148.487C469.673 150.985 468.32 153.37 466.694 155.573Z" fill="#F593E7"></path><path d="M507.965 89.4748C507.079 83.0102 509.264 75.957 509.264 75.957L496.997 77.7327C496.997 77.7327 495.559 88.3279 493.977 92.2612C492.499 95.939 488.096 96.437 488.096 96.437L493.632 96.5212C494.754 96.5383 495.72 97.3192 495.971 98.4128L497.603 104.093L499.472 98.4471C499.763 97.3709 500.747 96.6294 501.862 96.6463L514.187 96.8337C514.187 96.8337 508.504 93.402 507.965 89.4748Z" fill="url(#paint6_radial)"></path><path d="M490.098 67.1713C490.31 65.8859 489.923 64.7518 489.234 64.6381C488.545 64.5245 487.814 65.4743 487.602 66.7596C487.39 68.0449 487.777 69.1791 488.466 69.2927C489.156 69.4064 489.886 68.4566 490.098 67.1713Z" fill="#3A312E"></path><path d="M502.17 69.2294C502.382 67.944 501.995 66.8099 501.306 66.6962C500.616 66.5826 499.886 67.5324 499.674 68.8177C499.462 70.103 499.849 71.2372 500.538 71.3508C501.228 71.4645 501.958 70.5147 502.17 69.2294Z" fill="#3A312E"></path><path d="M501.103 49.729C493.109 48.4108 486.511 54.0392 484.241 61.8166C481.314 71.8466 486.139 84.967 495.264 86.1285C504.066 87.2488 511.516 76.7415 513.19 66.5903C514.508 58.5963 509.097 51.0472 501.103 49.729Z" fill="#E0BB95"></path><path d="M495.91 61.7847L486.991 60.314L485.807 77.56L492.798 80.6564L495.91 61.7847Z" fill="url(#paint7_radial)"></path><path d="M490.864 74.0211C491.952 74.9717 493.173 76.2043 493.384 77.1033C495.801 75.1595 495.99 68.7928 495.938 65.7974C495.932 65.4547 495.461 65.3688 495.331 65.6861C494.87 66.8158 494.155 68.3288 493.334 69.2263C492.773 69.8391 491.83 70.5975 490.974 71.2387C490.062 71.9222 490.006 73.2709 490.864 74.0211Z" fill="#E0BB95"></path><path d="M510.854 78.2557L506.717 77.5735L508.017 69.6904L512.154 70.3726C514.331 70.7316 515.805 72.7872 515.446 74.9641V74.9641C515.087 77.1409 513.031 78.6146 510.854 78.2557Z" fill="#E0BB95"></path><path d="M491.708 48.815C491.708 48.815 490.017 58.2559 496.276 60.3424C505 63.2501 504.138 69.3167 505.964 72.816C507.406 75.581 511.232 77.2461 514.118 77.6421C519.282 78.3505 524.537 76.2802 524.537 76.2802C524.537 76.2802 520.825 76.3697 519.01 69.948C517.555 64.801 521.002 53.1005 510.729 46.8164C505.709 43.7454 497.926 43.5105 491.708 48.815Z" fill="#BF8F68"></path><path d="M461.023 135.914L447.106 126.598C445.617 125.601 443.83 125.145 442.045 125.307C442.045 125.307 435.132 125.488 432.438 125.232C429.744 124.977 426.06 121.901 426.06 121.901L424.584 119.246C424.584 119.246 437.381 119.038 443.135 120.356C448.888 121.674 457.591 123.667 457.591 123.667L461.023 135.914Z" fill="#E0BB95"></path><path d="M453.732 122.783L454.336 144.424C454.336 144.424 464.503 152.969 485.294 151.279C504.047 149.755 518.358 131.407 518.358 131.407L513.269 97.4297C513.269 97.4297 504.017 96.5016 496.447 105.754C493.815 108.972 487.691 117.576 481.3 121.901C472.308 127.987 453.732 122.783 453.732 122.783Z" fill="#A6A7DC"></path><path d="M498.567 68.8026C498.776 68.3016 499.072 67.9175 499.583 67.6431C500.075 67.362 500.757 67.3083 501.311 67.4814C501.882 67.6531 502.267 67.9938 502.583 68.3433C502.719 68.5243 502.853 68.7123 502.954 68.9055C503.032 69.1136 503.128 69.3024 503.177 69.5168C503.258 69.8666 503.04 70.2157 502.69 70.2965C502.527 70.3343 502.363 70.3067 502.227 70.2308L502.185 70.2073C501.857 70.0231 501.579 69.8457 501.338 69.6841C501.09 69.5596 500.88 69.4185 500.726 69.392C500.572 69.342 500.47 69.3216 500.275 69.3269C500.096 69.3315 499.8 69.4374 499.545 69.5127L499.275 69.5923C498.964 69.6842 498.637 69.5064 498.545 69.1952C498.506 69.0607 498.517 68.9227 498.567 68.8026Z" fill="#3A312E"></path><path d="M497.995 79.0226C497.684 79.4594 497.348 79.7715 496.934 80.0306C496.529 80.2924 496.071 80.4728 495.593 80.5918C495.113 80.7036 494.606 80.7384 494.11 80.6632C493.613 80.6138 493.137 80.4068 492.728 80.1406C492.438 79.9518 492.356 79.5635 492.545 79.2735C492.646 79.117 492.806 79.0211 492.977 78.9955L493.072 78.9818C493.856 78.868 494.475 78.8108 495.142 78.6451C495.474 78.5763 495.806 78.4806 496.153 78.3858C496.488 78.2856 496.874 78.1725 497.218 78.096L497.359 78.0646C497.691 77.9908 498.02 78.2 498.094 78.5319C498.133 78.7083 498.091 78.8857 497.995 79.0226Z" fill="#C67467"></path><path d="M486.461 66.6366C486.655 66.133 486.934 65.7433 487.425 65.4503C487.897 65.1521 488.564 65.0581 489.131 65.199C489.715 65.338 490.118 65.6647 490.454 66C490.598 66.1759 490.739 66.3593 490.85 66.5485C490.936 66.7539 491.039 66.9393 491.097 67.1519C491.191 67.4982 490.986 67.8551 490.64 67.9491C490.478 67.9931 490.313 67.9716 490.175 67.9007L490.131 67.8783C489.797 67.7069 489.513 67.544 489.269 67.3942C489.019 67.2867 488.807 67.1552 488.654 67.1394C488.501 67.0994 488.392 67.0844 488.191 67.1016C488.006 67.1176 487.712 67.2365 487.458 67.3204L487.195 67.407C486.886 67.5088 486.553 67.3409 486.452 67.032C486.407 66.8979 486.414 66.7588 486.461 66.6366Z" fill="#3A312E"></path><path d="M600.723 232.36V240H596.073C595.593 239.21 595.113 238.4 594.623 237.55C594.333 237.06 594.043 236.55 593.753 236.04C588.983 227.63 583.643 216.66 579.413 203.76C577.383 197.6 575.603 191.01 574.253 184.05L581.433 181.01L573.333 178.81C571.893 169.76 571.223 160.13 571.683 150.09L577.103 147.81L571.823 147.5C572.293 140.17 573.363 132.63 575.183 124.91L600.723 232.36Z" fill="#B3B0AD"></path><path d="M600.723 189.11L600.073 189.56L600.723 189.5V232.36L575.183 124.91C575.183 124.91 586.903 136.94 596.663 158.92L593.213 162.62L598.033 162.13C598.953 164.35 599.863 166.66 600.723 169.06V189.11Z" fill="#C8C6C4"></path><path d="M1.11261 150.765V152.425C0.982666 152.525 0.852661 152.625 0.722656 152.735L1.11261 150.765Z" fill="#F3F2F1"></path><path d="M174.692 107.669C174.692 107.669 188.351 110.126 210.206 122.618C224.427 130.746 258.708 152.801 289.101 152.856C290.137 152.858 291.146 152.569 292.043 152.052C294.761 150.487 301.195 147.078 306.604 146.496C313.67 145.735 317.365 147.415 320.408 146.401C323.451 145.386 324.161 150.255 319.293 150.965C314.424 151.675 305.258 153.522 305.258 153.522L296.472 163.563L280.446 164.657L277.97 174.912C277.97 174.912 243.751 178.219 212.658 171.745C196.214 168.321 167.341 160.239 167.341 160.239L174.692 107.669Z" fill="#8B8CC7"></path><path d="M280.446 164.657L296.472 163.563L305.258 153.522C305.258 153.522 314.424 151.675 319.293 150.965C324.161 150.255 323.451 145.386 320.408 146.401C317.365 147.415 313.67 145.735 306.605 146.496C301.195 147.078 294.761 150.486 292.043 152.052C291.146 152.569 290.137 152.858 289.101 152.856C289.101 152.856 284.064 152.745 282.469 152.514L280.446 164.657Z" fill="#9B643D"></path><path d="M124.749 118.66C120.558 132.271 131.814 147.816 149.889 153.381C167.964 158.946 186.014 152.423 190.204 138.812C194.395 125.2 177.984 108.089 165.064 104.09C146.998 98.4984 128.939 105.048 124.749 118.66Z" fill="#8B8CC7"></path><path d="M150.693 217.17C150.693 217.17 148.153 221.42 144.403 227.59C142.203 231.22 139.583 235.51 136.813 240H56.2627L40.2427 233.37C52.6627 222.13 65.3027 206.45 73.0727 196.2C73.0727 196.19 73.0827 196.19 73.0927 196.19C73.0927 196.18 73.0927 196.17 73.1027 196.17C73.1027 196.17 73.1527 196.11 73.2427 195.98C74.1327 194.81 74.9527 193.72 75.7027 192.71C75.7227 192.69 75.7327 192.66 75.7527 192.64C76.3427 191.85 76.8827 191.11 77.3727 190.44C77.4327 190.36 77.4827 190.29 77.5427 190.21C79.5827 187.41 80.7527 185.73 80.7527 185.73L83.6827 187.05L91.1727 190.41L150.693 217.17Z" fill="#D667C7"></path><path d="M121.747 114.406C135.276 119.995 188.351 138.021 188.351 138.021C188.351 138.021 173.172 199.471 150.216 228.978C114.844 221.356 73.103 196.173 73.103 196.173C73.103 196.173 94.1819 167.499 121.747 114.406Z" fill="url(#paint8_linear)"></path><path d="M185.094 49.5689C188.918 49.5689 192.018 46.4689 192.018 42.6448C192.018 38.8207 188.918 35.7207 185.094 35.7207C181.269 35.7207 178.169 38.8207 178.169 42.6448C178.169 46.4689 181.269 49.5689 185.094 49.5689Z" fill="#594539"></path><path d="M197.339 54.3339C202.302 54.3339 206.325 50.3108 206.325 45.3481C206.325 40.3854 202.302 36.3623 197.339 36.3623C192.376 36.3623 188.353 40.3854 188.353 45.3481C188.353 50.3108 192.376 54.3339 197.339 54.3339Z" fill="#594539"></path><path d="M175.486 48.034C178.148 48.034 180.305 45.8765 180.305 43.215C180.305 40.5535 178.148 38.396 175.486 38.396C172.825 38.396 170.667 40.5535 170.667 43.215C170.667 45.8765 172.825 48.034 175.486 48.034Z" fill="#594539"></path><path d="M166.419 53.3035C170.067 53.3035 173.025 50.346 173.025 46.6976C173.025 43.0493 170.067 40.0918 166.419 40.0918C162.771 40.0918 159.813 43.0493 159.813 46.6976C159.813 50.346 162.771 53.3035 166.419 53.3035Z" fill="#594539"></path><path d="M206.221 58.3152C207.303 54.8003 205.331 51.0736 201.816 49.9915C198.301 48.9093 194.575 50.8815 193.492 54.3964C192.41 57.9113 194.382 61.638 197.897 62.7201C201.412 63.8023 205.139 61.8301 206.221 58.3152Z" fill="#594539"></path><path d="M160.734 60.1643C163.953 60.1643 166.562 57.555 166.562 54.3363C166.562 51.1176 163.953 48.5083 160.734 48.5083C157.515 48.5083 154.906 51.1176 154.906 54.3363C154.906 57.555 157.515 60.1643 160.734 60.1643Z" fill="#594539"></path><path d="M194.96 69.5833C198.179 69.5833 200.788 66.974 200.788 63.7553C200.788 60.5365 198.179 57.9272 194.96 57.9272C191.741 57.9272 189.132 60.5365 189.132 63.7553C189.132 66.974 191.741 69.5833 194.96 69.5833Z" fill="#594539"></path><path d="M160.818 66.8655C163.65 66.8655 165.946 64.5697 165.946 61.7377C165.946 58.9057 163.65 56.6099 160.818 56.6099C157.986 56.6099 155.69 58.9057 155.69 61.7377C155.69 64.5697 157.986 66.8655 160.818 66.8655Z" fill="#594539"></path><path d="M185.54 80.2732C189.516 80.6194 188.366 75.208 188.712 71.2317L194.342 62.5007C195.147 53.2585 188.307 45.1137 179.065 44.3088L176.609 44.0949C167.366 43.2901 159.437 50.1512 158.417 59.3721C157.915 63.9004 160.447 68.5164 160.242 73.2843C160.038 78.0524 185.54 80.2732 185.54 80.2732Z" fill="url(#paint9_linear)"></path><path d="M308.493 149.054L286.493 176.183C286.493 176.183 309.396 173.053 322.578 176.183C335.759 179.314 346.788 189.159 366.57 191.177C366.57 191.177 378.714 182.667 388.735 163.389C388.735 163.389 377.201 164.378 362.867 158.611C348.794 152.949 331.561 141.969 308.493 149.054Z" fill="#FCFCFB"></path><path d="M148.707 102.249C148.707 102.249 119.754 100.299 96.9317 107.67C74.1096 115.041 46.5581 121.01 31.0391 118.66V149.173C31.0391 149.173 80.1628 160.713 132.634 148.962L162.384 129.096L148.707 102.249Z" fill="#8B8CC7"></path><path d="M144.764 102.092C144.764 102.092 152.176 101.666 156.172 96.6567C161.424 90.072 162.34 75.396 162.34 75.396L172.131 78.4103L180.708 81.0509C180.708 81.0509 175.738 96.077 174.1 100.972C172.334 106.249 179.592 108.931 179.592 108.931C179.592 108.931 173.784 113.278 163.435 110.155C155.661 107.809 144.764 102.092 144.764 102.092Z" fill="url(#paint10_radial)"></path><path d="M162.736 113.844C165.509 114.65 168.029 114.968 170.278 114.968C177.266 114.968 182.72 111.31 183.924 110.343C182.551 109.873 180.605 109.235 179.55 108.92C176.873 110.406 171.531 112.323 163.93 110.111C159.182 108.731 151.175 104.839 145.842 102.116C144.203 102.06 141.208 102.007 138.454 102.015C140.338 103.032 155.234 111.661 162.736 113.844Z" fill="#BDBDE6"></path><path d="M177.309 99.3674C184.245 101.351 192.124 93.1406 193.895 84.8966C195.048 79.5271 195.414 67.4566 195.414 67.4566C196.145 59.0565 189.929 51.6538 181.528 50.9223C173.128 50.1907 165.726 56.4073 164.994 64.8075L163.475 82.2475C162.744 90.6477 172.083 97.8728 177.309 99.3674Z" fill="#9B643D"></path><path d="M177.402 72.4029C177.514 71.0295 177.002 69.867 176.258 69.8063C175.514 69.7456 174.82 70.8098 174.708 72.1832C174.596 73.5566 175.108 74.7191 175.852 74.7798C176.596 74.8404 177.29 73.7763 177.402 72.4029Z" fill="#3A312E"></path><path d="M189.602 92.1011L180.874 91.1578L181.178 84.2957C181.233 83.666 181.6 83.1059 182.156 82.8052L185.001 81.2659C185.621 80.9309 185.855 80.1599 185.526 79.5371L183.501 75.6964C183.018 74.7809 182.807 73.7463 182.893 72.7148L183.837 65.0029L192.205 65.9077L189.602 92.1011Z" fill="url(#paint11_radial)"></path><path d="M175.6 85.3323L183.639 87.2331C184.082 87.3378 184.286 87.849 184.033 88.2269C183.216 89.4452 181.307 91.5414 178.266 90.5658C176.046 89.8534 175.025 87.7413 174.8 86.0288C174.742 85.5857 175.165 85.2295 175.6 85.3323Z" fill="#6B402F"></path><path d="M183.639 87.2333C183.85 87.2833 184.002 87.4284 184.081 87.6045C182.978 88.026 181.485 88.1755 179.875 87.9359C177.612 87.599 175.779 86.6001 175.058 85.4539C175.207 85.3429 175.4 85.2852 175.6 85.3326L183.639 87.2333Z" fill="#FAF9F8"></path><path d="M189.987 73.4996C190.099 72.1262 189.587 70.9637 188.843 70.903C188.099 70.8423 187.405 71.9065 187.293 73.2799C187.181 74.6533 187.693 75.8158 188.437 75.8764C189.181 75.9371 189.875 74.8729 189.987 73.4996Z" fill="#3A312E"></path><path d="M157.324 74.6271C157.032 77.7802 159.351 80.5732 162.504 80.8654C162.718 80.8852 165.487 81.1156 165.697 81.112C168.581 81.0616 168.47 78.6244 168.743 75.6854C169.013 72.7738 169.786 69.3761 167.002 68.7642C166.771 68.7134 163.804 69.4694 163.563 69.4471C160.41 69.1548 157.617 71.474 157.324 74.6271Z" fill="#9B643D"></path><path d="M168.808 45.2031L196.648 45.2104L197.82 57.5817L195.456 66.8114C195.421 58.7975 189.711 54.4071 185.383 54.2759C182.509 54.1888 173.917 55.1405 173.917 55.1405C170.751 54.8648 167.827 56.8506 166.916 59.8949L165.931 67.5567C165.781 68.7228 164.733 69.5595 163.562 69.4472L164.258 56.0288L168.808 45.2031Z" fill="url(#paint12_linear)"></path><path d="M177.838 60.6888C181.056 60.6888 183.666 58.0795 183.666 54.8607C183.666 51.642 181.056 49.0327 177.838 49.0327C174.619 49.0327 172.01 51.642 172.01 54.8607C172.01 58.0795 174.619 60.6888 177.838 60.6888Z" fill="#594539"></path><path d="M169.533 60.7664C172.752 60.7664 175.361 58.1571 175.361 54.9384C175.361 51.7196 172.752 49.1104 169.533 49.1104C166.314 49.1104 163.705 51.7196 163.705 54.9384C163.705 58.1571 166.314 60.7664 169.533 60.7664Z" fill="#594539"></path><path d="M174.028 61.4609C174.792 58.9785 173.399 56.3466 170.917 55.5824C168.434 54.8181 165.803 56.2109 165.038 58.6933C164.274 61.1756 165.667 63.8075 168.149 64.5718C170.632 65.336 173.263 63.9432 174.028 61.4609Z" fill="#594539"></path><path d="M77.3727 82.1699H28.7627V240H77.3727V82.1699Z" fill="#F3F2F1"></path><path d="M21.0161 52.4053L1.5061 150.765V109.965L2.04614 109.985L1.5061 109.535V85.8052C2.95612 82.3453 4.55615 78.8853 6.33612 75.4352L12.6561 75.6252L7.63611 72.9653C11.3662 66.0052 15.7861 59.1152 21.0161 52.4053Z" fill="#B3B0AD"></path><path d="M26.7962 95.2153L21.7662 97.2753L26.7062 98.9553C26.4262 107.055 25.4962 115.945 23.5762 125.375L16.4362 126.665L22.8162 128.945C21.7962 133.445 20.5462 138.075 19.0262 142.785C17.1462 148.645 14.8462 154.645 12.0662 160.735C11.4862 162.005 10.8862 163.285 10.2662 164.565C8.24622 168.735 5.99622 172.935 3.48621 177.165C2.99622 178.005 2.49622 178.845 1.9762 179.685C1.81616 179.945 1.6662 180.195 1.50616 180.455V152.425C1.37622 152.525 1.24622 152.625 1.11621 152.735L1.50616 150.765L21.0162 52.4053C21.0162 52.4053 27.0962 69.3853 26.7962 95.2153Z" fill="#C8C6C4"></path><path d="M54.7462 167.505C54.7462 169.905 54.6162 172.395 54.3362 174.965C54.1962 176.295 54.0062 177.635 53.7762 179.005C53.3563 179.205 52.9163 179.385 52.4863 179.535C51.1462 180.005 49.7263 180.325 48.2762 180.525C45.6962 180.855 43.0262 180.815 40.3662 180.515C40.0162 180.475 39.6562 180.435 39.3062 180.385C38.1663 180.235 37.0363 180.045 35.9062 179.815C34.5662 179.535 33.2363 179.215 31.9062 178.835C31.3762 178.695 30.8462 178.535 30.3162 178.375C29.4863 178.125 28.5962 178.595 28.3362 179.425C28.2662 179.665 28.2462 179.905 28.2863 180.125C28.3762 180.695 28.7662 181.185 29.3462 181.385C31.4462 182.105 33.5862 182.735 35.7662 183.225C36.7662 183.465 37.7662 183.665 38.7762 183.835C39.2263 183.915 39.6862 183.985 40.1462 184.045C42.9462 184.445 45.8062 184.575 48.7062 184.305C50.0962 184.155 51.4763 183.915 52.8462 183.545C52.1762 186.315 51.3162 189.115 50.2062 191.965C49.9262 192.695 49.6262 193.405 49.3462 194.095C47.4763 194.875 45.2562 195.305 43.0363 195.485C42.5162 195.525 41.9863 195.565 41.4562 195.585C40.1063 195.635 38.7363 195.615 37.3563 195.545C36.0463 195.485 34.7363 195.355 33.4262 195.185C30.1962 194.775 26.9763 194.145 23.8062 193.265V193.275C23.1562 193.085 22.4863 193.475 22.3062 194.115C22.1362 194.725 22.4763 195.365 23.0562 195.585C26.2462 196.755 29.5262 197.745 32.8962 198.405C34.6962 198.755 36.5062 199.045 38.3462 199.205C39.6862 199.345 41.0363 199.405 42.4062 199.395C42.6862 199.395 42.9763 199.395 43.2562 199.385C44.4962 199.345 45.7462 199.265 47.0062 199.075C45.1663 202.675 43.1362 205.775 41.0162 208.445C40.2062 208.595 39.3762 208.685 38.5463 208.755C35.3962 209.015 32.1462 208.875 28.9262 208.465C27.0562 208.225 25.1762 207.905 23.3062 207.515C22.2562 207.295 21.2162 207.045 20.1862 206.775C19.8962 206.705 19.6063 206.625 19.3162 206.545H19.3062C18.6663 206.365 17.9863 206.745 17.8062 207.385C17.6462 208.005 17.9763 208.635 18.5562 208.845C21.7562 210.025 25.0363 211.015 28.4062 211.675C31.2963 212.245 34.2263 212.645 37.2363 212.665C27.8862 221.905 17.3862 223.975 10.4662 223.175C9.40625 223.055 8.43622 222.865 7.55621 222.625V222.615C7.20624 222.525 6.87622 222.425 6.55621 222.315C3.95624 221.405 2.23627 219.915 1.11621 218.245V208.605C1.87622 207.785 2.64624 206.905 3.44623 205.985V205.975C4.81622 204.375 6.22626 202.615 7.67621 200.755C10.4163 197.235 13.2562 193.305 16.0963 189.225C18.5662 185.675 21.0262 182.005 23.4062 178.365C33.5662 162.825 42.2062 147.935 43.3962 145.865L43.4262 145.825C43.4262 145.825 43.4262 145.815 43.4362 145.815L48.7062 138.295C48.9163 138.715 53.8262 148.895 54.6362 163.425C54.4562 163.505 54.2963 163.565 54.1262 163.655C53.6162 163.875 53.1063 164.085 52.5862 164.265C50.5363 164.985 48.3862 165.325 46.1663 165.275C43.9362 165.235 41.6762 164.855 39.4362 164.315H39.4163C38.5963 164.105 37.7762 164.615 37.5762 165.425C37.3762 166.225 37.8463 167.025 38.6162 167.255C40.9962 167.955 43.4562 168.505 46.0162 168.675C48.5762 168.855 51.2462 168.585 53.7462 167.825C54.0762 167.725 54.4062 167.615 54.7462 167.505Z" fill="#C8C6C4"></path><path d="M43.3962 145.865C42.2062 147.935 33.5662 162.825 23.4062 178.365C21.0262 182.005 18.5662 185.675 16.0963 189.225C13.2562 193.305 10.4163 197.235 7.67621 200.755C6.22626 202.615 4.81622 204.375 3.44623 205.975V205.985C2.64624 206.905 1.87622 207.785 1.11621 208.605V206.215L3.19623 203.245V203.235L8.18622 196.115L14.8162 186.655L34.7762 158.155L35.8262 156.665L37.1462 154.785C37.4262 154.395 37.6962 154.025 37.9562 153.645L38.3563 153.065C38.6262 152.685 38.8862 152.315 39.1362 151.955C39.3762 151.615 39.6063 151.285 39.8162 150.975L39.8463 150.935L40.9362 149.385L41.0662 149.195L41.4062 148.705L41.9262 147.965L42.2963 147.435L43.3962 145.865Z" fill="#C8C6C4"></path><path d="M34.7762 158.155L14.7963 186.665H14.7863L8.19623 196.065V196.075L3.19623 203.195C3.19623 203.195 3.19623 203.195 3.19623 203.205L1.11621 206.175V202.915C1.76623 202.155 2.42621 201.355 3.10626 200.535C4.94623 198.305 6.88623 195.875 8.88623 193.315V193.305C10.3262 191.465 11.7863 189.565 13.2562 187.625C13.2562 187.625 13.2662 187.625 13.2662 187.615C20.9462 177.525 28.9262 166.415 34.7762 158.155Z" fill="#E1DFDD"></path><path d="M48.7062 138.285V138.295L43.4362 145.815C43.4662 145.745 43.4962 145.705 43.5162 145.675C43.3962 145.835 42.9763 146.445 42.2963 147.435L41.9262 147.965L41.4062 148.705L41.0662 149.195L40.9362 149.385L39.8462 150.935L39.8162 150.975C39.6063 151.285 39.3762 151.615 39.1362 151.955C38.8862 152.315 38.6262 152.685 38.3563 153.065L37.1462 154.785L35.8262 156.665L34.7762 158.155C28.9262 166.415 20.9462 177.525 13.2662 187.615C13.2662 187.625 13.2562 187.625 13.2562 187.625C11.7863 189.565 10.3262 191.465 8.88623 193.305V193.315C6.88623 195.875 4.94623 198.305 3.10626 200.535C2.42621 201.355 1.76623 202.155 1.11621 202.915V179.075C1.26623 179.285 1.42621 179.485 1.58624 179.685C2.09625 180.325 2.61621 180.965 3.14624 181.585C3.53626 182.065 4.25623 182.155 4.77625 181.795C5.32623 181.405 5.45624 180.645 5.06622 180.095H5.05621C4.37622 179.135 3.71625 178.155 3.09625 177.165C2.39624 176.075 1.74622 174.965 1.11621 173.835V152.425C2.18622 151.605 3.26623 150.835 4.34625 150.105C4.47626 151.295 4.70624 152.485 4.98627 153.625C5.84625 156.905 7.19623 159.955 8.82623 162.795C9.16626 163.395 9.51624 163.985 9.87622 164.565C11.2363 166.765 12.7363 168.855 14.3362 170.845C14.8662 171.495 15.8362 171.625 16.5262 171.115C17.2263 170.585 17.3563 169.595 16.8463 168.895C14.9763 166.425 13.2863 163.835 11.8762 161.125C11.8062 160.995 11.7363 160.865 11.6762 160.735C10.3463 158.165 9.30621 155.475 8.68622 152.745C8.38623 151.315 8.19623 149.865 8.19623 148.445C8.19623 148.195 8.19623 147.945 8.21625 147.695C11.7162 145.665 15.2263 144.055 18.6362 142.785C18.6762 142.775 18.7062 142.755 18.7462 142.745C18.7462 142.925 18.7562 143.105 18.7662 143.275C18.9163 145.875 19.5662 148.485 20.6063 150.825C21.6362 153.175 22.9863 155.305 24.4662 157.295C24.9362 157.935 25.8563 158.105 26.5262 157.655C27.2363 157.185 27.4262 156.245 26.9562 155.535L26.9462 155.525C25.6663 153.605 24.5363 151.605 23.7462 149.535C22.9462 147.455 22.5262 145.325 22.5162 143.145C22.5062 142.595 22.5262 142.045 22.5562 141.485V141.445C37.0262 136.965 48.7062 138.285 48.7062 138.285Z" fill="#E1DFDD"></path><path d="M37.1504 154.789L37.9525 153.648C37.6946 154.021 37.4243 154.395 37.1504 154.789Z" fill="#C8C6C4"></path><path d="M38.3582 153.064L39.1336 151.958C38.8864 152.317 38.6285 152.69 38.3582 153.064Z" fill="#C8C6C4"></path><path d="M39.1335 151.958L39.8183 150.974C39.6031 151.289 39.3772 151.62 39.1335 151.958Z" fill="#C8C6C4"></path><path d="M41.9223 147.968L41.4048 148.701C41.5897 148.44 41.7587 148.2 41.9223 147.968Z" fill="#E1DFDD"></path><path d="M43.4003 145.869L41.9224 147.968C42.9646 146.463 43.5427 145.62 43.5427 145.62C43.5427 145.62 43.5017 145.689 43.4252 145.821L43.4003 145.869Z" fill="#E1DFDD"></path><path d="M91.1762 190.41C91.0363 194.35 90.5662 199.44 89.3862 205.17C88.6262 208.84 87.5762 212.78 86.1162 216.86C83.6862 216.63 81.3262 215.98 79.0562 214.92C78.5463 214.68 78.0463 214.43 77.5463 214.16C77.4863 214.12 77.4262 214.09 77.3762 214.06C75.5963 213.08 73.8862 211.91 72.2462 210.64L72.2263 210.62C71.4362 210.02 70.3062 210.16 69.6862 210.95C69.0963 211.72 69.2162 212.81 69.9462 213.44C72.1762 215.33 74.5762 217.11 77.2762 218.52C77.3062 218.54 77.3463 218.56 77.3762 218.57C77.4362 218.6 77.4863 218.63 77.5463 218.66C79.6962 219.78 82.0662 220.61 84.4863 221.07C82.7963 225.09 80.6962 229.21 78.0862 233.29C77.9062 233.27 77.7263 233.24 77.5463 233.21C77.4863 233.21 77.4262 233.2 77.3762 233.18C76.2562 233.02 75.1362 232.76 74.0262 232.45C70.6862 231.45 67.4362 229.89 64.3762 227.98C61.2963 226.09 58.3762 223.88 55.6063 221.49C54.8362 220.81 53.6362 220.89 52.9662 221.67C52.3062 222.44 52.3762 223.59 53.1063 224.28C55.9163 226.87 58.9163 229.31 62.1462 231.46C65.3762 233.62 68.8662 235.46 72.6762 236.75C73.5062 237.02 74.3563 237.26 75.2162 237.46C74.5963 238.31 73.9562 239.15 73.2762 240H48.9962C46.3762 238.31 43.8362 236.48 41.4063 234.49C40.9063 234.07 40.2062 234.05 39.6962 234.4C39.5762 234.47 39.4662 234.57 39.3762 234.68C38.8962 235.27 38.9462 236.11 39.4763 236.63C40.6663 237.78 41.8962 238.91 43.1563 240H13.6362C18.7263 236.51 23.7662 232.96 28.7662 229.36C33.9962 225.61 39.1862 221.81 44.3563 217.99C45.1162 217.42 45.8662 216.86 46.6262 216.29C51.9462 212.32 57.2562 208.34 62.5363 204.3C66.0562 201.62 69.5762 198.92 73.0762 196.2C73.0762 196.19 73.0862 196.19 73.0963 196.19C73.1063 196.18 73.1162 196.18 73.1162 196.18C74.5363 195.07 75.9562 193.97 77.3762 192.87C77.4362 192.82 77.4863 192.78 77.5463 192.74C79.2963 191.37 81.0463 190 82.7863 188.63C82.9562 188.51 82.9962 188.26 82.8662 188.08C82.7662 187.94 82.5862 187.88 82.4262 187.94L83.6862 187.05L90.9763 181.87C90.9763 181.87 91.3662 185.11 91.1762 190.41Z" fill="#C8C6C4"></path><path d="M82.7862 188.63C81.0462 190 79.2962 191.37 77.5462 192.74C77.4862 192.78 77.4362 192.82 77.3762 192.87C75.9562 193.97 74.5362 195.07 73.1161 196.18C73.1161 196.18 73.1062 196.18 73.0962 196.19C73.0862 196.19 73.0762 196.19 73.0762 196.2C69.5762 198.92 66.0562 201.62 62.5362 204.3C57.2562 208.34 51.9462 212.32 46.6262 216.29C45.8662 216.86 45.1162 217.42 44.3562 217.99C39.1862 221.81 33.9962 225.61 28.7662 229.36C23.7662 232.96 18.7262 236.51 13.6362 240H9.1062L28.7662 226.04L75.4062 192.92H75.4162L75.7062 192.71L77.3762 191.53L77.5462 191.41L82.4162 187.95L82.4261 187.94C82.5862 187.88 82.7662 187.94 82.8661 188.08C82.9962 188.26 82.9562 188.51 82.7862 188.63Z" fill="#C8C6C4"></path><path d="M82.4163 187.95L77.5463 191.41L77.3762 191.53L75.7062 192.71L75.4163 192.92H75.4062L28.7662 226.02L9.06622 240H4.89624C12.9362 235.11 20.8862 230.03 28.7662 224.84C33.4163 221.79 38.0463 218.7 42.6563 215.59C53.6663 208.14 64.6063 200.57 75.4562 192.86C75.5562 192.8 75.6562 192.73 75.7562 192.64C76.2963 192.27 76.8362 191.89 77.3762 191.49C77.4362 191.47 77.4863 191.43 77.5463 191.37C79.1362 190.26 80.7263 189.12 82.3062 187.99C82.3362 187.97 82.3762 187.95 82.4163 187.95Z" fill="#E1DFDD"></path><path d="M90.9763 181.87L83.6862 187.05L82.4262 187.94L82.4163 187.95C82.3762 187.95 82.3362 187.97 82.3062 187.99C80.7263 189.12 79.1362 190.26 77.5463 191.37C77.4863 191.43 77.4362 191.47 77.3762 191.49C76.8362 191.89 76.2963 192.27 75.7562 192.64C75.6562 192.73 75.5562 192.8 75.4562 192.86C64.6063 200.57 53.6663 208.14 42.6563 215.59C38.0463 218.7 33.4163 221.79 28.7662 224.84C20.8862 230.03 12.9362 235.11 4.89624 240H1.11621V197.96C1.81622 197.15 2.56622 196.34 3.36621 195.54C3.21625 196.8 3.15625 198.06 3.11621 199.3C3.10626 199.71 3.10626 200.12 3.10626 200.53C3.10626 201.42 3.14624 202.31 3.19623 203.19C3.19623 203.19 3.19623 203.19 3.19623 203.2V203.24C3.25623 204.15 3.33624 205.07 3.44623 205.97V205.98C3.66626 207.86 3.97626 209.72 4.35626 211.55C5.11621 215.34 6.23627 219.02 7.55621 222.61V222.62C7.61621 222.82 7.69623 223 7.76623 223.2C8.02625 223.89 8.78626 224.29 9.50623 224.08C9.65625 224.04 9.78625 223.98 9.90625 223.9C10.1663 223.72 10.3662 223.46 10.4662 223.17C10.5662 222.9 10.5862 222.6 10.4962 222.3C9.43622 218.55 8.67621 214.73 8.15625 210.92C7.69623 207.52 7.50623 204.09 7.67621 200.75C7.69623 200.34 7.71625 199.93 7.74621 199.53C7.82623 198.38 7.96625 197.23 8.18622 196.11C8.18622 196.09 8.18622 196.08 8.19623 196.07V196.06C8.36621 195.11 8.59625 194.18 8.88623 193.31V193.3C9.33624 191.91 9.91626 190.65 10.6762 189.6C10.7963 189.43 10.9362 189.25 11.0862 189.08C11.7863 188.59 12.5062 188.1 13.2562 187.62C13.2562 187.62 13.2662 187.62 13.2662 187.61C13.7662 187.3 14.2662 186.98 14.7863 186.66H14.7963C14.8062 186.65 14.8062 186.65 14.8162 186.65C15.1762 186.42 15.5363 186.21 15.9062 185.99C15.9362 187.07 15.9962 188.15 16.0963 189.22C16.3062 191.55 16.6762 193.85 17.1362 196.12C17.8662 199.76 18.9262 203.31 20.1862 206.77C20.3062 207.1 20.4262 207.43 20.5463 207.76C20.8062 208.45 21.5662 208.84 22.2863 208.64C22.8362 208.49 23.2162 208.04 23.3062 207.51C23.3563 207.3 23.3463 207.08 23.2863 206.86L23.2762 206.85C22.2062 203.11 21.4562 199.29 20.9362 195.47C20.4163 191.66 20.2462 187.81 20.5162 184.09C20.5363 183.88 20.5463 183.69 20.5762 183.49C22.7062 182.43 24.9763 181.42 27.3862 180.47C27.6862 180.35 27.9863 180.24 28.2863 180.12C28.4462 180.06 28.6063 180 28.7662 179.94C29.8162 179.54 30.8662 179.18 31.9062 178.83C33.3563 178.36 34.7863 177.94 36.2162 177.57C36.0762 178.32 35.9763 179.07 35.9062 179.81V179.84C35.8062 180.97 35.7662 182.1 35.7662 183.22C35.7662 186.06 36.0562 188.86 36.5463 191.6C36.7762 192.92 37.0463 194.24 37.3563 195.54C37.6562 196.77 37.9863 197.99 38.3463 199.2C38.6962 200.4 39.0862 201.58 39.4962 202.76C39.8362 203.71 40.8662 204.24 41.8362 203.93C42.8262 203.62 43.3662 202.57 43.0562 201.58C42.8262 200.85 42.6162 200.12 42.4062 199.39C42.0562 198.13 41.7363 196.85 41.4562 195.58C41.1162 194.04 40.8362 192.5 40.6162 190.95C40.2762 188.64 40.1063 186.33 40.1462 184.04C40.1562 182.85 40.2263 181.67 40.3662 180.51C40.3662 180.45 40.3762 180.38 40.3862 180.32C40.5662 178.98 40.8262 177.68 41.1862 176.42C45.7363 175.53 50.1462 175.08 54.3362 174.96C54.8762 174.94 55.4163 174.93 55.9462 174.93C55.7462 175.47 55.5562 176.03 55.3962 176.59C54.5162 179.55 54.2162 182.72 54.4462 185.74C54.6663 188.78 55.3262 191.69 56.1862 194.49C56.4662 195.41 57.4062 195.95 58.3463 195.72C59.3262 195.48 59.9062 194.49 59.6663 193.53L59.6562 193.51C58.9962 190.86 58.5262 188.18 58.4662 185.54C58.4062 182.91 58.7863 180.36 59.6362 177.93C59.8362 177.31 60.0762 176.71 60.3463 176.1C60.4763 175.8 60.6063 175.5 60.7462 175.18C60.7762 175.13 60.8062 175.07 60.8362 175.01C67.1262 175.29 72.7462 176.24 77.3762 177.34C77.4362 177.35 77.4863 177.37 77.5463 177.38C80.1962 178.02 82.5162 178.7 84.4562 179.34C88.6063 180.71 90.9763 181.87 90.9763 181.87Z" fill="#E1DFDD"></path><path d="M556.483 240L564.103 234.05L552.693 234.02C547.633 222.67 543.363 210.31 540.423 197L546.723 192.1L539.693 193.55C537.713 183.78 536.473 173.51 536.143 162.77L536.153 162.78L577.953 240H556.483Z" fill="#B3B0AD"></path><path d="M600.723 238.06V240H577.953L536.153 162.78C536.753 163.14 556.053 174.79 576.273 199.75L573.043 205.81L579.193 203.47C579.263 203.57 579.343 203.66 579.413 203.76C585.603 211.78 591.773 221.07 597.433 231.66L593.753 236.04L591.533 238.68L594.623 237.55L599.563 235.75C599.953 236.51 600.333 237.28 600.723 238.06Z" fill="#C8C6C4"></path><path d="M341.406 96.9158L335.169 129.684L368.709 136.068L374.946 103.3L341.406 96.9158Z" fill="white"></path><path d="M368.565 106.139C367.839 105.991 367.255 105.222 367.403 104.496L368.331 99.4097C368.479 98.6839 369.248 98.0995 369.973 98.2471C370.699 98.3947 371.284 99.1635 371.136 99.8893L370.207 104.976C370.054 105.807 369.396 106.292 368.565 106.139Z" fill="#C8C6C4"></path><path d="M361.092 104.755C360.366 104.607 359.782 103.838 359.929 103.113L360.858 98.0259C361.005 97.3001 361.774 96.7157 362.5 96.8633C363.226 97.0109 363.81 97.7797 363.663 98.5055L362.734 103.592C362.685 104.429 361.922 104.909 361.092 104.755Z" fill="#C8C6C4"></path><path d="M353.723 103.377C352.997 103.23 352.413 102.461 352.56 101.735L353.489 96.6484C353.637 95.9226 354.405 95.3383 355.131 95.4859C355.857 95.6335 356.441 96.4023 356.294 97.1281L355.365 102.215C355.211 103.045 354.449 103.525 353.723 103.377Z" fill="#C8C6C4"></path><path d="M346.256 101.889C345.53 101.742 344.946 100.973 345.093 100.247L346.022 95.1601C346.17 94.4343 346.938 93.85 347.664 93.9976C348.39 94.1452 348.974 94.914 348.827 95.6398L347.898 100.727C347.744 101.557 346.982 102.037 346.256 101.889Z" fill="#C8C6C4"></path><path d="M341.407 96.9118L340.117 103.688L373.657 110.073L374.947 103.296L341.407 96.9118Z" fill="#E2E2F6"></path><path opacity="0.5" d="M367.402 104.496C367.255 105.222 367.839 105.991 368.565 106.139C369.395 106.292 370.053 105.807 370.207 104.976L370.663 102.479L367.868 101.947L367.402 104.496Z" fill="#BDBDE6"></path><path opacity="0.5" d="M359.929 103.113C359.782 103.839 360.366 104.608 361.092 104.755C361.922 104.909 362.685 104.429 362.734 103.593L363.197 101.058L360.402 100.526L359.929 103.113Z" fill="#BDBDE6"></path><path opacity="0.5" d="M352.561 101.735C352.413 102.461 352.997 103.23 353.723 103.377C354.449 103.525 355.211 103.045 355.365 102.215L355.832 99.6562L353.037 99.124L352.561 101.735Z" fill="#BDBDE6"></path><path opacity="0.5" d="M345.093 100.247C344.946 100.972 345.53 101.741 346.256 101.889C346.981 102.037 347.744 101.557 347.898 100.726L348.353 98.2323L345.558 97.7002L345.093 100.247Z" fill="#BDBDE6"></path></g><defs><linearGradient id="paint0_linear" x1="426.88" y1="101.273" x2="425.879" y2="94.6026" gradientUnits="userSpaceOnUse"><stop stop-color="#E1DFDD"></stop><stop offset="1" stop-color="#E1DFDD"></stop></linearGradient><linearGradient id="paint1_linear" x1="480.529" y1="146.732" x2="464.494" y2="127.387" gradientUnits="userSpaceOnUse"><stop stop-color="#8B8CC7"></stop><stop offset="1" stop-color="#A6A7DC"></stop></linearGradient><radialGradient id="paint2_radial" cx="0" cy="0" r="1" gradientUnits="userSpaceOnUse" gradientTransform="translate(509.672 70.5965) scale(21.9117)"><stop stop-color="#9B643D"></stop><stop offset="0.229512" stop-color="#A6714A"></stop><stop offset="0.697534" stop-color="#B88760"></stop><stop offset="1" stop-color="#BF8F68"></stop></radialGradient><radialGradient id="paint3_radial" cx="0" cy="0" r="1" gradientUnits="userSpaceOnUse" gradientTransform="translate(509.347 70.5914) scale(22.1464)"><stop stop-color="#9B643D"></stop><stop offset="0.229512" stop-color="#A6714A"></stop><stop offset="0.697534" stop-color="#B88760"></stop><stop offset="1" stop-color="#BF8F68"></stop></radialGradient><linearGradient id="paint4_linear" x1="499.265" y1="196.15" x2="471.271" y2="201.302" gradientUnits="userSpaceOnUse"><stop offset="0.001256" stop-color="#D667C7"></stop><stop offset="0.999666" stop-color="#F593E7"></stop></linearGradient><radialGradient id="paint5_radial" cx="0" cy="0" r="1" gradientUnits="userSpaceOnUse" gradientTransform="translate(490.407 138.602) scale(25.9328)"><stop stop-color="#8B8CC7"></stop><stop offset="1" stop-color="#A6A7DC"></stop></radialGradient><radialGradient id="paint6_radial" cx="0" cy="0" r="1" gradientUnits="userSpaceOnUse" gradientTransform="translate(496.047 80.5546) scale(11.6583)"><stop offset="0.001256" stop-color="#BF8F68"></stop><stop offset="1" stop-color="#E0BB95"></stop></radialGradient><radialGradient id="paint7_radial" cx="0" cy="0" r="1" gradientUnits="userSpaceOnUse" gradientTransform="translate(494.348 72.7846) rotate(9.36382) scale(7.47944 6.38115)"><stop offset="0.001256" stop-color="#BF8F68"></stop><stop offset="0.299988" stop-color="#CCA17A"></stop><stop offset="0.715669" stop-color="#DBB48E"></stop><stop offset="1" stop-color="#E0BB95"></stop></radialGradient><linearGradient id="paint8_linear" x1="106.163" y1="138.906" x2="122.039" y2="157.126" gradientUnits="userSpaceOnUse"><stop stop-color="#6264A7"></stop><stop offset="0.1034" stop-color="#6B6DAE"></stop><stop offset="0.37819" stop-color="#7D7EBC"></stop><stop offset="0.668984" stop-color="#8889C4"></stop><stop offset="1" stop-color="#8B8CC7"></stop></linearGradient><linearGradient id="paint9_linear" x1="176.298" y1="65.3225" x2="176.231" y2="69.0493" gradientUnits="userSpaceOnUse"><stop stop-color="#594539"></stop><stop offset="1" stop-color="#9B643D"></stop></linearGradient><radialGradient id="paint10_radial" cx="0" cy="0" r="1" gradientUnits="userSpaceOnUse" gradientTransform="translate(174.199 92.3123) rotate(-162.888) scale(16.9871)"><stop stop-color="#724937"></stop><stop offset="0.3437" stop-color="#87573A"></stop><stop offset="0.7035" stop-color="#96613C"></stop><stop offset="1" stop-color="#9B643D"></stop></radialGradient><radialGradient id="paint11_radial" cx="0" cy="0" r="1" gradientUnits="userSpaceOnUse" gradientTransform="translate(182.675 79.8857) rotate(-175.743) scale(7.58299 8.06473)"><stop stop-color="#69402D"></stop><stop offset="0.1423" stop-color="#764931"></stop><stop offset="0.4332" stop-color="#8A5838"></stop><stop offset="0.721" stop-color="#97613C"></stop><stop offset="1" stop-color="#9B643D"></stop></radialGradient><linearGradient id="paint12_linear" x1="180.657" y1="65.3791" x2="180.59" y2="69.1059" gradientUnits="userSpaceOnUse"><stop stop-color="#594539"></stop><stop offset="1" stop-color="#9B643D"></stop></linearGradient><clipPath id="clip0"><rect width="600" height="240" fill="white" transform="translate(0.722656)"></rect></clipPath></defs></svg>