<svg viewBox="0 0 20 20" class="D_X W_6LEV H_6LEV cdPFi_q cZW7ROP_n en_0 cvhIH6_T"><path d="M17.3 3H2.7c-.4 0-.7.3-.7.7v12.6c0 .4.3.7.7.7h14.6c.4 0 .7-.3.7-.7V3.7c0-.4-.3-.7-.7-.7zM5.5 7.7c.2-.7.8-1.3 1.6-1.5 1.5-.3 2.9 1 2.5 2.5-.2.8-.8 1.4-1.6 1.6-1.5.3-2.8-1-2.5-2.6zm5.1 6.8h-6c-.6 0-.9-.6-.6-1.1.7-1 2.1-1.7 3.6-1.7s2.9.7 3.6 1.7c.3.4-.1 1.1-.6 1.1zm5.2-1.3H14c-.4 0-.7-.3-.7-.7s.3-.7.7-.7h1.8c.4 0 .7.3.7.7s-.3.7-.7.7zm0-2.9h-3.3c-.4 0-.7-.3-.7-.7s.3-.7.7-.7h3.3c.4 0 .7.3.7.7 0 .3-.3.7-.7.7zm0-2.9h-3.3c-.4 0-.7-.3-.7-.7 0-.4.3-.7.7-.7h3.3c.4 0 .7.3.7.7 0 .3-.3.7-.7.7z"></path></svg>