<svg width="20" height="20" viewBox="0 0 20 20" class="c01133"><path d="M5.78 3.17A7.64 7.64 0 019.97 2C15.22 2 18 5.87 18 8.86a3.89 3.89 0 01-3.83 3.88c-2.35 0-2.86-.72-2.86-1 0-.13.08-.21.18-.33l.04-.05c.3-.36.47-.82.47-1.3C12 7.6 9.43 5.6 6.25 5.6a6.9 6.9 0 00-3.36.84 7.73 7.73 0 012.9-3.27z"></path><path d="M9.32 8.17l.11-.04a5.2 5.2 0 00-3.18-1.02C3.95 7.11 2 8.46 2 10.06c0 1.89.66 3.7 1.85 5.15A8.03 8.03 0 008.52 18a5.83 5.83 0 01-2.28-4.89c0-2.08 1.47-4.39 3.08-4.94z"></path><path d="M16.66 14.53l.02-.03c.1-.16.2-.3.05-.46-.12-.12-.24-.07-.36 0l-.06.03c-.88.43-1.85.65-2.82.64a5.58 5.58 0 01-5.28-3.42c-.3.56-.46 1.19-.47 1.82a4.21 4.21 0 002.52 4.17c.53.23 1.1.34 1.68.33a5.89 5.89 0 003.4-1.56c.51-.45.95-.96 1.32-1.52z"></path></svg>