<svg width="20" height="20" viewBox="0 0 20 20" class="c01133"><path d="M5.77 3.17a7.82 7.82 0 017.93-.18c3.97 2.04 5.5 6.16 4.18 10.44a7.46 7.46 0 01-2.37 3.59 4.32 4.32 0 01-4.2.8 3.84 3.84 0 01-2.2-1.68c-.41-.7-.53-1.47-.58-2.14l-.02-.29-.04-.66c-.02-.3-.05-.55-.1-.76a1.16 1.16 0 00-.2-.47.75.75 0 00-.4-.24 1.86 1.86 0 00-1.66.2l-.38.23c-.31.18-.72.4-1.23.37a2.91 2.91 0 01-1.66-.77 2.63 2.63 0 01-.94-2.12c0-.79.25-1.63.62-2.43a9.6 9.6 0 013.25-3.9zm7.47.71a6.82 6.82 0 00-6.95.14c-1 .62-2.2 2-2.87 3.46a4.92 4.92 0 00-.52 2c0 .59.19 1.04.57 1.35.53.43.86.54 1.08.55.2.01.4-.07.68-.23l.14-.1c.25-.14.57-.34.95-.46a2.85 2.85 0 011.75.03c.37.11.65.3.87.57.2.26.33.56.4.86.07.3.1.62.13.93l.04.76.02.18a4 4 0 00.44 1.71c.28.48.76.93 1.66 1.24 1.22.42 2.33.1 3.26-.64a6.46 6.46 0 002.04-3.1c1.18-3.85-.18-7.45-3.69-9.25zm-.74 9.37a.75.75 0 110 1.5.75.75 0 010-1.5zm2-2a.75.75 0 110 1.5.75.75 0 010-1.5zm0-3a.75.75 0 110 1.5.75.75 0 010-1.5zM12.75 6a.75.75 0 110 1.5.75.75 0 010-1.5zm-3-1a.75.75 0 110 1.5.75.75 0 010-1.5z" fill-rule="nonzero"></path></svg>