<svg width="20" height="20" viewBox="0 0 20 20" class="c0111489"><path d="M11.89 2c.52 0 1 .27 1.27.7l.07.13.58 1.17h1.7A2.5 2.5 0 0118 6.33v8.17a2.5 2.5 0 01-2.33 2.5H4.5a2.5 2.5 0 01-2.49-2.34V6.5A2.5 2.5 0 014.33 4H6.2l.58-1.17A1.5 1.5 0 017.98 2L8.12 2h3.77zm0 1H8.12a.5.5 0 00-.4.2l-.04.08-.73 1.44A.5.5 0 016.6 5H4.5c-.77 0-1.42.6-1.49 1.36v8.15c0 .78.59 1.42 1.35 1.5H15.5c.78 0 1.43-.6 1.5-1.36V6.5c0-.78-.59-1.42-1.35-1.5H13.5a.5.5 0 01-.4-.2l-.04-.08-.72-1.44a.5.5 0 00-.36-.27l-.1-.01zM10 6a4 4 0 110 8 4 4 0 010-8zm0 1a3 3 0 100 6 3 3 0 000-6z" fill-rule="nonzero"></path></svg>