<svg width="20" height="20" viewBox="0 0 20 20" class="c01133"><path fill-rule="evenodd" clip-rule="evenodd" d="M11.555 7.11a.594.594 0 00-.594.593v6.695c0 .328.266.594.594.594h3.242a.594.594 0 00.594-.594V7.703a.594.594 0 00-.594-.594h-3.242zm.343.937v6.008h2.555V8.047h-2.555zM4.664 7.844c0-.328.266-.594.594-.594H8.5c.328 0 .594.266.594.594v4.25a.594.594 0 01-.594.594H5.258a.594.594 0 01-.594-.594v-4.25zm.938 3.906V8.187h2.554v3.563H5.602z"></path><path d="M4.617 5.477c0-.26.21-.47.47-.47l9.835.002a.469.469 0 010 .938l-9.836-.002a.469.469 0 01-.469-.468zM5.086 14.055a.469.469 0 000 .937h3.492a.469.469 0 000-.937H5.086z"></path><path fill-rule="evenodd" clip-rule="evenodd" d="M4.867 2A2.867 2.867 0 002 4.867v10.266A2.867 2.867 0 004.867 18h10.266A2.867 2.867 0 0018 15.133V4.867A2.867 2.867 0 0015.133 2H4.867zm10.266.938H4.867a1.93 1.93 0 00-1.93 1.93v10.265a1.93 1.93 0 001.93 1.93h10.266a1.93 1.93 0 001.93-1.93V4.867a1.93 1.93 0 00-1.93-1.93z"></path></svg>