<svg width="20" height="20" viewBox="0 0 20 20" fill="none" class="c0112127"><path fill-rule="evenodd" clip-rule="evenodd" d="M2.996 5.5a2.5 2.5 0 012.5-2.5h9a2.5 2.5 0 012.5 2.5v9a2.5 2.5 0 01-2.5 2.5h-3.261c.114-.183.217-.374.31-.573L11.74 16h2.755a1.5 1.5 0 001.5-1.5V7h-6.5a1.5 1.5 0 01-1.5-1.5V4h-2.5a1.5 1.5 0 00-1.5 1.5v4.59a6.787 6.787 0 00-.624.356c-.131.084-.256.174-.376.27V5.5zm13 .5v-.5a1.5 1.5 0 00-1.5-1.5h-5.5v1.5a.5.5 0 00.5.5h6.5z"></path><path fill-rule="evenodd" clip-rule="evenodd" d="M9.596 9.468a2.937 2.937 0 00-.344-.02c-.263 0-.531.027-.804.082-.274.054-.544.13-.81.225a7.813 7.813 0 00-1.487.718c-.246.04-.5.094-.763.159a4.306 4.306 0 00-.764.266 5.772 5.772 0 00-.712.39 3.152 3.152 0 00-.61.507 2.712 2.712 0 00-.44.636 2.337 2.337 0 00-.226.769c.164-.199.322-.375.476-.528.154-.154.316-.3.487-.436a3.86 3.86 0 01.543-.364c.192-.106.405-.203.641-.292a.71.71 0 00-.072.072l-.066.077c-.192.215-.388.449-.59.702a14.016 14.016 0 00-1.153 1.691 8.484 8.484 0 00-.466.933c-.134.314-.24.625-.318.933A3.635 3.635 0 002 16.89c.003.239.036.46.097.666a1.444 1.444 0 00.774.902c.188.089.409.133.661.133.168-.003.334-.022.498-.056.164-.034.328-.08.492-.139.164-.058.323-.124.476-.2.154-.075.301-.151.441-.23.26.102.526.181.8.236.273.054.548.082.825.082.393-.007.769-.06 1.127-.16.36-.098.692-.247 1-.445a3.946 3.946 0 001.445-1.67H8.53c-.192.249-.409.416-.651.501a2.443 2.443 0 01-.815.128 1.88 1.88 0 01-.661-.123 1.45 1.45 0 01-.518-.338 1.618 1.618 0 01-.338-.517 1.7 1.7 0 01-.123-.656h5.422a.632.632 0 00.067-.154 2.437 2.437 0 00.077-.37c.007-.057.01-.112.01-.163a4.434 4.434 0 00-.118-.98 3.825 3.825 0 00-.343-.912 6.946 6.946 0 00.312-.732c.045-.127.08-.255.108-.385.027-.13.041-.258.041-.384a1.361 1.361 0 00-.128-.574 1.814 1.814 0 00-.344-.482 1.164 1.164 0 00-.276-.205 1.586 1.586 0 00-.318-.128 2.194 2.194 0 00-.338-.067zm-6.77 8.226a1.518 1.518 0 01-.047-.379c0-.256.043-.516.128-.779.086-.263.183-.507.292-.733.188.438.445.825.77 1.163.324.339.694.616 1.111.83a14.38 14.38 0 01-.338.18 3.341 3.341 0 01-.759.282c-.126.03-.249.046-.369.046a.77.77 0 01-.64-.297.856.856 0 01-.149-.313zm5.755-4.638c.082.202.123.42.123.656h-3.28c0-.236.04-.456.123-.661.082-.205.196-.381.343-.528a1.64 1.64 0 011.174-.477c.239 0 .46.043.66.128.203.086.375.204.519.354.143.15.256.326.338.528zm.835-1.912a3.911 3.911 0 00-1.302-.605c.117-.061.24-.123.37-.184.13-.062.26-.116.394-.164.133-.048.268-.086.405-.113.137-.027.272-.04.405-.04.147-.004.285.016.415.06.13.045.24.107.328.185a.823.823 0 01.21.297c.052.12.077.258.077.416 0 .205-.032.41-.097.615-.065.205-.139.4-.22.584a3.66 3.66 0 00-.985-1.05z"></path></svg>