<svg width="20" height="20" viewBox="0 0 20 20" class="c0111489"><path d="M11.5 9.5c0-.83.67-1.5 1.5-1.5h1.5a.5.5 0 010 1H13a.5.5 0 00-.5.5v1c0 .28.22.5.5.5h.5c.83 0 1.5.67 1.5 1.5v1c0 .83-.67 1.5-1.5 1.5H12a.5.5 0 010-1h1.5a.5.5 0 00.5-.5v-1a.5.5 0 00-.5-.5H13a1.5 1.5 0 01-1.5-1.5v-1z"></path><path d="M11 8.5a.5.5 0 00-1 0v5a.5.5 0 01-.5.5h-1a.5.5 0 000 1h1c.83 0 1.5-.67 1.5-1.5v-5z"></path><path d="M3 6a3 3 0 013-3h8a3 3 0 013 3v8a3 3 0 01-3 3H6a3 3 0 01-3-3V6zm3-2a2 2 0 00-2 2v8c0 1.1.9 2 2 2h8a2 2 0 002-2V6a2 2 0 00-2-2H6z"></path></svg>