<svg width="20" height="20" viewBox="0 0 20 20" fill-rule="evenodd" class="c0114004"><path d="M5 3.75A.75.75 0 015.75 3h8.5a.75.75 0 01.75.75V4H5v-.25zm11 0V4h.25c.97 0 1.75.78 1.75 1.75v8.5A1.75 1.75 0 0116.25 16H16v.25A1.75 1.75 0 0114.25 18h-8.5A1.75 1.75 0 014 16.25V16h-.25A1.75 1.75 0 012 14.25v-8.5C2 4.78 2.78 4 3.75 4H4v-.25C4 2.78 4.78 2 5.75 2h8.5c.97 0 1.75.78 1.75 1.75zM16.25 5a.75.75 0 01.75.75v8.5a.75.75 0 01-.75.75H3.75a.75.75 0 01-.75-.75v-8.5A.75.75 0 013.75 5h12.5zM5 16h10v.25a.75.75 0 01-.75.75h-8.5a.75.75 0 01-.75-.75V16zm3.5-9.5a.5.5 0 00-.48.37l-1.19 4.37-.9-1.49a.5.5 0 00-.86.51l1.5 2.5a.5.5 0 00.91-.12l1.4-5.13h4.62a.5.5 0 000-1h-5zm1.88 2.17a.5.5 0 10-.76.65l1.22 1.43-1.22 1.43a.5.5 0 00.76.65l1.12-1.31 1.12 1.31a.5.5 0 10.76-.65l-1.22-1.42 1.22-1.42a.5.5 0 00-.76-.65L11.5 9.98l-1.12-1.31z"></path></svg>