<svg width="20" height="20" viewBox="0 0 20 20" class="c0111489"><path d="M10.59 2c.4 0 .78.16 1.06.44l3.91 3.91c.28.28.44.67.44 1.06v1.67c.58.2 1 .76 1 1.42v4c0 .65-.42 1.2-1 1.41V16a2 2 0 01-2 2H6a2 2 0 01-2-2v-.09c-.58-.2-1-.76-1-1.41v-4c0-.66.42-1.21 1-1.42V4c0-1.1.9-2 2-2h4.59zM15 16H5a1 1 0 00.88 1H14a1 1 0 001-.88V16zm.5-6h-11a.5.5 0 00-.5.5v4c0 .28.23.5.5.5h11a.5.5 0 00.5-.5v-4a.5.5 0 00-.5-.5zm-8.17 1a1.17 1.17 0 01.13 2.33H7v.17a.5.5 0 01-1 .09V11.5a.5.5 0 01.41-.5H7.33zm6.17 0a.5.5 0 110 1H13v.33h.5a.5.5 0 110 1H13v.17a.5.5 0 11-1 0v-2c0-.28.22-.5.5-.5h1zM10 11a1.5 1.5 0 01.14 3H9.5a.5.5 0 01-.5-.41V11.5a.5.5 0 01.4-.5h.6zm.09 1h-.1v1a.5.5 0 00.1-1zm-2.76 0H7v.33h.33a.17.17 0 00.06-.32L7.33 12zM10 3H6a1 1 0 00-1 .88V9h10V8h-3.5A1.5 1.5 0 0110 6.64V3zm1 .2v3.3c0 .25.18.45.41.5H14.8L11 3.2z" fill-rule="nonzero"></path></svg>