<svg width="20" height="20" viewBox="0 0 20 20"><path fill-rule="evenodd" clip-rule="evenodd" d="M3 2c.28 0 .5.22.5.5v3c0 .28.22.5.5.5h12a.5.5 0 00.5-.5v-3a.5.5 0 011 0v3c0 .83-.67 1.5-1.5 1.5h-.2l-3.58 7.17a1.5 1.5 0 01-.75.71c.02.2.03.4.03.62 0 .58-.07 1.16-.27 1.62-.21.47-.6.88-1.23.88s-1.02-.41-1.23-.88a4.12 4.12 0 01-.27-1.62c0-.21.01-.42.03-.62a1.5 1.5 0 01-.75-.7L4.19 7H4a1.5 1.5 0 01-1.5-1.5v-3c0-.28.22-.5.5-.5zm6.12 12h1.76a.5.5 0 00.45-.28L14.69 7H5.31l3.36 6.72a.5.5 0 00.45.28zm.4 1l-.02.5c0 .52.07.94.19 1.21.11.26.22.29.31.29.1 0 .2-.03.31-.29.12-.27.19-.69.19-1.21 0-.18 0-.35-.02-.5h-.96z"></path><path d="M16.5 3H14v3h2a.5.5 0 00.5-.5V3zM13 6V3H3.5v2.5c0 .28.22.5.5.5h9zm-.55 1l-2.4 4.78a.5.5 0 10.9.44L13.56 7h-1.11zM9.5 15.5c0-.18 0-.35.02-.5h.96l.02.5c0 .52-.07.94-.19 1.21-.11.26-.22.29-.31.29-.1 0-.2-.03-.31-.29a3.17 3.17 0 01-.19-1.21z" class="accent" fill="none"></path></svg>