<svg id="page-layout-icon" class="c0149" width="16" height="12" viewBox="0 0 16 12" xmlns="https://www.w3.org/2000/svg"><path d="M1 2C1 1.44772 1.44772 1 2 1H2.5C2.77614 1 3 0.776142 3 0.5C3 0.223858 2.77614 0 2.5 0H2C0.895431 0 0 0.895431 0 2V2.5C0 2.77614 0.223858 3 0.5 3C0.776142 3 1 2.77614 1 2.5V2Z"></path><path d="M7.5 0.00012207C7.2239 0.00012207 7.00007 0.223914 7 0.5L7 11.5C7 11.7761 7.22386 12.0001 7.5 12.0001H14C15.1046 12.0001 16 11.1047 16 10.0001V5.41434C16 5.01651 15.842 4.63498 15.5607 4.35368L11.6464 0.439462C11.3651 0.158157 10.9836 0.00012207 10.5858 0.00012207H7.5ZM8 11.0001L8 1.00012L10 1.00012V4.50012C10 5.32855 10.6716 6.00012 11.5 6.00012H15V10.0001C15 10.5524 14.5523 11.0001 14 11.0001H8ZM11.5 5.00012C11.2239 5.00012 11 4.77626 11 4.50012V1.20723L14.7929 5.00012H11.5Z"></path><path d="M1 10C1 10.5523 1.44772 11 2 11H2.5C2.77614 11 3 11.2239 3 11.5C3 11.7761 2.77614 12 2.5 12H2C0.895431 12 0 11.1046 0 10V9.5C0 9.22386 0.223858 9 0.5 9C0.776143 9 1 9.22386 1 9.5V10Z"></path><path d="M1 4.5C1 4.22386 0.776142 4 0.5 4C0.223858 4 0 4.22386 0 4.5V7.5C0 7.77614 0.223858 8 0.5 8C0.776142 8 1 7.77614 1 7.5L1 4.5Z"></path><path d="M4 0.5C4 0.223858 4.22386 0 4.5 0H5.5C5.77614 0 6 0.223858 6 0.5C6 0.776142 5.77614 1 5.5 1H4.5C4.22386 1 4 0.776142 4 0.5Z"></path><path d="M4.5 11C4.22386 11 4 11.2239 4 11.5C4 11.7761 4.22386 12 4.5 12H5.5C5.77614 12 6 11.7761 6 11.5C6 11.2239 5.77614 11 5.5 11H4.5Z"></path></svg>