<svg width="20" height="20" viewBox="0 0 24 24" class="c013268 "><defs></defs><path d="M11 15c0-.35.06-.687.17-1H4.253a2.249 2.249 0 00-2.249 2.249v.578c0 .892.319 1.756.899 2.435 1.566 1.834 3.952 2.74 7.098 2.74.397 0 .783-.015 1.156-.044A2.998 2.998 0 0111 21v-.535c-.321.024-.655.036-1 .036-2.738 0-4.704-.746-5.958-2.213a2.25 2.25 0 01-.539-1.462v-.577c0-.414.336-.75.75-.75H11V15zM10 2.005a5 5 0 110 10 5 5 0 010-10zm0 1.5a3.5 3.5 0 100 7 3.5 3.5 0 000-7zM12 15a2 2 0 012-2h7a2 2 0 012 2v6a2 2 0 01-2 2h-7a2 2 0 01-2-2v-6zm2.5 1a.5.5 0 000 1h6a.5.5 0 000-1h-6zm0 3a.5.5 0 000 1h6a.5.5 0 000-1h-6z"></path></svg>