<svg width="20" height="20" viewBox="0 0 20 20" class="c01133"><path d="M8.5 4a.5.5 0 01.09 1H5.5c-.78 0-1.42.6-1.5 1.36v8.14c0 .78.6 1.42 1.36 1.5h8.14c.78 0 1.42-.6 1.5-1.36V13.5a.5.5 0 011-.09v1.09a2.5 2.5 0 01-2.34 2.5H5.5A2.5 2.5 0 013 14.66V6.5A2.5 2.5 0 015.34 4H8.5zm3.88-.42c0-.45.46-.7.81-.52l.08.05.06.05 4.5 4.42c.18.19.22.47.1.69l-.05.08-.05.07-4.5 4.42a.56.56 0 01-.93-.25l-.02-.09v-2.18l-.26.03a9.64 9.64 0 00-5.19 2.5c-.39.35-.99.03-.93-.5.5-3.99 2.49-6.23 5.89-6.6l.26-.03.23-.01V3.58zm1 1.03v2.03l-1.15.08a5.2 5.2 0 00-3.57 1.57 6.49 6.49 0 00-1.47 3.07 9.84 9.84 0 014.48-1.96l.35-.05 1.36-.12v2.16l3.44-3.4-3.44-3.38z" fill-rule="nonzero"></path></svg>