<svg width="20" height="20" viewBox="0 0 20 20" class="c0111489"><path d="M10 6c2.33 0 4.67.3 7 .89.55.13.94.6 1 1.15V10.72a3.26 3.26 0 01-3.05 3.27l-.19.01h-2a2.1 2.1 0 01-1.47-.6l-.13-.13-.52-.61a.83.83 0 00-1.19-.08l-.09.08-.52.6c-.37.43-.87.68-1.42.73l-.18.01h-2A3.26 3.26 0 012 10.9L2 10.72V8.17c0-.6.4-1.14 1-1.28C5.32 6.29 7.66 6 10 6zm0 1c-2.25 0-4.5.28-6.76.86A.32.32 0 003 8.1L3 8.17v2.55c0 1.21.93 2.2 2.08 2.27l.16.01h2c.27 0 .54-.1.74-.29l.1-.1.53-.6a1.83 1.83 0 012.61-.18l.09.08.08.1.53.6c.18.21.44.35.7.38l.14.01h2c1.18 0 2.16-.93 2.23-2.12l.01-.16V8.17c0-.15-.1-.28-.24-.31A27.51 27.51 0 0010 7zm4 2h1.5a.5.5 0 01.09 1h-1.6a.5.5 0 01-.08-1h.1zM6 9a.5.5 0 010 1H4.5a.5.5 0 010-1H6zm4-1a.75.75 0 110 1.5.75.75 0 010-1.5z" fill-rule="nonzero"></path></svg>