<svg height="100%" width="100%" xmlns="http://www.w3.org/2000/svg" viewBox="0 0 16 16">
    <path d="M8,2a6,6,0,1,0,6,6A6,6,0,0,0,8,2Zm2,1.4a5.08,5.08,0,0,1,.76.42l.15.1a4.7,4.7,0,0,1,.65.53l0,0a4.69,4.69,0,0,1,.56.69.83.83,0,0,1,.08.12,4.31,4.31,0,0,1,.26.47H10.77A7.56,7.56,0,0,0,9.9,3.38ZM10,8a9.85,9.85,0,0,1-.08,1.25H6.08a9.81,9.81,0,0,1,0-2.5H9.92A9.85,9.85,0,0,1,10,8ZM8,3c.59,0,1.37,1,1.76,2.75H6.24C6.63,4,7.41,3,8,3ZM3.75,5.39,4,5a4.7,4.7,0,0,1,.45-.55l0,0a4.7,4.7,0,0,1,.65-.53l.15-.1A5.08,5.08,0,0,1,6,3.4l0,0a7.56,7.56,0,0,0-.87,2.37H3.56C3.62,5.63,3.68,5.51,3.75,5.39ZM3.11,9a4.78,4.78,0,0,1,0-2,2,2,0,0,1,.07-.23H5.07C5,7.15,5,7.57,5,8s0,.85.07,1.25H3.18A2,2,0,0,1,3.11,9ZM6,12.6a5.08,5.08,0,0,1-.76-.42l-.15-.1a4.7,4.7,0,0,1-.65-.53l0,0A4.7,4.7,0,0,1,4,11l-.26-.37c-.07-.12-.13-.24-.19-.36H5.23a7.56,7.56,0,0,0,.86,2.37ZM8,13c-.59,0-1.37-1-1.76-2.75H9.76C9.37,12,8.59,13,8,13Zm4.25-2.39L12,11a4.7,4.7,0,0,1-.45.55l0,0a4.7,4.7,0,0,1-.65.53l-.15.1a4.32,4.32,0,0,1-.76.42l-.06,0a7.56,7.56,0,0,0,.87-2.37h1.67C12.38,10.37,12.32,10.49,12.25,10.61Zm.57-1.36H10.93c0-.4.07-.82.07-1.25s0-.85-.07-1.25h1.89a2,2,0,0,1,.07.23,4.78,4.78,0,0,1,0,2A2,2,0,0,1,12.82,9.25Z" fill="currentColor"></path>
    </svg>