<svg xmlns="http://www.w3.org/2000/svg" viewBox="0 0 20 20"><title>Excel_20x</title><path d="M13,10,9.5,8.705,6,10v7.1a.9.9,0,0,0,.9.9H18.1a.9.9,0,0,0,.9-.9V14Z" fill="#185c37"/><path d="M13,2H6.9a.9.9,0,0,0-.9.9V5.6L13,10l3,2.132L19,10.1V5.6Z" fill="#21a366"/><rect x="6" y="6" width="7" height="4" fill="#107c41"/><rect x="13" y="10" width="6" height="4" fill="#107c41"/><path d="M11.1,6H6V16h4.8A1.2,1.2,0,0,0,12,14.8V6.9A.9.9,0,0,0,11.1,6Z" opacity="0.5"/><rect x="1" y="5" width="10" height="10" rx="0.9" fill="#107c41"/><path d="M3.3,13.021,5.256,9.992,3.466,6.979H4.907L5.884,8.9q.135.273.186.408h.012q.1-.219.2-.425L7.329,6.979H8.652l-1.837,3L8.7,13.021H7.291L6.162,10.906a1.862,1.862,0,0,1-.135-.282H6.011a1.384,1.384,0,0,1-.131.273L4.717,13.021Z" fill="#fff"/><path d="M13,2h5.1a.9.9,0,0,1,.9.9V6a0,0,0,0,1,0,0H13a0,0,0,0,1,0,0V2A0,0,0,0,1,13,2Z" fill="#33c481"/></svg>