<svg xmlns="http://www.w3.org/2000/svg" viewBox="0 0 20 20"><title>Word_20x</title><path d="M6,6l6.5,1.316L19,6V2.9a.9.9,0,0,0-.9-.9H6.9a.9.9,0,0,0-.9.9V6Z" fill="#41a5ee"/><polygon points="6 10 12.5 11.625 19 10 19 8 19 6 12.5 6 6 6 6 8 6 10" fill="#2b7cd3"/><polygon points="6 14 12.5 15.667 19 14 19 12 19 10 12.5 10 6 10 6 12 6 14" fill="#185abd"/><path d="M6.9,18H18.1a.9.9,0,0,0,.9-.9V14H6v3.1a.9.9,0,0,0,.9.9Z" fill="#103f91"/><path d="M11.1,6H6V16h4.8A1.2,1.2,0,0,0,12,14.8V6.9A.9.9,0,0,0,11.1,6Z" opacity="0.5"/><rect x="1" y="5" width="10" height="10" rx="0.9" fill="#185abd"/><path d="M4.352,11.54c.017.142.029.266.034.372h.019c.008-.1.023-.222.046-.364s.044-.262.065-.36L5.429,7H6.61l.945,4.126a6.267,6.267,0,0,1,.118.778h.016a6.348,6.348,0,0,1,.1-.753L8.543,7H9.618L8.3,13H7.039l-.9-3.975c-.026-.114-.056-.264-.089-.448s-.053-.318-.061-.4H5.972c-.01.1-.03.242-.061.435s-.054.335-.072.427L4.992,13H3.716L2.382,7H3.476L4.3,11.2C4.318,11.283,4.335,11.4,4.352,11.54Z" fill="#fff"/></svg>