<?xml version="1.0" encoding="UTF-8" standalone="no"?>
<svg
   xmlns:dc="http://purl.org/dc/elements/1.1/"
   xmlns:cc="http://creativecommons.org/ns#"
   xmlns:rdf="http://www.w3.org/1999/02/22-rdf-syntax-ns#"
   xmlns:svg="http://www.w3.org/2000/svg"
   xmlns="http://www.w3.org/2000/svg"
   xmlns:sodipodi="http://sodipodi.sourceforge.net/DTD/sodipodi-0.dtd"
   xmlns:inkscape="http://www.inkscape.org/namespaces/inkscape"
   version="1.1"
   width="256"
   height="256"
   viewBox="0 0 256 256"
   xml:space="preserve"
   id="svg137"
   sodipodi:docname="iconpacks.net maneki-neko-9048-16x16-gridfit.svg"
   inkscape:export-filename="D:\src\LunaSvgTest\svgs\iconpacks.net maneki-neko-9048.png"
   inkscape:export-xdpi="12"
   inkscape:export-ydpi="12"
   inkscape:version="1.0.2-2 (e86c870879, 2021-01-15)"><metadata
   id="metadata141"><rdf:RDF><cc:Work
       rdf:about=""><dc:format>image/svg+xml</dc:format><dc:type
         rdf:resource="http://purl.org/dc/dcmitype/StillImage" /><dc:title></dc:title></cc:Work></rdf:RDF></metadata><sodipodi:namedview
   pagecolor="#ffffff"
   bordercolor="#666666"
   borderopacity="1"
   objecttolerance="10"
   gridtolerance="10"
   guidetolerance="10"
   inkscape:pageopacity="0"
   inkscape:pageshadow="2"
   inkscape:window-width="640"
   inkscape:window-height="480"
   id="namedview139"
   showgrid="true"
   inkscape:zoom="2.8007812"
   inkscape:cx="116.93166"
   inkscape:cy="128"
   inkscape:current-layer="svg137"><inkscape:grid
     type="xygrid"
     id="grid143"
     empspacing="8"
     spacingx="2"
     spacingy="2" /></sodipodi:namedview>
<desc
   id="desc61">Created with Fabric.js 1.7.22</desc>
<defs
   id="defs63">

	

	
	
	
	
	
	
	
	
	
	
	
	
	
	
	
	
	
	
	
	
	
	
	
	
	
	
	
	
	
	
	
	
	
	
</defs>
<path
   d="m 163.10849,251.2352 h -55.6519 c -33.550784,0 -60.746552,-27.19857 -60.746552,-60.74655 v 0 c 0,-33.55078 27.198569,-60.74655 60.746552,-60.74655 h 55.6547 c 33.55078,0 60.74655,27.19857 60.74655,60.74655 v 0 c -0.003,33.54798 -27.19857,60.74655 -60.74935,60.74655 z"
   style="fill:#eaeaea;fill-rule:nonzero;stroke:none;stroke-width:2.8008;stroke-linecap:butt;stroke-linejoin:miter;stroke-miterlimit:10;stroke-dasharray:none"
   stroke-linecap="round"
   id="path65" /><path
   d="m 160,256.036 h -54.20337 c -34.127029,0 -61.890192,-30.50934 -61.890192,-65.54735 0,-35.03801 27.763163,-63.54735 61.890192,-63.54735 H 160 c 34.12702,0 61.88747,28.50654 61.88747,63.54735 0,35.04081 -27.76045,65.54735 -61.88747,65.54735 z M 105.79663,132.5401 c -31.118308,0 -56.434668,25.99422 -56.434668,57.94575 0,31.95152 25.319088,59.94855 56.434668,59.94855 H 160 c 31.11558,0 56.43194,-27.99422 56.43194,-59.94575 0,-31.95153 -25.31636,-57.94575 -56.43194,-57.94575 h -54.20337 z"
   style="fill:#1d1d1b;fill-rule:nonzero;stroke:#1d1d1b;stroke-width:2.76424;stroke-linecap:butt;stroke-linejoin:miter;stroke-miterlimit:10;stroke-dasharray:none;stroke-opacity:1"
   stroke-linecap="round"
   id="path67"
   sodipodi:nodetypes="ssssssscssssscc" /><path
   d="m 199.30042,130.02778 c 0,23.52112 -28.66338,42.58896 -64.02068,42.58896 -35.3573,0 -64.02069,-19.06784 -64.02069,-42.58896 z"
   style="fill:#ff6c52;fill-rule:nonzero;stroke:none;stroke-width:2.8008;stroke-linecap:butt;stroke-linejoin:miter;stroke-miterlimit:10;stroke-dasharray:none"
   stroke-linecap="round"
   id="path69" /><path
   d="m 135.28254,175.42034 c -36.84453,0 -66.818688,-20.36181 -66.818688,-45.38976 0,-1.54604 1.254758,-2.8008 2.8008,-2.8008 H 199.30322 c 1.54885,0 2.8008,1.25476 2.8008,2.8008 -0.003,25.02795 -29.97696,45.38976 -66.82148,45.38976 z M 74.213894,132.83138 c 2.218234,20.63629 28.761416,36.98736 61.068646,36.98736 32.30723,0 58.85041,-16.35107 61.06864,-36.98736 z"
   style="display:none;fill:#1d1d1b;fill-rule:nonzero;stroke:none;stroke-width:2.8008;stroke-linecap:butt;stroke-linejoin:miter;stroke-miterlimit:10;stroke-dasharray:none"
   stroke-linecap="round"
   id="path71" /><path
   d="m 147.53884,189.6008 c 0,6.76953 -5.48677,12.2563 -12.2563,12.2563 -6.76954,0 -12.2563,-5.48677 -12.2563,-12.2563 0,-6.76954 5.48676,-16.98406 12.2563,-16.98406 6.76953,0 12.2563,10.21452 12.2563,16.98406 z"
   style="fill:#ffd278;fill-rule:nonzero;stroke:none;stroke-width:2.8008;stroke-linecap:butt;stroke-linejoin:miter;stroke-miterlimit:10;stroke-dasharray:none"
   stroke-linecap="round"
   id="path73" /><path
   d="m 135.28254,204.6579 c -8.30157,0 -15.0571,-6.75553 -15.0571,-15.0571 0,-7.96828 6.3214,-19.78206 15.0571,-19.78206 8.73289,0 15.0571,11.81658 15.0571,19.78206 0,8.30157 -6.75553,15.0571 -15.0571,15.0571 z m 0,-29.23756 c -4.56531,0 -9.4555,8.32398 -9.4555,14.18046 0,5.21228 4.24321,9.4555 9.4555,9.4555 5.21229,0 9.4555,-4.24322 9.4555,-9.4555 0,-5.85928 -4.8902,-14.18046 -9.4555,-14.18046 z"
   style="fill:#1d1d1b;fill-rule:nonzero;stroke:none;stroke-width:2.8008;stroke-linecap:butt;stroke-linejoin:miter;stroke-miterlimit:10;stroke-dasharray:none"
   stroke-linecap="round"
   id="path75" /><path
   d="m 213.42206,79.198861 c 1.10911,-6.433438 1.18754,-13.54747 -0.12324,-21.118032 C 208.34421,29.434246 185.06676,4.5631424 169.15821,4.7648 c -8.26796,4.3300368 -16.05698,10.048813 -19.68962,23.537466 -4.61012,-0.677794 -9.34627,-1.053101 -14.18605,-1.053101 -4.83978,0 -9.57594,0.372506 -14.18605,1.053101 C 117.46105,14.816414 109.67482,9.0948368 101.40406,4.7648 85.495517,4.5631424 62.220869,29.431446 57.263453,58.078028 55.952678,65.64859 56.031101,72.762622 57.140218,79.19606 c -2.593541,6.749928 -6.013547,11.947984 -6.013547,19.42892 0,38.31494 38.782907,49.11694 84.153069,49.11694 45.37016,0 84.15306,-8.802 84.15306,-47.11694 0.003,-7.478135 -3.4172,-14.676191 -6.01074,-21.426119 z"
   style="fill:#eaeaea;fill-rule:nonzero;stroke:#1d1d1b;stroke-width:8.8;stroke-linecap:butt;stroke-linejoin:miter;stroke-miterlimit:10;stroke-dasharray:none;stroke-opacity:1"
   stroke-linecap="round"
   id="path77"
   sodipodi:nodetypes="ccccsccccsscc" /><path
   d="M 196.32317,251.2352 H 158.2659 c -5.36073,0 -9.70757,-4.34684 -9.70757,-9.70757 v -7.40812 c 0,-15.87213 12.86687,-28.73621 28.73621,-28.73621 v 0 c 15.87213,0 28.73621,12.86688 28.73621,28.73621 v 7.40812 c 0,5.36073 -4.34685,9.70757 -9.70758,9.70757 z"
   style="fill:#eaeaea;fill-rule:nonzero;stroke:none;stroke-width:2.8008;stroke-linecap:butt;stroke-linejoin:miter;stroke-miterlimit:10;stroke-dasharray:none"
   stroke-linecap="round"
   id="path81" /><path
   d="M 196.32317,256.036 H 158.2659 c -6.89837,0 -12.51117,-7.6128 -12.51117,-14.51117 v -7.40812 c 0,-17.39017 14.14964,-31.53701 31.53981,-31.53701 17.39016,0 31.53981,14.14684 31.53981,31.53701 v 7.40812 c 0,6.89837 -5.61281,14.51117 -12.51118,14.51117 z m -19.02863,-47.8519 c -14.30089,0 -25.93821,11.63453 -25.93821,25.93541 v 7.40812 c 0,3.80909 3.09768,8.90957 6.90957,8.90957 h 38.05727 c 3.80909,0 6.90958,-5.09768 6.90958,-8.90957 v -7.40812 c 0,-14.30088 -11.63733,-25.93541 -25.93821,-25.93541 z"
   style="fill:#1d1d1b;fill-rule:nonzero;stroke:#1d1d1b;stroke-width:2.8008;stroke-linecap:butt;stroke-linejoin:miter;stroke-miterlimit:10;stroke-dasharray:none;stroke-opacity:1"
   stroke-linecap="round"
   id="path83"
   sodipodi:nodetypes="ssssssssssssssss" /><path
   d="M 112.29917,251.2352 H 74.241902 c -5.360731,0 -9.707572,-4.34684 -9.707572,-9.70757 v -7.40812 c 0,-15.87213 12.866875,-28.73621 28.736208,-28.73621 v 0 c 15.872132,0 28.736212,12.86688 28.736212,28.73621 v 7.40812 c 0,5.36073 -4.34685,9.70757 -9.70758,9.70757 z"
   style="fill:#eaeaea;fill-rule:nonzero;stroke:none;stroke-width:2.8008;stroke-linecap:butt;stroke-linejoin:miter;stroke-miterlimit:10;stroke-dasharray:none"
   stroke-linecap="round"
   id="path85" /><path
   d="M 112.29917,256.036 H 74.241902 c -6.89837,0 -12.511173,-7.6128 -12.511173,-14.51117 v -7.40812 c 0,-17.39017 14.149641,-31.53701 31.539809,-31.53701 17.390162,0 31.537012,14.14684 31.537012,31.53701 v 7.40812 c 0,6.89837 -5.61001,14.51117 -12.50838,14.51117 z M 93.270538,208.1841 c -14.300885,0 -25.938209,11.63453 -25.938209,25.93541 v 7.40812 c 0,3.80909 3.097685,8.90957 6.909573,8.90957 h 38.057268 c 3.80909,0 6.90678,-5.09768 6.90678,-8.90957 v -7.40812 c 0,-14.30088 -11.63453,-25.93541 -25.935412,-25.93541 z"
   style="fill:#1d1d1b;fill-rule:nonzero;stroke:#1d1d1b;stroke-width:2.8008;stroke-linecap:butt;stroke-linejoin:miter;stroke-miterlimit:10;stroke-dasharray:none;stroke-opacity:1"
   stroke-linecap="round"
   id="path87"
   sodipodi:nodetypes="ssssssssssssssss" /><path
   d="M 36.23436,233.733 18.20281,180.83429 c -4.601715,-13.49985 2.613146,-28.17605 16.113002,-32.77776 v 0 c 13.499856,-4.60172 28.176048,2.61315 32.777762,16.113 l 18.02875,52.89871 c 4.601714,13.49986 -2.613146,28.17605 -16.113002,32.77776 v 0 C 55.509466,254.44772 40.836074,247.23566 36.23436,233.733 Z"
   style="fill:#f3b589;fill-rule:nonzero;stroke:none;stroke-width:2.8008;stroke-linecap:butt;stroke-linejoin:miter;stroke-miterlimit:10;stroke-dasharray:none"
   stroke-linecap="round"
   id="path89" /><path
   d="m 60.70495,254.0304 c -11.917404,0 -23.067389,-7.50334 -27.122948,-19.39554 v 0 L 15.553253,181.73895 c -5.091855,-14.93947 2.918433,-31.23732 17.857901,-36.33198 7.240068,-2.4703 15.001084,-1.96616 21.865845,1.406 6.86196,3.37497 11.998627,9.22024 14.466132,16.4575 l 18.02875,52.89871 c 5.091849,14.93947 -2.918434,31.23733 -17.857901,36.33198 -3.04727,1.0363 -6.153358,1.52924 -9.20903,1.52924 z M 38.883917,232.83114 c 4.094769,12.01544 17.208115,18.45167 29.223547,14.36811 12.018233,-4.09757 18.462874,-17.20812 14.365303,-29.22635 L 64.441217,165.07419 C 62.45825,159.25413 58.32427,154.55158 52.803893,151.83761 47.283516,149.12363 41.037732,148.72592 35.21767,150.70609 23.199437,154.80366 16.754796,167.9142 20.852366,179.93243 Z"
   style="fill:#1d1d1b;fill-rule:nonzero;stroke:#1d1d1b;stroke-width:2.8008;stroke-linecap:butt;stroke-linejoin:miter;stroke-miterlimit:10;stroke-dasharray:none;stroke-opacity:1"
   stroke-linecap="round"
   id="path91" /><path
   d="m 171.66213,165.07419 c 16.71797,-7.40251 36.72689,-31.17851 37.97885,-46.38685 h 30.86201 c 4.21241,22.59405 -4.204,53.37765 -22.44561,69.08173"
   style="fill:#eaeaea;fill-rule:nonzero;stroke:none;stroke-width:2.8008;stroke-linecap:butt;stroke-linejoin:miter;stroke-miterlimit:10;stroke-dasharray:none"
   stroke-linecap="round"
   id="path93" /><path
   d="m 240.50299,118.68734 h -30.86201 c -4.34684,0 -7.87305,-3.52341 -7.87305,-7.87305 v -6.00491 c 0,-12.86968 10.43298,-23.30266 23.30265,-23.30266 v 0 c 12.86968,0 23.30266,10.43298 23.30266,23.30266 v 6.00491 c 0,4.34684 -3.52341,7.87305 -7.87025,7.87305 z"
   style="fill:#eaeaea;fill-rule:nonzero;stroke:none;stroke-width:2.8008;stroke-linecap:butt;stroke-linejoin:miter;stroke-miterlimit:10;stroke-dasharray:none"
   stroke-linecap="round"
   id="path95" /><path
   d="m 240.50019,122 h -30.85641 c -5.88728,0 -10.67665,-4.62008 -10.67665,-10.30259 v -5.79876 c 0,-13.892686 11.71014,-25.195531 26.10345,-25.195531 14.39332,0 26.10346,11.302845 26.10346,25.195531 v 5.79876 C 251.17704,117.37721 246.38747,122 240.50019,122 Z M 225.07058,86.109885 c -11.30402,0 -20.50185,8.87791 -20.50185,19.788765 v 5.79876 c 0,2.70068 2.27705,4.89582 5.07505,4.89582 h 30.85921 c 2.798,0 5.07505,-2.19785 5.07505,-4.89582 v -5.79876 c -0.003,-10.910855 -9.20063,-19.788765 -20.50746,-19.788765 z"
   style="fill:#1d1d1b;fill-rule:nonzero;stroke:#1d1d1b;stroke-width:2.75166;stroke-linecap:butt;stroke-linejoin:miter;stroke-miterlimit:10;stroke-dasharray:none;stroke-opacity:1"
   stroke-linecap="round"
   id="path97" /><path
   d="m 218.05255,190.58835 c -0.78501,0 -1.57004,-0.3283 -2.12515,-0.9682 -1.0093,-1.16295 -0.87755,-2.9213 0.29438,-3.92287 17.62924,-15.06554 24.79251,-43.63577 21.91038,-63.73148 h -26.05695 l -5.2456,-3.0131 c 0.12056,-1.44396 1.33733,-2.55405 2.79523,-2.55405 h 30.89041 c 1.34856,0 2.50926,0.95429 2.75598,2.27304 4.72972,25.17598 -5.32691,55.80226 -23.39352,71.24059 -0.52708,0.45349 -1.17752,0.67607 -1.82516,0.67607 z"
   style="fill:#1d1d1b;fill-rule:nonzero;stroke:#1d1d1b;stroke-width:2.7625;stroke-linecap:butt;stroke-linejoin:miter;stroke-miterlimit:10;stroke-dasharray:none;stroke-opacity:1"
   stroke-linecap="round"
   id="path99"
   sodipodi:nodetypes="scccccssccs" /><path
   d="m 14.099638,143.97016 26.459157,-11.2004 c 3.727865,-1.57685 8.029894,0.16525 9.606744,3.89311 l 2.179023,5.15068 c 4.671734,11.03515 -0.48734,23.76758 -11.522492,28.43652 v 0 C 29.786918,174.9218 17.054482,169.76273 12.385548,158.72758 l -2.179022,-5.15067 c -1.576851,-3.72787 0.165247,-8.0271 3.893112,-9.60675 z"
   style="fill:#eaeaea;fill-rule:nonzero;stroke:none;stroke-width:2.8008;stroke-linecap:butt;stroke-linejoin:miter;stroke-miterlimit:10;stroke-dasharray:none"
   stroke-linecap="round"
   id="path101" /><path
   d="m 32.369256,174.78176 c -3.11449,0 -6.228979,-0.60217 -9.200628,-1.80931 -6.066533,-2.45631 -10.811088,-7.12804 -13.362617,-13.15536 l -2.179022,-5.15067 c -1.053101,-2.48991 -1.075507,-5.2431 -0.05882,-7.75262 1.01669,-2.50951 2.946442,-4.47007 5.439154,-5.52598 v 0 l 26.459157,-11.2004 c 2.489911,-1.0559 5.243098,-1.0755 7.752615,-0.0588 2.509516,1.01389 4.470076,2.94924 5.525978,5.43915 l 2.179022,5.14787 c 5.265504,12.43835 -0.568562,26.84567 -13.006915,32.11117 -3.072477,1.30238 -6.307401,1.95496 -9.547927,1.95496 z M 15.19195,146.5497 c -1.111918,0.47053 -1.977365,1.34718 -2.431095,2.4703 -0.453729,1.12312 -0.445327,2.35268 0.02801,3.46459 l 2.179023,5.15067 c 1.968962,4.64653 5.626807,8.25116 10.306944,10.1473 4.677336,1.89895 9.814003,1.85693 14.463331,-0.11203 9.59274,-4.06116 14.093625,-15.17473 10.032465,-24.77027 l -2.179022,-5.14787 c -0.971878,-2.29666 -3.629837,-3.37777 -5.937696,-2.40309 z"
   style="fill:#1d1d1b;fill-rule:nonzero;stroke:#1d1d1b;stroke-width:2.8008;stroke-linecap:butt;stroke-linejoin:miter;stroke-miterlimit:10;stroke-dasharray:none;stroke-opacity:1"
   stroke-linecap="round"
   id="path103" /><path
   d="m 94.740958,67.69506 c -0.411718,0 -0.831838,-0.09243 -1.226751,-0.285682 -1.389197,-0.680594 -1.966161,-2.355472 -1.285567,-3.744669 2.439497,-4.991026 8.11112,-8.214747 14.45213,-8.214747 6.34101,0 12.01263,3.223721 14.45493,8.214747 0.68059,1.389197 0.10363,3.066876 -1.28557,3.74747 -1.392,0.674993 -3.06688,0.10363 -3.74747,-1.285567 -1.48442,-3.033266 -5.27111,-5.07505 -9.42189,-5.07505 -4.15079,0 -7.93747,2.038983 -9.419092,5.072249 -0.48734,0.994284 -1.484424,1.571249 -2.52072,1.571249 z"
   style="fill:#1d1d1b;fill-rule:nonzero;stroke:#1d1d1b;stroke-width:2.8008;stroke-linecap:butt;stroke-linejoin:miter;stroke-miterlimit:10;stroke-dasharray:none;stroke-opacity:1"
   stroke-linecap="round"
   id="path105" /><path
   d="m 151.9445,67.69506 c -0.41172,0 -0.83184,-0.08963 -1.22675,-0.285682 -1.392,-0.677793 -1.96617,-2.355472 -1.28837,-3.744669 2.43669,-4.991026 8.11112,-8.214747 14.45213,-8.214747 6.34101,0 12.01263,3.223721 14.45212,8.214747 0.6778,1.389197 0.10363,3.066876 -1.28556,3.74747 -1.392,0.674993 -3.06688,0.10363 -3.74747,-1.285567 -1.48443,-3.033266 -5.27111,-5.07505 -9.41909,-5.07505 -4.15079,0 -7.93747,2.038983 -9.41909,5.072249 -0.48174,0.994284 -1.48163,1.571249 -2.51792,1.571249 z"
   style="fill:#1d1d1b;fill-rule:nonzero;stroke:#1d1d1b;stroke-width:2.8008;stroke-linecap:butt;stroke-linejoin:miter;stroke-miterlimit:10;stroke-dasharray:none;stroke-opacity:1"
   stroke-linecap="round"
   id="path107" /><path
   d="m 126.96696,126.27259 c -6.12815,0 -11.11637,-10.98822 -11.11637,-17.11637 0,-1.54604 1.25476,-2.8008 2.8008,-2.8008 1.54604,0 2.8008,1.25476 2.8008,2.8008 0,3.04167 2.4731,11.51477 5.51477,11.51477 3.03887,0 5.51478,-8.4731 5.51478,-11.51477 0,-1.54604 1.25476,-2.8008 2.8008,-2.8008 1.54884,0 2.8008,1.25476 2.8008,2.8008 0,6.12815 -4.98543,17.11637 -11.11638,17.11637 z"
   style="fill:#1d1d1b;fill-rule:nonzero;stroke:none;stroke-width:2.8008;stroke-linecap:butt;stroke-linejoin:miter;stroke-miterlimit:10;stroke-dasharray:none"
   stroke-linecap="round"
   id="path109"
   sodipodi:nodetypes="sssssssss" /><path
   d="m 143.59811,126.27259 c -6.12815,0 -11.11637,-10.98822 -11.11637,-17.11637 v -4.06396 c 0,-1.54604 1.25476,-2.8008 2.8008,-2.8008 1.54884,0 2.8008,1.25476 2.8008,2.8008 v 4.06396 c 0,3.04167 2.4731,11.51477 5.51477,11.51477 3.04167,0 5.51478,-8.4731 5.51478,-11.51477 0,-1.54604 1.25196,-2.8008 2.8008,-2.8008 1.54884,0 2.8008,1.25476 2.8008,2.8008 -0.003,6.12815 -4.98823,17.11637 -11.11638,17.11637 z"
   style="fill:#1d1d1b;fill-rule:nonzero;stroke:none;stroke-width:2.8008;stroke-linecap:butt;stroke-linejoin:miter;stroke-miterlimit:10;stroke-dasharray:none"
   stroke-linecap="round"
   id="path111"
   sodipodi:nodetypes="ssssssssscs" /><path
   d="m 103.89677,95.152218 c -0.34169,0 -0.6918,-0.06442 -1.02789,-0.196056 l -21.255272,-8.4024 c -1.439611,-0.568563 -2.142612,-2.195828 -1.57685,-3.635439 0.568562,-1.439611 2.193026,-2.139811 3.635438,-1.57685 l 21.255274,8.4024 c 1.43961,0.568562 2.14261,2.195827 1.57685,3.635438 -0.43693,1.103515 -1.49283,1.772907 -2.60755,1.772907 z"
   style="fill:#1d1d1b;fill-rule:nonzero;stroke:#1d1d1b;stroke-width:2.8008;stroke-linecap:butt;stroke-linejoin:miter;stroke-miterlimit:10;stroke-dasharray:none;stroke-opacity:1"
   stroke-linecap="round"
   id="path115" /><path
   d="m 82.644302,120.35942 c -1.114718,0 -2.17062,-0.67219 -2.607544,-1.77291 -0.568563,-1.43961 0.137239,-3.06687 1.57685,-3.63544 l 21.255272,-8.4024 c 1.44241,-0.56856 3.06688,0.13724 3.63544,1.57685 0.56856,1.43961 -0.13724,3.06688 -1.57685,3.63544 l -21.255274,8.4024 c -0.336096,0.13444 -0.686196,0.19606 -1.027894,0.19606 z"
   style="fill:#1d1d1b;fill-rule:nonzero;stroke:#1d1d1b;stroke-width:2.8008;stroke-linecap:butt;stroke-linejoin:miter;stroke-miterlimit:10;stroke-dasharray:none;stroke-opacity:1"
   stroke-linecap="round"
   id="path117" /><path
   d="m 166.6683,95.152218 c -1.11472,0 -2.16782,-0.672192 -2.60474,-1.772907 -0.56856,-1.439611 0.13724,-3.066876 1.57685,-3.635438 l 21.25247,-8.4024 c 1.42841,-0.562961 3.06407,0.134438 3.63264,1.57685 0.56856,1.439611 -0.13724,3.066876 -1.57685,3.635439 l -21.25247,8.4024 c -0.3361,0.134438 -0.6834,0.196056 -1.0279,0.196056 z"
   style="fill:#1d1d1b;fill-rule:nonzero;stroke:#1d1d1b;stroke-width:2.8008;stroke-linecap:butt;stroke-linejoin:miter;stroke-miterlimit:10;stroke-dasharray:none;stroke-opacity:1"
   stroke-linecap="round"
   id="path121" /><path
   d="m 187.92077,120.35942 c -0.3445,0 -0.69179,-0.0644 -1.02789,-0.19606 l -21.25247,-8.4024 c -1.43961,-0.56856 -2.14541,-2.19583 -1.57685,-3.63544 0.56856,-1.44241 2.20703,-2.13701 3.63264,-1.57685 l 21.25247,8.4024 c 1.43961,0.56857 2.14541,2.19583 1.57685,3.63544 -0.43693,1.10352 -1.49003,1.77291 -2.60475,1.77291 z"
   style="fill:#1d1d1b;fill-rule:nonzero;stroke:#1d1d1b;stroke-width:2.8008;stroke-linecap:butt;stroke-linejoin:miter;stroke-miterlimit:10;stroke-dasharray:none;stroke-opacity:1"
   stroke-linecap="round"
   id="path123" /><path
   d="m 78.042588,47.471398 c -0.448128,0 -0.904658,-0.109231 -1.327579,-0.336096 -1.361189,-0.733809 -1.868134,-2.433895 -1.134324,-3.795084 4.34124,-8.046698 10.180908,-15.113116 16.437895,-19.899684 1.229551,-0.938268 2.985653,-0.703 3.926722,0.52375 0.938268,1.22675 0.705801,2.985653 -0.52375,3.926722 -5.640811,4.316032 -10.937124,10.746669 -14.911459,18.109972 -0.504144,0.938268 -1.47042,1.47042 -2.467505,1.47042 z"
   style="fill:#1d1d1b;fill-rule:nonzero;stroke:none;stroke-width:2.8008;stroke-linecap:butt;stroke-linejoin:miter;stroke-miterlimit:10;stroke-dasharray:none"
   stroke-linecap="round"
   id="path125" /><path
   d="m 192.51969,47.468598 c -0.99429,0 -1.96056,-0.532152 -2.46751,-1.47042 -3.97713,-7.363304 -9.27345,-13.79394 -14.91146,-18.109973 -1.22675,-0.941069 -1.46202,-2.697171 -0.52375,-3.926722 0.93827,-1.22675 2.70277,-1.462017 3.92392,-0.523749 6.25419,4.786567 12.09386,11.852985 16.4379,19.896883 0.73661,1.361189 0.22686,3.061274 -1.13152,3.795084 -0.42012,0.229665 -0.87665,0.338897 -1.32758,0.338897 z"
   style="fill:#1d1d1b;fill-rule:nonzero;stroke:none;stroke-width:2.8008;stroke-linecap:butt;stroke-linejoin:miter;stroke-miterlimit:10;stroke-dasharray:none"
   stroke-linecap="round"
   id="path127" /><path
   d="m 143.61492,93.544558 c 0,-4.601714 -3.73067,-8.33238 -8.33238,-8.33238 -4.60172,0 -8.33238,3.730666 -8.33238,8.33238 0,4.601715 3.73066,11.547702 8.33238,11.547702 4.60171,0 8.33238,-6.945987 8.33238,-11.547702 z"
   style="fill:#aca7a7;fill-rule:nonzero;stroke:none;stroke-width:2.8008;stroke-linecap:butt;stroke-linejoin:miter;stroke-miterlimit:10;stroke-dasharray:none"
   stroke-linecap="round"
   id="path129" /><path
   d="m 135.28254,107.89306 c -6.69391,0 -11.13318,-8.63487 -11.13318,-14.348502 0,-6.139353 4.99382,-11.13318 11.13318,-11.13318 6.13935,0 11.13598,4.993827 11.13598,11.13318 -0.003,5.713632 -4.44207,14.348502 -11.13598,14.348502 z m 0,-19.880082 c -3.05007,0 -5.53158,2.481509 -5.53158,5.53158 0,3.453387 2.96885,8.746902 5.53158,8.746902 2.56553,0 5.53438,-5.293515 5.53438,-8.746902 -0.003,-3.050071 -2.48431,-5.53158 -5.53438,-5.53158 z"
   style="fill:#1d1d1b;fill-rule:nonzero;stroke:none;stroke-width:2.8008;stroke-linecap:butt;stroke-linejoin:miter;stroke-miterlimit:10;stroke-dasharray:none"
   stroke-linecap="round"
   id="path131" />
</svg>
