<svg id="ART" xmlns="http://www.w3.org/2000/svg" xmlns:xlink="http://www.w3.org/1999/xlink" viewBox="0 0 48 48"><defs><style>.cls-1{fill:url(#linear-gradient);}.cls-2{fill:url(#linear-gradient-2);}.cls-3{fill:url(#linear-gradient-3);}.cls-4{fill:url(#linear-gradient-4);}.cls-5{fill:url(#linear-gradient-5);}.cls-6{fill:url(#linear-gradient-6);}.cls-7{fill:url(#linear-gradient-7);}</style><linearGradient id="linear-gradient" x1="24.16" y1="51.17" x2="24.16" y2="-8.47" gradientUnits="userSpaceOnUse"><stop offset="0" stop-color="#f3c57a"/><stop offset="0.49" stop-color="#f39369"/><stop offset="1" stop-color="#e94867"/></linearGradient><linearGradient id="linear-gradient-2" x1="20.81" y1="21.17" x2="19.87" y2="11.36" xlink:href="#linear-gradient"/><linearGradient id="linear-gradient-3" x1="21.22" y1="18.07" x2="19.18" y2="9.36" gradientUnits="userSpaceOnUse"><stop offset="0" stop-color="#273a9b"/><stop offset="0.56" stop-color="#202f65"/><stop offset="1" stop-color="#021e2f"/></linearGradient><linearGradient id="linear-gradient-4" x1="24" y1="55.13" x2="24" y2="16.78" xlink:href="#linear-gradient-3"/><linearGradient id="linear-gradient-5" x1="41.58" y1="58.52" x2="2.08" y2="0.35" xlink:href="#linear-gradient"/><linearGradient id="linear-gradient-6" x1="51.69" y1="-0.1" x2="11.94" y2="27.52" xlink:href="#linear-gradient-3"/><linearGradient id="linear-gradient-7" x1="59.86" y1="16.94" x2="-15.69" y2="12.48" xlink:href="#linear-gradient-3"/></defs><title>trojan, horse, virus, infection, danger</title><path class="cls-1" d="M20.36,8.69,10.29,14.28a1.91,1.91,0,0,0-.92,2.15l.34,1.29A4.39,4.39,0,0,0,14,21h4.88a.34.34,0,0,1,.28.54L14.51,28A13.48,13.48,0,0,0,12,35.82h0a13.48,13.48,0,0,0,1.42,6l.08.15h21L33,30l2.41-1.21A6.49,6.49,0,0,0,39,23V18.1A14.72,14.72,0,0,0,34.69,7.69h0a14.72,14.72,0,0,0-3.83-2.76l-.76-.38A14.72,14.72,0,0,0,23.53,3H22.17A1.17,1.17,0,0,0,21,4.17V7.61A1.24,1.24,0,0,1,20.36,8.69Z"/><path class="cls-2" d="M17.4,14.41l.4.48a2,2,0,0,0,1.53.71h.22A3.15,3.15,0,0,0,22.65,13l.13-.74a.43.43,0,0,0-.59-.47l-4.63,1.93A.44.44,0,0,0,17.4,14.41Z"/><path class="cls-3" d="M18.08,14l.3.35a1.49,1.49,0,0,0,1.13.52h.17A2.34,2.34,0,0,0,22,12.93l.1-.55a.32.32,0,0,0-.44-.35L18.2,13.46A.33.33,0,0,0,18.08,14Z"/><path class="cls-4" d="M37.5,45h-27A1.5,1.5,0,0,1,9,43.5H9A1.5,1.5,0,0,1,10.5,42h27A1.5,1.5,0,0,1,39,43.5h0A1.5,1.5,0,0,1,37.5,45Z"/><path class="cls-5" d="M24.26,31.18l2.28-2.28a11.59,11.59,0,0,0,3.39-8.2V17.22A2.22,2.22,0,0,0,27.72,15h0a2.22,2.22,0,0,0-2.22,2.22h0a1.76,1.76,0,0,1-.58,1.31l-.25.23A8.69,8.69,0,0,1,18.84,21h0a.34.34,0,0,1,.28.54L14.51,28a13.48,13.48,0,0,0-1.09,13.86l.08.15H25.75l-2.11-2.89a6.12,6.12,0,0,1-1.18-3.61h0A6.12,6.12,0,0,1,24.26,31.18Z"/><path class="cls-6" d="M34.69,7.69a14.72,14.72,0,0,0-3.83-2.76l-.76-.38A14.72,14.72,0,0,0,23.53,3H22.17A1.17,1.17,0,0,0,21,4.17V7.61a1.22,1.22,0,0,1-.07.39h1a1.35,1.35,0,0,0,1-.41l1.37-1.43a1.46,1.46,0,0,1,2.25.18l3.17,4.55a10.15,10.15,0,0,1,1.82,5.79v1.54a18,18,0,0,0,.18,2.54L33,30l2.41-1.21A6.49,6.49,0,0,0,39,23V18.1A14.72,14.72,0,0,0,34.69,7.69Z"/><path class="cls-7" d="M34.69,7.69a14.72,14.72,0,0,0-3.83-2.76l-.76-.38A14.72,14.72,0,0,0,23.53,3h-1V6a1.22,1.22,0,0,1-.07.39h1a1.35,1.35,0,0,0,1-.41L25.8,4.51a1.46,1.46,0,0,1,2.25.18l3.17,4.55A10.15,10.15,0,0,1,33,15v1.54a18,18,0,0,0,.18,2.54l.94,6.57a1.94,1.94,0,0,0,2.79,1.46h0a6.46,6.46,0,0,0,1-.64A6.48,6.48,0,0,0,39,23V18.1A14.72,14.72,0,0,0,34.69,7.69Z"/></svg>