<svg width="40" height="40" viewBox="0 0 40 40" fill="none" xmlns="http://www.w3.org/2000/svg">
<path d="M34.1 16.5C33.3 15.5 32.2 15 31 15H28.1C28.7 13.8 29 12.4 29 11C29 6 25 2 20 2C15 2 11 6 11 11C11 12.4 11.3 13.8 11.9 15H9.10003C7.10003 15 5.40003 16.3 5.00003 18.2C4.80003 19.4 5.10003 20.6 5.80003 21.5C6.70003 22.5 7.80003 23 9.00003 23H14V25.7C14 26.3 13.8 26.8 13.4 27.2C11.9 28.6 9.30003 31.1 9.20003 31.2C8.40003 32 7.90003 33.2 8.10003 34.4C8.20003 35.6 8.90003 36.7 9.90003 37.3C11.5 38.4 13.6 38.1 15 36.7C15.1 36.6 17.8 33.8 19.1 32.4C19.6 31.8 20.7 31.8 21.2 32.4C22.5 33.9 25.3 36.7 25.4 36.8C26.2 37.6 27.2 38 28.2 38C29.2 38 30.3 37.6 31 36.8C31.8 36 32.2 35 32.2 34C32.2 32.9 31.8 31.9 31 31.2C30.9 31.1 28.3 28.6 26.8 27.2C26.4 26.8 26.2 26.3 26.2 25.7V24C26.2 23.4 26.6 23 27.2 23H31.1C33.1 23 34.8 21.7 35.2 19.8C35.2 18.6 34.9 17.4 34.1 16.5ZM20 4C23.9 4 27 7.1 27 11C27 14.9 23.9 18 20 18C16.1 18 13 14.9 13 11C13 7.1 16.1 4 20 4ZM33 19.4C32.8 20.3 31.9 21 30.9 21H27C25.3 21 24 22.3 24 24V25.7C24 26.8 24.5 27.9 25.3 28.7C26.8 30 29.5 32.6 29.5 32.7C29.9 33.1 30.1 33.6 30.1 34.1C30.1 34.6 29.9 35.1 29.5 35.5C28.7 36.3 27.4 36.2 26.7 35.5C26.7 35.5 23.9 32.6 22.6 31.1C21.9 30.4 21 30 20 30C19 30 18.1 30.4 17.5 31.1C16.2 32.5 13.5 35.3 13.5 35.3C12.8 36 11.7 36.2 10.9 35.7C10.4 35.4 10.1 34.8 10 34.2C9.90003 33.6 10.1 33 10.6 32.6C10.6 32.6 13.3 30 14.8 28.6C15.6 27.8 16.1 26.8 16.1 25.6V22C16.1 21.4 15.7 21 15.1 21H9.00003C8.40003 21 7.80003 20.7 7.50003 20.3C7.10003 19.8 7.00003 19.2 7.10003 18.6C7.20003 17.7 8.10003 17 9.10003 17H13C13.1 17 13.2 17 13.3 16.9C15 18.8 17.4 20 20 20C22.6 20 25.1 18.8 26.7 16.9C26.8 16.9 26.9 17 27 17H31C31.6 17 32.2 17.3 32.5 17.7C32.9 18.2 33.1 18.8 33 19.4ZM22 10C22 9.4 22.4 9 23 9C23.6 9 24 9.4 24 10C24 10.6 23.6 11 23 11C22.4 11 22 10.6 22 10ZM16 10C16 9.4 16.4 9 17 9C17.6 9 18 9.4 18 10C18 10.6 17.6 11 17 11C16.4 11 16 10.6 16 10ZM18 13H22C22 14.1 21.1 15 20 15C18.9 15 18 14.1 18 13Z" fill="#7F8D9F"/>
</svg>
