<svg width="40" height="40" viewBox="0 0 40 40" fill="none" xmlns="http://www.w3.org/2000/svg">
<path d="M35 6H13C12.4 6 12 6.4 12 7V15V23.5C10.9 22.5 9.5 22 8 22C4.7 22 2 24.7 2 28C2 31.3 4.7 34 8 34C11.3 34 14 31.3 14 28V16H34V23.5C32.9 22.5 31.5 22 30 22C26.7 22 24 24.7 24 28C24 31.3 26.7 34 30 34C33.3 34 36 31.3 36 28V15V7C36 6.4 35.6 6 35 6ZM8 32C5.8 32 4 30.2 4 28C4 25.8 5.8 24 8 24C10.2 24 12 25.8 12 28C12 30.2 10.2 32 8 32ZM14 14V8H34V14H14ZM30 32C27.8 32 26 30.2 26 28C26 25.8 27.8 24 30 24C32.2 24 34 25.8 34 28C34 30.2 32.2 32 30 32Z" fill="#7F8D9F"/>
</svg>
