<svg width="40" height="40" viewBox="0 0 40 40" fill="none" xmlns="http://www.w3.org/2000/svg">
<path d="M19 13C19 14.1 18.1 15 17 15C15.9 15 15 14.1 15 13C15 11.9 15.9 11 17 11C18.1 11 19 11.9 19 13ZM31 11C29.9 11 29 11.9 29 13C29 14.1 29.9 15 31 15C32.1 15 33 14.1 33 13C33 11.9 32.1 11 31 11ZM34.3 20.3C35.3 21.2 36 22.5 36 24V30C36 32.8 33.8 35 31 35H17C14.8 35 12.9 33.5 12.3 31.5L5.5 34.9C5.3 35 5.2 35 5 35C4.8 35 4.6 35 4.5 34.9C4.2 34.7 4 34.3 4 34V20C4 19.7 4.2 19.3 4.5 19.1C4.8 18.9 5.2 18.9 5.5 19.1L12.3 22.5C12.6 21.6 13.1 20.9 13.7 20.3C10.9 19 9 16.2 9 13C9 8.6 12.6 5 17 5C20 5 22.6 6.7 24 9.1C25.4 6.7 28 5 31 5C35.4 5 39 8.6 39 13C39 16.2 37.1 19 34.3 20.3ZM17 19C20.3 19 23 16.3 23 13C23 9.7 20.3 7 17 7C13.7 7 11 9.7 11 13C11 16.3 13.7 19 17 19ZM22.3 19H25.8C25.1 18.4 24.5 17.7 24.1 16.9C23.6 17.7 23 18.4 22.3 19ZM6 32.4L12 29.4V24.6L6 21.6V32.4ZM31 21H17C15.3 21 14 22.3 14 24V30C14 31.7 15.3 33 17 33H31C32.7 33 34 31.7 34 30V24C34 22.3 32.7 21 31 21ZM37 13C37 9.7 34.3 7 31 7C27.7 7 25 9.7 25 13C25 16.3 27.7 19 31 19C34.3 19 37 16.3 37 13Z" fill="#7F8D9F"/>
</svg>
