<svg width="40" height="40" viewBox="0 0 40 40" fill="none" xmlns="http://www.w3.org/2000/svg">
<path d="M33 0H7C5.3 0 4 1.3 4 3V37C4 38.7 5.3 40 7 40H33C34.7 40 36 38.7 36 37V3C36 1.3 34.7 0 33 0ZM34 37C34 37.6 33.6 38 33 38H7C6.4 38 6 37.6 6 37V3C6 2.4 6.4 2 7 2H33C33.6 2 34 2.4 34 3V37ZM29 6H11C10.4 6 10 6.4 10 7V33C10 33.6 10.4 34 11 34H29C29.6 34 30 33.6 30 33V7C30 6.4 29.6 6 29 6ZM12 25V16H28V25H12ZM28 8V14H24V8H28ZM22 8V14H12V8H22ZM12 27H16V32H12V27ZM18 32V27H28V32H18Z" fill="#7F8D9F"/>
</svg>
