<svg width="40" height="40" viewBox="0 0 40 40" fill="none" xmlns="http://www.w3.org/2000/svg">
<path d="M38 11C38 10.9 38 10.7 37.9 10.6C37.8 10.4 37.6 10.2 37.4 10.1C37.3 10 37.1 10 37 10H33.3L22.8 2.80002C21.1 1.60002 18.8 1.60002 17.1 2.80002L6.7 10H3C2.9 10 2.7 10 2.6 10.1C2.4 10.2 2.2 10.4 2.1 10.6C2 10.7 2 10.9 2 11V37C2 37.1 2 37.3 2.1 37.4C2.2 37.6 2.4 37.8 2.6 37.9C2.7 38 2.9 38 3 38H37C37.1 38 37.3 38 37.4 37.9C37.6 37.8 37.8 37.6 37.9 37.4C38 37.3 38 37.1 38 37V11ZM34.6 12L32.6 14H7.4L5.4 12H34.6ZM8 16H32V32H8V16ZM6 15.4V32.6L4 34.6V13.4L6 15.4ZM7.4 34H32.6L34.6 36H5.4L7.4 34ZM34 32.6V15.4L36 13.4V34.6L34 32.6ZM20 4.00002C20.6 4.00002 21 4.40002 21 5.00002C21 5.60002 20.6 6.00002 20 6.00002C19.4 6.00002 19 5.60002 19 5.00002C19 4.40002 19.4 4.00002 20 4.00002ZM17 5.30002C17.2 6.80002 18.4 8.00002 20 8.00002C21.6 8.00002 22.8 6.80002 23 5.30002L29.8 10H10.2L17 5.30002Z" fill="#7F8D9F"/>
</svg>
