<svg width="40" height="40" viewBox="0 0 40 40" fill="none" xmlns="http://www.w3.org/2000/svg">
<path d="M39.5 12.1L27.5 5.1C27.4 5 27.2 5 27 5C25.5 4.2 22.6 4 20 4C17.4 4 14.5 4.2 13 5C12.8 5 12.7 5 12.5 5.1L0.499993 12.1C-7.48038e-06 12.4 -0.100007 13 0.0999925 13.4L4.09999 21.4C4.29999 21.8 4.59999 22 4.99999 22C5.09999 22 5.29999 22 5.39999 21.9L7.99999 20.6V35C7.99999 35.6 8.39999 36 8.99999 36H31C31.6 36 32 35.6 32 35V20.6L34.6 21.9C34.7 22 34.8 22 35 22C35.4 22 35.7 21.8 35.9 21.4L39.9 13.4C40.1 13 40 12.4 39.5 12.1ZM20 6C22.8 6 24.8 6.3 25.7 6.6C25 7.1 23.3 8 20 8C16.7 8 15 7.1 14.3 6.6C15.2 6.3 17.2 6 20 6ZM34.6 19.7L31.5 18.1C31.4 18.1 31.4 18.1 31.3 18C31.2 18 31.2 18 31.1 18C31 18 31 18 31 18C30.9 18 30.9 18 30.8 18C30.7 18 30.7 18.1 30.6 18.1C30.5 18.1 30.5 18.2 30.4 18.2C30.3 18.2 30.3 18.3 30.3 18.4L30.2 18.5C30.2 18.6 30.2 18.6 30.1 18.7C30.1 18.8 30.1 18.8 30.1 18.9V33.9H9.99999V19C9.99999 18.9 9.99999 18.9 9.99999 18.8C9.99999 18.7 9.99999 18.7 9.89999 18.6L9.79999 18.5C9.79999 18.4 9.69999 18.4 9.69999 18.3C9.69999 18.3 9.59999 18.2 9.49999 18.2C9.39999 18.2 9.39999 18.1 9.29999 18.1C9.19999 18.1 9.19999 18.1 9.09999 18.1H8.99999C8.89999 18.1 8.89999 18.1 8.79999 18.1C8.69999 18.1 8.69999 18.1 8.59999 18.2L5.49999 19.8L2.39999 13.5L12.5 7.6C13.4 8.7 15.9 10 20 10C24.1 10 26.6 8.7 27.6 7.5L37.7 13.4L34.6 19.7Z" fill="#7F8D9F"/>
</svg>
