<svg data-name="Layer 1" xmlns="http://www.w3.org/2000/svg" viewBox="0 0 46 46" width="32" height="32"><path fill="#f6f5ff" d="M4 20.01h8.99V45H4z"></path><path fill="#e5e0fc" d="M18.67 24.01h8.99V45h-8.99z"></path><path fill="#cfc0ff" d="M33.01 16.01H42V45h-8.99z"></path><circle cx="37.5" cy="5.49" r="2.5" fill="#ac7fff"></circle><circle cx="23" cy="13.49" r="2.5" fill="#ac7fff"></circle><circle cx="8.5" cy="9.49" r="2.5" fill="#ac7fff"></circle><path d="M45 44H34V17h7v23a1 1 0 002 0V16a1 1 0 00-1-1h-9a1 1 0 00-1 1v28H19.5V25h7v15a1 1 0 102 0V24a1 1 0 00-1-1h-9a1 1 0 00-1 1v20H5V21h7v19a1 1 0 002 0V20a1 1 0 00-1-1H4a1 1 0 00-1 1v24H1a1 1 0 000 2h44a1 1 0 000-2z" fill="#341472"></path><path d="M1 10.49h4.16a3.48 3.48 0 006.3.84l8.05 2.23a3.5 3.5 0 007-.07 3.57 3.57 0 00-.08-.74L35.08 8a3.48 3.48 0 005.76-1.52H45a1 1 0 000-2h-4.16a3.49 3.49 0 00-6.84 1 3.33 3.33 0 00.1.78L25.46 11A3.46 3.46 0 0023 10a3.5 3.5 0 00-3 1.64L12 9.4a3.49 3.49 0 00-6.83-.91H1a1 1 0 000 2zM37.5 4A1.5 1.5 0 1136 5.49 1.5 1.5 0 0137.5 4zM23 12a1.5 1.5 0 011.3.76 1.45 1.45 0 01.18.69A1.5 1.5 0 1123 12zM8.5 8A1.5 1.5 0 117 9.49 1.5 1.5 0 018.5 8z" fill="#341472"></path></svg>