<svg data-name="Layer 1" xmlns="http://www.w3.org/2000/svg" viewBox="0 0 46 46" width="32" height="32"><path d="M23 1A15.6 15.6 0 014.86 6.6v15.69c0 10.87 8 19.62 18.14 22.7 10.1-3.08 18.14-11.83 18.14-22.7V6.6A15.6 15.6 0 0123 1zm13.14 21.3c0 8.7-6.38 14.82-13.14 17.4C16.24 37.12 9.86 31 9.86 22.29v-9.72h.42A20.59 20.59 0 0023 8.15a20.59 20.59 0 0012.72 4.42h.42z" fill="#cfc0ff"></path><circle cx="4.86" cy="22.99" r="2.5" fill="#ac7fff"></circle><circle cx="41.1" cy="22.99" r="2.5" fill="#ac7fff"></circle><path d="M21 27.51a1 1 0 00.7-.29l7.05-7a1 1 0 00-1.41-1.41L21 25.1l-2.3-2.26a1 1 0 00-1.41 0 1 1 0 000 1.42l3 3a1 1 0 00.71.25z" fill="#341472"></path><path d="M39.9 29.57a1 1 0 00-1.3.54A24.85 24.85 0 0123 43.94c-8.6-2.73-15.16-9.62-16.74-17.62v-.11a3.52 3.52 0 10-1.92.22.88.88 0 000 .28c1.74 8.8 9 16.35 18.41 19.23a.87.87 0 00.58 0 26.86 26.86 0 0017.12-15.07 1 1 0 00-.55-1.3zM3.36 23a1.5 1.5 0 111.5 1.5 1.5 1.5 0 01-1.5-1.5zM42.14 19.65V6.6a1 1 0 00-.43-.82 1 1 0 00-.92-.12 14.52 14.52 0 01-17-5.25 1 1 0 00-1.62 0 14.52 14.52 0 01-17 5.25 1 1 0 00-.92.12 1 1 0 00-.43.82v8.64a1 1 0 002 0V8A16.45 16.45 0 0023 2.62 16.45 16.45 0 0040.14 8v11.65a3.5 3.5 0 102 0zm-1 4.84a1.5 1.5 0 111.5-1.5 1.5 1.5 0 01-1.5 1.5z" fill="#341472"></path></svg>