<svg data-name="Layer 1" xmlns="http://www.w3.org/2000/svg" viewBox="0 0 46 46" width="32" height="32"><path d="M40.58 33.6H26.34a3.48 3.48 0 00-6.68 0H5.42v2h14.24a3.48 3.48 0 006.68 0h14.24zM23 36.1a1.5 1.5 0 111.5-1.5 1.5 1.5 0 01-1.5 1.5z" fill="#e5e0fc"></path><circle cx="23.08" cy="32.6" r="2.5" fill="#ac7fff"></circle><path d="M36.07 19.92h4V45H5.42v-4h27.66a3 3 0 003-3z" fill="#e5e0fc"></path><path d="M45 31.6H26.34a3.48 3.48 0 00-6.68 0H6.42V21.2h33.16v6.4a1 1 0 102 0v-7.4a1 1 0 00-1-1H37V14a14 14 0 00-28 0v5.2H5.42a1 1 0 00-1 1v11.4H1a1 1 0 000 2h18.66a3.48 3.48 0 006.68 0h13.24V44H6.42v-6.4a1 1 0 00-2 0V45a1 1 0 001 1h35.16a1 1 0 001-1V33.6H45a1 1 0 000-2zM11 14a12 12 0 0124 0v5.2H11zm12 20.1a1.5 1.5 0 111.5-1.5 1.5 1.5 0 01-1.5 1.5z" fill="#341472"></path></svg>