<svg data-name="Layer 1" xmlns="http://www.w3.org/2000/svg" viewBox="0 0 46 46" width="32" height="32"><path d="M41.75 30.25h-5.17a3.48 3.48 0 00-3.33-2.5 3.38 3.38 0 00-1.32.27l-4.74-5.88a1 1 0 00-.92-.36 1 1 0 00-.78.61l-6.2 15.39-3.66-4.55a3.45 3.45 0 00.62-2 3.49 3.49 0 00-6.83-1H4.25v2h5.17a3.48 3.48 0 004.66 2.24l4.73 5.88a1 1 0 00.77.37h.15a1 1 0 00.78-.62l6.2-15.39 3.66 4.55a3.49 3.49 0 106.21 3h5.17zm-29 2.5a1.5 1.5 0 111.5-1.5 1.5 1.5 0 01-1.5 1.5zm20.5 0a1.5 1.5 0 111.5-1.5 1.5 1.5 0 01-1.5 1.5z" fill="#e5e0fc"></path><circle cx="12.75" cy="29.25" r="2.5" fill="#ac7fff"></circle><circle cx="33.25" cy="29.25" r="2.5" fill="#ac7fff"></circle><path d="M6.81 7.5h32.38a2.56 2.56 0 012.56 2.56v5.27H4.25v-5.28A2.56 2.56 0 016.81 7.5z" fill="#cfc0ff"></path><path d="M41.75 33.26a1 1 0 00-1 1V42a2 2 0 01-2 2H7.25a2 2 0 01-2-2v-7.74a1 1 0 00-2 0V42a4 4 0 004 4h31.5a4 4 0 004-4v-7.74a1 1 0 00-1-1zM4.25 16.32h37.5a1 1 0 001-1V10.5a4 4 0 00-4-4H7.25a4 4 0 00-4 4v4.82a1 1 0 001 1zm1-5.82a2 2 0 012-2h31.5a2 2 0 012 2v3.82H5.25z" fill="#341472"></path><path d="M45 28.25h-2.25v-7.93a1 1 0 00-2 0v7.93h-4.17a3.48 3.48 0 00-3.33-2.5 3.66 3.66 0 00-1.33.26l-4.73-5.87a1 1 0 00-.92-.36 1 1 0 00-.78.61l-6.2 15.39-3.66-4.55a3.45 3.45 0 00.62-2 3.49 3.49 0 00-6.83-1H5.25v-7.91a1 1 0 00-2 0v7.93H1a1 1 0 000 2h8.42a3.48 3.48 0 004.66 2.24l4.73 5.87a1 1 0 00.77.38h.15a1 1 0 00.78-.62l6.2-15.39 3.66 4.55a3.49 3.49 0 106.21 3H45a1 1 0 000-2zm-33.75 1a1.5 1.5 0 111.5 1.5 1.5 1.5 0 01-1.5-1.5zm22 1.5a1.5 1.5 0 111.5-1.5 1.5 1.5 0 01-1.5 1.5z" fill="#341472"></path></svg>