<svg data-name="Layer 1" xmlns="http://www.w3.org/2000/svg" viewBox="0 0 46 46" width="32" height="32"><path d="M37.49 5v27a8 8 0 01-8 8L3.5 39.8V45h39V5z" fill="#e5e0fc"></path><circle cx="42.5" cy="25.7" r="2.5" fill="#ac7fff"></circle><circle cx="3.5" cy="24.32" r="2.5" fill="#ac7fff"></circle><path d="M46 25.7a3.5 3.5 0 10-4.5 3.3v15h-37V31.82a1 1 0 00-2 0V45a1 1 0 001 1h39a1 1 0 001-1V29a3.5 3.5 0 002.5-3.3zm-3.5 1.5a1.5 1.5 0 111.5-1.5 1.5 1.5 0 01-1.5 1.5zM7 24.32A3.5 3.5 0 004.5 21V6h37v12.19a1 1 0 002 0V5a1 1 0 00-1-1h-39a1 1 0 00-1 1v16A3.49 3.49 0 107 24.32zm-5 0a1.5 1.5 0 111.5 1.5 1.5 1.5 0 01-1.5-1.5z" fill="#341472"></path><path d="M28.47 29.82a1 1 0 001.42 0l4.1-4.1a1 1 0 000-1.42l-4.1-4.1a1 1 0 00-1.42 0 1 1 0 000 1.41l3.4 3.4-3.4 3.4a1 1 0 000 1.41zM17.53 20.2a1 1 0 00-1.42 0L12 24.3a1 1 0 000 1.42l4.1 4.1a1 1 0 001.42 0 1 1 0 000-1.41L14.13 25l3.4-3.4a1 1 0 000-1.4zM24.38 18l-4.65 13.39a1 1 0 00.62 1.28 1.26 1.26 0 00.33 0 1 1 0 00.94-.67l4.65-13.42a1 1 0 00-.62-1.28 1 1 0 00-1.27.7z" fill="#341472"></path></svg>