<svg data-name="Layer 1" xmlns="http://www.w3.org/2000/svg" viewBox="0 0 46 46" width="32" height="32"><path d="M42.32 37.19h-8a3.48 3.48 0 00-6.68 0H16.5a2.87 2.87 0 110-5.73h12.57a4.87 4.87 0 000-9.74L18 21.67a3.47 3.47 0 00-6.67 0H4.22v2h7.08a3.47 3.47 0 006.67 0h11.1a2.87 2.87 0 110 5.74H16.5a4.87 4.87 0 100 9.73h11.1a3.48 3.48 0 006.68 0h8zM11.5 5.49h3.82v7.09H11.5zM32.01 5.49h3.82v7.09h-3.82z" fill="#e5e0fc"></path><circle cx="14.63" cy="20.66" r="2.5" fill="#ac7fff"></circle><circle cx="30.94" cy="36.19" r="2.5" fill="#ac7fff"></circle><path d="M45 35.19H34.28a3.48 3.48 0 00-6.68 0H16.5a2.87 2.87 0 010-5.74h12.57a4.87 4.87 0 100-9.73L18 19.67a3.47 3.47 0 00-6.67 0H5.22v-7.59a2 2 0 012-2h3.28v2.5a1 1 0 001 1h3.82a1 1 0 001-1v-2.5H31v2.5a1 1 0 001 1h3.82a1 1 0 001-1v-2.5h2.49a2 2 0 012 2v19.11a1 1 0 102 0V12.08a4 4 0 00-4-4h-2.48v-2.5a1 1 0 00-1-1H32a1 1 0 00-1 1v2.5H16.32v-2.5a1 1 0 00-1-1H11.5a1 1 0 00-1 1v2.5H7.22a4 4 0 00-4 4v7.58H1a1 1 0 000 2h10.3a3.48 3.48 0 006.67 0h11.1a2.87 2.87 0 110 5.73H16.5a4.87 4.87 0 000 9.74h11.1a3.48 3.48 0 006.68 0h7V42a2 2 0 01-2 2H7.22a2 2 0 01-2-2V25.72a1 1 0 00-2 0V42a4 4 0 004 4h32.1a4 4 0 004-4v-4.81H45a1 1 0 000-2zM33 6.58h1.82v5H33zm-20.51 0h1.82v5H12.5zm2.13 15.58a1.5 1.5 0 111.5-1.5 1.5 1.5 0 01-1.49 1.5zm16.32 15.53a1.5 1.5 0 111.5-1.5 1.5 1.5 0 01-1.5 1.5z" fill="#341472"></path></svg>