<svg data-name="Layer 1" xmlns="http://www.w3.org/2000/svg" viewBox="0 0 46 46" width="32" height="32"><path d="M13 20.92h2.64a3.47 3.47 0 006.67 0H33a1 1 0 000-2H22.33a3.47 3.47 0 00-6.67 0H13a1 1 0 100 2zm6-2.5a1.5 1.5 0 11-1.5 1.5 1.51 1.51 0 011.5-1.5zM33 29.08h-2.66a3.47 3.47 0 00-6.67 0H13a1 1 0 100 2h10.67a3.47 3.47 0 006.67 0H33a1 1 0 000-2zm-6 2.5a1.5 1.5 0 111.5-1.5 1.5 1.5 0 01-1.5 1.5z" fill="#e5e0fc"></path><circle cx="19" cy="17.92" r="2.5" fill="#ac7fff"></circle><circle cx="27" cy="28.08" r="2.5" fill="#ac7fff"></circle><path d="M33 16.92H22.33a3.47 3.47 0 00-6.67 0H13a1 1 0 000 2h2.64a3.47 3.47 0 006.67 0H33a1 1 0 000-2zm-14 2.5a1.5 1.5 0 111.5-1.5 1.5 1.5 0 01-1.5 1.5zM33 27.08h-2.66a3.47 3.47 0 00-6.67 0H13a1 1 0 100 2h10.67a3.47 3.47 0 006.67 0H33a1 1 0 000-2zm-6 2.5a1.5 1.5 0 111.5-1.5 1.5 1.5 0 01-1.5 1.5z" fill="#341472"></path><path d="M1 24a1 1 0 001-1 21.63 21.63 0 01.17-2.67l4.43-1.62a1 1 0 00.62-.64 16.31 16.31 0 011.14-2.73 1 1 0 000-.89l-2-4.28a21.25 21.25 0 013.79-3.79l4.28 2a1 1 0 00.89 0 16.67 16.67 0 012.73-1.14 1 1 0 00.64-.62l1.62-4.43a20.75 20.75 0 015.34 0l1.64 4.41a1 1 0 00.64.62 16.67 16.67 0 012.73 1.14 1 1 0 00.89 0l4.28-2a21.25 21.25 0 013.79 3.79l-2 4.28a1 1 0 000 .89 16.31 16.31 0 011.14 2.73 1 1 0 00.62.64l5 1.82a1 1 0 10.69-1.88L40.54 17a19.65 19.65 0 00-.9-2.15l2-4.38a1 1 0 00-.1-1 22.73 22.73 0 00-5-5 1 1 0 00-1-.1l-4.38 2A19.65 19.65 0 0029 5.46L27.35.92a1 1 0 00-.79-.64 23 23 0 00-7.12 0 1 1 0 00-.79.64L17 5.46a19.65 19.65 0 00-2.15.9l-4.38-2a1 1 0 00-1 .1 22.73 22.73 0 00-5 5 1 1 0 00-.1 1l2 4.38A18.86 18.86 0 005.46 17L.92 18.65a1 1 0 00-.64.79A22.29 22.29 0 000 23a1 1 0 001 1zM45 22a1 1 0 00-1 1 21.63 21.63 0 01-.17 2.67l-4.43 1.62a1 1 0 00-.62.64 16.31 16.31 0 01-1.14 2.73 1 1 0 000 .89l2 4.28a21.25 21.25 0 01-3.79 3.79l-4.28-2a1 1 0 00-.89 0 16.67 16.67 0 01-2.73 1.14 1 1 0 00-.64.62l-1.62 4.43a20.75 20.75 0 01-5.34 0l-1.64-4.41a1 1 0 00-.64-.62 16.67 16.67 0 01-2.73-1.14 1 1 0 00-.89 0l-4.28 2a21.25 21.25 0 01-3.79-3.79l2-4.28a1 1 0 000-.89 16.31 16.31 0 01-1.14-2.73 1 1 0 00-.62-.64l-5-1.82a1 1 0 10-.69 1.88L5.46 29a18.86 18.86 0 00.9 2.15l-2 4.38a1 1 0 00.1 1 22.73 22.73 0 005 5 1 1 0 001 .1l4.38-2a19.65 19.65 0 002.15.9l1.65 4.54a1 1 0 00.79.64 22.77 22.77 0 007.12 0 1 1 0 00.79-.64L29 40.54a19.65 19.65 0 002.15-.9l4.38 2a1 1 0 001-.1 22.73 22.73 0 005-5 1 1 0 00.1-1l-2-4.38a19.65 19.65 0 00.9-2.15l4.54-1.65a1 1 0 00.64-.79A22.29 22.29 0 0046 23a1 1 0 00-1-1z" fill="#341472"></path></svg>