<svg data-name="Layer 1" xmlns="http://www.w3.org/2000/svg" viewBox="0 0 46 46" width="32" height="32"><path d="M13.68 33.81a19.44 19.44 0 0018.64 0V27H13.68z" fill="#e5e0fc"></path><path d="M23 1a15.75 15.75 0 1015.75 15.75A15.75 15.75 0 0023 1zm0 26.36a10.61 10.61 0 1110.61-10.61A10.61 10.61 0 0123 27.36z" fill="#cfc0ff"></path><circle cx="7.25" cy="17.32" r="2.67" fill="#ac7fff"></circle><circle cx="38.75" cy="17.32" r="2.67" fill="#ac7fff"></circle><path d="M10.92 17.32a3.67 3.67 0 00-2.39-3.43A14.82 14.82 0 0120.27 2.25 14.59 14.59 0 0123 2a14.81 14.81 0 0113.42 8.61 1 1 0 101.81-.83 16.75 16.75 0 00-31.71 3.94 3.66 3.66 0 00-2.78 2.6H1a1 1 0 000 2h2.74a3.66 3.66 0 007.18-1zM7.25 19a1.67 1.67 0 111.67-1.67A1.67 1.67 0 017.25 19zM45 16.32h-2.74a3.66 3.66 0 10-5 4.32 14.7 14.7 0 01-5.43 8 .91.91 0 00-.19.13 14.76 14.76 0 01-21.36-4.59 1 1 0 00-1.73 1 16.78 16.78 0 0022.77 6.12v12L23.48 39a1 1 0 00-1 0l-7.8 4.3v-8.86a1 1 0 00-2 0V45a1 1 0 001.49.88L23 41l8.83 4.89a1.07 1.07 0 00.49.12 1.06 1.06 0 00.51-.14 1 1 0 00.49-.86V30a16.7 16.7 0 005.89-9 3.64 3.64 0 003-2.62H45a1 1 0 000-2zM38.75 19a1.67 1.67 0 111.67-1.67A1.67 1.67 0 0138.75 19z" fill="#341472"></path><path d="M26.57 13.6l-5.31 5.31-1.83-1.82A1 1 0 0018 18.5l2.55 2.5A1 1 0 0022 21l6-6a1 1 0 00-1.41-1.41z" fill="#341472"></path></svg>