<svg data-name="Layer 1" xmlns="http://www.w3.org/2000/svg" viewBox="0 0 46 46" width="32" height="32"><path d="M34.62 7.12A19.55 19.55 0 017.29 34.45 19.56 19.56 0 1034.62 7.12z" fill="#e5e0fc"></path><circle cx="3.5" cy="42.5" r="2.5" fill="#ac7fff"></circle><circle cx="23.09" cy="3.5" r="2.5" fill="#ac7fff"></circle><circle cx="3.5" cy="23" r="2.5" fill="#ac7fff"></circle><circle cx="42.5" cy="23" r="2.5" fill="#ac7fff"></circle><path d="M43.29 26.4a3.49 3.49 0 000-6.8A20.49 20.49 0 0026.52 2.81a3.5 3.5 0 00-6.86 0A20.58 20.58 0 002.89 19.56a3.49 3.49 0 000 6.88A20.45 20.45 0 0010.3 39a1 1 0 00.63.22 1 1 0 00.62-1.78 18.44 18.44 0 01-6.67-11.23 3.49 3.49 0 000-6.42 18.56 18.56 0 0115-15 3.49 3.49 0 006.48 0 18.53 18.53 0 0115 14.93 3.48 3.48 0 000 6.54A18.56 18.56 0 0123.09 41.5H6.84a3.5 3.5 0 100 2h16.25a20.56 20.56 0 0020.2-17.1zM3.5 24.5A1.5 1.5 0 115 23a1.5 1.5 0 01-1.5 1.5zM23.09 5a1.5 1.5 0 111.5-1.5 1.5 1.5 0 01-1.5 1.5zM42.5 21.5A1.5 1.5 0 1141 23a1.5 1.5 0 011.5-1.5zM3.5 44A1.5 1.5 0 115 42.5 1.5 1.5 0 013.5 44zM45.92 42.12a1 1 0 00-.21-.33l-2.5-2.5a1 1 0 00-1.42 1.42l.79.79h-6.83a1 1 0 000 2h6.83l-.79.79a1 1 0 000 1.42 1 1 0 00.71.29 1 1 0 00.71-.29l2.5-2.5a1.15 1.15 0 00.21-.33 1 1 0 000-.76z" fill="#341472"></path><path d="M21.35 28a1 1 0 00.7-.29l6-6a1 1 0 000-1.42 1 1 0 00-1.41 0l-5.29 5.31-1.83-1.83a1 1 0 00-1.41 0 1 1 0 000 1.42l2.53 2.53a1 1 0 00.71.28z" fill="#341472"></path></svg>