<svg data-name="Layer 1" xmlns="http://www.w3.org/2000/svg" viewBox="0 0 46 46" width="32" height="32"><path d="M31.71 5.73l3.81-3.81a3.24 3.24 0 014.56 0l4.13 4.13a3.24 3.24 0 010 4.56l-3.81 3.8" fill="#cfc0ff"></path><path d="M21.59 33.22l-5.85-5.86 2.4.06A9.31 9.31 0 0025 24.69l13.09-13.12 2.57 2.57z" fill="#e5e0fc"></path><path fill="#cfc0ff" d="M21.59 33.22l-10.91 1.7 2.03-10.38 8.88 8.68z"></path><circle cx="3.6" cy="42.4" r="2.59" fill="#ac7fff"></circle><path d="M44.76 5.4L40.6 1.24a4.26 4.26 0 00-6 0l-3.83 3.83L15 20.88a1 1 0 000 1.41 1 1 0 00.7.3 1 1 0 00.71-.3l15.1-15.1 8 8a1 1 0 00.71.29 1 1 0 00.71-.29l3.83-3.84a4.24 4.24 0 000-5.95zM43.34 10l-3.12 3.13-7.33-7.35L36 2.65a2.25 2.25 0 013.17 0l4.15 4.16a2.23 2.23 0 01.02 3.19zM13 23.84l-.18-.08h-.08a.34.34 0 00-.1 0 .74.74 0 00-.21 0 .57.57 0 00-.18 0l-.17.07-.17.11s-.06 0-.09.06 0 .05 0 .07a.62.62 0 00-.11.17.71.71 0 00-.08.18v.08L9.33 35a1 1 0 001 1.21h.15l11-1.72h.1l.19-.07a.88.88 0 00.17-.12l.09-.06 14.91-15.03a1 1 0 00-1.41-1.41L21.29 32l-8-8h-.1zm.12 2.87l6.05 6L11.59 34z" fill="#341472"></path><path d="M40.06 21.38a1 1 0 00-1 1v19h-32a3.58 3.58 0 00-.9-1.55A3.38 3.38 0 004.6 39V7H24a1 1 0 000-2H3.6a1 1 0 00-1 1v33a3.39 3.39 0 00-1.54.87 3.6 3.6 0 106 3.55h33a1 1 0 001-1v-20a1 1 0 00-1-1.04zM4.74 43.53a1.61 1.61 0 110-2.27 1.63 1.63 0 01.47 1.14 1.59 1.59 0 01-.47 1.13z" fill="#341472"></path></svg>