<svg viewBox="0 0 16 16" id="appearance" xmlns="http://www.w3.org/2000/svg"><path fill-rule="evenodd" clip-rule="evenodd" d="M14.489 8.388l-.001.006a.115.115 0 0 1-.027.028.428.428 0 0 1-.264.082h-3.186c-3.118 0-4.68 3.77-2.476 5.974a6.5 6.5 0 1 1 5.953-6.09zm-.292 1.616c.913 0 1.736-.618 1.79-1.529a8 8 0 1 0-7.032 7.468c1.243-.147 1.527-1.639.641-2.525-1.26-1.26-.367-3.414 1.415-3.414h3.186zM10 5a1 1 0 1 1-2 0 1 1 0 0 1 2 0zM6 7a1 1 0 1 0 0-2 1 1 0 0 0 0 2zm0 2a1 1 0 1 1-2 0 1 1 0 0 1 2 0z"/></svg>
