<svg viewBox="0 0 16 16" id="assignee" xmlns="http://www.w3.org/2000/svg"><path fill-rule="evenodd" clip-rule="evenodd" d="M4 6.5a1.5 1.5 0 1 0 0-3 1.5 1.5 0 0 0 0 3zM7 5a2.99 2.99 0 0 1-.87 2.113A3.997 3.997 0 0 1 8 10.5V12a2 2 0 0 1-2 2H2a2 2 0 0 1-2-2v-1.5c0-1.427.747-2.679 1.87-3.387A3 3 0 1 1 7 5zm-5.5 5.5a2.5 2.5 0 0 1 5 0V12a.5.5 0 0 1-.5.5H2a.5.5 0 0 1-.5-.5v-1.5zM13 10a.75.75 0 0 1-.75-.75v-1.5h-1.5a.75.75 0 0 1 0-1.5h1.5v-1.5a.75.75 0 0 1 1.5 0v1.5h1.5a.75.75 0 0 1 0 1.5h-1.5v1.5A.75.75 0 0 1 13 10z"/></svg>
