<svg viewBox="0 0 16 16" id="bug" xmlns="http://www.w3.org/2000/svg"><path fill-rule="evenodd" clip-rule="evenodd" d="M4 1.75A.75.75 0 0 1 4.75 1h.5C6.216 1 7 1.784 7 2.75v.35a5.023 5.023 0 0 1 2 0v-.35C9 1.784 9.784 1 10.75 1h.5a.75.75 0 0 1 0 1.5h-.5a.25.25 0 0 0-.25.25v.919A5.02 5.02 0 0 1 12.584 6h1.666a.75.75 0 0 1 0 1.5h-1.275c.017.164.025.331.025.5v.5h1.25a.75.75 0 0 1 0 1.5H13c0 .342-.034.677-.1 1h1.35a.75.75 0 0 1 0 1.5h-1.919A4.998 4.998 0 0 1 8 15a4.998 4.998 0 0 1-4.331-2.5H1.75a.75.75 0 0 1 0-1.5H3.1a5.022 5.022 0 0 1-.1-1H1.75a.75.75 0 0 1 0-1.5H3V8c0-.169.008-.336.025-.5H1.75a.75.75 0 0 1 0-1.5h1.666A5.02 5.02 0 0 1 5.5 3.669V2.75a.25.25 0 0 0-.25-.25h-.5A.75.75 0 0 1 4 1.75zM11.5 8v2a3.501 3.501 0 0 1-2.75 3.42V7.5h2.715c.023.163.035.33.035.5zm-4.25-.5v5.92A3.501 3.501 0 0 1 4.5 10V8c0-.17.012-.337.035-.5H7.25zM10.873 6H5.127A3.496 3.496 0 0 1 8 4.5c1.19 0 2.24.593 2.873 1.5z"/></svg>
