<svg viewBox="0 0 16 16" id="check-circle-dashed" xmlns="http://www.w3.org/2000/svg"><path fill-rule="evenodd" clip-rule="evenodd" d="M6.701 1.08a.75.75 0 0 0-.934-.5A7.75 7.75 0 0 0 .573 5.785a.75.75 0 1 0 1.438.429 6.25 6.25 0 0 1 4.188-4.199.75.75 0 0 0 .502-.934zm2.598 0a.75.75 0 0 1 .934-.501 7.75 7.75 0 0 1 5.194 5.206.75.75 0 1 1-1.438.429 6.25 6.25 0 0 0-4.188-4.199.75.75 0 0 1-.502-.934zm2.481 4.14a.75.75 0 0 1 0 1.06l-4.5 4.5a.75.75 0 0 1-1.06 0L4.47 9.03a.75.75 0 0 1 1.06-1.06l1.22 1.22 3.97-3.97a.75.75 0 0 1 1.06 0zm-1.547 10.2a.75.75 0 1 1-.432-1.436 6.251 6.251 0 0 0 4.188-4.199.75.75 0 1 1 1.438.429 7.75 7.75 0 0 1-5.194 5.206zm-4.466 0a.75.75 0 1 0 .432-1.436 6.25 6.25 0 0 1-4.188-4.199.75.75 0 1 0-1.438.429 7.75 7.75 0 0 0 5.194 5.206z"/></svg>
