<svg viewBox="0 0 16 16" id="cloud-gear" xmlns="http://www.w3.org/2000/svg"><path fill-rule="evenodd" clip-rule="evenodd" d="M8 2.5a3.75 3.75 0 0 0-3.745 3.552l-.04.787-.785-.08a1.75 1.75 0 0 0-1.055 3.257.75.75 0 0 1-.75 1.299 3.249 3.249 0 0 1 1.215-6.04 5.251 5.251 0 0 1 10.037-.973 3.75 3.75 0 0 1 1.561 6.744.75.75 0 0 1-.876-1.218 2.25 2.25 0 0 0-1.256-4.077l-.55-.014-.152-.528A3.752 3.752 0 0 0 8 2.5zm-.803 3.924c-.05.405-.355.724-.731.88-.323.135-.624.31-.898.52-.324.248-.752.352-1.129.193a.485.485 0 0 0-.608.204l-.322.558a.485.485 0 0 0 .127.629c.325.246.45.668.397 1.073a4.04 4.04 0 0 0 0 1.038c.053.405-.072.827-.397 1.073a.485.485 0 0 0-.127.629l.322.558c.122.212.383.3.608.204.377-.159.805-.055 1.129.193.274.21.575.385.898.52.376.156.68.475.731.88.03.242.236.424.48.424h.645c.245 0 .45-.182.481-.424.05-.405.355-.724.731-.88.323-.135.624-.31.898-.52.324-.248.752-.352 1.128-.193a.485.485 0 0 0 .61-.204l.321-.558a.485.485 0 0 0-.127-.629c-.325-.246-.45-.668-.397-1.073a4.046 4.046 0 0 0 0-1.038c-.053-.405.072-.827.397-1.073a.485.485 0 0 0 .127-.629l-.322-.558a.485.485 0 0 0-.609-.204c-.376.159-.804.055-1.128-.193a3.994 3.994 0 0 0-.898-.52c-.376-.156-.68-.475-.731-.88A.484.484 0 0 0 8.323 6h-.645a.484.484 0 0 0-.481.424zM10.5 11a2.5 2.5 0 1 1-5 0 2.5 2.5 0 0 1 5 0zM8 10a1 1 0 1 1 0 2 1 1 0 0 1 0-2z"/></svg>
