<svg viewBox="0 0 16 16" id="comment-next" xmlns="http://www.w3.org/2000/svg"><path fill-rule="evenodd" clip-rule="evenodd" d="M13 12H7l-2.5 2.5L3 16v-4a3 3 0 0 1-3-3V5a3 3 0 0 1 3-3h10a3 3 0 0 1 3 3v4a3 3 0 0 1-3 3zm-8.5 0v.379l1.44-1.44.439-.439H13A1.5 1.5 0 0 0 14.5 9V5A1.5 1.5 0 0 0 13 3.5H3A1.5 1.5 0 0 0 1.5 5v4A1.5 1.5 0 0 0 3 10.5h1.5V12zm4.72-6.78a.75.75 0 0 0-.029 1.03H4.75a.75.75 0 0 0 0 1.5h4.441a.75.75 0 0 0 1.09 1.03l1.249-1.25.53-.53-.53-.53-1.25-1.25a.75.75 0 0 0-1.06 0z"/></svg>
