<svg viewBox="0 0 16 16" id="details-block" xmlns="http://www.w3.org/2000/svg"><path fill-rule="evenodd" clip-rule="evenodd" d="M0 4.596v1.428a.5.5 0 0 0 .725.446l.886-.446.377-.19L2 5.827l1.404-.708.07-.036.662-.333.603-.305a.5.5 0 0 0 0-.892l-.603-.305-.662-.333-.07-.036L2 2.172l-.012-.005-.377-.19-.886-.447A.5.5 0 0 0 0 1.976v2.62zM7.75 3a.75.75 0 1 0 0 1.5h6.5a.25.25 0 0 1 .25.25v7.5a.25.25 0 0 1-.25.25h-9.5a.25.25 0 0 1-.25-.25v-4.5a.75.75 0 1 0-1.5 0v4.5c0 .966.784 1.75 1.75 1.75h9.5A1.75 1.75 0 0 0 16 12.25v-7.5A1.75 1.75 0 0 0 14.25 3h-6.5zm-1 3.5a.75.75 0 1 0 0 1.5h5.5a.75.75 0 0 0 0-1.5h-5.5zM6 9.75A.75.75 0 0 1 6.75 9h3.5a.75.75 0 0 1 0 1.5h-3.5A.75.75 0 0 1 6 9.75z"/></svg>
