<svg viewBox="0 0 16 16" id="doc-chart" xmlns="http://www.w3.org/2000/svg"><path fill-rule="evenodd" clip-rule="evenodd" d="M14.5 8v4.5h-13v-9H10v2.75c0 .966.784 1.75 1.75 1.75h2.75zm-3-4.379L14.379 6.5H11.75a.25.25 0 0 1-.25-.25V3.621zM1 2a1 1 0 0 0-1 1v10a1 1 0 0 0 1 1h14a1 1 0 0 0 1-1V6.414a1 1 0 0 0-.293-.707l-3.414-3.414A1 1 0 0 0 11.586 2H1zm2.75 5a.75.75 0 0 0-.75.75v2.5a.75.75 0 0 0 1.5 0v-2.5A.75.75 0 0 0 3.75 7zM6 5.75a.75.75 0 0 1 1.5 0v4.5a.75.75 0 0 1-1.5 0v-4.5zM9.75 9a.75.75 0 0 0-.75.75v.5a.75.75 0 0 0 1.5 0v-.5A.75.75 0 0 0 9.75 9z"/></svg>
