<svg viewBox="0 0 16 16" id="doc-changes" xmlns="http://www.w3.org/2000/svg"><path fill-rule="evenodd" clip-rule="evenodd" d="M3.5 13.5v-12H8v2.75C8 5.216 8.784 6 9.75 6h3.375a.76.76 0 0 0 .063-.003A.75.75 0 0 0 14 5.25v-.774a1 1 0 0 0-.282-.695L10.363.305A1 1 0 0 0 9.643 0H3a1 1 0 0 0-1 1v13a1 1 0 0 0 1 1h4.25a.75.75 0 0 0 0-1.5H3.5zm8.828-9L9.5 1.57v2.68c0 .138.112.25.25.25h2.578zM10 15.25a.75.75 0 0 1 .75-.75h4.5a.75.75 0 0 1 0 1.5h-4.5a.75.75 0 0 1-.75-.75zm3-2a.75.75 0 0 1-.75-.75V11h-1.5a.75.75 0 0 1 0-1.5h1.5V8a.75.75 0 0 1 1.5 0v1.5h1.5a.75.75 0 0 1 0 1.5h-1.5v1.5a.75.75 0 0 1-.75.75z"/></svg>
