<svg viewBox="0 0 16 16" id="dot-grid" xmlns="http://www.w3.org/2000/svg"><path fill-rule="evenodd" clip-rule="evenodd" d="M3.5 2.25a1.25 1.25 0 1 1-2.5 0 1.25 1.25 0 0 1 2.5 0zm11.5 0a1.25 1.25 0 1 1-2.5 0 1.25 1.25 0 0 1 2.5 0zm-1.25 7a1.25 1.25 0 1 0 0-2.5 1.25 1.25 0 0 0 0 2.5zm1.25 4.5a1.25 1.25 0 1 1-2.5 0 1.25 1.25 0 0 1 2.5 0zM2.25 9.25a1.25 1.25 0 1 0 0-2.5 1.25 1.25 0 0 0 0 2.5zm7-1.25a1.25 1.25 0 1 1-2.5 0 1.25 1.25 0 0 1 2.5 0zM8 15a1.25 1.25 0 1 0 0-2.5A1.25 1.25 0 0 0 8 15zM9.25 2.25a1.25 1.25 0 1 1-2.5 0 1.25 1.25 0 0 1 2.5 0zM2.25 15a1.25 1.25 0 1 0 0-2.5 1.25 1.25 0 0 0 0 2.5z"/></svg>
