<svg viewBox="0 0 27 27" id="dotted-circle" xmlns="http://www.w3.org/2000/svg"><path fill-rule="evenodd" d="M13.5 26.5c1.412 0 2.794-.225 4.107-.662l-.316-.949a11.994 11.994 0 0 1-3.792.611v1m6.06-1.495a13.047 13.047 0 0 0 3.321-2.504l-.721-.692a12.053 12.053 0 0 1-3.067 2.312l.467.884m4.66-4.147a12.947 12.947 0 0 0 1.777-3.762l-.961-.276a11.94 11.94 0 0 1-1.64 3.471l.824.567m2.184-5.761a13.188 13.188 0 0 0-.158-4.171l-.98.197a12.117 12.117 0 0 1 .146 3.853l.993.122m-.738-6.189a12.967 12.967 0 0 0-2.075-3.605l-.776.631c.812.999 1.46 2.122 1.916 3.327l.935-.353m-3.539-5.133a12.99 12.99 0 0 0-3.512-2.229l-.394.919a12 12 0 0 1 3.242 2.058l.664-.748M16.664.89a13.055 13.055 0 0 0-4.178-.349l.077.997a12 12 0 0 1 3.859.322l.243-.97M10.427.868a12.92 12.92 0 0 0-3.832 1.619l.532.847a11.95 11.95 0 0 1 3.536-1.494l-.236-.972M4.91 3.746a13.086 13.086 0 0 0-2.643 3.212l.864.504a12.051 12.051 0 0 1 2.441-2.966l-.661-.75m-3.54 5.076a12.953 12.953 0 0 0-.854 4.072l.999.046c.06-1.3.328-2.564.788-3.758l-.933-.36m-.78 6.202a12.9 12.9 0 0 0 1.14 4l.905-.425a11.916 11.916 0 0 1-1.052-3.692l-.993.116m2.177 5.814a12.966 12.966 0 0 0 2.866 3.01l.606-.796a12.058 12.058 0 0 1-2.646-2.783l-.825.565m4.665 4.164c1.23.65 2.559 1.1 3.943 1.328l.162-.987a11.907 11.907 0 0 1-3.638-1.225l-.468.884m6.02 1.501h.048v-1h-.044l-.004 1"/></svg>
