<svg viewBox="0 0 16 16" id="drag" xmlns="http://www.w3.org/2000/svg"><path fill-rule="evenodd" clip-rule="evenodd" d="M10.78 3.78a.75.75 0 0 0 0-1.06L8.53.47 8-.06l-.53.53-2.25 2.25a.75.75 0 0 0 1.06 1.06L8 2.06l1.72 1.72a.75.75 0 0 0 1.06 0zM3.84 5.22a.75.75 0 0 0-1.06 0L.53 7.47 0 8l.53.53 2.25 2.25a.75.75 0 1 0 1.06-1.06L2.12 8l1.72-1.72a.75.75 0 0 0 0-1.06zm6.94 6.88a.75.75 0 0 1 0 1.06l-2.25 2.25-.53.53-.53-.53-2.25-2.25a.75.75 0 1 1 1.06-1.06L8 13.82l1.72-1.72a.75.75 0 0 1 1.06 0zm2.44-6.88a.75.75 0 0 0-1.06 1.06L13.88 8l-1.72 1.72a.75.75 0 1 0 1.06 1.06l2.25-2.25L16 8l-.53-.53-2.25-2.25zM8 6a.75.75 0 0 1 .75.75v.5h.5a.75.75 0 0 1 0 1.5h-.5v.5a.75.75 0 1 1-1.5 0v-.5h-.5a.75.75 0 1 1 0-1.5h.5v-.5A.75.75 0 0 1 8 6z"/></svg>
