<svg viewBox="0 0 16 16" id="drag-vertical" xmlns="http://www.w3.org/2000/svg"><path fill-rule="evenodd" clip-rule="evenodd" d="M11.75 7.25a.75.75 0 0 0 0 1.5h2.5a.75.75 0 0 0 0-1.5h-2.5zm-.97 4.85a.75.75 0 0 1 0 1.06l-2.25 2.25-.53.53-.53-.53-2.25-2.25a.75.75 0 1 1 1.06-1.06L8 13.82l1.72-1.72a.75.75 0 0 1 1.06 0zM6 8a.75.75 0 0 1 .75-.75h2.5a.75.75 0 0 1 0 1.5h-2.5A.75.75 0 0 1 6 8zM1 8a.75.75 0 0 1 .75-.75h2.5a.75.75 0 0 1 0 1.5h-2.5A.75.75 0 0 1 1 8zm9.78-5.28a.75.75 0 1 1-1.06 1.06L8 2.06 6.28 3.78a.75.75 0 0 1-1.06-1.06L7.47.47 8-.06l.53.53 2.25 2.25z"/></svg>
