<svg viewBox="0 0 16 16" id="drag-horizontal" xmlns="http://www.w3.org/2000/svg"><path fill-rule="evenodd" clip-rule="evenodd" d="M7.25 4.25a.75.75 0 0 0 1.5 0v-2.5a.75.75 0 0 0-1.5 0v2.5zm4.91.97a.75.75 0 0 1 1.06 0l2.25 2.25L16 8l-.53.53-2.25 2.25a.75.75 0 0 1-1.06-1.06L13.88 8l-1.72-1.72a.75.75 0 0 1 0-1.06zM8 10a.75.75 0 0 1-.75-.75v-2.5a.75.75 0 0 1 1.5 0v2.5A.75.75 0 0 1 8 10zm0 5a.75.75 0 0 1-.75-.75v-2.5a.75.75 0 0 1 1.5 0v2.5A.75.75 0 0 1 8 15zM2.78 5.22a.75.75 0 0 1 1.06 1.06L2.12 8l1.72 1.72a.75.75 0 1 1-1.06 1.06L.53 8.53 0 8l.53-.53 2.25-2.25z"/></svg>
