<svg viewBox="0 0 16 16" id="false-positive" xmlns="http://www.w3.org/2000/svg"><path fill-rule="evenodd" clip-rule="evenodd" d="M6.229.199a8 8 0 0 1 9.727 6.964.75.75 0 0 1-1.492.157 6.5 6.5 0 1 0-7.132 7.146.75.75 0 1 1-.154 1.492 8 8 0 0 1-.95-15.76zm5.051 10.02a.75.75 0 1 0-1.06 1.061L11.94 13l-1.72 1.72a.75.75 0 1 0 1.06 1.06L13 14.06l1.72 1.72a.75.75 0 1 0 1.06-1.06L14.06 13l1.72-1.72a.75.75 0 1 0-1.06-1.06L13 11.94l-1.72-1.72zm.25-3.939a.75.75 0 0 0-1.06-1.06L6.5 9.19 5.28 7.97a.75.75 0 0 0-1.06 1.06l1.75 1.75a.75.75 0 0 0 1.06 0l4.5-4.5z"/></svg>
