<svg viewBox="0 0 16 16" id="food" xmlns="http://www.w3.org/2000/svg"><path fill-rule="evenodd" clip-rule="evenodd" d="M6.75 1A5.75 5.75 0 0 0 1 6.75v.518a2 2 0 0 0 0 3.464v1.518A2.75 2.75 0 0 0 3.75 15h8.5A2.75 2.75 0 0 0 15 12.25v-1.518a2 2 0 0 0 0-3.464V6.75A5.75 5.75 0 0 0 9.25 1h-2.5zM14 8.5H2a.5.5 0 0 0 0 1h12a.5.5 0 0 0 0-1zM13.5 7v-.25A4.25 4.25 0 0 0 9.25 2.5h-2.5A4.25 4.25 0 0 0 2.5 6.75V7h11zM11 11h2.5v1.25c0 .69-.56 1.25-1.25 1.25h-8.5c-.69 0-1.25-.56-1.25-1.25V11H9l1 1 1-1z"/></svg>
