<svg viewBox="0 0 16 16" id="fork" xmlns="http://www.w3.org/2000/svg"><path fill-rule="evenodd" clip-rule="evenodd" d="M5.5 3.5a1 1 0 1 1-2 0 1 1 0 0 1 2 0zm-.25 2.386a2.501 2.501 0 1 0-1.5 0v.364a2.5 2.5 0 0 0 2.5 2.5 1 1 0 0 1 1 1v.364a2.501 2.501 0 1 0 1.5 0V9.75a1 1 0 0 1 1-1 2.5 2.5 0 0 0 2.5-2.5v-.364a2.501 2.501 0 1 0-1.5 0v.364a1 1 0 0 1-1 1c-.681 0-1.3.273-1.75.715a2.492 2.492 0 0 0-1.75-.715 1 1 0 0 1-1-1v-.364zM11.5 4.5a1 1 0 1 0 0-2 1 1 0 0 0 0 2zm-3.5 9a1 1 0 1 0 0-2 1 1 0 0 0 0 2z"/></svg>
