<svg viewBox="0 0 16 16" id="issue-block" xmlns="http://www.w3.org/2000/svg"><path fill-rule="evenodd" clip-rule="evenodd" d="M3 1a2 2 0 0 0-2 2v3.25a.75.75 0 0 0 1.5 0V3a.5.5 0 0 1 .5-.5h6a.5.5 0 0 1 .5.5v10.234a.753.753 0 0 0 .57.744.752.752 0 0 0 .851-.393l3.7-7.047a1.75 1.75 0 0 0-.74-2.366l-2.91-1.514A2 2 0 0 0 9 1H3zm8 3.364v5.844l2.293-4.367a.25.25 0 0 0-.106-.338L11 4.363zm-4.783 8.792a2.5 2.5 0 0 0-3.373-3.373l3.373 3.373zm-1.06 1.061a2.5 2.5 0 0 1-3.373-3.373l3.372 3.373zM4 16a4 4 0 1 0 0-8 4 4 0 0 0 0 8z"/></svg>
