<svg viewBox="0 0 16 16" id="issue-new" xmlns="http://www.w3.org/2000/svg"><path fill-rule="evenodd" clip-rule="evenodd" d="M3 1a2 2 0 0 0-2 2v10a2 2 0 0 0 2 2h3.25a.75.75 0 0 0 0-1.5H3a.5.5 0 0 1-.5-.5V3a.5.5 0 0 1 .5-.5h6a.5.5 0 0 1 .5.5v5.25a.75.75 0 0 0 1.5 0V4.364l2.19 1.14a.25.25 0 0 1 .107.338l-1.072 2.062a.75.75 0 0 0 1.33.692l1.073-2.062a1.75 1.75 0 0 0-.745-2.36l-2.912-1.516A2 2 0 0 0 9 1H3zm6 12a.75.75 0 0 1 .75-.75h1.5v-1.5a.75.75 0 0 1 1.5 0v1.5h1.5a.75.75 0 0 1 0 1.5h-1.5v1.5a.75.75 0 0 1-1.5 0v-1.5h-1.5A.75.75 0 0 1 9 13z"/></svg>
