<svg viewBox="0 0 16 16" id="link" xmlns="http://www.w3.org/2000/svg"><path fill-rule="evenodd" clip-rule="evenodd" d="M9.929 3.132a2.078 2.078 0 1 1 2.94 2.94l-.65.648a.75.75 0 0 0 1.061 1.06l.649-.648a3.579 3.579 0 0 0-5.06-5.06L6.218 4.72a3.578 3.578 0 0 0 0 5.06.75.75 0 0 0 1.061-1.06 2.078 2.078 0 0 1 0-2.94L9.93 3.132zm-.15 3.086a.75.75 0 0 0-1.057 1.064c.816.81.818 2.13.004 2.942l-2.654 2.647a2.08 2.08 0 0 1-2.94-2.944l.647-.647a.75.75 0 0 0-1.06-1.06l-.648.647a3.58 3.58 0 0 0 5.06 5.066l2.654-2.647a3.575 3.575 0 0 0-.007-5.068z"/></svg>
