<svg viewBox="0 0 16 16" id="log" xmlns="http://www.w3.org/2000/svg"><path fill-rule="evenodd" clip-rule="evenodd" d="M3.5 2.5v11h9v-11h-9zM3 1a1 1 0 0 0-1 1v12a1 1 0 0 0 1 1h10a1 1 0 0 0 1-1V2a1 1 0 0 0-1-1H3zm5 10a.75.75 0 0 1 .75-.75h1.75a.75.75 0 0 1 0 1.5H8.75A.75.75 0 0 1 8 11zm-2 1a1 1 0 1 0 0-2 1 1 0 0 0 0 2zm2-4a.75.75 0 0 1 .75-.75h1.75a.75.75 0 0 1 0 1.5H8.75A.75.75 0 0 1 8 8zM6 9a1 1 0 1 0 0-2 1 1 0 0 0 0 2zm2-4a.75.75 0 0 1 .75-.75h1.75a.75.75 0 0 1 0 1.5H8.75A.75.75 0 0 1 8 5zM6 6a1 1 0 1 0 0-2 1 1 0 0 0 0 2z"/></svg>
