<svg viewBox="0 0 16 16" id="marquee-selection" xmlns="http://www.w3.org/2000/svg"><path fill-rule="evenodd" clip-rule="evenodd" d="M1.75 1H1v2.25a.75.75 0 0 0 1.5 0V2.5h.75a.75.75 0 0 0 0-1.5h-1.5zm0 5a.75.75 0 0 1 .75.75v2.5a.75.75 0 0 1-1.5 0v-2.5A.75.75 0 0 1 1.75 6zm7.106 2.856l1.507 3.517 2.01-2.01-3.517-1.507zm-.558-1.871l5.344 2.29a1 1 0 0 1 .314 1.627l-.997.996 1.821 1.822a.75.75 0 1 1-1.06 1.06l-1.822-1.821-.996.997a1 1 0 0 1-1.627-.314l-2.29-5.344c-.356-.83.483-1.669 1.313-1.313zM1.75 15H1v-2.25a.75.75 0 0 1 1.5 0v.75h.75a.75.75 0 0 1 0 1.5h-1.5zM6 1.75A.75.75 0 0 1 6.75 1h2.5a.75.75 0 0 1 0 1.5h-2.5A.75.75 0 0 1 6 1.75zM14.25 1H15v2.25a.75.75 0 0 1-1.5 0V2.5h-.75a.75.75 0 0 1 0-1.5h1.5z"/></svg>
