<svg viewBox="0 0 16 16" id="overview" xmlns="http://www.w3.org/2000/svg"><path fill-rule="evenodd" clip-rule="evenodd" d="M2.5 5.5v-3h3v3h-3zM1 2a1 1 0 0 1 1-1h4a1 1 0 0 1 1 1v4a1 1 0 0 1-1 1H2a1 1 0 0 1-1-1V2zm8 .25a.75.75 0 0 1 .75-.75h4.5a.75.75 0 0 1 0 1.5h-4.5A.75.75 0 0 1 9 2.25zM9.75 5a.75.75 0 0 0 0 1.5h4.5a.75.75 0 0 0 0-1.5h-4.5zM2.5 10.5v3h3v-3h-3zM2 9a1 1 0 0 0-1 1v4a1 1 0 0 0 1 1h4a1 1 0 0 0 1-1v-4a1 1 0 0 0-1-1H2zm7.75.5a.75.75 0 0 0 0 1.5h4.5a.75.75 0 0 0 0-1.5h-4.5zm0 3.5a.75.75 0 0 0 0 1.5h4.5a.75.75 0 0 0 0-1.5h-4.5z"/></svg>
