<svg viewBox="0 0 16 16" id="question" xmlns="http://www.w3.org/2000/svg"><path fill-rule="evenodd" clip-rule="evenodd" d="M8 16A8 8 0 1 0 8 0a8 8 0 0 0 0 16zM4.927 4.99c-.285.429-.427.853-.427 1.27 0 .203.09.392.27.566.18.174.4.26.661.26.443 0 .744-.248.903-.746.168-.475.373-.835.616-1.08.243-.244.62-.366 1.134-.366.439 0 .797.12 1.075.363.277.242.416.54.416.892a.97.97 0 0 1-.136.502 1.91 1.91 0 0 1-.336.419 14.35 14.35 0 0 1-.648.558c-.34.282-.611.525-.812.73-.2.205-.362.443-.483.713-.322 1.245 1.35 1.345 1.736.456.047-.086.118-.18.213-.284.096-.103.223-.223.382-.36a41.14 41.14 0 0 0 1.194-1.034c.221-.204.412-.448.573-.73a1.95 1.95 0 0 0 .242-.984c0-.475-.141-.915-.424-1.32-.282-.406-.682-.726-1.2-.962-.518-.235-1.115-.353-1.792-.353-.728 0-1.365.14-1.911.423-.546.282-.961.637-1.246 1.066zm2.14 7.08a1 1 0 1 0 2 0 1 1 0 0 0-2 0z"/></svg>
