<svg viewBox="0 0 16 16" id="requirements" xmlns="http://www.w3.org/2000/svg"><path fill-rule="evenodd" clip-rule="evenodd" d="M3 2.5a.5.5 0 0 0-.5.5v10a.5.5 0 0 0 .5.5h5.25a.75.75 0 0 1 0 1.5H3a2 2 0 0 1-2-2V3a2 2 0 0 1 2-2h10a2 2 0 0 1 2 2v6.25a.75.75 0 0 1-1.5 0V3a.5.5 0 0 0-.5-.5H3zm12.28 8.72a.75.75 0 0 1 0 1.06l-2.5 2.5a.75.75 0 0 1-1.06 0l-1-1a.75.75 0 1 1 1.06-1.06l.47.47 1.97-1.97a.75.75 0 0 1 1.06 0zM4.75 4a.75.75 0 0 0 0 1.5h6.5a.75.75 0 0 0 0-1.5h-6.5zM4 8a.75.75 0 0 1 .75-.75h6.5a.75.75 0 0 1 0 1.5h-6.5A.75.75 0 0 1 4 8zm.75 2.5a.75.75 0 0 0 0 1.5h3.5a.75.75 0 0 0 0-1.5h-3.5z"/></svg>
