<svg viewBox="0 0 16 16" id="skype" xmlns="http://www.w3.org/2000/svg"><path d="M8.028 12.213c-2.325 0-3.388-1.184-3.388-2.053a.754.754 0 0 1 .795-.754c.996 0 .736 1.494 2.593 1.494.95 0 1.508-.572 1.508-1.11 0-.322-.185-.69-.812-.838L6.65 8.429c-1.666-.424-1.957-1.351-1.957-2.21 0-1.785 1.632-2.43 3.186-2.43 1.43 0 3.132.79 3.132 1.86 0 .461-.385.708-.832.708-.85 0-.708-1.194-2.418-1.194-.85 0-1.298.398-1.298.956 0 .558.662.747 1.243.874l1.53.345c1.678.378 2.125 1.363 2.125 2.305 0 1.45-1.122 2.57-3.335 2.57h.002zm6.422-3.067c.066-.381.1-.767.099-1.153a6.55 6.55 0 0 0-7.685-6.479A3.854 3.854 0 0 0 4.933 1a3.918 3.918 0 0 0-3.381 5.857 6.555 6.555 0 0 0 7.587 7.629 3.852 3.852 0 0 0 1.93.514 3.918 3.918 0 0 0 3.38-5.854z"/></svg>
