<svg viewBox="0 0 16 16" id="spam" xmlns="http://www.w3.org/2000/svg"><path fill-rule="evenodd" clip-rule="evenodd" d="M10.103 1.529L8 0 5.897 1.529l-2.6-.001L2.496 4 .392 5.528 1.196 8l-.804 2.472L2.495 12l.803 2.473 2.6-.001L8 16l2.103-1.529 2.6.001.802-2.473 2.103-1.527L14.804 8l.804-2.472L13.505 4l-.803-2.473-2.6.001zm1.51 1.5H9.614l-.395-.287L8 1.855l-1.22.887-.395.287H4.387l-.465 1.435-.15.464-.395.287-1.222.886.467 1.435.151.464-.15.464L2.154 9.9l1.222.886.395.287.15.464.466 1.436 1.509-.001h.488l.395.287 1.22.887 1.22-.887.395-.287h1.998l.465-1.435.15-.464.395-.287 1.222-.886-.467-1.435-.15-.465.15-.464.467-1.435-1.22-.886-.396-.287-.15-.464-.466-1.436zM9 11a1 1 0 1 1-2 0 1 1 0 0 1 2 0zm-.25-6.25a.75.75 0 0 0-1.5 0v3.5a.75.75 0 0 0 1.5 0v-3.5z"/></svg>
