<svg viewBox="0 0 16 16" id="star-o" xmlns="http://www.w3.org/2000/svg"><path fill-rule="evenodd" clip-rule="evenodd" d="M7.189 2.332l-.001.003-1.319 3.17a.25.25 0 0 1-.21.153l-3.423.274h-.003l-.095.008-.593.048a.591.591 0 0 0-.338 1.038l.452.387.073.062.002.002 2.608 2.234a.25.25 0 0 1 .08.247l-.796 3.34-.001.003-.022.093-.138.579a.591.591 0 0 0 .883.641l.507-.31.082-.05.003-.001 2.93-1.79a.25.25 0 0 1 .26 0l2.93 1.79.003.002.082.05.507.31a.591.591 0 0 0 .883-.642l-.138-.579-.022-.093v-.003l-.797-3.34a.25.25 0 0 1 .08-.247l2.608-2.234.002-.002.073-.062.452-.387a.591.591 0 0 0-.338-1.038l-.593-.048-.095-.008h-.003l-3.422-.274a.25.25 0 0 1-.211-.153l-1.319-3.17-.001-.003-.037-.089-.228-.549a.591.591 0 0 0-1.092 0l-.228.55-.037.088zM8 4.288L7.254 6.08a1.75 1.75 0 0 1-1.476 1.072l-1.935.155L5.317 8.57a1.75 1.75 0 0 1 .564 1.736l-.45 1.888 1.657-1.012a1.75 1.75 0 0 1 1.824 0l1.657 1.012-.45-1.889a1.75 1.75 0 0 1 .564-1.735l1.474-1.263-1.935-.155A1.75 1.75 0 0 1 8.746 6.08L8 4.288z"/></svg>
