<svg viewBox="0 0 22 22" id="status_manual_borderless" xmlns="http://www.w3.org/2000/svg"><path d="M16.5 11.99v-1.98l-1.238-.206c-.068-.273-.206-.546-.412-.956l.756-1.025-1.444-1.435-1.03.752a3.686 3.686 0 0 0-.963-.41L12.03 5.5h-1.994l-.206 1.23c-.343.068-.618.205-.962.41l-1.031-.752-1.444 1.435.687 1.025c-.206.341-.275.615-.412.956L5.5 9.941v1.981l1.237.205c.07.342.207.615.413.957l-.688 1.025 1.444 1.434 1.032-.683c.274.137.618.274.962.41l.206 1.23h2.063l.206-1.23c.344-.068.619-.205.963-.41l1.03.752 1.444-1.435-.756-1.025c.207-.341.344-.683.413-.956l1.031-.205zM11 13.017c-1.169 0-2.063-.889-2.063-2.05 0-1.162.894-2.05 2.063-2.05s2.063.888 2.063 2.05c0 1.161-.894 2.05-2.063 2.05z"/></svg>
