<svg viewBox="0 0 16 16" id="tanuki" xmlns="http://www.w3.org/2000/svg"><path fill-rule="evenodd" clip-rule="evenodd" d="M14.329 6.922l-.02-.053-1.239-3.232-.668 2.044-.337 1.035H3.936L3.598 5.68l-.667-2.043-1.24 3.237-.005.01-.004.01-.018.045a2.543 2.543 0 0 0 .848 2.93l.005.004.01.008.01.008.009.006 3.302 2.474.004.004 1.644 1.242.5.379.501-.379 1.644-1.242.006-.004 3.325-2.489.007-.005.009-.007a2.543 2.543 0 0 0 .844-2.939l-.003-.008zm.053 4.152l-3.337 2.497-1.643 1.242-.999.755a.675.675 0 0 1-.813 0l-.999-.755-1.643-1.242-3.313-2.483-.018-.014-.008-.006A4.043 4.043 0 0 1 .267 6.395l.023-.057 1.9-4.963.013-.033.081-.212.023-.06.158-.413A.565.565 0 0 1 2.941.3a.576.576 0 0 1 .613.415l.134.41.005.017.078.239.011.033 1.242 3.802h5.953l1.241-3.802.011-.033.078-.24.006-.016.133-.41a.575.575 0 0 1 1.088-.058l.157.409.025.064.08.211.013.033 1.903 4.963.022.058a4.043 4.043 0 0 1-1.343 4.671l-.01.008z"/></svg>
