<svg viewBox="0 0 16 16" id="tanuki-verified" xmlns="http://www.w3.org/2000/svg"><path fill-rule="evenodd" clip-rule="evenodd" d="M15.712 6.337l.022.058a4.043 4.043 0 0 1-1.343 4.671l-.01.008-3.336 2.497-1.643 1.242-.999.755a.675.675 0 0 1-.813 0l-.999-.755-1.643-1.242-3.313-2.483-.018-.014-.008-.007A4.043 4.043 0 0 1 .267 6.395l.023-.057L2.466.657a.565.565 0 0 1 .475-.358.576.576 0 0 1 .613.416l1.47 4.5h5.953l1.47-4.5a.575.575 0 0 1 1.087-.058l2.178 5.68zM11.28 8.53a.75.75 0 0 0-1.06-1.06L7.5 10.19 6.28 8.97a.75.75 0 1 0-1.06 1.06l1.75 1.75a.75.75 0 0 0 1.06 0l3.25-3.25z"/></svg>
