<svg viewBox="0 0 16 16" id="volume-up" xmlns="http://www.w3.org/2000/svg"><path fill-rule="evenodd" clip-rule="evenodd" d="M1.5 5H3l3.364-2.77A1 1 0 0 1 8 3.002v9.996a1 1 0 0 1-1.636.772L3 11H0V5h1.5zM3 9.5H1.5v-3h2.038l.416-.342L6.5 4.061v7.878L3.954 9.842 3.538 9.5H3zm9.457-7.267a.75.75 0 0 1 1.06-.026 7.999 7.999 0 0 1 0 11.586.75.75 0 0 1-1.034-1.086 6.5 6.5 0 0 0 0-9.414.75.75 0 0 1-.026-1.06zm-2.292 2.034a.75.75 0 0 1 1.057-.09 5 5 0 0 1 .001 7.645.75.75 0 1 1-.967-1.146 3.5 3.5 0 0 0 0-5.353.75.75 0 0 1-.091-1.056z"/></svg>
