<svg viewBox="0 0 24 24" preserveAspectRatio="xMidYMid meet" focusable="false" class="style-scope yt-icon" style="pointer-events: none; display: block; width: 100%; height: 100%;"><g class="style-scope yt-icon"><path d="M8,7c0,0.55-0.45,1-1,1S6,7.55,6,7c0-0.55,0.45-1,1-1S8,6.45,8,7z M7,16c-0.55,0-1,0.45-1,1c0,0.55,0.45,1,1,1s1-0.45,1-1 C8,16.45,7.55,16,7,16z M10.79,8.23L21,18.44V20h-3.27l-5.76-5.76l-1.27,1.27C10.89,15.97,11,16.47,11,17c0,2.21-1.79,4-4,4 c-2.21,0-4-1.79-4-4c0-2.21,1.79-4,4-4c0.42,0,0.81,0.08,1.19,0.2l1.37-1.37l-1.11-1.11C8,10.89,7.51,11,7,11c-2.21,0-4-1.79-4-4 c0-2.21,1.79-4,4-4c2.21,0,4,1.79,4,4C11,7.43,10.91,7.84,10.79,8.23z M10.08,8.94L9.65,8.5l0.19-0.58C9.95,7.58,10,7.28,10,7 c0-1.65-1.35-3-3-3S4,5.35,4,7c0,1.65,1.35,3,3,3c0.36,0,0.73-0.07,1.09-0.21L8.7,9.55l0.46,0.46l1.11,1.11l0.71,0.71l-0.71,0.71 L8.9,13.91l-0.43,0.43l-0.58-0.18C7.55,14.05,7.27,14,7,14c-1.65,0-3,1.35-3,3c0,1.65,1.35,3,3,3s3-1.35,3-3 c0-0.38-0.07-0.75-0.22-1.12l-0.25-0.61L10,14.8l1.27-1.27l0.71-0.71l0.71,0.71L18.15,19H20v-0.15L10.08,8.94z M17.73,4H21v1.56 l-5.52,5.52l-2.41-2.41L17.73,4z M18.15,5l-3.67,3.67l1,1L20,5.15V5H18.15z" class="style-scope yt-icon"></path></g></svg>