<svg viewBox="0 0 24 24" preserveAspectRatio="xMidYMid meet" focusable="false" class="style-scope yt-icon" style="pointer-events: none; display: block; width: 100%; height: 100%;"><g class="style-scope yt-icon"><path d="M10,12H8v2H6v-2H4v-2h2V8h2v2h2V12z M17,12.5c0-0.83-0.67-1.5-1.5-1.5S14,11.67,14,12.5c0,0.83,0.67,1.5,1.5,1.5 S17,13.33,17,12.5z M20,9.5C20,8.67,19.33,8,18.5,8S17,8.67,17,9.5c0,0.83,0.67,1.5,1.5,1.5S20,10.33,20,9.5z M16.97,5.15l-4.5,2.53 l-0.49,0.27l-0.49-0.27l-4.5-2.53L3,7.39v6.43l8.98,5.04l8.98-5.04V7.39L16.97,5.15 M16.97,4l4.99,2.8v7.6L11.98,20L2,14.4V6.8 L6.99,4l4.99,2.8L16.97,4L16.97,4z" class="style-scope yt-icon"></path></g></svg>