<svg viewBox="0 0 24 24" preserveAspectRatio="xMidYMid meet" focusable="false" class="style-scope yt-icon" style="pointer-events: none; display: block; width: 100%; height: 100%;"><g class="style-scope yt-icon"><path d="M14,12c0,1.1-0.9,2-2,2s-2-0.9-2-2s0.9-2,2-2S14,10.9,14,12z M8.48,8.45L7.77,7.75C6.68,8.83,6,10.34,6,12 s0.68,3.17,1.77,4.25l0.71-0.71C7.57,14.64,7,13.39,7,12S7.57,9.36,8.48,8.45z M16.23,7.75l-0.71,0.71C16.43,9.36,17,10.61,17,12 s-0.57,2.64-1.48,3.55l0.71,0.71C17.32,15.17,18,13.66,18,12S17.32,8.83,16.23,7.75z M5.65,5.63L4.95,4.92C3.13,6.73,2,9.24,2,12 s1.13,5.27,2.95,7.08l0.71-0.71C4.02,16.74,3,14.49,3,12S4.02,7.26,5.65,5.63z M19.05,4.92l-0.71,0.71C19.98,7.26,21,9.51,21,12 s-1.02,4.74-2.65,6.37l0.71,0.71C20.87,17.27,22,14.76,22,12S20.87,6.73,19.05,4.92z" class="style-scope yt-icon"></path></g></svg>