<svg width="40" height="40" viewBox="0 0 40 40" fill="none" xmlns="http://www.w3.org/2000/svg">
<path d="
M 33 0
H 7
C 5.3 0 4 1.3 4 3
V 37
C 4 38.7 5.3 40 7 40
H 33
C 34.7 40 36 38.7 36 37
V 3
C 36 1.3 34.7 0 33 0
Z
M 34 37
C 34 37.6 33.6 38 33 38
H 7
C 6.4 38 6 37.6 6 37
V 3
C 6 2.4 6.4 2 7 2
H 33
C 33.6 2 34 2.4 34 3
V 37
Z
M 29 6
H 11
C 10.4 6 10 6.4 10 7
V 33
C 10 33.6 10.4 34 11 34
H 29
C 29.6 34 30 33.6 30 33
V 7
C 30 6.4 29.6 6 29 6
Z
M 12 25
V 16
H 28
V 25
H 12
Z
M 28 8
V 14
H 24
V 8
H 28
Z
M 22 8
V 14
H 12
V 8
H 22
Z
M 12 27
H 16
V 32
H 12
V 27
Z
M 18 32
V 27
H 28
V 32
H 18
Z
"
fill="#7F8D9F"/>
</svg>
