<svg viewBox="2 2 16 16" role="presentation" class="app-svg icons-calendar app-bar-icons-fill-colors">
    <g class="icons-default-fill">
        <g class="icons-unfilled">
            <anchor-frame id="aligned-dot">
                <anchor x="9" y="9" adjust="leftward upward"/>
                <anchor x="9" y="11" adjust="leftward downward"/>
                <anchor x="11" y="11" adjust="rightward upward"/>
                <anchor x="11" y="9" adjust="rightward downward"/>
            </anchor-frame>
            <!-- top left circle -->
            <!--                 shift = half-parity(ppu * size - bias)                                                                                          -->
            <!--                 x = floor(x - shift) + shift                              x = x + normal.x * (ceil(ppu * size - bias) - ppu * size) * fraction -->
            <path adjust="center round-parity(mode=floor size=16 bias=0)" adjustment-list="displace(mode=floor size=2 bias=0.5 fraction=0.5)" d="M7 11 C7.55228 11 8 10.5523 8 10 C8 9.44771 7.55228 9 7 9 C6.44772 9 6 9.44771 6 10 C6 10.5523 6.44772 11 7 11 Z"/>
            <!--
                round(mode=floor bias-unscaled=8 bias-modulo=1 scale=0.5)
                
                Full formula:
                    //ppu-shift-remainder = floor(ppu * ppu-shift-scale + ppu-shift-bias) % ppu-shift-modulo
                    //ppu-shift = ppu-shift-remainder * scale
                    ppu-scaled-bias = ppu * unscaled-bias
                    full-prebias = prebias + ppu-scaled-bias
                    full-postbias = postbias + ppu-scaled-bias
                    newX = floor((oldX - full-prebias) / scale) * scale + full-postbias
                    finalX = lerp(oldX, newX, fraction)
                Default values:
                    prebias = 0
                    postbias = 0
                    fraction = 1
                    scale = 1
                    bias-unscaled = 0. ppu-shift-scale or ppu-scaled-bias? (given the normal "bias" is in pixel space)
                    ppu-shift-bias = 0 or just use prebias? Needed?
                    bias-modulo = infinity (ppu-shift-modulo?)
                Aliases:
                    round-half-parity(ppu-shift-scale=1 ppu-shift-bias=0 ppu-shift-modulo=2 scale=0.5 bias=0 prebias=bias postbias=bias)
                        *Alternately, eliminate most ppu-shift-* attributes, and just fold them into the core bias.
                        round-half-parity(axis=xy bias-ppu-scaled=1 bias-modulo=1 scale=0.5 bias=0 prebias=bias postbias=bias mode=floor)
                        round-even-odd(...) *alternate name
            -->
            <path d="M8 13 C8 13.5523 7.55228 14 7 14 C6.44772 14 6 13.5523 6 13 C6 12.4477 6.44772 12 7 12 C7.55228 12 8 12.4477 8 13 Z"/>
            <!-- top center circle -->
            <path adjust="bounds outward" d="M10 11 C10.5523 11 11 10.5523 11 10 C11 9.44771 10.5523 9 10 9 C9.44771 9 9 9.44771 9 10 C9 10.5523 9.44771 11 10 11 Z"/>
            <!--
                or adjust="#aligned-dot", but what about the other dots? They would be scaled away from the center.
                Maybe use grid-origin like transform-origin. e.g. grid-origin="10 10" adjust="#aligned-dot" with aligned-dot ranging -1 to +1.
            -->
            <path d="M11 13 C11 13.5523 10.5523 14 10 14 C9.44771 14 9 13.5523 9 13 C9 12.4477 9.44771 12 10 12 C10.5523 12 11 12.4477 11 13 Z"/>
            <path d="M13 11 C13.5523 11 14 10.5523 14 10 C14 9.44771 13.5523 9 13 9 C12.4477 9 12 9.44771 12 10 C12 10.5523 12.4477 11 13 11 Z"/>
            <path fill-rule="evenodd" clip-rule="evenodd" d="M17 5.5 C17 4.11929 15.8807 3 14.5 3 H5.5 C4.11929 3 3 4.11929 3 5.5V14.5 C3 15.8807 4.11929 17 5.5 17 H14.5 C15.8807 17 17 15.8807 17 14.5V5.5 Z M4 7 H16V14.5 C16 15.3284 15.3284 16 14.5 16 H5.5 C4.67157 16 4 15.3284 4 14.5V7 Z M5.5 4 H14.5 C15.3284 4 16 4.67157 16 5.5V6 H4V5.5 C4 4.67157 4.67157 4 5.5 4 Z"/>
        </g>
        <g class="icons-filled" visibility="hidden">
            <path d="M5.5 3 C4.11929 3 3 4.11929 3 5.5 V6 H17 V5.5 C17 4.11929 15.8807 3 14.5 3 H5.5 Z"/>
            <path fill-rule="evenodd" clip-rule="evenodd" d="M17 7 H3V14.5 C3 15.8807 4.11929 17 5.5 17 H14.5 C15.8807 17 17 15.8807 17 14.5V7ZM8 10 C8 10.5523 7.55228 11 7 11 C6.44772 11 6 10.5523 6 10 C6 9.44771 6.44772 9 7 9 C7.55228 9 8 9.44771 8 10ZM7 14 C7.55228 14 8 13.5523 8 13 C8 12.4477 7.55228 12 7 12 C6.44772 12 6 12.4477 6 13 C6 13.5523 6.44772 14 7 14ZM11 10 C11 10.5523 10.5523 11 10 11 C9.44771 11 9 10.5523 9 10 C9 9.44771 9.44771 9 10 9 C10.5523 9 11 9.44771 11 10ZM10 14 C10.5523 14 11 13.5523 11 13 C11 12.4477 10.5523 12 10 12 C9.44771 12 9 12.4477 9 13 C9 13.5523 9.44771 14 10 14ZM14 10 C14 10.5523 13.5523 11 13 11 C12.4477 11 12 10.5523 12 10 C12 9.44771 12.4477 9 13 9 C13.5523 9 14 9.44771 14 10 Z"/>
        </g>
    </g>
</svg>
