<svg height="100%" width="100%" xmlns="http://www.w3.org/2000/svg" viewBox="0 0 16 16">
    <!-- Use:
        widen(size=1 fraction=0.5)
        adjust-by(#anchor) using 8 anchors, or anchors directly
        maybe combine 3 adjustments from the adjustment list

        e.g. for bottom left point:
            <anchor id="left-anchor" x="2" y="14" rounding="round-parity(1)"/>
            <path
                adjustment-list="#left-anchor; #bottom-anchor; widen(size=1 fraction=0.5 minimum=1); ..."
                d="... G0 1 2 ..."
            />
    -->
    <path
      d="M 7.31299 1.26164C7.69849 0.897163 8.30151 0.897163 8.68701 1.26164
         L 13.5305 5.84098C13.8302 6.12431 14 6.51853 14 6.93094
         V 12.5002
         C 14 13.3286 13.3284 14.0002 12.5 14.0002
         H 10.5C9.67157 14.0002 9 13.3286 9 12.5002
         V 10.0002C9 9.72407 8.77614 9.50021 8.5 9.50021
         H 7.5C7.22386 9.50021 7 9.72407 7 10.0002
         V 12.5002
         C 7 13.3286 6.32843 14.0002 5.5 14.0002
         H 3.5
         C 2.67157 14.0002 2 13.3286 2 12.5002
         V 6.93094
         C 2 6.51853 2.1698 6.12431 2.46948 5.84098
         L 7.31299 1.26164
         Z
         M 8 1.98828
         L 3.15649 6.56762C3.0566 6.66207 3 6.79347 3 6.93094
         V 12.5002C3 12.7763 3.22386 13.0002 3.5 13.0002
         H 5.5
         C 5.77614 13.0002 6 12.7763 6 12.5002
         V 10.0002
         C 6 9.17179 6.67157 8.50022 7.5 8.50022
         H 8.5C9.32843 8.50022 10 9.17179 10 10.0002
         V 12.5002
         C 10 12.7763 10.2239 13.0002 10.5 13.0002
         H 12.5
         C 12.7761 13.0002 13 12.7763 13 12.5002
         V 6.93094
         C 13 6.79347 12.9434 6.66207 12.8435 6.56762
         L 8 1.98828
         Z"
      fill="currentColor"
      />
</svg>