<?xml version="1.0" encoding="UTF-8" standalone="no"?>
<svg
   xmlns:dc="http://purl.org/dc/elements/1.1/"
   xmlns:cc="http://creativecommons.org/ns#"
   xmlns:rdf="http://www.w3.org/1999/02/22-rdf-syntax-ns#"
   xmlns:svg="http://www.w3.org/2000/svg"
   xmlns="http://www.w3.org/2000/svg"
   xmlns:xlink="http://www.w3.org/1999/xlink"
   xmlns:sodipodi="http://sodipodi.sourceforge.net/DTD/sodipodi-0.dtd"
   xmlns:inkscape="http://www.inkscape.org/namespaces/inkscape"
   viewBox="0 0 48 48"
   width="48px"
   height="48px"
   version="1.1"
   id="svg58"
   sodipodi:docname="icons8-fluency-add-to-clipboard-4-sizes.svg"
   inkscape:version="1.0.2-2 (e86c870879, 2021-01-15)">
  <metadata
     id="metadata64">
    <rdf:RDF>
      <cc:Work
         rdf:about="">
        <dc:format>image/svg+xml</dc:format>
        <dc:type
           rdf:resource="http://purl.org/dc/dcmitype/StillImage" />
        <dc:title></dc:title>
      </cc:Work>
    </rdf:RDF>
  </metadata>
  <defs
     id="defs62">
    <linearGradient
       id="linearGradient97"
       x1="28"
       x2="48"
       y1="-600"
       y2="-600"
       gradientTransform="matrix(1,0,0,-1,0,-562)"
       gradientUnits="userSpaceOnUse">
      <stop
         offset="0"
         stop-color="#21ad64"
         id="stop47-5" />
      <stop
         offset="1"
         stop-color="#088242"
         id="stop49-9" />
    </linearGradient>
    <linearGradient
       inkscape:collect="always"
       xlink:href="#GspqMBeEe8C9rSfYt5lqwd"
       id="linearGradient103"
       gradientUnits="userSpaceOnUse"
       gradientTransform="matrix(1,0,0,-1,0,-561.99999)"
       x1="28"
       y1="-600"
       x2="48"
       y2="-600" />
    <linearGradient
       inkscape:collect="always"
       xlink:href="#GspqMBeEe8C9rSfYt5lqwd"
       id="linearGradient108"
       gradientUnits="userSpaceOnUse"
       gradientTransform="matrix(1,0,0,-1,-27,-563)"
       x1="28"
       y1="-600"
       x2="48"
       y2="-600" />
    <linearGradient
       inkscape:collect="always"
       xlink:href="#GspqMBeEe8C9rSfYt5lqwd"
       id="linearGradient202"
       gradientUnits="userSpaceOnUse"
       gradientTransform="matrix(1.05,0,0,-1.0500001,-29.399999,-619.50003)"
       x1="28"
       y1="-600"
       x2="48"
       y2="-600" />
    <linearGradient
       inkscape:collect="always"
       xlink:href="#GspqMBeEe8C9rSfYt5lqwd"
       id="linearGradient1076"
       gradientUnits="userSpaceOnUse"
       gradientTransform="matrix(1,0,0,-1,0,-589.99999)"
       x1="28"
       y1="-600"
       x2="48"
       y2="-600" />
  </defs>
  <sodipodi:namedview
     pagecolor="#ffffff"
     bordercolor="#666666"
     borderopacity="1"
     objecttolerance="10000"
     gridtolerance="10000"
     guidetolerance="10000"
     inkscape:pageopacity="0"
     inkscape:pageshadow="2"
     inkscape:window-width="640"
     inkscape:window-height="480"
     id="namedview60"
     showgrid="true"
     inkscape:object-nodes="false"
     inkscape:snap-bbox="true"
     inkscape:bbox-paths="true"
     inkscape:bbox-nodes="true"
     inkscape:snap-others="false"
     inkscape:snap-nodes="false"
     inkscape:snap-bbox-edge-midpoints="false"
     inkscape:snap-bbox-midpoints="false"
     inkscape:snap-global="true"
     inkscape:snap-object-midpoints="true"
     inkscape:object-paths="false"
     inkscape:snap-intersection-paths="true"
     inkscape:snap-smooth-nodes="false"
     inkscape:snap-midpoints="false"
     inkscape:snap-center="true"
     inkscape:zoom="20.701065"
     inkscape:cx="27.235691"
     inkscape:cy="7.4325771"
     inkscape:current-layer="svg58"
     inkscape:document-rotation="0">
    <inkscape:grid
       type="xygrid"
       id="grid16"
       empspacing="1"
       spacingx="3"
       spacingy="3"
       snapvisiblegridlinesonly="true"
       color="#3f3fff"
       opacity="0.0745098"
       visible="false" />
    <inkscape:grid
       type="xygrid"
       id="grid24"
       spacingx="2"
       spacingy="2"
       color="#3fffae"
       opacity="0.12941176"
       empspacing="1"
       empcolor="#3fffae"
       empopacity="0.25098039"
       visible="false" />
    <inkscape:grid
       type="xygrid"
       id="grid32"
       color="#dc3fff"
       opacity="0.1254902"
       empspacing="1"
       empcolor="#f1d4a8"
       empopacity="0.25098039"
       spacingx="1.5"
       spacingy="1.5"
       visible="false" />
    <inkscape:grid
       type="xygrid"
       id="grid48"
       empspacing="1"
       empcolor="#ea0557"
       empopacity="0.25098039"
       color="#e00050"
       opacity="0.1254902"
       visible="true"
       spacingx="1" />
  </sodipodi:namedview>
  <linearGradient
     id="GspqMBeEe8C9rSfYt5lqwa"
     x1="16.86"
     x2="29.576"
     y1="-637.533"
     y2="-677.546"
     gradientTransform="matrix(1 0 0 -1 0 -636)"
     gradientUnits="userSpaceOnUse">
    <stop
       offset="0"
       stop-color="#c77740"
       id="stop10" />
    <stop
       offset="1"
       stop-color="#b0622b"
       id="stop12" />
  </linearGradient>
  <path
     fill="url(#GspqMBeEe8C9rSfYt5lqwa)"
     d="M38,4H26c0,1.105-0.895,2-2,2s-2-0.895-2-2H10C8.895,4,8,4.895,8,6v36c0,1.105,0.895,2,2,2h28 c1.105,0,2-0.895,2-2V6C40,4.895,39.105,4,38,4z"
     id="path15" />
  <linearGradient
     id="GspqMBeEe8C9rSfYt5lqwb"
     x1="24"
     x2="24"
     y1="-672.966"
     y2="-676.893"
     gradientTransform="matrix(1 0 0 -1 0 -636)"
     gradientUnits="userSpaceOnUse">
    <stop
       offset=".442"
       stop-color="#878786"
       id="stop17" />
    <stop
       offset=".594"
       stop-color="#9f9f9e"
       id="stop19" />
    <stop
       offset=".859"
       stop-color="#c3c3c3"
       id="stop21" />
    <stop
       offset="1"
       stop-color="#d1d1d1"
       id="stop23" />
  </linearGradient>
  <path
     fill="url(#GspqMBeEe8C9rSfYt5lqwb)"
     d="M37,42H11c-0.552,0-1-0.448-1-1v-9h28v9C38,41.552,37.552,42,37,42z"
     id="path26" />
  <path
     fill="#f3f3f3"
     d="M37,40H11c-0.552,0-1-0.448-1-1V7c0-0.552,0.448-1,1-1h26c0.552,0,1,0.448,1,1v32 C38,39.552,37.552,40,37,40z"
     id="path28" />
  <linearGradient
     id="GspqMBeEe8C9rSfYt5lqwc"
     x1="-1934.93"
     x2="-1933.046"
     y1="1534.928"
     y2="1527.091"
     gradientTransform="matrix(-1 0 0 1 -1910 -1525)"
     gradientUnits="userSpaceOnUse">
    <stop
       offset="0"
       stop-color="#c3cdd9"
       id="stop30" />
    <stop
       offset="1"
       stop-color="#9fa7b0"
       id="stop32" />
  </linearGradient>
  <path
     fill="url(#GspqMBeEe8C9rSfYt5lqwc)"
     d="M31,8V4h-4.184C26.403,2.837,25.304,2,24,2s-2.403,0.837-2.816,2H17v4c0,0.552,0.448,1,1,1h12 C30.552,9,31,8.552,31,8z M24,4c0.552,0,1,0.448,1,1s-0.448,1-1,1s-1-0.448-1-1S23.448,4,24,4z"
     id="path35" />
  <path
     fill="#195bbc"
     d="M33.5,18h-19c-0.276,0-0.5-0.224-0.5-0.5v-1c0-0.276,0.224-0.5,0.5-0.5h19c0.276,0,0.5,0.224,0.5,0.5 v1C34,17.776,33.776,18,33.5,18z"
     id="path37" />
  <circle
     cx="38"
     cy="10.000004"
     r="10"
     fill="url(#GspqMBeEe8C9rSfYt5lqwd)"
     id="circle52-8-4"
     style="fill:url(#linearGradient1076)" />
  <path
     fill="#ffffff"
     d="m 38.5,15 h -1 C 37.224,15 37,14.776 37,14.5 v -9 C 37,5.224 37.224,5 37.5,5 h 1 C 38.776,5 39,5.224 39,5.5 v 9 c 0,0.276 -0.224,0.5 -0.5,0.5 z"
     id="path54-7-8" />
  <path
     fill="#ffffff"
     d="m 33,10.5 v -1 C 33,9.224 33.224,9 33.5,9 h 9 C 42.776,9 43,9.224 43,9.5 v 1 c 0,0.276 -0.224,0.5 -0.5,0.5 h -9 C 33.224,11 33,10.776 33,10.5 Z"
     id="path56-5-7" />
  <path
     fill="#195bbc"
     d="M29.5,22h-15c-0.276,0-0.5-0.224-0.5-0.5v-1c0-0.276,0.224-0.5,0.5-0.5h15c0.276,0,0.5,0.224,0.5,0.5 v1C30,21.776,29.776,22,29.5,22z"
     id="path39" />
  <path
     fill="#195bbc"
     d="M33.5,26h-19c-0.276,0-0.5-0.224-0.5-0.5v-1c0-0.276,0.224-0.5,0.5-0.5h19c0.276,0,0.5,0.224,0.5,0.5 v1C34,25.776,33.776,26,33.5,26z"
     id="path41" />
  <path
     fill="#195bbc"
     d="M33.5,34h-19c-0.276,0-0.5-0.224-0.5-0.5v-1c0-0.276,0.224-0.5,0.5-0.5h19c0.276,0,0.5,0.224,0.5,0.5 v1C34,33.776,33.776,34,33.5,34z"
     id="path43" />
  <path
     fill="#195bbc"
     d="M29.5,30h-15c-0.276,0-0.5-0.224-0.5-0.5v-1c0-0.276,0.224-0.5,0.5-0.5h15c0.276,0,0.5,0.224,0.5,0.5 v1C30,29.776,29.776,30,29.5,30z"
     id="path45" />
  <linearGradient
     id="GspqMBeEe8C9rSfYt5lqwd"
     x1="28"
     x2="48"
     y1="-600"
     y2="-600"
     gradientTransform="matrix(1 0 0 -1 0 -562)"
     gradientUnits="userSpaceOnUse">
    <stop
       offset="0"
       stop-color="#21ad64"
       id="stop47" />
    <stop
       offset="1"
       stop-color="#088242"
       id="stop49" />
  </linearGradient>
  <circle
     cx="11"
     cy="37"
     r="10"
     fill="url(#GspqMBeEe8C9rSfYt5lqwd)"
     id="circle52"
     style="fill:url(#linearGradient108)" />
  <path
     fill="#ffffff"
     d="m 11.5,42 h -1 C 10.224,42 10,41.776 10,41.5 v -9 C 10,32.224 10.224,32 10.5,32 h 1 c 0.276,0 0.5,0.224 0.5,0.5 v 9 c 0,0.276 -0.224,0.5 -0.5,0.5 z"
     id="path54" />
  <path
     fill="#ffffff"
     d="m 6,37.5 v -1 C 6,36.224 6.224,36 6.5,36 h 9 c 0.276,0 0.5,0.224 0.5,0.5 v 1 c 0,0.276 -0.224,0.5 -0.5,0.5 h -9 C 6.224,38 6,37.776 6,37.5 Z"
     id="path56" />
  <circle
     cx="38"
     cy="38.000004"
     r="10"
     fill="url(#GspqMBeEe8C9rSfYt5lqwd)"
     id="circle52-8"
     style="fill:url(#linearGradient103)" />
  <path
     fill="#ffffff"
     d="m 38.5,43 h -1 C 37.224,43 37,42.776 37,42.5 v -9 C 37,33.224 37.224,33 37.5,33 h 1 c 0.276,0 0.5,0.224 0.5,0.5 v 9 c 0,0.276 -0.224,0.5 -0.5,0.5 z"
     id="path54-7" />
  <path
     fill="#ffffff"
     d="m 33,38.5 v -1 C 33,37.224 33.224,37 33.5,37 h 9 c 0.276,0 0.5,0.224 0.5,0.5 v 1 c 0,0.276 -0.224,0.5 -0.5,0.5 h -9 C 33.224,39 33,38.776 33,38.5 Z"
     id="path56-5" />
  <circle
     cx="10.5"
     cy="10.5"
     fill="url(#GspqMBeEe8C9rSfYt5lqwd)"
     id="circle52-8-0-3"
     style="fill:url(#linearGradient202);stroke-width:1.05"
     r="10.5" />
  <path
     fill="#ffffff"
     d="m 11.5,15 h -2 C 9.224,15 9,14.776 9,14.5 v -8 C 9,6.224 9.224,6 9.5,6 h 2 C 11.776,6 12,6.224 12,6.5 v 8 c 0,0.276 -0.224,0.5 -0.5,0.5 z"
     id="path54-7-3-1"
     sodipodi:nodetypes="sssssssss" />
  <path
     fill="#ffffff"
     d="m 6,11.5 v -2 C 6,9.224 6.224,9 6.5,9 h 8 C 14.776,9 15,9.224 15,9.5 v 2 c 0,0.276 -0.224,0.5 -0.5,0.5 h -8 C 6.224,12 6,11.776 6,11.5 Z"
     id="path56-5-8-7"
     sodipodi:nodetypes="sssssssss" />
</svg>
