<svg xmlns="http://www.w3.org/2000/svg"  viewBox="0 0 100 100" width="48px" height="48px"><path fill="#d9eeff" d="M71,34.292c0,0-11,1-21,11.899C50,44.292,50,29,50,29h15.09L71,34.292z"/><path fill="#9aa2e6" d="M58,86c7.101-5.3,18.281-18.7,18.281-35.7c0-12.593-5.638-18.145-8.563-20.699 c3.027-5.472-0.197-10.612-0.197-10.612s5.272-5.45,2.794-11.939c0,0-4.298,3.539-8.949,4.298c0,0-7.973-2.346-11.365-2.353 c-3.392,0.007-11.365,2.353-11.365,2.353c-4.652-0.758-8.949-4.298-8.949-4.298c-2.478,6.489,2.794,11.939,2.794,11.939 s-3.224,5.14-0.197,10.612c-2.925,2.553-8.563,8.106-8.563,20.699c0,17,11.18,30.4,18.281,35.7l8,4L58,86z"/><path fill="#d9eeff" d="M29,34c0,0,11,1,21,11.899c0-1.899,0-17.191,0-17.191H34.91L29,34z"/><path fill="#d9eeff" d="M29,34c0,0,11,1,21,11.899c0-1.899,0-17.191,0-17.191l-16.236-0.674L29,34z"/><path fill="#d9eeff" d="M71,34.292c0,0-11,1-21,11.899C50,44.292,50,29,50,29l16.326-0.292L71,34.292z"/><path fill="#707cc0" d="M29.891,34.18c0,0,4.109,5.798,4.109,22.798c0,19.105,5,24,8,27l-4.452-1.035L25.196,62.107 l-1.477-18.804L29.891,34.18z"/><path fill="#707cc0" d="M70.472,8.146c0,0-6.352,4.455-8.705,4.631C59.39,12.954,50,19.742,50,26.888v-0.337 c0,0,1.539,6.426,9.291,6.426c7.855,0,9.091-9.021,9.091-9.021l1.562-11.427L70.472,8.146z"/><path fill="#707cc0" d="M70.388,34.18c0,0-4.109,5.798-4.109,22.798c0,19.105-5,24-8,27l4.452-1.035l12.352-20.836 l1.477-18.804L70.388,34.18z"/><path fill="#707cc0" d="M29.66,8.584c0,0,6.571,4.139,8.924,4.315C40.961,13.076,50,19.742,50,26.888v-0.337 c0,0-1.237,6.426-8.989,6.426c-8.293,0-9.438-9.19-9.438-9.19l-1.517-11.258L29.66,8.584z"/><path fill="none" stroke="#40396e" stroke-linecap="round" stroke-linejoin="round" stroke-miterlimit="20" stroke-width="3" d="M58,86c7.101-5.3,18.503-18.705,18.503-35.705c0-12.593-5.861-18.14-8.786-20.694c4.124-5.6-0.197-10.612-0.197-10.612 s5.867-6.007,3.389-12.495c0,0-4.893,4.096-9.545,4.854C59.27,9.902,53.392,8.591,50,8.584c-3.392,0.007-9.27,1.318-11.365,2.764 c-4.652-0.758-9.489-4.854-9.489-4.854c-2.478,6.489,3.333,12.495,3.333,12.495s-4.323,4.835-0.197,10.612 c-2.925,2.553-8.765,8.062-8.765,20.654C23.517,67.256,34.899,80.7,42,86"/><path fill="#ffe385" d="M54.461,26c0,0,1.539-5,8.422-6c0,0,1.117,1,1.117,4s-2.046,4.708-4.468,4.708 C56.18,28.708,54.461,26,54.461,26z"/><path fill="#ffc571" d="M53,29c0,1.657-3,7-3,7s-3-5.343-3-7s1.343-3,3-3S53,27.343,53,29z"/><path fill="#ffe385" d="M45.539,26c0,0-1.539-5-8.422-6c0,0-1.117,1-1.117,4s2.046,4.708,4.468,4.708 C43.82,28.708,45.539,26,45.539,26z"/><circle cx="41.5" cy="24.5" r="2.5" fill="#40396e"/><circle cx="58.5" cy="24.5" r="2.5" fill="#40396e"/><path fill="#40396e" d="M37,49c1.661,4.025,6.334,4.02,8,0c0.96,2.399-1.464,5.118-4,5 C38.465,54.113,36.045,51.399,37,49L37,49z" opacity=".35"/><path fill="#40396e" d="M46,53c1.661,4.025,6.334,4.02,8,0c0.96,2.399-1.464,5.118-4,5 C47.465,58.113,45.045,55.399,46,53L46,53z" opacity=".35"/><path fill="#40396e" d="M55,49c1.661,4.025,6.334,4.02,8,0c0.96,2.399-1.464,5.118-4,5 C56.465,54.113,54.045,51.399,55,49L55,49z" opacity=".35"/><path fill="#40396e" d="M37,57c1.661,4.025,6.334,4.02,8,0c0.96,2.399-1.464,5.118-4,5 C38.465,62.113,36.045,59.399,37,57L37,57z" opacity=".35"/><path fill="#40396e" d="M46,61c1.661,4.025,6.334,4.02,8,0c0.96,2.399-1.464,5.118-4,5 C47.465,66.113,45.045,63.399,46,61L46,61z" opacity=".35"/><path fill="#40396e" d="M55,57c1.661,4.025,6.334,4.02,8,0c0.96,2.399-1.464,5.118-4,5 C56.465,62.113,54.045,59.399,55,57L55,57z" opacity=".35"/><path fill="#40396e" d="M37,65c1.661,4.025,6.334,4.02,8,0c0.96,2.399-1.464,5.118-4,5 C38.465,70.113,36.045,67.399,37,65L37,65z" opacity=".35"/><path fill="#40396e" d="M46,69c1.661,4.025,6.334,4.02,8,0c0.96,2.399-1.464,5.118-4,5 C47.465,74.113,45.045,71.399,46,69L46,69z" opacity=".35"/><path fill="#40396e" d="M55,65c1.661,4.025,6.334,4.02,8,0c0.96,2.399-1.464,5.118-4,5 C56.465,70.113,54.045,67.399,55,65L55,65z" opacity=".35"/><path fill="#ffe385" d="M54.461,26c0,0,1.539-5,8.422-6c0,0,1.117,1,1.117,4s-2.061,5.02-4.483,5.02 C56.166,29.02,54.461,26,54.461,26z"/><path fill="#ffc571" d="M53,29c0,1.657-3,7-3,7s-3-5.343-3-7s1.343-3,3-3S53,27.343,53,29z"/><path fill="#ffe385" d="M45.539,26c0,0-1.539-5-8.422-6c0,0-1.117,1-1.117,4s2.108,5,4.531,5C43.882,29,45.539,26,45.539,26 z"/><circle cx="41.5" cy="24.5" r="2.5" fill="#40396e"/><circle cx="58.5" cy="24.5" r="2.5" fill="#40396e"/><path fill="#40396e" d="M37,49c1.661,4.025,6.334,4.02,8,0c0.96,2.399-1.464,5.118-4,5 C38.465,54.113,36.045,51.399,37,49L37,49z" opacity=".35"/><path fill="#40396e" d="M46,53c1.661,4.025,6.334,4.02,8,0c0.96,2.399-1.464,5.118-4,5 C47.465,58.113,45.045,55.399,46,53L46,53z" opacity=".35"/><path fill="#40396e" d="M55,49c1.661,4.025,6.334,4.02,8,0c0.96,2.399-1.464,5.118-4,5 C56.465,54.113,54.045,51.399,55,49L55,49z" opacity=".35"/><path fill="#40396e" d="M37,57c1.661,4.025,6.334,4.02,8,0c0.96,2.399-1.464,5.118-4,5 C38.465,62.113,36.045,59.399,37,57L37,57z" opacity=".35"/><path fill="#40396e" d="M46,61c1.661,4.025,6.334,4.02,8,0c0.96,2.399-1.464,5.118-4,5 C47.465,66.113,45.045,63.399,46,61L46,61z" opacity=".35"/><path fill="#40396e" d="M55,57c1.661,4.025,6.334,4.02,8,0c0.96,2.399-1.464,5.118-4,5 C56.465,62.113,54.045,59.399,55,57L55,57z" opacity=".35"/><path fill="#40396e" d="M37,65c1.661,4.025,6.334,4.02,8,0c0.96,2.399-1.464,5.118-4,5 C38.465,70.113,36.045,67.399,37,65L37,65z" opacity=".35"/><path fill="#40396e" d="M46,69c1.661,4.025,6.334,4.02,8,0c0.96,2.399-1.464,5.118-4,5 C47.465,74.113,45.045,71.399,46,69L46,69z" opacity=".35"/><path fill="#40396e" d="M55,65c1.661,4.025,6.334,4.02,8,0c0.96,2.399-1.464,5.118-4,5 C56.465,70.113,54.045,67.399,55,65L55,65z" opacity=".35"/><line x1="44.491" x2="44.491" y1="80.5" y2="91.5" fill="none" stroke="#40396e" stroke-linecap="round" stroke-linejoin="round" stroke-miterlimit="20" stroke-width="3"/><line x1="48.491" x2="44.491" y1="90.5" y2="87.5" fill="none" stroke="#40396e" stroke-linecap="round" stroke-linejoin="round" stroke-miterlimit="20" stroke-width="3"/><polyline fill="none" stroke="#40396e" stroke-linecap="round" stroke-linejoin="round" stroke-miterlimit="20" stroke-width="3" points="40.491,90.5 44.491,87.5 44.491,80.5"/><line x1="55.51" x2="55.51" y1="80.5" y2="91.5" fill="none" stroke="#40396e" stroke-linecap="round" stroke-linejoin="round" stroke-miterlimit="20" stroke-width="3"/><line x1="59.51" x2="55.51" y1="90.5" y2="87.5" fill="none" stroke="#40396e" stroke-linecap="round" stroke-linejoin="round" stroke-miterlimit="20" stroke-width="3"/><polyline fill="none" stroke="#40396e" stroke-linecap="round" stroke-linejoin="round" stroke-miterlimit="20" stroke-width="3" points="51.51,90.5 55.51,87.5 55.51,80.5"/></svg>