<svg xmlns="http://www.w3.org/2000/svg"  viewBox="0 0 30 30" width="30px" height="30px"><path fill="#8bb7f0" d="M14.5,28.5c-0.947,0-1.771-0.673-1.96-1.6l-0.081-0.4H1c-0.276,0-0.5-0.224-0.5-0.5v-4.5h28V26 c0,0.276-0.224,0.5-0.5,0.5H16.541l-0.081,0.4C16.271,27.827,15.447,28.5,14.5,28.5z"/><path fill="#4e7ab5" d="M28,22v4H16.95h-0.817l-0.163,0.801C15.829,27.496,15.21,28,14.5,28 c-0.71,0-1.329-0.504-1.47-1.199L12.868,26H12.05H1v-4H28 M29,21H0v5c0,0.552,0.448,1,1,1h11.05c0.232,1.141,1.24,2,2.45,2 c1.209,0,2.218-0.859,2.45-2H28c0.552,0,1-0.448,1-1V21L29,21z"/><path fill="#e1ebf2" d="M14.5,26.5V5c0-1.378,1.122-2.5,2.5-2.5h11.5v22H17c-1.208,0-2.217,0.86-2.45,2H14.5z"/><path fill="#788b9c" d="M28,3v21H17c-0.745,0-1.449,0.27-2,0.764V5c0-1.103,0.897-2,2-2H28 M29,2H17c-1.657,0-3,1.343-3,3 v22h1c0-1.105,0.895-2,2-2h12V2L29,2z"/><g><path fill="#fff" d="M14.45,26.5c-0.232-1.14-1.242-2-2.45-2H0.5v-22H12c1.378,0,2.5,1.122,2.5,2.5v21.5H14.45z"/><path fill="#788b9c" d="M12,3c1.103,0,2,0.897,2,2v19.764C13.449,24.27,12.745,24,12,24H1V3H12 M12,2H0v23h12 c1.105,0,2,0.895,2,2h1V5C15,3.343,13.657,2,12,2L12,2z"/></g><g><path fill="#f78f8f" d="M22 16.399L19.5 18.066 19.5 2.5 24.5 2.5 24.5 18.066z"/><path fill="#c74343" d="M24,3v14.131l-1.445-0.964L22,15.798l-0.555,0.37L20,17.131V3H24 M25,2h-6v17l3-2l3,2V2L25,2z"/></g></svg>