<svg width="40" height="40" viewBox="0 0 40 40" fill="none" xmlns="http://www.w3.org/2000/svg">
<path d="M28 14.8V25.3C28 26.8 26.8 28.1 25.2 28.1H14.8C13.3 28.1 12 26.9 12 25.3V14.8C12 13.3 13.2 12 14.8 12H25.3C26.8 12 28 13.2 28 14.8ZM33 19V21H35C35.6 21 36 21.4 36 22C36 22.6 35.6 23 35 23H33V25H35C35.6 25 36 25.4 36 26C36 26.6 35.6 27 35 27H33V28C33 30.8 30.8 33 28 33H27V35C27 35.6 26.6 36 26 36C25.4 36 25 35.6 25 35V33H23V35C23 35.6 22.6 36 22 36C21.4 36 21 35.6 21 35V33H19V35C19 35.6 18.6 36 18 36C17.4 36 17 35.6 17 35V33H15V35C15 35.6 14.6 36 14 36C13.4 36 13 35.6 13 35V33H12C9.2 33 7 30.8 7 28V27H5C4.4 27 4 26.6 4 26C4 25.4 4.4 25 5 25H7V23H5C4.4 23 4 22.6 4 22C4 21.4 4.4 21 5 21H7V19H5C4.4 19 4 18.6 4 18C4 17.4 4.4 17 5 17H7V15H5C4.4 15 4 14.6 4 14C4 13.4 4.4 13 5 13H7V12C7 9.2 9.2 7 12 7H13V5C13 4.4 13.4 4 14 4C14.6 4 15 4.4 15 5V7H17V5C17 4.4 17.4 4 18 4C18.6 4 19 4.4 19 5V7H21V5C21 4.4 21.4 4 22 4C22.6 4 23 4.4 23 5V7H25V5C25 4.4 25.4 4 26 4C26.6 4 27 4.4 27 5V7H28C30.8 7 33 9.2 33 12V13H35C35.6 13 36 13.4 36 14C36 14.6 35.6 15 35 15H33V17H35C35.6 17 36 17.4 36 18C36 18.6 35.6 19 35 19H33ZM31 12C31 10.3 29.7 9 28 9H12C10.3 9 9 10.3 9 12V28C9 29.7 10.3 31 12 31H28C29.7 31 31 29.7 31 28V12Z" fill="#7F8D9F"/>
</svg>
