<svg width="40" height="40" viewBox="0 0 40 40" fill="none" xmlns="http://www.w3.org/2000/svg">
<path d="M38.0001 27.2V27.1C38.0001 27 38.0001 26.9 38.0001 26.8C38.0001 26.8 38.0001 26.8 38.0001 26.7C38.0001 26.6 37.9001 26.5 37.9001 26.4L32.9001 19.4C33.6001 18.9 34.1001 18 34.1001 17.1V16.9C34.1001 15.3 32.8001 14 31.2001 14H31.0001V11C31.0001 10.4 30.6001 10 30.0001 10H27.0001C25.9001 10 25.0001 9.1 25.0001 8C25.0001 6.9 25.9001 6 27.0001 6H30.0001C30.6001 6 31.0001 5.6 31.0001 5V3C31.0001 2.4 30.6001 2 30.0001 2C29.4001 2 29.0001 2.4 29.0001 3V4H27.0001C24.8001 4 23.0001 5.8 23.0001 8C23.0001 10.2 24.8001 12 27.0001 12H29.0001V14H28.9001C27.3001 14 26.0001 15.3 26.0001 16.9V17.1C26.0001 18.1 26.5001 18.9 27.2001 19.4L22.2001 26.4C22.1001 26.5 22.1001 26.6 22.1001 26.7C22.1001 26.7 22.1001 26.7 22.1001 26.8C22.1001 26.9 22.1001 27 22.1001 27.1V27.2C22.1001 27.3 22.1001 27.4 22.2001 27.4C22.2001 27.4 22.2001 27.5 22.3001 27.5C22.3001 27.5 22.3001 27.5 22.3001 27.6L29.3001 37.6L29.4001 37.7C29.5001 37.8 29.6001 37.8 29.7001 37.9C29.7001 37.9 29.7001 37.9 29.8001 37.9C29.9001 37.9 30.0001 38 30.1001 38C30.2001 38 30.3001 38 30.4001 37.9C30.4001 37.9 30.4001 37.9 30.5001 37.9C30.6001 37.9 30.7001 37.8 30.8001 37.7L30.9001 37.6L37.9001 27.6C37.9001 27.6 37.9001 27.6 37.9001 27.5C37.9001 27.5 37.9001 27.4 38.0001 27.4C37.9001 27.3 38.0001 27.3 38.0001 27.2ZM27.1001 27.1L24.7001 26.4L29.3001 20H30.8001L35.4001 26.4L29.7001 28C29.3001 28.1 29.0001 28.5 29.0001 29V33.8L25.4001 28.7L26.5001 29C26.6001 29 26.7001 29 26.8001 29C27.2001 29 27.6001 28.7 27.8001 28.3C27.9001 27.8 27.6001 27.3 27.1001 27.1ZM31.0001 29.8L34.6001 28.8L31.0001 33.8V29.8ZM28.0001 16.9C28.0001 16.4 28.4001 16 28.9001 16H31.1001C31.6001 16 32.0001 16.4 32.0001 16.9V17.1C32.0001 17.5 31.7001 17.8 31.4001 17.9C31.2001 17.9 31.1001 17.9 30.9001 18H29.1001C28.9001 17.9 28.8001 17.9 28.6001 17.9C28.3001 17.8 28.0001 17.5 28.0001 17.1V16.9ZM18.0001 26.8C18.0001 26.8 18.0001 26.7 18.0001 26.8C18.0001 26.7 18.0001 26.7 18.0001 26.8C18.0001 26.6 17.9001 26.5 17.8001 26.4L12.8001 19.4C13.5001 18.9 14.0001 18 14.0001 17.1V16.9C14.0001 15.3 12.7001 14 11.1001 14H11.0001V12H13.0001C15.2001 12 17.0001 10.2 17.0001 8C17.0001 5.8 15.2001 4 13.0001 4H11.0001V3C11.0001 2.4 10.6001 2 10.0001 2C9.4001 2 9.0001 2.4 9.0001 3V5C9.0001 5.6 9.4001 6 10.0001 6H13.0001C14.1001 6 15.0001 6.9 15.0001 8C15.0001 9.1 14.1001 10 13.0001 10H10.0001C9.4001 10 9.0001 10.4 9.0001 11V14H8.9001C7.3001 14 6.0001 15.3 6.0001 16.9V17.1C6.0001 18.1 6.5001 18.9 7.2001 19.4L2.2001 26.4C2.1001 26.5 2.1001 26.6 2.1001 26.7C2.1001 26.7 2.1001 26.7 2.1001 26.8C2.1001 26.9 2.1001 27 2.1001 27.1V27.2C2.1001 27.3 2.1001 27.4 2.2001 27.4C2.2001 27.4 2.2001 27.5 2.3001 27.5C2.3001 27.5 2.3001 27.5 2.3001 27.6L9.3001 37.6L9.4001 37.7C9.5001 37.8 9.6001 37.8 9.7001 37.9C9.7001 37.9 9.7001 37.9 9.8001 37.9C9.8001 38 9.9001 38 10.0001 38C10.1001 38 10.2001 38 10.3001 37.9C10.3001 37.9 10.3001 37.9 10.4001 37.9C10.5001 37.9 10.6001 37.8 10.7001 37.7L10.8001 37.6L17.8001 27.6C17.8001 27.6 17.8001 27.6 17.8001 27.5C17.8001 27.5 17.8001 27.4 17.9001 27.4C17.9001 27.3 18.0001 27.3 18.0001 27.2V27.1C18.0001 27 18.0001 26.9 18.0001 26.8ZM7.1001 27.1L4.7001 26.4L9.2001 20H10.7001L15.3001 26.4L9.7001 28C9.3001 28.2 9.0001 28.6 9.0001 29V33.8L5.4001 28.7L6.5001 29C6.6001 29 6.7001 29 6.8001 29C7.2001 29 7.6001 28.7 7.8001 28.3C7.9001 27.8 7.6001 27.3 7.1001 27.1ZM11.0001 29.8L14.6001 28.8L11.0001 33.8V29.8ZM8.0001 16.9C8.0001 16.4 8.4001 16 8.9001 16H11.1001C11.6001 16 12.0001 16.4 12.0001 16.9V17.1C12.0001 17.5 11.7001 17.8 11.4001 17.9C11.2001 17.9 11.1001 17.9 10.9001 18H9.1001C8.9001 17.9 8.8001 17.9 8.6001 17.9C8.3001 17.8 8.0001 17.5 8.0001 17.1V16.9Z" fill="#7F8D9F"/>
</svg>
