<svg width="40" height="40" viewBox="0 0 40 40" fill="none" xmlns="http://www.w3.org/2000/svg">
<path d="M25 22C25 24.8 22.8 27 20 27C17.2 27 15 24.8 15 22C15 19.2 17.2 17 20 17C22.8 17 25 19.2 25 22ZM29 22C29 27 25 31 20 31C15 31 11 27 11 22C11 17 15 13 20 13C25 13 29 17 29 22ZM27 22C27 18.1 23.9 15 20 15C16.1 15 13 18.1 13 22C13 25.9 16.1 29 20 29C23.9 29 27 25.9 27 22ZM40 14V30C40 32.8 37.8 35 35 35H5C2.2 35 0 32.8 0 30V14C0 11.2 2.2 9 5 9H9.1C9.6 6.7 11.6 5 14 5H26C28.4 5 30.4 6.7 30.9 9H35C37.8 9 40 11.2 40 14ZM11.2 9H28.8C28.4 7.8 27.3 7 26 7H14C12.7 7 11.6 7.8 11.2 9ZM38 14C38 12.3 36.7 11 35 11H5C3.3 11 2 12.3 2 14V30C2 31.7 3.3 33 5 33H35C36.7 33 38 31.7 38 30V14ZM34 13C32.9 13 32 13.9 32 15C32 16.1 32.9 17 34 17C35.1 17 36 16.1 36 15C36 13.9 35.1 13 34 13Z" fill="#7F8D9F"/>
</svg>
