<svg width="40" height="40" viewBox="0 0 40 40" fill="none" xmlns="http://www.w3.org/2000/svg">
<path d="M33.9 9.3L22.2999 2.6C20.9 1.8 19.1 1.8 17.6 2.6L6.09995 9.3C4.69995 10.1 3.69995 11.7 3.69995 13.4V26.7C3.69995 28.4 4.59995 29.9 6.09995 30.8L17.6 37.4C18.3 37.8 19.0999 38 19.9 38C20.6999 38 21.5 37.8 22.2 37.4L33.7 30.8C35.1 30 36.0999 28.4 36.0999 26.7V13.3C36.1999 11.7 35.3 10.1 33.9 9.3ZM34.2 26.7C34.2 27.7 33.6999 28.6 32.7999 29L21.2999 35.6C20.5 36.1 19.4 36.1 18.6 35.6L7.09995 29C6.29995 28.5 5.69995 27.6 5.69995 26.7V13.3C5.69995 12.3 6.19995 11.4 7.09995 11L18.6 4.4C19.1 4.1 19.5 4 20 4C20.5 4 20.9 4.1 21.2999 4.4L32.9 11C33.7 11.5 34.2999 12.4 34.2999 13.3V26.7H34.2ZM31.6 13.3C31.8 13.8 31.6 14.4 31.2 14.6L21 19.7V33.4C21 34 20.6 34.4 20 34.4C19.4 34.4 19 34 19 33.4V19.1C19 18.7 19.2 18.4 19.6 18.2L30.2999 12.8C30.7999 12.6 31.4 12.8 31.6 13.3Z" fill="#7F8D9F"/>
<path d="M20 34.4C19.4 34.4 19 34 19 33.4V19.7L8.79999 14.6C8.29999 14.4 8.09999 13.8 8.39999 13.3C8.59999 12.8 9.19999 12.6 9.69999 12.9L20.4 18.3C20.7 18.5 21 18.8 21 19.2V33.5C21 34 20.6 34.4 20 34.4Z" fill="#7F8D9F"/>
</svg>
