<svg width="40" height="40" viewBox="0 0 40 40" fill="none" xmlns="http://www.w3.org/2000/svg">
<path d="M32 2H10C7.2 2 5 4.2 5 7V33C5 35.8 7.2 38 10 38H32C33.7 38 35 36.7 35 35V31V5C35 3.3 33.7 2 32 2ZM10 4H32C32.6 4 33 4.4 33 5V28.2C32.7 28.1 32.4 28 32 28H10C8.9 28 7.8 28.4 7 29V7C7 5.3 8.3 4 10 4ZM32 36H10C8.3 36 7 34.7 7 33C7 31.3 8.3 30 10 30H32C32.6 30 33 30.4 33 31V32H23C22.4 32 22 32.4 22 33C22 33.6 22.4 34 23 34H33V35C33 35.6 32.6 36 32 36ZM20 32.8C20 32.9 20 32.9 20 33C20 33.1 20 33.3 19.9 33.4C19.8 33.5 19.8 33.6 19.7 33.7C19.5 33.9 19.3 34 19 34C18.7 34 18.5 33.9 18.3 33.7C18.2 33.6 18.1 33.5 18.1 33.4C18.1 33.3 18 33.2 18 33C18 32.9 18 32.9 18 32.8C18 32.7 18 32.7 18.1 32.6C18.1 32.5 18.2 32.5 18.2 32.4C18.2 32.3 18.3 32.3 18.3 32.3C18.4 32.2 18.5 32.1 18.6 32.1C18.8 32 19.1 32 19.4 32.1C19.5 32.2 19.6 32.2 19.7 32.3L19.8 32.4C19.8 32.5 19.9 32.5 19.9 32.6C19.9 32.7 20 32.7 20 32.8ZM14 18H28C28.6 18 29 17.6 29 17V9C29 8.4 28.6 8 28 8H14C13.4 8 13 8.4 13 9V17C13 17.6 13.4 18 14 18ZM15 10H27V16H15V10Z" fill="#7F8D9F"/>
</svg>
