<?xml version="1.0" encoding="UTF-8" standalone="no"?>
<svg
   xmlns:dc="http://purl.org/dc/elements/1.1/"
   xmlns:cc="http://creativecommons.org/ns#"
   xmlns:rdf="http://www.w3.org/1999/02/22-rdf-syntax-ns#"
   xmlns:svg="http://www.w3.org/2000/svg"
   xmlns="http://www.w3.org/2000/svg"
   xmlns:sodipodi="http://sodipodi.sourceforge.net/DTD/sodipodi-0.dtd"
   xmlns:inkscape="http://www.inkscape.org/namespaces/inkscape"
   viewBox="0 0 48 48"
   width="48px"
   height="48px"
   version="1.1"
   id="svg2187"
   sodipodi:docname="icons8-fluency-add-to-clipboard-16x16.svg"
   inkscape:version="1.0.2-2 (e86c870879, 2021-01-15)">
  <metadata
     id="metadata2193">
    <rdf:RDF>
      <cc:Work
         rdf:about="">
        <dc:format>image/svg+xml</dc:format>
        <dc:type
           rdf:resource="http://purl.org/dc/dcmitype/StillImage" />
        <dc:title></dc:title>
      </cc:Work>
    </rdf:RDF>
  </metadata>
  <defs
     id="defs2191" />
  <sodipodi:namedview
     pagecolor="#ffffff"
     bordercolor="#666666"
     borderopacity="1"
     objecttolerance="10"
     gridtolerance="10"
     guidetolerance="10"
     inkscape:pageopacity="0"
     inkscape:pageshadow="2"
     inkscape:window-width="1920"
     inkscape:window-height="976"
     id="namedview2189"
     showgrid="true"
     inkscape:snap-bbox="true"
     inkscape:bbox-paths="true"
     inkscape:bbox-nodes="true"
     inkscape:snap-bbox-edge-midpoints="true"
     inkscape:snap-bbox-midpoints="true"
     inkscape:snap-nodes="false"
     inkscape:snap-others="false"
     inkscape:snap-to-guides="false"
     inkscape:zoom="11.578874"
     inkscape:cx="22.378477"
     inkscape:cy="25.88805"
     inkscape:window-x="-8"
     inkscape:window-y="-8"
     inkscape:window-maximized="1"
     inkscape:current-layer="svg2187">
    <inkscape:grid
       type="xygrid"
       id="grid2195"
       spacingx="3"
       spacingy="3" />
  </sodipodi:namedview>
  <linearGradient
     id="GspqMBeEe8C9rSfYt5lqwa"
     x1="16.86"
     x2="29.576"
     y1="-637.533"
     y2="-677.546"
     gradientTransform="matrix(1.125,0,0,-1.05,-2.9999999,-668.99997)"
     gradientUnits="userSpaceOnUse">
    <stop
       offset="0"
       stop-color="#c77740"
       id="stop2139" />
    <stop
       offset="1"
       stop-color="#b0622b"
       id="stop2141" />
  </linearGradient>
  <path
     fill="url(#GspqMBeEe8C9rSfYt5lqwa)"
     d="M 39.75,3 H 26.25 C 26.25,4.16025 25.243126,5.1 24,5.1 22.756874,5.1 21.75,4.16025 21.75,3 H 8.25 C 7.006875,3 6,3.93975 6,5.1 V 42.9 C 6,44.06025 7.006875,45 8.25,45 h 31.5 C 40.993124,45 42,44.06025 42,42.9 V 5.1 C 42,3.93975 40.993124,3 39.75,3 Z"
     id="path2144"
     style="fill:url(#GspqMBeEe8C9rSfYt5lqwa);stroke-width:1.08686" />
  <linearGradient
     id="GspqMBeEe8C9rSfYt5lqwb"
     x1="24"
     x2="24"
     y1="-672.966"
     y2="-676.893"
     gradientTransform="matrix(1 0 0 -1 0 -636)"
     gradientUnits="userSpaceOnUse">
    <stop
       offset=".442"
       stop-color="#878786"
       id="stop2146" />
    <stop
       offset=".594"
       stop-color="#9f9f9e"
       id="stop2148" />
    <stop
       offset=".859"
       stop-color="#c3c3c3"
       id="stop2150" />
    <stop
       offset="1"
       stop-color="#d1d1d1"
       id="stop2152" />
  </linearGradient>
  <path
     fill="url(#GspqMBeEe8C9rSfYt5lqwb)"
     d="M37,42H11c-0.552,0-1-0.448-1-1v-9h28v9C38,41.552,37.552,42,37,42z"
     id="path2155" />
  <path
     fill="#f3f3f3"
     d="M 37.928572,42 H 10.071428 C 9.48,42 9,41.525647 9,40.941176 V 7.0588235 C 9,6.4743529 9.48,6 10.071428,6 H 37.928572 C 38.52,6 39,6.4743529 39,7.0588235 V 40.941176 C 39,41.525647 38.52,42 37.928572,42 Z"
     id="path2157"
     style="stroke-width:1.06511" />
  <linearGradient
     id="GspqMBeEe8C9rSfYt5lqwc"
     x1="-1934.93"
     x2="-1933.046"
     y1="1534.928"
     y2="1527.091"
     gradientTransform="matrix(-1 0 0 1 -1910 -1525)"
     gradientUnits="userSpaceOnUse">
    <stop
       offset="0"
       stop-color="#c3cdd9"
       id="stop2159" />
    <stop
       offset="1"
       stop-color="#9fa7b0"
       id="stop2161" />
  </linearGradient>
  <path
     fill="url(#GspqMBeEe8C9rSfYt5lqwc)"
     d="M 31,8 V 2 H 26.816 C 26.403,0.837 25.304,0 24,0 22.696,0 21.597,0.837 21.184,2 H 17 v 6 c 0,0.552 0.448,1 1,1 h 12 c 0.552,0 1,-0.448 1,-1 z M 24,2 c 0.552,0 1,0.448 1,1 0,0.552 -0.448,1 -1,1 -0.552,0 -1,-0.448 -1,-1 0,-0.552 0.448,-1 1,-1 z"
     id="path2164"
     sodipodi:nodetypes="sccsccsssssssss" />
  <path
     fill="#195bbc"
     d="M 35.4,18 H 12.6 C 12.2688,18 12,17.664 12,17.25 v -1.5 C 12,15.336 12.2688,15 12.6,15 h 22.8 c 0.3312,0 0.6,0.336 0.6,0.75 v 1.5 C 36,17.664 35.7312,18 35.4,18 Z"
     id="path2166"
     style="stroke-width:1.34164" />
  <path
     fill="#195bbc"
     d="M 29.4375,24 H 12.5625 C 12.252,24 12,23.664 12,23.25 v -1.5 C 12,21.336 12.252,21 12.5625,21 h 16.875 C 29.748,21 30,21.336 30,21.75 v 1.5 C 30,23.664 29.748,24 29.4375,24 Z"
     id="path2168"
     style="stroke-width:1.29903" />
  <path
     fill="#195bbc"
     d="M 35.4,36 H 12.6 C 12.2688,36 12,35.664 12,35.25 v -1.5 C 12,33.336 12.2688,33 12.6,33 h 22.8 c 0.3312,0 0.6,0.336 0.6,0.75 v 1.5 C 36,35.664 35.7312,36 35.4,36 Z"
     id="path2172"
     style="stroke-width:1.34164" />
  <path
     fill="#195bbc"
     d="M 29.4375,30 H 12.5625 C 12.252,30 12,29.664 12,29.25 v -1.5 C 12,27.336 12.252,27 12.5625,27 h 16.875 C 29.748,27 30,27.336 30,27.75 v 1.5 C 30,29.664 29.748,30 29.4375,30 Z"
     id="path2174"
     style="stroke-width:1.29903" />
  <linearGradient
     id="GspqMBeEe8C9rSfYt5lqwd"
     x1="28"
     x2="48"
     y1="-600"
     y2="-600"
     gradientTransform="matrix(1.05,0,0,-1.05,-2.4,-592.5)"
     gradientUnits="userSpaceOnUse">
    <stop
       offset="0"
       stop-color="#21ad64"
       id="stop2176" />
    <stop
       offset="1"
       stop-color="#088242"
       id="stop2178" />
  </linearGradient>
  <circle
     cx="37.5"
     cy="37.5"
     fill="url(#GspqMBeEe8C9rSfYt5lqwd)"
     id="circle2181"
     style="fill:url(#GspqMBeEe8C9rSfYt5lqwd);stroke-width:1.05001"
     r="10.5" />
  <path
     fill="#ffffff"
     d="m 38.25,42.5 h -1.5 C 36.336,42.5 36,42.276 36,42 v -9 c 0,-0.276 0.336,-0.5 0.75,-0.5 h 1.5 c 0.414,0 0.75,0.224 0.75,0.5 v 9 c 0,0.276 -0.336,0.5 -0.75,0.5 z"
     id="path2183"
     style="stroke-width:1.22474" />
  <path
     fill="#ffffff"
     d="m 32.5,38.25 v -1.5 C 32.5,36.336 32.724,36 33,36 h 9 c 0.276,0 0.5,0.336 0.5,0.75 v 1.5 C 42.5,38.664 42.276,39 42,39 h -9 c -0.276,0 -0.5,-0.336 -0.5,-0.75 z"
     id="path2185"
     style="stroke-width:1.22474" />
</svg>
