<svg xmlns="http://www.w3.org/2000/svg"  viewBox="0 0 16 16" width="16px" height="16px"><path fill="#8bb7f0" d="M8,14.5c-0.534,0-1.017-0.281-1.291-0.751L6.565,13.5H1c-0.276,0-0.5-0.224-0.5-0.5v-1.5h15V13 c0,0.276-0.224,0.5-0.5,0.5H9.435l-0.145,0.249C9.017,14.219,8.534,14.5,8,14.5z"/><path fill="#4e7ab5" d="M15,12v1H9.723H9.148l-0.289,0.497C8.675,13.812,8.354,14,8,14s-0.675-0.188-0.858-0.503L6.852,13 H6.277H1v-1H15 M16,11H0v2c0,0.552,0.448,1,1,1h5.277C6.624,14.595,7.262,15,8,15s1.376-0.405,1.723-1H15c0.552,0,1-0.448,1-1V11 L16,11z"/><path fill="#fff" d="M0.5,12.5v-11H6c0.827,0,1.5,0.673,1.5,1.5h1c0-0.827,0.673-1.5,1.5-1.5h5.5v11H0.5z"/><path fill="#788b9c" d="M15,2v10H1V2h5c0.551,0,1,0.449,1,1h2c0-0.551,0.449-1,1-1H15 M16,1h-6C8.895,1,8,1.895,8,3v0v0 c0-1.105-0.895-2-2-2H0v12h16V1L16,1z"/><path fill="#e1ebf2" d="M8,12h7V2c0,0-4.441,0-5,0C9.441,2,9,2.453,9,3L8,3V12z"/><g><path fill="#f78f8f" d="M12 8.441L10.5 9.191 10.5 1.5 13.5 1.5 13.5 9.191z"/><path fill="#c74343" d="M13,2v6.382l-0.553-0.276L12,7.882l-0.447,0.224L11,8.382V2H13 M14,1h-4v9l2-1l2,1V1L14,1z"/></g></svg>