<svg xmlns="http://www.w3.org/2000/svg"  viewBox="0 0 80 80" width="80px" height="80px"><path fill="#f5ce85" d="M11.543 58.333L17.12 52.755 27.969 62.204 21.715 68.459 3.954 76.044z"/><path fill="#967a44" d="M17.143,53.439l10.093,8.791l-5.808,5.808L4.905,75.094l7.06-16.477L17.143,53.439 M17.096,52.072 l-5.975,5.975L3.003,76.994L22,68.881l6.702-6.702L17.096,52.072L17.096,52.072z"/><path fill="#36404d" d="M7.61 66.26L3.009 77 13.776 72.401z"/><path fill="#f78f8f" d="M59.418,10.43l4.828-4.828C65.602,4.247,67.404,3.5,69.321,3.5c1.916,0,3.719,0.747,5.074,2.102 c2.798,2.798,2.798,7.351,0,10.149l-4.828,4.828L59.418,10.43z"/><path fill="#c74343" d="M69.32,4c1.783,0,3.46,0.694,4.721,1.956c2.603,2.603,2.603,6.839,0,9.442l-4.475,4.475 l-9.442-9.442l4.474-4.475C65.86,4.694,67.537,4,69.32,4 M69.32,3c-1.965,0-3.929,0.749-5.428,2.248l-5.182,5.182l10.856,10.856 l5.182-5.182c2.998-2.998,2.998-7.858,0-10.856C73.25,3.749,71.285,3,69.32,3L69.32,3z"/><g><path fill="#ffeea3" d="M22.454,67.719c-0.091-0.484-0.291-1.039-0.707-1.526c-0.603-0.707-1.506-1.106-2.688-1.189 c-0.235-2.745-2.469-3.751-3.984-3.956c-0.179-2.132-1.599-3.062-2.874-3.373l43.906-43.933L66.256,23.89L22.454,67.719z"/><path fill="#ba9b48" d="M56.107,14.448l9.442,9.442L22.69,66.775c-0.132-0.307-0.314-0.615-0.562-0.907 c-0.62-0.727-1.498-1.169-2.62-1.321c-0.401-2.534-2.412-3.607-3.98-3.929c-0.264-1.727-1.298-2.684-2.402-3.163L56.107,14.448 M56.107,13.034L11.121,58.047c0,0,0.015-0.001,0.042-0.001c0.395,0,3.43,0.109,3.43,3.461c0,0,3.986,0.124,3.986,3.98 c3.964,0,3.421,3.394,3.421,3.394L66.963,23.89L56.107,13.034L56.107,13.034z"/></g><g><path fill="#d9e7f5" d="M57.714 9.029H69.87V23.381999999999998H57.714z" transform="rotate(-45.001 63.79 16.207)"/><path fill="#788b9c" d="M63.015,7.54l9.442,9.442l-7.888,7.888l-9.442-9.442L63.015,7.54 M63.015,6.126l-9.303,9.303 l10.856,10.856l9.303-9.303L63.015,6.126L63.015,6.126z"/></g></svg>