<svg xmlns="http://www.w3.org/2000/svg"  viewBox="0 0 40 40" width="40px" height="40px"><path fill="#8bb7f0" d="M19.5,37.5c-1.16,0-2.194-0.657-2.699-1.715L16.665,35.5H2c-0.827,0-1.5-0.673-1.5-1.5v-5.5h38V34 c0,0.827-0.673,1.5-1.5,1.5H22.335l-0.136,0.285C21.694,36.843,20.66,37.5,19.5,37.5z"/><path fill="#4e7ab5" d="M38,29v5c0,0.551-0.449,1-1,1H22.65H22.02l-0.272,0.569C21.326,36.452,20.465,37,19.5,37 s-1.826-0.548-2.248-1.431L16.98,35H16.35H2c-0.551,0-1-0.449-1-1v-5H38 M39,28H0v6c0,1.105,0.895,2,2,2h14.35 c0.563,1.179,1.756,2,3.15,2s2.587-0.821,3.15-2H37c1.105,0,2-0.895,2-2V28L39,28z"/><path fill="#fff" d="M19.45,35.5c-0.232-1.14-1.242-2-2.45-2H0.5v-30H16c1.93,0,3.5,1.57,3.5,3.5v28.5H19.45z"/><path fill="#788b9c" d="M16,4c1.654,0,3,1.346,3,3v26.766C18.469,33.29,17.768,33,17,33H1V4H16 M16,3H0v31h17 c1.105,0,2,0.895,2,2h1V7C20,4.791,18.209,3,16,3L16,3z"/><g><path fill="#e1ebf2" d="M19.5,35.5V7c0-1.93,1.57-3.5,3.5-3.5h15.5v30H22c-1.208,0-2.217,0.86-2.45,2H19.5z"/><path fill="#788b9c" d="M38,4v29H22c-0.768,0-1.469,0.29-2,0.766V7c0-1.654,1.346-3,3-3H38 M39,3H23c-2.209,0-4,1.791-4,4 v29h1c0-1.105,0.895-2,2-2h17V3L39,3z"/></g><g><path fill="#f78f8f" d="M26.052 3.5L33.121 3.5 33.121 24.928 29.586 22.571 26.052 24.928z"/><path fill="#c74343" d="M32.621,4v19.994l-2.48-1.653l-0.555-0.37l-0.555,0.37l-2.48,1.653V4H32.621 M33.621,3h-8.069 v22.862l4.034-2.69l4.034,2.69V3L33.621,3z"/></g></svg>