<svg xmlns="http://www.w3.org/2000/svg"  viewBox="0 0 80 80" width="80px" height="80px"><path fill="#8bb7f0" d="M40.5,74.5c-2.224,0-4.2-1.495-4.807-3.636L35.59,70.5H3c-0.827,0-1.5-0.673-1.5-1.5V55.5h78V69 c0,0.827-0.673,1.5-1.5,1.5H45.41l-0.103,0.364C44.7,73.005,42.724,74.5,40.5,74.5z"/><path fill="#4e7ab5" d="M79,56v13c0,0.551-0.449,1-1,1H45.788h-0.756l-0.206,0.727C44.28,72.654,42.501,74,40.5,74 s-3.78-1.346-4.325-3.273L35.969,70h-0.756H3c-0.551,0-1-0.449-1-1V56H79 M80,55H1v14c0,1.105,0.895,2,2,2h32.212 c0.654,2.307,2.771,4,5.288,4s4.634-1.693,5.288-4H78c1.105,0,2-0.895,2-2V55L80,55z"/><path fill="#fff" d="M40.472,71.5c-0.25-2.247-2.16-4-4.472-4H1.5v-61H33c4.136,0,7.5,3.364,7.5,7.5v57.5H40.472z"/><path fill="#788b9c" d="M33,7c3.86,0,7,3.14,7,7v55.003C39.087,67.788,37.634,67,36,67H2V7H33 M33,6H1v62h35 c2.209,0,4,1.791,4,4v0h1V14C41,9.582,37.418,6,33,6L33,6z"/><g><path fill="#e1ebf2" d="M40.5,71.5V14c0-4.136,3.364-7.5,7.5-7.5h31.5v61H45c-2.312,0-4.223,1.753-4.472,4H40.5z"/><path fill="#788b9c" d="M79,7v60H45c-1.634,0-3.087,0.788-4,2.003V14c0-3.86,3.14-7,7-7H79 M80,6H48c-4.418,0-8,3.582-8,8 v58h1v0c0-2.209,1.791-4,4-4h35V6L80,6z"/></g><g><path fill="#f78f8f" d="M58 41.535L52.5 45.957 52.5 6.5 63.5 6.5 63.5 45.957z"/><path fill="#c74343" d="M63,7v37.913l-4.373-3.516L58,40.893l-0.627,0.504L53,44.913V7H63 M64,6H52v41l6-4.824L64,47V6 L64,6z"/></g></svg>