<svg xmlns="http://www.w3.org/2000/svg"  viewBox="0 0 48 48" width="48px" height="48px"><linearGradient id="yTOJ6rWnKEl3fjxTg5ylTa" x1="20.786" x2="27.214" y1="5.774" y2="42.226" gradientUnits="userSpaceOnUse"><stop offset="0" stop-color="#fafafb"/><stop offset=".293" stop-color="#f6f7f8"/><stop offset=".566" stop-color="#ebecee"/><stop offset=".832" stop-color="#d8dcdf"/><stop offset="1" stop-color="#c8cdd1"/></linearGradient><path fill="url(#yTOJ6rWnKEl3fjxTg5ylTa)" d="M40.002,39.971L8.029,40.002L7.998,8.029l31.972-0.031L40.002,39.971z"/><linearGradient id="yTOJ6rWnKEl3fjxTg5ylTb" x1="20.439" x2="27.561" y1="3.806" y2="44.194" gradientUnits="userSpaceOnUse"><stop offset="0" stop-color="#33bef0"/><stop offset="1" stop-color="#22a5e2"/></linearGradient><path fill="url(#yTOJ6rWnKEl3fjxTg5ylTb)" d="M41.969,7.996C41.968,6.898,41.069,6,39.971,6c-0.001,0-0.001,0-0.002,0L7.996,6.031 C6.897,6.032,5.999,6.932,6,8.031l0.031,31.973C6.032,41.102,6.931,42,8.029,42c0.001,0,0.001,0,0.002,0l31.973-0.031 c1.099-0.001,1.997-0.901,1.996-2L41.969,7.996z M20,28v-8h8v8H20z M28,31v8h-8v-8H28z M17,28H9v-8h8V28z M31,20h8v8h-8V20z M39,17 h-8V9h8V17z M28,9v8h-8V9H28z M17,9v8H9V9H17z M9,31h8v8H9V31z M31,39v-8h8v8H31z"/></svg>