<?xml version="1.0" encoding="UTF-8" standalone="no"?>
<svg
   xmlns:osb="http://www.openswatchbook.org/uri/2009/osb"
   xmlns:dc="http://purl.org/dc/elements/1.1/"
   xmlns:cc="http://creativecommons.org/ns#"
   xmlns:rdf="http://www.w3.org/1999/02/22-rdf-syntax-ns#"
   xmlns:svg="http://www.w3.org/2000/svg"
   xmlns="http://www.w3.org/2000/svg"
   xmlns:xlink="http://www.w3.org/1999/xlink"
   xmlns:sodipodi="http://sodipodi.sourceforge.net/DTD/sodipodi-0.dtd"
   xmlns:inkscape="http://www.inkscape.org/namespaces/inkscape"
   viewBox="0 0 48 48"
   width="48px"
   height="48px"
   version="1.1"
   id="svg2245"
   sodipodi:docname="icons8-fluency-add-to-clipboard64x64.svg"
   inkscape:version="1.0.2-2 (e86c870879, 2021-01-15)">
  <metadata
     id="metadata2251">
    <rdf:RDF>
      <cc:Work
         rdf:about="">
        <dc:format>image/svg+xml</dc:format>
        <dc:type
           rdf:resource="http://purl.org/dc/dcmitype/StillImage" />
        <dc:title></dc:title>
      </cc:Work>
    </rdf:RDF>
  </metadata>
  <defs
     id="defs2249">
    <linearGradient
       id="linearGradient2818"
       osb:paint="solid">
      <stop
         style="stop-color:#ffffff;stop-opacity:1;"
         offset="0"
         id="stop2816" />
    </linearGradient>
    <linearGradient
       inkscape:collect="always"
       xlink:href="#linearGradient2818"
       id="linearGradient2820"
       x1="37"
       y1="38"
       x2="39"
       y2="38"
       gradientUnits="userSpaceOnUse" />
  </defs>
  <sodipodi:namedview
     pagecolor="#ffffff"
     bordercolor="#666666"
     borderopacity="1"
     objecttolerance="10"
     gridtolerance="10"
     guidetolerance="10"
     inkscape:pageopacity="0"
     inkscape:pageshadow="2"
     inkscape:window-width="1920"
     inkscape:window-height="976"
     id="namedview2247"
     showgrid="true"
     inkscape:snap-bbox="true"
     inkscape:bbox-paths="true"
     inkscape:bbox-nodes="true"
     inkscape:snap-bbox-edge-midpoints="true"
     inkscape:snap-bbox-midpoints="true"
     inkscape:snap-smooth-nodes="true"
     inkscape:snap-intersection-paths="true"
     inkscape:object-paths="false"
     inkscape:snap-midpoints="false"
     inkscape:object-nodes="true"
     inkscape:snap-nodes="true"
     inkscape:zoom="16.38656"
     inkscape:cx="26.132425"
     inkscape:cy="24.10284"
     inkscape:window-x="-8"
     inkscape:window-y="-8"
     inkscape:window-maximized="1"
     inkscape:current-layer="svg2245">
    <inkscape:grid
       type="xygrid"
       id="grid2814"
       spacingx="0.75"
       spacingy="0.75" />
  </sodipodi:namedview>
  <linearGradient
     id="GspqMBeEe8C9rSfYt5lqwa"
     x1="16.86"
     x2="29.576"
     y1="-637.533"
     y2="-677.546"
     gradientTransform="matrix(1.0546875,0,0,-1.0125,-0.93750002,-644.25001)"
     gradientUnits="userSpaceOnUse">
    <stop
       offset="0"
       stop-color="#c77740"
       id="stop2197" />
    <stop
       offset="1"
       stop-color="#b0622b"
       id="stop2199" />
  </linearGradient>
  <path
     fill="url(#GspqMBeEe8C9rSfYt5lqwa)"
     d="m 39.140625,3.75 h -12.65625 c 0,1.1188124 -0.943945,2.025 -2.109375,2.025 -1.16543,0 -2.109375,-0.9061876 -2.109375,-2.025 H 9.609375 C 8.4439454,3.75 7.5,4.6561874 7.5,5.775 v 36.45 c 0,1.118812 0.9439454,2.025 2.109375,2.025 h 29.53125 C 40.306055,44.25 41.25,43.343812 41.25,42.225 V 5.775 C 41.25,4.6561874 40.306055,3.75 39.140625,3.75 Z"
     id="path2202"
     style="fill:url(#GspqMBeEe8C9rSfYt5lqwa);stroke-width:1.03339" />
  <linearGradient
     id="GspqMBeEe8C9rSfYt5lqwb"
     x1="24"
     x2="24"
     y1="-672.966"
     y2="-676.893"
     gradientTransform="matrix(1.0089286,0,0,-1.05,-0.33928571,-669.9)"
     gradientUnits="userSpaceOnUse">
    <stop
       offset=".442"
       stop-color="#878786"
       id="stop2204" />
    <stop
       offset=".594"
       stop-color="#9f9f9e"
       id="stop2206" />
    <stop
       offset=".859"
       stop-color="#c3c3c3"
       id="stop2208" />
    <stop
       offset="1"
       stop-color="#d1d1d1"
       id="stop2210" />
  </linearGradient>
  <path
     fill="url(#GspqMBeEe8C9rSfYt5lqwb)"
     d="M 36.991071,42 H 10.758929 C 10.202,42 9.75,41.5296 9.75,40.95 V 31.5 H 38 v 9.45 C 38,41.5296 37.548,42 36.991071,42 Z"
     id="path2213"
     style="fill:url(#GspqMBeEe8C9rSfYt5lqwb);stroke-width:1.02925" />
  <path
     fill="#f3f3f3"
     d="M 37.955356,39.75 H 10.794644 C 10.218,39.75 9.75,39.305294 9.75,38.757353 V 6.9926471 C 9.75,6.4447059 10.218,6 10.794644,6 H 37.955356 C 38.532,6 39,6.4447059 39,6.9926471 V 38.757353 C 39,39.305294 38.532,39.75 37.955356,39.75 Z"
     id="path2215"
     style="stroke-width:1.0183" />
  <linearGradient
     id="GspqMBeEe8C9rSfYt5lqwc"
     x1="-1934.93"
     x2="-1933.046"
     y1="1534.928"
     y2="1527.091"
     gradientTransform="matrix(-0.96428572,0,0,1,-1840.9286,-1525.25)"
     gradientUnits="userSpaceOnUse">
    <stop
       offset="0"
       stop-color="#c3cdd9"
       id="stop2217" />
    <stop
       offset="1"
       stop-color="#9fa7b0"
       id="stop2219" />
  </linearGradient>
  <path
     fill="url(#GspqMBeEe8C9rSfYt5lqwc)"
     d="M 30.75,8 V 3.75 H 27 C 26.60175,2.587 25.257428,1.5 24,1.5 22.742572,1.5 21.39825,2.587 21,3.75 H 17.25 V 8 c 0,0.552 0.432,1 0.964286,1 H 29.785714 C 30.318,9 30.75,8.552 30.75,8 Z M 24,3.75 c 0.532286,0 0.964286,0.448 0.964286,1 0,0.552 -0.432,1 -0.964286,1 -0.532286,0 -0.964286,-0.448 -0.964286,-1 0,-0.552 0.432,-1 0.964286,-1 z"
     id="path2222"
     style="fill:url(#GspqMBeEe8C9rSfYt5lqwc);stroke-width:0.98198"
     sodipodi:nodetypes="sccsccsssssssss" />
  <path
     fill="#195bbc"
     d="M 33.2625,18 H 14.7375 C 14.4684,18 14.25,17.748 14.25,17.4375 v -1.125 c 0,-0.3105 0.2184,-0.5625 0.4875,-0.5625 h 18.525 c 0.2691,0 0.4875,0.252 0.4875,0.5625 v 1.125 C 33.75,17.748 33.5316,18 33.2625,18 Z"
     id="path2224"
     style="stroke-width:1.04732" />
  <path
     fill="#195bbc"
     d="M 29.507812,21.75 H 14.742188 C 14.4705,21.75 14.25,21.498 14.25,21.1875 v -1.125 C 14.25,19.752 14.4705,19.5 14.742188,19.5 H 29.507812 C 29.7795,19.5 30,19.752 30,20.0625 v 1.125 C 30,21.498 29.7795,21.75 29.507812,21.75 Z"
     id="path2226"
     style="stroke-width:1.05234" />
  <path
     fill="#195bbc"
     d="m 33.2625,26.25 h -18.525 c -0.2691,0 -0.4875,-0.252 -0.4875,-0.5625 v -1.125 C 14.25,24.252 14.4684,24 14.7375,24 h 18.525 c 0.2691,0 0.4875,0.252 0.4875,0.5625 v 1.125 c 0,0.3105 -0.2184,0.5625 -0.4875,0.5625 z"
     id="path2228"
     style="stroke-width:1.04732" />
  <path
     fill="#195bbc"
     d="m 33.2625,33.75 h -18.525 c -0.2691,0 -0.4875,-0.252 -0.4875,-0.5625 v -1.125 C 14.25,31.752 14.4684,31.5 14.7375,31.5 h 18.525 c 0.2691,0 0.4875,0.252 0.4875,0.5625 v 1.125 c 0,0.3105 -0.2184,0.5625 -0.4875,0.5625 z"
     id="path2230"
     style="stroke-width:1.04732" />
  <path
     fill="#195bbc"
     d="M 29.507812,30 H 14.742188 C 14.4705,30 14.25,29.748 14.25,29.4375 v -1.125 c 0,-0.3105 0.2205,-0.5625 0.492188,-0.5625 H 29.507812 C 29.7795,27.75 30,28.002 30,28.3125 v 1.125 C 30,29.748 29.7795,30 29.507812,30 Z"
     id="path2232"
     style="stroke-width:1.05234" />
  <linearGradient
     id="GspqMBeEe8C9rSfYt5lqwd"
     x1="28"
     x2="48"
     y1="-600"
     y2="-600"
     gradientTransform="matrix(1.0125,0,0,-1.0125,-0.6,-569.625)"
     gradientUnits="userSpaceOnUse">
    <stop
       offset="0"
       stop-color="#21ad64"
       id="stop2234" />
    <stop
       offset="1"
       stop-color="#088242"
       id="stop2236" />
  </linearGradient>
  <circle
     cx="37.875"
     cy="37.875"
     fill="url(#GspqMBeEe8C9rSfYt5lqwd)"
     id="circle2239"
     style="fill:url(#GspqMBeEe8C9rSfYt5lqwd);stroke-width:1.0125"
     r="10.125" />
  <path
     fill="#fff"
     d="M38.5,43h-1c-0.276,0-0.5-0.224-0.5-0.5v-9c0-0.276,0.224-0.5,0.5-0.5h1c0.276,0,0.5,0.224,0.5,0.5v9 C39,42.776,38.776,43,38.5,43z"
     id="path2241"
     style="fill-opacity:1;fill:url(#linearGradient2820)" />
  <path
     fill="#ffffff"
     d="m 33,38.4375 v -1.125 C 33,37.002 33.224,36.75 33.5,36.75 h 9 c 0.276,0 0.5,0.252 0.5,0.5625 v 1.125 C 43,38.748 42.776,39 42.5,39 h -9 C 33.224,39 33,38.748 33,38.4375 Z"
     id="path2243"
     style="stroke-width:1.06066" />
</svg>
