<svg width="360" height="60" fill="none" xmlns="http://www.w3.org/2000/svg"><path d="M14 8c0-1.5-1.6-3-3.5-3H5v12h6.3c1.7 0 3.2-1.7 3.2-3.5 0-1.3-.9-2.5-2-3 .8-.6 1.5-1 1.5-2.5zM7.5 7H10a1.5 1.5 0 010 3H7.5V7zm3 8h-3v-3h3a1.5 1.5 0 110 3zM32 5v2h2.6l-3.7 8H28v2h8v-2h-2.6l3.7-8H40V5h-8zM50.2 13.8c.5.4 1 .7 1.6.9l.7-1.8a4.1 4.1 0 114-.8l1.2 1.4a6 6 0 10-7.5.3z" fill="#535A60"/><path d="M53.6 8.2a6 6 0 00-1.6-.8L51.4 9a4.1 4.1 0 11-4 .8L46 8.4a6 6 0 107.5-.2zM63 7c0-1.1.9-2 2-2h3a2 2 0 012 2v7l-1.8 3H66l1.8-3H65a2 2 0 01-2-2V7zM71 7c0-1.1.9-2 2-2h3a2 2 0 012 2v7l-1.8 3H74l1.8-3H73a2 2 0 01-2-2V7zM103 5c0-1.1.9-2 2-2h12a2 2 0 012 2v12a2 2 0 01-2 2h-12a2 2 0 01-2-2V5zm4.5 7.5L104 17h14l-4.5-6-3.5 4.5-2.5-3zm0-4.5a1.5 1.5 0 100-3 1.5 1.5 0 000 3zM184 10h14v2h-14v-2z" fill="#535A60"/><path opacity=".4" d="M184 4h14v1h-14V4zm0 3h14v1h-14V7zm0 7h14v1h-14v-1zm0 3h14v1h-14v-1z" fill="#535A60"/><path d="M251 3a8 8 0 100 16 8 8 0 000-16zm.8 12.1c0 .7-.5 1.2-1.2 1.2s-1.2-.5-1.2-1.2c0-.8.6-1.2 1.2-1.2.7 0 1.2.5 1.2 1.2zm2-5.1l-1 1-.6.3-.5.7v.7s-.1.2-.3.2H250c-.2 0-.2-.1-.2-.2 0-.6.1-1.2.4-1.6.4-.5.9-1 1.4-1.3.2 0 .3-.2.4-.3a1.3 1.3 0 000-1.8c-.2-.3-.5-.4-1-.4s-.8.3-1 .6c-.2.3-.2.7-.2 1h-2c0-1.3.4-2.2 1.2-2.7.5-.3 1.1-.5 1.9-.5 1 0 1.8.2 2.5.7.6.5 1 1.2 1 2.2 0 .5-.3 1-.5 1.4z" fill="#535A60"/><path fill-rule="evenodd" clip-rule="evenodd" d="M262 5c0-1.1.9-2 2-2h10l4 4v10a2 2 0 01-2 2h-12a2 2 0 01-2-2V5zm9.7 2l-1.4 1.4 2.6 2.6-2.6 2.6 1.4 1.4 4-4-4-4zm-2 1.4L268.3 7l-4 4 4 4 1.4-1.4-2.6-2.6 2.6-2.6zM230 3a8 8 0 015.6 2.3L238 3v7h-7l3.2-3.2A6 6 0 00230 5a6 6 0 000 12v2a8 8 0 110-16z" fill="#535A60"/><path fill="#535A60" d="M163 4h14v2h-14zM165 7h10v2h-10z"/><path opacity=".4" fill="#535A60" d="M163 11h14v1h-14zM165 14h10v1h-10zM163 17h14v1h-14z"/><path d="M87 9.5V7.2c0-1 .8-1.4 2-1.4V4c-2.5 0-4 1-4 3.1v2.1c0 .4-.3.8-.8.8H83v2h1.2c.5 0 .8.4.8.8v2c0 2.2 1.5 3.2 4 3.2v-1.8c-1.2 0-2-.4-2-1.4v-2.3c0-.9-.7-1.4-1.1-1.5.4-.1 1.1-.6 1.1-1.5zM94 9.5V7.2c0-1-.8-1.4-2-1.4V4c2.5 0 4 1 4 3.1v2.1c0 .4.3.8.8.8H98v2h-1.2c-.5 0-.8.4-.8.8v2c0 2.2-1.5 3.2-4 3.2v-1.8c1.2 0 2-.4 2-1.4v-2.3c0-.9.7-1.4 1.1-1.5-.4-.1-1.1-.6-1.1-1.5z" fill="#535A60"/><path fill-rule="evenodd" clip-rule="evenodd" d="M124 8h1V4h-2v1h1v3zm.8 2H123V9h3v.9l-1.8 2.1h1.8v1h-3v-.9l1.8-2.1zm-1.8 5v-1h3v4h-3v-1h2v-.5h-1v-1h1V15h-2zm5-8V5h9v2h-9zm0 10h9v-2h-9v2zm9-5h-9v-2h9v2z" fill="#535A60"/><path d="M146.3 6a1.3 1.3 0 11-2.6 0 1.3 1.3 0 012.6 0zM157 7h-9V5h9v2zM157 17h-9v-2h9v2zM148 12h9v-2h-9v2zM146.3 16a1.3 1.3 0 11-2.6 0 1.3 1.3 0 012.6 0zM145 12.3a1.3 1.3 0 100-2.6 1.3 1.3 0 000 2.6z" fill="#535A60"/><path fill-rule="evenodd" clip-rule="evenodd" d="M210 3a8 8 0 00-5.6 2.3L202 3v7h7l-3.2-3.2A6 6 0 01210 5a6 6 0 010 12v2a8 8 0 100-16z" fill="#535A60"/><path d="M14 28c0-1.5-1.6-3-3.5-3H5v12h6.3c1.7 0 3.2-1.7 3.2-3.5 0-1.3-.9-2.5-2-3 .8-.6 1.5-1 1.5-2.5zm-6.5-1H10a1.5 1.5 0 110 3H7.5v-3zm3 8h-3v-3h3a1.5 1.5 0 110 3zM32 25v2h2.6l-3.7 8H28v2h8v-2h-2.6l3.7-8H40v-2h-8zM50.2 33.8c.5.4 1 .7 1.6.9l.7-1.8a4.1 4.1 0 114-.8l1.2 1.4a6 6 0 10-7.5.3z" fill="#C8CCD0"/><path d="M53.6 28.2a6 6 0 00-1.6-.8l-.6 1.7a4.1 4.1 0 11-4 .8L46 28.4a6 6 0 107.5-.2zM63 27c0-1.1.9-2 2-2h3a2 2 0 012 2v7l-1.8 3H66l1.8-3H65a2 2 0 01-2-2v-5zM71 27c0-1.1.9-2 2-2h3a2 2 0 012 2v7l-1.8 3H74l1.8-3H73a2 2 0 01-2-2v-5zM103 25c0-1.1.9-2 2-2h12a2 2 0 012 2v12a2 2 0 01-2 2h-12a2 2 0 01-2-2V25zm4.5 7.5L104 37h14l-4.5-6-3.5 4.5-2.5-3zm0-4.5a1.5 1.5 0 100-3 1.5 1.5 0 000 3zM184 30h14v2h-14v-2z" fill="#C8CCD0"/><path opacity=".4" d="M184 24h14v1h-14v-1zm0 3h14v1h-14v-1zm0 7h14v1h-14v-1zm0 3h14v1h-14v-1z" fill="#C8CCD0"/><path d="M251 23a8 8 0 100 16 8 8 0 000-16zm.8 12.1c0 .7-.5 1.2-1.2 1.2s-1.2-.5-1.2-1.2c0-.8.6-1.2 1.2-1.2.7 0 1.2.5 1.2 1.2zm2-5.1l-1 1-.6.3-.5.7v.7s-.1.2-.3.2H250c-.2 0-.2-.1-.2-.2 0-.6.1-1.2.4-1.6.4-.5.9-1 1.4-1.3.2 0 .3-.2.4-.3a1.3 1.3 0 000-1.8c-.2-.3-.5-.4-1-.4s-.8.3-1 .6c-.2.3-.2.7-.2 1h-2c0-1.3.4-2.2 1.2-2.7.5-.3 1.1-.5 1.9-.5 1 0 1.8.2 2.5.7.6.5 1 1.2 1 2.2 0 .5-.3 1-.5 1.4z" fill="#C8CCD0"/><path fill-rule="evenodd" clip-rule="evenodd" d="M262 25c0-1.1.9-2 2-2h10l4 4v10a2 2 0 01-2 2h-12a2 2 0 01-2-2V25zm9.7 2l-1.4 1.4 2.6 2.6-2.6 2.6 1.4 1.4 4-4-4-4zm-2 1.4l-1.4-1.4-4 4 4 4 1.4-1.4-2.6-2.6 2.6-2.6zM230 23a8 8 0 015.6 2.4L238 23v7h-7l3.2-3.2A6 6 0 00230 25a6 6 0 000 12v2a8 8 0 110-16z" fill="#C8CCD0"/><path fill="#C8CCD0" d="M163 24h14v2h-14zM165 27h10v2h-10z"/><path opacity=".4" fill="#C8CCD0" d="M163 31h14v1h-14zM165 34h10v1h-10zM163 37h14v1h-14z"/><path d="M87 29.5v-2.3c0-1 .8-1.4 2-1.4V24c-2.5 0-4 1-4 3.1v2.1c0 .4-.3.8-.8.8H83v2h1.2c.5 0 .8.4.8.8v2c0 2.2 1.5 3.2 4 3.2v-1.8c-1.2 0-2-.4-2-1.4v-2.3c0-.9-.7-1.4-1.1-1.5.4-.1 1.1-.6 1.1-1.5zM94 29.5v-2.3c0-1-.8-1.4-2-1.4V24c2.5 0 4 1 4 3.1v2.1c0 .4.3.8.8.8H98v2h-1.2c-.5 0-.8.4-.8.8v2c0 2.2-1.5 3.2-4 3.2v-1.8c1.2 0 2-.4 2-1.4v-2.3c0-.9.7-1.4 1.1-1.5-.4-.1-1.1-.6-1.1-1.5z" fill="#C8CCD0"/><path fill-rule="evenodd" clip-rule="evenodd" d="M124 28h1v-4h-2v1h1v3zm.8 2H123v-1h3v.9l-1.8 2.1h1.8v1h-3v-.9l1.8-2.1zm-1.8 5v-1h3v4h-3v-1h2v-.5h-1v-1h1V35h-2zm5-8v-2h9v2h-9zm0 10h9v-2h-9v2zm9-5h-9v-2h9v2z" fill="#C8CCD0"/><path d="M146.3 26a1.3 1.3 0 11-2.6 0 1.3 1.3 0 012.6 0zM157 27h-9v-2h9v2zM157 37h-9v-2h9v2zM148 32h9v-2h-9v2zM146.3 36a1.3 1.3 0 11-2.6 0 1.3 1.3 0 012.6 0zM145 32.3a1.3 1.3 0 100-2.6 1.3 1.3 0 000 2.6z" fill="#C8CCD0"/><path fill-rule="evenodd" clip-rule="evenodd" d="M210 23a8 8 0 00-5.6 2.4L202 23v7h7l-3.2-3.2A6 6 0 01210 25a6 6 0 010 12v2a8 8 0 100-16z" fill="#C8CCD0"/><path d="M14 48c0-1.5-1.6-3-3.5-3H5v12h6.3c1.7 0 3.2-1.7 3.2-3.5 0-1.3-.9-2.5-2-3 .8-.6 1.5-1 1.5-2.5zm-6.5-1H10a1.5 1.5 0 110 3H7.5v-3zm3 8h-3v-3h3a1.5 1.5 0 110 3zM32 45v2h2.6l-3.7 8H28v2h8v-2h-2.6l3.7-8H40v-2h-8zM50.2 53.8c.5.4 1 .7 1.6.9l.7-1.8a4.1 4.1 0 114-.8l1.2 1.4a6 6 0 10-7.5.3z" fill="#0C0D0E"/><path d="M53.6 48.2a6 6 0 00-1.6-.8l-.6 1.7a4.1 4.1 0 11-4 .8L46 48.4a6 6 0 107.5-.2zM63 47c0-1.1.9-2 2-2h3a2 2 0 012 2v7l-1.8 3H66l1.8-3H65a2 2 0 01-2-2v-5zM71 47c0-1.1.9-2 2-2h3a2 2 0 012 2v7l-1.8 3H74l1.8-3H73a2 2 0 01-2-2v-5zM103 45c0-1.1.9-2 2-2h12a2 2 0 012 2v12a2 2 0 01-2 2h-12a2 2 0 01-2-2V45zm4.5 7.5L104 57h14l-4.5-6-3.5 4.5-2.5-3zm0-4.5a1.5 1.5 0 100-3 1.5 1.5 0 000 3zM184 50h14v2h-14v-2z" fill="#0C0D0E"/><path opacity=".4" d="M184 44h14v1h-14v-1zm0 3h14v1h-14v-1zm0 7h14v1h-14v-1zm0 3h14v1h-14v-1z" fill="#0C0D0E"/><path d="M251 43a8 8 0 100 16 8 8 0 000-16zm.8 12.1c0 .7-.5 1.2-1.2 1.2s-1.2-.5-1.2-1.2c0-.8.6-1.2 1.2-1.2.7 0 1.2.5 1.2 1.2zm2-5.1l-1 1-.6.3-.5.7v.7s-.1.2-.3.2H250c-.2 0-.2-.1-.2-.2 0-.6.1-1.2.4-1.6.4-.5.9-1 1.4-1.3.2 0 .3-.2.4-.3a1.3 1.3 0 000-1.8c-.2-.3-.5-.4-1-.4s-.8.3-1 .6c-.2.3-.2.7-.2 1h-2c0-1.3.4-2.2 1.2-2.7.5-.3 1.1-.5 1.9-.5 1 0 1.8.2 2.5.7.6.5 1 1.2 1 2.2 0 .5-.3 1-.5 1.4z" fill="#0C0D0E"/><path fill-rule="evenodd" clip-rule="evenodd" d="M262 45c0-1.1.9-2 2-2h10l4 4v10a2 2 0 01-2 2h-12a2 2 0 01-2-2V45zm9.7 2l-1.4 1.4 2.6 2.6-2.6 2.6 1.4 1.4 4-4-4-4zm-2 1.4l-1.4-1.4-4 4 4 4 1.4-1.4-2.6-2.6 2.6-2.6zM230 43a8 8 0 015.6 2.4L238 43v7h-7l3.2-3.2A6 6 0 00230 45a6 6 0 000 12v2a8 8 0 110-16z" fill="#0C0D0E"/><path fill="#0C0D0E" d="M163 44h14v2h-14zM165 47h10v2h-10z"/><path opacity=".4" fill="#0C0D0E" d="M163 51h14v1h-14zM165 54h10v1h-10zM163 57h14v1h-14z"/><path d="M87 49.5v-2.3c0-1 .8-1.4 2-1.4V44c-2.5 0-4 1-4 3.1v2.1c0 .4-.3.8-.8.8H83v2h1.2c.5 0 .8.4.8.8v2c0 2.2 1.5 3.2 4 3.2v-1.8c-1.2 0-2-.4-2-1.4v-2.3c0-.9-.7-1.4-1.1-1.5.4-.1 1.1-.6 1.1-1.5zM94 49.5v-2.3c0-1-.8-1.4-2-1.4V44c2.5 0 4 1 4 3.1v2.1c0 .4.3.8.8.8H98v2h-1.2c-.5 0-.8.4-.8.8v2c0 2.2-1.5 3.2-4 3.2v-1.8c1.2 0 2-.4 2-1.4v-2.3c0-.9.7-1.4 1.1-1.5-.4-.1-1.1-.6-1.1-1.5z" fill="#0C0D0E"/><path fill-rule="evenodd" clip-rule="evenodd" d="M124 48h1v-4h-2v1h1v3zm.8 2H123v-1h3v.9l-1.8 2.1h1.8v1h-3v-.9l1.8-2.1zm-1.8 5v-1h3v4h-3v-1h2v-.5h-1v-1h1V55h-2zm5-8v-2h9v2h-9zm0 10h9v-2h-9v2zm9-5h-9v-2h9v2z" fill="#0C0D0E"/><path d="M146.3 46a1.3 1.3 0 11-2.6 0 1.3 1.3 0 012.6 0zM157 47h-9v-2h9v2zM157 57h-9v-2h9v2zM148 52h9v-2h-9v2zM146.3 56a1.3 1.3 0 11-2.6 0 1.3 1.3 0 012.6 0zM145 52.3a1.3 1.3 0 100-2.6 1.3 1.3 0 000 2.5z" fill="#0C0D0E"/><path fill-rule="evenodd" clip-rule="evenodd" d="M210 43a8 8 0 00-5.6 2.4L202 43v7h7l-3.2-3.2A6 6 0 01210 45a6 6 0 010 12v2a8 8 0 100-16z" fill="#0C0D0E"/><path d="M295.5 18h-3.1l-5.4-7.6c-.8.5-1.3 1.4-1.4 2.8L285 18h-2.6l.5-4.8c.3-2.3 1.2-3.8 2.8-4.6L282.4 4h3.1l4.5 6.3.9-.8.5-1.2.6-4.3h2.6l-.3 2.9a8.2 8.2 0 01-1 3.1c-.3.8-1 1.5-2 2l4.2 6z" fill="#535A60"/><path d="M295.5 38h-3.1l-5.4-7.6c-.8.5-1.3 1.4-1.4 2.8L285 38h-2.6l.5-4.8c.3-2.3 1.2-3.8 2.8-4.6l-3.3-4.6h3.1l4.5 6.3.9-.8.5-1.2.6-4.3h2.6l-.3 2.9a8.2 8.2 0 01-1 3.1c-.3.8-1 1.5-2 2l4.2 6z" fill="#C8CCD0"/><path d="M295.5 58h-3.1l-5.4-7.6c-.8.5-1.3 1.4-1.4 2.8L285 58h-2.6l.5-4.8c.3-2.3 1.2-3.8 2.8-4.6l-3.3-4.6h3.1l4.5 6.3.9-.8.5-1.2.6-4.3h2.6l-.3 2.9a8.2 8.2 0 01-1 3.1c-.3.8-1 1.5-2 2l4.2 6z" fill="#0C0D0E"/><path fill-rule="evenodd" clip-rule="evenodd" d="M303 3a2 2 0 00-2 2v12c0 1.1.9 2 2 2h12a2 2 0 002-2V5a2 2 0 00-2-2h-12zm12 2h-12v3h12V5zm-12 5h3v7h-3v-7zm12 0h-7v7h7v-7z" fill="#535A60"/><path fill-rule="evenodd" clip-rule="evenodd" d="M303 43a2 2 0 00-2 2v12c0 1.1.9 2 2 2h12a2 2 0 002-2V45a2 2 0 00-2-2h-12zm12 2h-12v3h12v-3zm-12 5h3v7h-3v-7zm12 0h-7v7h7v-7z" fill="#0C0D0E"/><path fill-rule="evenodd" clip-rule="evenodd" d="M303 23a2 2 0 00-2 2v12c0 1.1.9 2 2 2h12a2 2 0 002-2V25a2 2 0 00-2-2h-12zm12 2h-12v3h12v-3zm-12 5h3v7h-3v-7zm12 0h-7v7h7v-7z" fill="#C8CCD0"/><path fill-rule="evenodd" clip-rule="evenodd" d="M327 2h-2v2h-2a2 2 0 00-2 2v10c0 1.1.9 2 2 2h4.2l2.4 1.8 2.9-2.9 1 1.1h1.5a2 2 0 002-2V6a2 2 0 00-2-2h-4V2l-4 3V2zm0 3l4 3V6h4v5h-5V9h-2v6h2v-2h5v3h-.6l-1.9-2-3 3.2-1.7-1.2H323v-3h2v2h2V9h-2v2h-2V6h2v2h2V5z" fill="#535A60"/><path fill-rule="evenodd" clip-rule="evenodd" d="M327 22h-2v2h-2a2 2 0 00-2 2v10c0 1.1.9 2 2 2h4.2l2.4 1.8 2.9-2.9 1 1.1h1.5a2 2 0 002-2V26a2 2 0 00-2-2h-4v-2l-4 3v-3zm0 3l4 3v-2h4v5h-5v-2h-2v6h2v-2h5v3h-.6l-1.9-2-3 3.2-1.7-1.2H323v-3h2v2h2v-6h-2v2h-2v-5h2v2h2v-3z" fill="#C8CCD0"/><path fill-rule="evenodd" clip-rule="evenodd" d="M327 42h-2v2h-2a2 2 0 00-2 2v10c0 1.1.9 2 2 2h4.2l2.4 1.8 2.9-2.9 1 1.1h1.5a2 2 0 002-2V46a2 2 0 00-2-2h-4v-2l-4 3v-3zm0 3l4 3v-2h4v5h-5v-2h-2v6h2v-2h5v3h-.6l-1.9-2-3 3.2-1.7-1.2H323v-3h2v2h2v-6h-2v2h-2v-5h2v2h2v-3z" fill="#0C0D0E"/><path fill-rule="evenodd" clip-rule="evenodd" d="M341 5c0-1.1.9-2 2-2h12a2 2 0 012 2v8a2 2 0 01-2 2h-1v4l-4-4h-7a2 2 0 01-2-2V5zm3.9 4c0-1.2 1-2.1 2.1-2.1h1V5h-1a4 4 0 100 8h1v-1.9h-1c-1.2 0-2.1-1-2.1-2.1zm6.1-4h-1v1.9h1a2.1 2.1 0 110 4.2h-1V13h1a4 4 0 100-8zm0 5h-4V8h4v2z" fill="#535A60"/><path fill-rule="evenodd" clip-rule="evenodd" d="M341 25c0-1.1.9-2 2-2h12a2 2 0 012 2v8a2 2 0 01-2 2h-1v4l-4-4h-7a2 2 0 01-2-2v-8zm3.9 4c0-1.2 1-2.1 2.1-2.1h1V25h-1a4 4 0 100 8h1v-1.9h-1c-1.2 0-2.1-1-2.1-2.1zm6.1-4h-1v1.9h1a2.1 2.1 0 110 4.2h-1V33h1a4 4 0 100-8zm0 5h-4v-2h4v2z" fill="#C8CCD0"/><path fill-rule="evenodd" clip-rule="evenodd" d="M341 45c0-1.1.9-2 2-2h12a2 2 0 012 2v8a2 2 0 01-2 2h-1v4l-4-4h-7a2 2 0 01-2-2v-8zm3.9 4c0-1.2 1-2.1 2.1-2.1h1V45h-1a4 4 0 100 8h1v-1.9h-1c-1.2 0-2.1-1-2.1-2.1zm6.1-4h-1v1.9h1a2.1 2.1 0 110 4.2h-1V53h1a4 4 0 100-8zm0 5h-4v-2h4v2z" fill="#0C0D0E"/></svg>